<svg width="57" height="57" viewBox="0 0 57 57" fill="none" xmlns="http://www.w3.org/2000/svg">
<circle cx="28.5" cy="28.5" r="4.5" fill="#FFC700"/>
<path d="M56.5 28.5C56.5 29.7011 55.8198 30.9129 54.4378 32.0799C53.058 33.2449 51.0319 34.3166 48.4844 35.2264C43.3938 37.0445 36.3283 38.1786 28.5 38.1786C20.6717 38.1786 13.6062 37.0445 8.51562 35.2264C5.96814 34.3166 3.94198 33.2449 2.56225 32.0799C1.18019 30.9129 0.5 29.7011 0.5 28.5C0.5 27.2989 1.18019 26.087 2.56225 24.9201C3.94198 23.755 5.96814 22.6833 8.51562 21.7735C13.6062 19.9554 20.6717 18.8214 28.5 18.8214C36.3283 18.8214 43.3938 19.9554 48.4844 21.7735C51.0319 22.6833 53.058 23.755 54.4378 24.9201C55.8198 26.087 56.5 27.2989 56.5 28.5Z" stroke="#FFC700"/>
<path d="M48.299 8.701C49.1483 9.55032 49.5243 10.8882 49.3722 12.6906C49.2204 14.49 48.5454 16.6806 47.3874 19.1252C45.0734 24.0104 40.8792 29.8084 35.3438 35.3438C29.8084 40.8792 24.0105 45.0734 19.1253 47.3874C16.6806 48.5454 14.4901 49.2203 12.6907 49.3721C10.8882 49.5242 9.55035 49.1483 8.70104 48.299C7.85172 47.4497 7.47579 46.1118 7.62787 44.3094C7.7797 42.5099 8.4546 40.3194 9.61261 37.8748C11.9266 32.9896 16.1208 27.1916 21.6562 21.6562C27.1917 16.1208 32.9896 11.9266 37.8748 9.61258C40.3195 8.45457 42.51 7.77966 44.3094 7.62784C46.1118 7.47576 47.4497 7.85169 48.299 8.701Z" stroke="#FFC700"/>
<path d="M8.701 8.70101C9.55032 7.8517 10.8882 7.47577 12.6906 7.62785C14.49 7.77967 16.6806 8.45458 19.1252 9.61259C24.0104 11.9266 29.8084 16.1208 35.3438 21.6562C40.8792 27.1916 45.0734 32.9896 47.3874 37.8748C48.5454 40.3194 49.2203 42.51 49.3721 44.3094C49.5242 46.1118 49.1483 47.4497 48.299 48.299C47.4497 49.1483 46.1118 49.5242 44.3094 49.3722C42.5099 49.2203 40.3194 48.5454 37.8748 47.3874C32.9896 45.0734 27.1916 40.8792 21.6562 35.3438C16.1208 29.8084 11.9266 24.0104 9.61258 19.1252C8.45457 16.6806 7.77966 14.4901 7.62784 12.6906C7.47576 10.8882 7.85169 9.55033 8.701 8.70101Z" stroke="#FFC700"/>
<path d="M28.5 56.5C27.2989 56.5 26.0871 55.8198 24.9201 54.4378C23.7551 53.058 22.6834 51.0319 21.7736 48.4844C19.9555 43.3938 18.8214 36.3283 18.8214 28.5C18.8214 20.6717 19.9555 13.6062 21.7736 8.51563C22.6834 5.96814 23.7551 3.94198 24.9201 2.56225C26.0871 1.18019 27.2989 0.5 28.5 0.5C29.7011 0.5 30.913 1.18019 32.0799 2.56225C33.245 3.94198 34.3167 5.96814 35.2265 8.51563C37.0446 13.6062 38.1786 20.6717 38.1786 28.5C38.1786 36.3283 37.0446 43.3938 35.2265 48.4844C34.3167 51.0319 33.245 53.058 32.08 54.4378C30.913 55.8198 29.7011 56.5 28.5 56.5Z" stroke="#FFC700"/>
</svg>
