<svg width="106" height="35" viewBox="0 0 106 35" fill="none" xmlns="http://www.w3.org/2000/svg">
<g clip-path="url(#clip0_134_86)">
<path d="M28.0421 16.5011C30.7073 14.9813 32.0177 12.6715 32.0177 9.61682C32.0177 3.734 27.78 0 21.3517 0H0V3.84975H10.577L10.572 3.85478L21.1441 3.78433C25.1741 3.78433 27.7306 6.04385 27.7306 9.61682C27.7306 13.0338 25.1197 15.2933 21.1985 15.2933H0.27691V18.8663H23.1863C27.419 18.8663 29.8766 21.3875 29.8766 25.1215C29.8766 28.9058 27.2064 31.0597 23.1863 31.0597L10.5819 30.9741V30.9691H0.00494482V34.844H22.8698C30.0348 34.844 34.1638 30.803 34.1638 25.0712C34.1638 20.8692 31.8644 17.7642 28.047 16.5061L28.0421 16.5011Z" fill="white"/>
<path d="M52.3176 0H38.1458V3.84975L42.5714 3.89001L42.5664 3.89504H52.0506C60.887 3.89504 65.5401 8.88713 65.5401 17.4522C65.5401 26.1229 60.9958 30.959 52.0506 30.959H42.5664L38.1458 30.9691V34.844H52.2632C63.7154 34.844 69.8322 28.3271 69.8322 17.4522C69.8322 7.156 63.9182 0.00503235 52.3176 0.00503235V0Z" fill="white"/>
<path d="M74.3122 17.6084C74.3122 28.4834 80.4289 35.0002 91.8811 35.0002H105.999V31.1253L101.578 31.1153H92.0938C83.1486 31.1153 78.6043 26.2792 78.6043 17.6084C78.6043 9.04338 83.2574 4.05129 92.0938 4.05129H101.578V4.04626L106.004 4.006V0.15625H91.8317C80.2262 0.15625 74.3171 7.30219 74.3171 17.6034L74.3122 17.6084Z" fill="white"/>
<path d="M54.0236 17.2862C54.0236 19.3545 52.372 21.0353 50.3397 21.0353C48.3074 21.0353 46.6558 19.3545 46.6558 17.2862C46.6558 15.2179 48.3074 13.5371 50.3397 13.5371C52.372 13.5371 54.0236 15.2129 54.0236 17.2862Z" fill="white"/>
<path d="M96.465 17.2862C96.465 19.3545 94.8184 21.0353 92.7811 21.0353C90.7488 21.0353 89.0972 19.3545 89.0972 17.2862C89.0972 15.2179 90.7438 13.5371 92.7811 13.5371C94.8134 13.5371 96.465 15.2129 96.465 17.2862Z" fill="white"/>
</g>
<defs>
<clipPath id="clip0_134_86">
<rect width="106" height="35" fill="white"/>
</clipPath>
</defs>
</svg>
