<svg width="107" height="36" viewBox="0 0 107 36" fill="none" xmlns="http://www.w3.org/2000/svg">
<g clip-path="url(#clip0_117_72)">
<path d="M28.3066 16.9725C30.997 15.4093 32.3198 13.0335 32.3198 9.89159C32.3198 3.84069 28.0421 0 21.5532 0H0V3.95974H10.6768L10.6718 3.96492L21.3435 3.89245C25.4116 3.89245 27.9922 6.21654 27.9922 9.89159C27.9922 13.4062 25.3567 15.7303 21.3984 15.7303H0.279522V19.4053H23.405C27.6777 19.4053 30.1585 21.9986 30.1585 25.8393C30.1585 29.7317 27.4631 31.9471 23.405 31.9471L10.6817 31.8591V31.8539H0.00499147V35.8395H23.0856C30.3182 35.8395 34.4861 31.6831 34.4861 25.7875C34.4861 21.4654 32.165 18.2717 28.3116 16.9777L28.3066 16.9725Z" fill="#282829"/>
<path d="M52.8112 0H38.5056V3.95974L42.973 4.00115L42.968 4.00633H52.5416C61.4614 4.00633 66.1584 9.14105 66.1584 17.9508C66.1584 26.8693 61.5712 31.8436 52.5416 31.8436H42.968L38.5056 31.8539V35.8395H52.7563C64.3165 35.8395 70.491 29.1364 70.491 17.9508C70.491 7.36046 64.5212 0.00517613 52.8112 0.00517613V0Z" fill="#282829"/>
<path d="M75.0132 18.1113C75.0132 29.2969 81.1876 36 92.7479 36H106.999V32.0144L102.536 32.004H92.9625C83.9329 32.004 79.3458 27.0298 79.3458 18.1113C79.3458 9.30151 84.0428 4.16679 92.9625 4.16679H102.536V4.16161L107.004 4.1202V0.160461H92.698C80.983 0.160461 75.0182 7.51057 75.0182 18.1061L75.0132 18.1113Z" fill="#282829"/>
<path d="M54.5332 17.78C54.5332 19.9074 52.8661 21.6362 50.8146 21.6362C48.7631 21.6362 47.0959 19.9074 47.0959 17.78C47.0959 15.6526 48.7631 13.9238 50.8146 13.9238C52.8661 13.9238 54.5332 15.6474 54.5332 17.78Z" fill="#282829"/>
<path d="M97.375 17.78C97.375 19.9074 95.7129 21.6362 93.6564 21.6362C91.6049 21.6362 89.9377 19.9074 89.9377 17.78C89.9377 15.6526 91.5999 13.9238 93.6564 13.9238C95.7079 13.9238 97.375 15.6474 97.375 17.78Z" fill="#282829"/>
</g>
<defs>
<clipPath id="clip0_117_72">
<rect width="107" height="36" fill="white"/>
</clipPath>
</defs>
</svg>
