<svg width="42" height="42" viewBox="0 0 42 42" fill="none" xmlns="http://www.w3.org/2000/svg">
<path d="M21 41.8334C9.49374 41.8334 0.166656 32.5063 0.166656 21.0001C0.166656 9.49383 9.49374 0.166748 21 0.166748C32.5062 0.166748 41.8333 9.49383 41.8333 21.0001C41.8333 32.5063 32.5062 41.8334 21 41.8334ZM10.5833 21.0001C10.5833 23.7628 11.6808 26.4123 13.6343 28.3658C15.5878 30.3193 18.2373 31.4167 21 31.4167C23.7627 31.4167 26.4122 30.3193 28.3657 28.3658C30.3192 26.4123 31.4167 23.7628 31.4167 21.0001H27.25C27.25 22.6577 26.5915 24.2474 25.4194 25.4195C24.2473 26.5916 22.6576 27.2501 21 27.2501C19.3424 27.2501 17.7527 26.5916 16.5806 25.4195C15.4085 24.2474 14.75 22.6577 14.75 21.0001H10.5833Z" fill="#FFC700"/>
</svg>
