<svg width="30" height="24" viewBox="0 0 30 24" fill="none" xmlns="http://www.w3.org/2000/svg">
<path d="M28.5192 4.20583C29.1666 6.73033 29.1666 12.0003 29.1666 12.0003C29.1666 12.0003 29.1666 17.2703 28.5192 19.7948C28.1593 21.1902 27.1068 22.2882 25.7737 22.6593C23.3526 23.3337 14.9999 23.3337 14.9999 23.3337C14.9999 23.3337 6.6515 23.3337 4.22617 22.6593C2.88742 22.2825 1.83625 21.186 1.48067 19.7948C0.833252 17.2703 0.833252 12.0003 0.833252 12.0003C0.833252 12.0003 0.833252 6.73033 1.48067 4.20583C1.8405 2.81041 2.89309 1.71249 4.22617 1.34133C6.6515 0.666992 14.9999 0.666992 14.9999 0.666992C14.9999 0.666992 23.3526 0.666992 25.7737 1.34133C27.1124 1.71816 28.1636 2.81466 28.5192 4.20583ZM12.1666 16.9587L20.6666 12.0003L12.1666 7.04199V16.9587Z" fill="white"/>
</svg>
