<svg width="30" height="30" viewBox="0 0 30 30" fill="none" xmlns="http://www.w3.org/2000/svg">
<path d="M14.9999 0.833008C18.849 0.833008 19.3293 0.847174 20.8394 0.918008C22.3482 0.988841 23.3753 1.22542 24.2791 1.57676C25.2141 1.93659 26.0018 2.42392 26.7894 3.21017C27.5098 3.91836 28.0672 4.77501 28.4228 5.72051C28.7728 6.62292 29.0108 7.65142 29.0816 9.16017C29.1482 10.6703 29.1666 11.1506 29.1666 14.9997C29.1666 18.8488 29.1524 19.329 29.0816 20.8392C29.0108 22.3479 28.7728 23.375 28.4228 24.2788C28.0682 25.2249 27.5107 26.0817 26.7894 26.7892C26.081 27.5093 25.2244 28.0667 24.2791 28.4226C23.3767 28.7725 22.3482 29.0105 20.8394 29.0813C19.3293 29.1479 18.849 29.1663 14.9999 29.1663C11.1508 29.1663 10.6706 29.1522 9.16042 29.0813C7.65167 29.0105 6.62459 28.7725 5.72075 28.4226C4.77488 28.0677 3.91808 27.5102 3.21042 26.7892C2.48991 26.0811 1.93249 25.2244 1.577 24.2788C1.22567 23.3764 0.989085 22.3479 0.918252 20.8392C0.851669 19.329 0.833252 18.8488 0.833252 14.9997C0.833252 11.1506 0.847419 10.6703 0.918252 9.16017C0.989085 7.65001 1.22567 6.62434 1.577 5.72051C1.9315 4.77443 2.48906 3.91755 3.21042 3.21017C3.91829 2.48942 4.77503 1.93196 5.72075 1.57676C6.62459 1.22542 7.65025 0.988841 9.16042 0.918008C10.6706 0.851424 11.1508 0.833008 14.9999 0.833008ZM14.9999 7.91634C13.1213 7.91634 11.3196 8.66262 9.99125 9.991C8.66286 11.3194 7.91659 13.1211 7.91659 14.9997C7.91659 16.8783 8.66286 18.68 9.99125 20.0083C11.3196 21.3367 13.1213 22.083 14.9999 22.083C16.8785 22.083 18.6802 21.3367 20.0086 20.0083C21.337 18.68 22.0833 16.8783 22.0833 14.9997C22.0833 13.1211 21.337 11.3194 20.0086 9.991C18.6802 8.66262 16.8785 7.91634 14.9999 7.91634ZM24.2083 7.56217C24.2083 7.09252 24.0217 6.6421 23.6896 6.31001C23.3575 5.97791 22.9071 5.79134 22.4374 5.79134C21.9678 5.79134 21.5173 5.97791 21.1852 6.31001C20.8532 6.6421 20.6666 7.09252 20.6666 7.56217C20.6666 8.03183 20.8532 8.48225 21.1852 8.81434C21.5173 9.14644 21.9678 9.33301 22.4374 9.33301C22.9071 9.33301 23.3575 9.14644 23.6896 8.81434C24.0217 8.48225 24.2083 8.03183 24.2083 7.56217ZM14.9999 10.7497C16.1271 10.7497 17.2081 11.1974 18.0051 11.9945C18.8022 12.7915 19.2499 13.8725 19.2499 14.9997C19.2499 16.1268 18.8022 17.2078 18.0051 18.0049C17.2081 18.8019 16.1271 19.2497 14.9999 19.2497C13.8727 19.2497 12.7917 18.8019 11.9947 18.0049C11.1977 17.2078 10.7499 16.1268 10.7499 14.9997C10.7499 13.8725 11.1977 12.7915 11.9947 11.9945C12.7917 11.1974 13.8727 10.7497 14.9999 10.7497Z" fill="white"/>
</svg>
