<svg width="26" height="32" viewBox="0 0 26 32" fill="none" xmlns="http://www.w3.org/2000/svg">
<path d="M22.0157 22.5986L13 31.6142L3.98434 22.5986C2.20124 20.8154 0.986931 18.5436 0.494982 16.0704C0.00303309 13.5971 0.255535 11.0335 1.22056 8.70376C2.18558 6.37401 3.81978 4.38274 5.9165 2.98176C8.01322 1.58078 10.4783 0.833008 13 0.833008C15.5217 0.833008 17.9868 1.58078 20.0835 2.98176C22.1802 4.38274 23.8144 6.37401 24.7795 8.70376C25.7445 11.0335 25.997 13.5971 25.505 16.0704C25.0131 18.5436 23.7988 20.8154 22.0157 22.5986ZM13 16.4162C13.7515 16.4162 14.4721 16.1177 15.0035 15.5864C15.5348 15.055 15.8333 14.3343 15.8333 13.5829C15.8333 12.8314 15.5348 12.1108 15.0035 11.5794C14.4721 11.0481 13.7515 10.7496 13 10.7496C12.2486 10.7496 11.5279 11.0481 10.9965 11.5794C10.4652 12.1108 10.1667 12.8314 10.1667 13.5829C10.1667 14.3343 10.4652 15.055 10.9965 15.5864C11.5279 16.1177 12.2486 16.4162 13 16.4162Z" fill="white"/>
</svg>
