<svg width="26" height="26" viewBox="0 0 26 26" fill="none" xmlns="http://www.w3.org/2000/svg">
<path d="M25.75 19.2617V24.271C25.7502 24.6297 25.6143 24.975 25.3698 25.2374C25.1252 25.4998 24.7903 25.6597 24.4325 25.6848C23.8134 25.7273 23.3077 25.75 22.9167 25.75C10.3976 25.75 0.25 15.6024 0.25 3.08333C0.25 2.69233 0.27125 2.18658 0.315167 1.5675C0.340273 1.20971 0.500157 0.874765 0.762555 0.630246C1.02495 0.385726 1.37033 0.249838 1.729 0.25H6.73833C6.91406 0.249822 7.08357 0.314967 7.21395 0.432779C7.34433 0.550591 7.42626 0.712659 7.44383 0.8875C7.47642 1.21333 7.50617 1.47258 7.5345 1.6695C7.81604 3.63431 8.39301 5.54526 9.24583 7.33758C9.38042 7.62092 9.29258 7.9595 9.03758 8.14083L5.98042 10.3253C7.84964 14.6808 11.3206 18.1518 15.6761 20.021L17.8577 16.9695C17.9469 16.8448 18.077 16.7554 18.2254 16.7168C18.3737 16.6783 18.5309 16.693 18.6695 16.7584C20.4616 17.6096 22.3721 18.1852 24.3362 18.4655C24.5331 18.4938 24.7923 18.525 25.1153 18.5562C25.2899 18.5741 25.4516 18.6561 25.5692 18.7865C25.6867 18.9168 25.7516 19.0862 25.7514 19.2617H25.75Z" fill="white"/>
</svg>
