<svg width="14" height="8" viewBox="0 0 14 8" fill="none" xmlns="http://www.w3.org/2000/svg">
<path d="M7.11253 7.36826C7.35911 7.34442 7.59227 7.24487 7.78002 7.08325L12.82 2.76324C12.9455 2.66263 13.0496 2.53783 13.1259 2.39622C13.2022 2.25462 13.2493 2.09912 13.2643 1.93896C13.2794 1.7788 13.262 1.61726 13.2134 1.46392C13.1648 1.31059 13.0858 1.16861 12.9812 1.0464C12.8766 0.924192 12.7485 0.824252 12.6045 0.752537C12.4605 0.680823 12.3035 0.63879 12.143 0.628934C11.9824 0.619077 11.8215 0.641596 11.6698 0.695159C11.5182 0.748723 11.3788 0.832246 11.26 0.94074L7.00002 4.59326L2.74002 0.94074C2.62125 0.832246 2.48188 0.748723 2.3302 0.695159C2.17852 0.641596 2.01761 0.619077 1.85705 0.628934C1.69649 0.63879 1.53955 0.680823 1.39556 0.752537C1.25157 0.824252 1.12346 0.924192 1.01886 1.0464C0.914253 1.16861 0.835284 1.31059 0.786645 1.46392C0.738005 1.61726 0.720688 1.7788 0.735722 1.93896C0.750755 2.09912 0.797834 2.25462 0.874158 2.39622C0.950483 2.53783 1.0545 2.66263 1.18002 2.76324L6.22002 7.08325C6.34207 7.18818 6.48398 7.26748 6.63731 7.31644C6.79064 7.36541 6.95225 7.38303 7.11253 7.36826Z" fill="#262626"/>
</svg>
