<svg width="42" height="60" viewBox="0 0 42 60" fill="none" xmlns="http://www.w3.org/2000/svg">
<path d="M39.0863 14.6371C39.431 14.6746 39.7795 14.6414 40.1118 14.5394C40.4441 14.4375 40.7538 14.2687 41.0232 14.0428C41.2925 13.8169 41.5163 13.5383 41.6816 13.2229C41.847 12.9075 41.9507 12.5615 41.9869 12.2045C42.0231 11.8476 41.9911 11.4868 41.8926 11.1427C41.7941 10.7986 41.6311 10.4779 41.413 10.199C41.1948 9.92015 40.9257 9.68849 40.6211 9.51727C40.3165 9.34606 39.9823 9.23865 39.6375 9.20117C33.8428 8.90947 28.3962 6.25096 24.4913 1.8083C24.0732 1.27432 23.5388 0.850574 22.9319 0.571823C22.325 0.293073 21.663 0.167257 21 0.204698V0.204698C20.6445 0.222495 20.2962 0.314967 19.9763 0.476494H19.7138C9.45003 4.96114 0.682533 21.6766 0.315033 22.3833C0.151291 22.6974 0.0489023 23.0418 0.0137128 23.3969C-0.0214766 23.752 0.0112223 24.1107 0.109943 24.4527C0.208663 24.7947 0.371471 25.1132 0.589072 25.39C0.806673 25.6669 1.0748 25.8966 1.37816 26.0662C1.99081 26.4086 2.70973 26.4849 3.37678 26.2785C4.04382 26.0721 4.60434 25.5997 4.93503 24.9654C8.35288 18.3352 12.907 12.4041 18.375 7.46167C18.1125 16.893 16.1438 39.2347 3.72753 55.4881C3.28197 56.0576 3.07314 56.787 3.14698 57.5159C3.22082 58.2448 3.57129 58.9135 4.12128 59.3748C4.67128 59.8362 5.37574 60.0524 6.07971 59.976C6.78367 59.8995 7.42947 59.5366 7.87503 58.9671C14.2983 50.159 18.7784 40 21 29.2054C24.4913 32.4398 31.0013 40.4034 34.5188 56.7384C34.6521 57.3515 34.9866 57.8979 35.4652 58.2844C35.9438 58.6709 36.537 58.8738 37.1438 58.8584H37.7213C38.3995 58.7024 38.9903 58.2744 39.3643 57.6681C39.7383 57.0618 39.8648 56.3268 39.7163 55.624C35.0438 33.8803 25.3838 25.509 22.2338 23.2802C23.0249 18.3632 23.4898 13.3958 23.625 8.41296C28.0897 11.9909 33.46 14.1527 39.0863 14.6371V14.6371Z" fill="#262626"/>
</svg>
