<svg width="30" height="30" viewBox="0 0 30 30" fill="none" xmlns="http://www.w3.org/2000/svg">
<path d="M0.838938 29.1663L2.75427 22.1283C1.49222 19.9649 0.829157 17.5043 0.833271 14.9997C0.833271 7.17543 7.17569 0.833008 14.9999 0.833008C22.8242 0.833008 29.1666 7.17543 29.1666 14.9997C29.1666 22.8239 22.8242 29.1663 14.9999 29.1663C12.4964 29.1704 10.0369 28.5078 7.8741 27.2468L0.838938 29.1663ZM9.88719 8.35267C9.70424 8.36403 9.52548 8.41222 9.36161 8.49434C9.20793 8.58137 9.06764 8.69016 8.9451 8.81734C8.7751 8.97743 8.67877 9.11626 8.57536 9.25084C8.05177 9.93225 7.77014 10.7687 7.77494 11.628C7.77777 12.3222 7.9591 12.9979 8.24244 13.6298C8.82185 14.9076 9.77527 16.2605 11.0347 17.5143C11.3379 17.816 11.6339 18.1192 11.9527 18.4011C13.5158 19.7773 15.3785 20.7698 17.3927 21.2996L18.1988 21.4228C18.4609 21.437 18.7229 21.4172 18.9864 21.4044C19.399 21.3831 19.8019 21.2714 20.1665 21.0772C20.4017 20.9525 20.5122 20.8902 20.7091 20.7655C20.7091 20.7655 20.77 20.7258 20.8862 20.638C21.0774 20.4963 21.195 20.3958 21.3537 20.23C21.4713 20.1082 21.5733 19.9651 21.6512 19.8022C21.7617 19.5713 21.8722 19.1307 21.9175 18.7638C21.9515 18.4833 21.9416 18.3303 21.9374 18.2353C21.9317 18.0838 21.8056 17.9265 21.6682 17.8599L20.8437 17.4902C20.8437 17.4902 19.6112 16.9533 18.8589 16.6104C18.7796 16.5759 18.6946 16.5562 18.6082 16.5523C18.5113 16.5424 18.4133 16.5533 18.321 16.5843C18.2286 16.6154 18.1439 16.6658 18.0727 16.7323V16.7294C18.0656 16.7294 17.9707 16.8102 16.9464 18.0512C16.8876 18.1302 16.8067 18.1899 16.7138 18.2227C16.621 18.2555 16.5205 18.2599 16.4251 18.2353C16.3328 18.2107 16.2424 18.1794 16.1545 18.1418C15.9789 18.0682 15.9179 18.0398 15.7975 17.9874L15.7904 17.9846C14.98 17.6307 14.2296 17.1528 13.5663 16.5679C13.3878 16.4121 13.222 16.2421 13.052 16.0778C12.4947 15.544 12.009 14.9402 11.607 14.2814L11.5234 14.1468C11.4634 14.0564 11.4149 13.9589 11.3789 13.8564C11.3251 13.6482 11.4654 13.481 11.4654 13.481C11.4654 13.481 11.8096 13.1042 11.9697 12.9002C12.103 12.7306 12.2273 12.5543 12.3423 12.3718C12.5094 12.1026 12.5619 11.8263 12.474 11.6124C12.0774 10.6434 11.6665 9.67867 11.2444 8.72101C11.1608 8.53117 10.9129 8.39517 10.6876 8.36826C10.6111 8.35976 10.5346 8.35126 10.4581 8.34559C10.2679 8.33614 10.0772 8.33803 9.88719 8.35126V8.35267Z" fill="white"/>
</svg>
