<svg width="38" height="40" viewBox="0 0 38 40" fill="none" xmlns="http://www.w3.org/2000/svg">
<path d="M37.75 37.6667C37.75 38.2192 37.5305 38.7491 37.1398 39.1398C36.7491 39.5305 36.2192 39.75 35.6667 39.75H2.33333C1.7808 39.75 1.2509 39.5305 0.860194 39.1398C0.469494 38.7491 0.25 38.2192 0.25 37.6667V15.4042C0.249875 15.0895 0.32104 14.7789 0.458153 14.4956C0.595265 14.2124 0.794763 13.9639 1.04167 13.7688L17.7083 0.620865C18.0761 0.330221 18.5312 0.172119 19 0.172119C19.4688 0.172119 19.9239 0.330221 20.2917 0.620865L36.9583 13.7667C37.2055 13.962 37.4052 14.2109 37.5423 14.4945C37.6794 14.7781 37.7504 15.0892 37.75 15.4042V37.6667ZM8.58333 21C8.58333 23.7627 9.6808 26.4122 11.6343 28.3657C13.5878 30.3192 16.2373 31.4167 19 31.4167C21.7627 31.4167 24.4122 30.3192 26.3657 28.3657C28.3192 26.4122 29.4167 23.7627 29.4167 21H25.25C25.25 22.6576 24.5915 24.2473 23.4194 25.4194C22.2473 26.5916 20.6576 27.25 19 27.25C17.3424 27.25 15.7527 26.5916 14.5806 25.4194C13.4085 24.2473 12.75 22.6576 12.75 21H8.58333Z" fill="#FFC700"/>
</svg>
