<svg width="26" height="26" viewBox="0 0 26 26" fill="none" xmlns="http://www.w3.org/2000/svg">
<path d="M21.9746 21.9803H18.1992V16.0628C18.1992 14.6518 18.1708 12.8357 16.23 12.8357C14.2622 12.8357 13.9619 14.3713 13.9619 15.9594V21.9803H10.1851V9.8125H13.8117V11.47H13.8613C14.3685 10.5152 15.601 9.50508 17.4427 9.50508C21.2677 9.50508 21.976 12.0239 21.976 15.3007V21.9803H21.9746ZM5.92092 8.14792C5.6327 8.14829 5.34725 8.09177 5.08092 7.98161C4.81459 7.87144 4.57263 7.7098 4.3689 7.50593C4.16517 7.30207 4.00367 7.06 3.89368 6.7936C3.78369 6.5272 3.72736 6.24171 3.72792 5.9535C3.7282 5.51977 3.85709 5.09585 4.09829 4.73537C4.33949 4.37489 4.68218 4.09403 5.083 3.92831C5.48383 3.76258 5.92479 3.71944 6.35014 3.80433C6.77548 3.88922 7.1661 4.09834 7.4726 4.40523C7.7791 4.71213 7.98771 5.10302 8.07205 5.52847C8.1564 5.95393 8.11268 6.39484 7.94644 6.79545C7.7802 7.19606 7.4989 7.53838 7.1381 7.77912C6.77731 8.01985 6.35323 8.1482 5.9195 8.14792H5.92092ZM7.81358 21.9803H4.02683V9.8125H7.815V21.9803H7.81358ZM23.8658 0.25H2.13275C1.09008 0.25 0.25 1.07167 0.25 2.08742V23.9126C0.25 24.9283 1.0915 25.75 2.13133 25.75H23.8602C24.9 25.75 25.75 24.9283 25.75 23.9126V2.08742C25.75 1.07167 24.9 0.25 23.8602 0.25H23.8644H23.8658Z" fill="white"/>
</svg>
