<svg width="597" height="186" viewBox="0 0 597 186" fill="none" xmlns="http://www.w3.org/2000/svg">
<path d="M317.96 77H330.4C336.52 77 340.56 74.16 340.56 69.36V69.28C340.56 65.48 337.88 63.48 334.56 62.52C336.76 61.56 339 59.68 339 56.04V55.96C339 54.24 338.4 52.72 337.2 51.48C335.6 49.92 333.08 49 329.88 49H317.96V77ZM335.8 56.48C335.8 59.8 333.2 61.48 329.36 61.48H321.08V51.84H329.6C333.6 51.84 335.8 53.64 335.8 56.4V56.48ZM337.36 69.16C337.36 72.32 334.76 74.16 330.48 74.16H321.08V64.28H329.92C334.84 64.28 337.36 66.04 337.36 69.08V69.16ZM355.747 77.48C361.987 77.48 366.587 72.56 366.587 66.68V66.6C366.587 60.76 362.067 55.88 355.827 55.88C349.547 55.88 345.027 60.8 345.027 66.68V66.76C345.027 72.6 349.547 77.48 355.747 77.48ZM355.827 74.72C351.467 74.72 348.187 71.12 348.187 66.68V66.6C348.187 62.24 351.267 58.6 355.747 58.6C360.107 58.6 363.427 62.24 363.427 66.68V66.76C363.427 71.08 360.307 74.72 355.827 74.72ZM369.741 74.68C372.101 76.4 375.221 77.48 378.941 77.48C384.861 77.48 388.101 74.72 388.101 71.4V71.36C388.101 68.6 385.941 66.96 383.381 66.44C385.541 65.8 387.541 64.4 387.541 61.64V61.6C387.541 58.24 384.461 55.88 379.181 55.88C375.501 55.88 372.581 57 370.021 58.88L371.621 61.04C374.061 59.32 376.541 58.48 379.101 58.48C382.501 58.48 384.421 59.8 384.421 61.84V61.88C384.421 63.96 382.541 65.32 379.181 65.32H374.581V67.8H379.221C382.781 67.8 384.981 68.96 384.981 71.16V71.2C384.981 73.4 382.741 74.8 378.941 74.8C376.021 74.8 373.381 73.84 371.341 72.4L369.741 74.68ZM393.768 77H396.808V61.16L404.728 72.6H404.848L412.768 61.12V77H415.848V56.32H412.648L404.848 67.92L397.008 56.32H393.768V77ZM432.193 77.48C438.433 77.48 443.033 72.56 443.033 66.68V66.6C443.033 60.76 438.513 55.88 432.273 55.88C425.993 55.88 421.473 60.8 421.473 66.68V66.76C421.473 72.6 425.993 77.48 432.193 77.48ZM432.273 74.72C427.913 74.72 424.633 71.12 424.633 66.68V66.6C424.633 62.24 427.713 58.6 432.193 58.6C436.553 58.6 439.872 62.24 439.872 66.68V66.76C439.872 71.08 436.753 74.72 432.273 74.72ZM463.036 56.32H459.996L460.036 65.2H456.556L449.076 56.32H445.316L454.116 66.56L445.036 77H448.756L456.436 67.92H460.036L459.996 77H463.036L462.996 67.92H466.516L474.276 77H477.996L468.916 66.52L477.716 56.32H473.996L466.516 65.2H462.996L463.036 56.32ZM482.323 77H485.403V67.96H497.763V77H500.803V56.32H497.763V65.16H485.403V56.32H482.323V77ZM517.153 77.48C523.393 77.48 527.993 72.56 527.993 66.68V66.6C527.993 60.76 523.473 55.88 517.233 55.88C510.953 55.88 506.433 60.8 506.433 66.68V66.76C506.433 72.6 510.953 77.48 517.153 77.48ZM517.233 74.72C512.873 74.72 509.593 71.12 509.593 66.68V66.6C509.593 62.24 512.673 58.6 517.153 58.6C521.513 58.6 524.833 62.24 524.833 66.68V66.76C524.833 71.08 521.713 74.72 517.233 74.72ZM542.893 77.48C546.773 77.48 549.253 75.84 551.333 73.48L549.373 71.64C547.733 73.4 545.733 74.72 543.053 74.72C538.733 74.72 535.453 71.16 535.453 66.68V66.6C535.453 62.12 538.653 58.6 542.853 58.6C545.693 58.6 547.493 60 549.133 61.72L551.173 59.56C549.213 57.48 546.813 55.88 542.893 55.88C536.813 55.88 532.293 60.8 532.293 66.68V66.76C532.293 72.56 536.813 77.48 542.893 77.48ZM561.838 77H564.918V59.08H573.238V56.32H553.558V59.08H561.838V77ZM577.792 77H587.072C592.352 77 595.312 74.28 595.312 70.24V70.16C595.312 66 592.272 63.44 587.192 63.44H580.872V56.32H577.792V77ZM580.872 74.36V66.04H587.072C590.552 66 592.192 67.72 592.192 70.16V70.2C592.192 72.8 590.552 74.36 587.032 74.36H580.872ZM317.44 137H320.52V119.12H332.8V137H335.88V116.32H317.44V137ZM342.753 143.4H345.833V133.04C347.433 135.4 349.913 137.44 353.753 137.44C358.753 137.44 363.633 133.4 363.633 126.68V126.6C363.633 119.8 358.713 115.88 353.753 115.88C349.913 115.88 347.553 118.04 345.833 120.48V116.32H342.753V143.4ZM353.193 134.68C349.353 134.68 345.713 131.48 345.713 126.68V126.6C345.713 121.92 349.353 118.64 353.193 118.64C357.153 118.64 360.473 121.72 360.473 126.64V126.72C360.473 131.72 357.193 134.68 353.193 134.68ZM375.475 137.44C379.155 137.44 381.515 135.76 382.955 133.88V137H385.915V124.36C385.915 121.76 385.195 119.72 383.795 118.32C382.275 116.8 380.035 116.04 377.115 116.04C374.075 116.04 371.875 116.68 369.595 117.76L370.515 120.28C372.435 119.36 374.355 118.76 376.795 118.76C380.675 118.76 382.955 120.68 382.955 124.4V125.12C381.075 124.6 379.275 124.24 376.595 124.24C371.355 124.24 367.755 126.6 367.755 130.92V131C367.755 135.28 371.635 137.44 375.475 137.44ZM376.075 135C373.315 135 370.875 133.48 370.875 130.88V130.8C370.875 128.2 373.035 126.52 376.915 126.52C379.475 126.52 381.435 126.96 382.995 127.4V129.4C382.995 132.68 379.915 135 376.075 135ZM395.559 116.32H392.479V137H395.559V127.92H399.399L407.279 137H411.119L401.799 126.44L410.879 116.32H407.039L399.319 125.2H395.559V116.32ZM421.135 137H424.215V119.08H432.535V116.32H412.855V119.08H421.135V137ZM437.088 137H439.968L452.648 120.92V137H455.688V116.32H452.728L440.168 132.36V116.32H437.088V137ZM465.676 116.32H462.596V137H465.676V127.92H469.516L477.396 137H481.236L471.916 126.44L480.996 116.32H477.156L469.436 125.2H465.676V116.32ZM485.487 137H488.367L501.047 120.92V137H504.087V116.32H501.127L488.567 132.36V116.32H485.487V137Z" fill="#262626"/>
<path d="M55.6578 167.344H7.07656C6.99976 167.344 6.92296 167.311 6.87359 167.251C6.82422 167.19 6.80228 167.114 6.81326 167.037C7.49348 162.506 10.1157 151.463 19.6608 146.696C25.2616 143.904 32.3108 143.794 39.0088 146.4C46.0798 149.148 52.0263 154.584 55.7511 161.705C55.7675 161.743 55.7785 161.782 55.784 161.82L55.9321 167.07C55.9321 167.141 55.9047 167.212 55.8553 167.267C55.8005 167.311 55.7292 167.344 55.6578 167.344ZM7.38928 166.801H55.3781L55.2409 161.891C51.5765 154.914 45.7397 149.592 38.8058 146.893C32.2504 144.343 25.3549 144.447 19.8966 147.173C10.7904 151.721 8.12985 162.182 7.38928 166.801Z" fill="#1A1A1A"/>
<path d="M18.3606 117.243H8.52478V132.85H18.3606V117.243Z" fill="#1A1A1A"/>
<path d="M81.5229 57.4824C81.5229 57.4824 84.4358 51.7937 83.2015 48.3487C81.9672 44.9092 79.4054 41.2886 74.3805 42.9233C71.3799 43.6749 72.8829 45.2164 70.4089 44.3332C67.9349 43.45 66.0258 44.2893 64.6215 45.0408C63.2171 45.7924 63.1293 48.4803 62.0706 49.4952C61.0119 50.5101 58.8066 49.583 57.8795 52.5836C56.9525 55.5843 60.7047 59.6931 59.443 62.0903C58.1868 64.4931 53.6885 63.6976 53.288 70.8455C52.8931 77.9933 66.8267 74.285 68.3956 72.7655C69.9645 71.2459 81.5229 57.4824 81.5229 57.4824Z" fill="#262626"/>
<path d="M59.0974 75.3656C57.6876 75.3656 56.36 75.1736 55.3013 74.6908C53.6885 73.9558 52.9205 72.6557 53.0247 70.8344C53.299 65.8973 55.5043 64.6191 57.2761 63.5933C58.11 63.1106 58.8341 62.6937 59.2126 61.9695C59.7941 60.8614 59.1742 59.2816 58.5214 57.6029C57.8467 55.8695 57.1445 54.0756 57.6327 52.5067C58.2855 50.3893 59.5801 50.0821 60.6169 49.8352C61.1326 49.709 61.5824 49.6048 61.8951 49.3086C62.312 48.9081 62.5753 48.184 62.8551 47.416C63.2336 46.3682 63.6286 45.2821 64.5063 44.8103C66.0971 43.96 68.05 43.2085 70.5131 44.0862C71.6596 44.4976 71.7693 44.3605 72.071 43.993C72.3837 43.6144 72.85 43.0384 74.3202 42.6709C78.4454 41.3379 81.6984 43.3237 83.4703 48.2663C84.732 51.7771 81.9014 57.3725 81.7807 57.6139L81.7478 57.6633C81.276 58.2283 70.162 71.4543 68.6041 72.9683C67.6825 73.8406 63.0745 75.3656 59.0974 75.3656ZM68.2969 44.2288C66.9584 44.2288 65.8064 44.7171 64.7476 45.2821C64.051 45.6551 63.6944 46.6425 63.3488 47.5916C63.0471 48.4199 62.7673 49.2044 62.2571 49.6926C61.8402 50.093 61.3027 50.2192 60.7321 50.3563C59.7337 50.5977 58.697 50.8446 58.1374 52.6658C57.7095 54.0592 58.3733 55.7597 59.0151 57.4109C59.7173 59.2048 60.3756 60.8998 59.6844 62.2219C59.2345 63.0831 58.4117 63.5604 57.5449 64.0651C55.8005 65.0744 53.8201 66.2209 53.5623 70.8673C53.4745 72.4472 54.1329 73.5718 55.5262 74.2081C59.3004 75.9306 67.0846 73.676 68.2146 72.5789C69.7232 71.1142 80.7549 57.9924 81.3035 57.3396C81.5119 56.9172 84.0902 51.6235 82.9547 48.4473C81.7807 45.1724 79.3505 41.6012 74.4683 43.1866L74.4519 43.192C73.1463 43.5157 72.7622 43.9929 72.4824 44.3331C72.0326 44.8871 71.6871 45.0791 70.3266 44.5909C69.597 44.3331 68.9277 44.2288 68.2969 44.2288Z" fill="#262626"/>
<path d="M68.0281 69.7482C68.0281 69.7482 62.2517 79.4524 62.7345 80.2917C63.2172 81.131 68.9113 83.0729 73.3218 82.0581C74.0295 81.8825 77.0246 70.1047 77.0246 70.1047C77.0246 70.1047 68.3572 69.1886 68.0281 69.7482Z" fill="#F3F3F3"/>
<path d="M70.6338 82.6013C66.8706 82.6013 62.9758 81.2463 62.4985 80.4235C62.3669 80.1931 62.12 79.7707 64.9616 74.5757C66.322 72.0852 67.7593 69.666 67.7922 69.6112C67.9129 69.4027 68.083 69.1175 72.669 69.4466C74.8578 69.6057 77.0301 69.8306 77.0521 69.8361L77.3592 69.869L77.2824 70.1707C77.2769 70.1981 76.52 73.1549 75.6916 76.0898C73.9746 82.1734 73.618 82.2612 73.3821 82.3215C72.5154 82.5135 71.5773 82.6013 70.6338 82.6013ZM62.9758 80.1656C63.4201 80.8459 68.8071 82.7933 73.2176 81.8004C73.7113 81.2518 75.346 75.5796 76.69 70.3353C72.872 69.9403 68.7796 69.688 68.2365 69.9239C65.5431 74.4441 62.8551 79.4909 62.9758 80.1656Z" fill="#262626"/>
<path d="M81.0182 51.991C81.0182 51.991 84.315 62.1834 80.5135 68.8649C76.7119 75.5465 65.6637 70.1212 65.6637 70.1212C65.6637 70.1212 65.2248 67.9159 65.8392 67.8062C66.4591 67.6965 63.4639 65.3376 64.6159 63.5274C65.7679 61.7171 68.1103 61.7171 69.1252 64.3228C69.745 65.2499 70.9958 63.7029 69.8603 61.4099C68.7302 59.1169 68.6973 56.4673 69.8603 55.8529C71.0233 55.233 74.3311 53.4721 77.0191 54.3553C79.718 55.233 80.9962 53.4666 81.0182 51.991Z" fill="#F3F3F3"/>
<path d="M74.0073 72.4691C73.2613 72.4691 72.4659 72.4033 71.6266 72.2662C68.3845 71.745 65.6636 70.423 65.5484 70.3626L65.4277 70.3023L65.4003 70.1706C65.34 69.8689 65.0602 68.3329 65.4387 67.7789C65.4826 67.713 65.5429 67.6582 65.6033 67.6143C65.5265 67.4881 65.3948 67.3016 65.2851 67.148C64.6323 66.2374 63.5461 64.7124 64.3964 63.3793C65.0108 62.4194 65.9543 61.8982 66.9198 61.997C67.9621 62.1012 68.8563 62.9021 69.3665 64.1912C69.5036 64.3777 69.6024 64.3174 69.6462 64.2955C70.0193 64.0815 70.3319 62.9679 69.6188 61.5307C68.401 59.0621 68.4558 56.2973 69.734 55.6171C70.9902 54.9479 74.3091 53.1815 77.1068 54.0976C78.182 54.4487 79.1035 54.3828 79.7783 53.9056C80.3653 53.4887 80.7328 52.7536 80.7438 51.9911L80.7657 50.3618L81.2649 51.9143C81.402 52.3367 84.5508 62.2932 80.7383 69.0022C79.4491 71.2897 77.1397 72.4691 74.0073 72.4691ZM65.905 69.9347C67.1008 70.4888 76.8599 74.7512 80.283 68.7279C83.2782 63.4616 81.7586 55.864 81.0564 53.1101C80.8535 53.6039 80.5188 54.0317 80.0964 54.3334C79.5259 54.7394 78.5166 55.1179 76.9422 54.6023C74.3694 53.7575 71.078 55.5074 69.9973 56.0779C68.9934 56.6155 69.0483 59.1389 70.107 61.2838C70.9902 63.0721 70.5185 64.4107 69.9205 64.7563C69.564 64.9647 69.1635 64.8495 68.9057 64.4655L68.8782 64.4161C68.4449 63.3026 67.7098 62.6168 66.865 62.5291C66.1024 62.4523 65.3509 62.8802 64.8463 63.6646C64.1935 64.6904 65.1096 65.9796 65.7185 66.8298C66.086 67.34 66.267 67.5978 66.1683 67.8502C66.1244 67.9654 66.0202 68.0422 65.8886 68.0641C65.7404 68.1793 65.7459 69.068 65.905 69.9347Z" fill="#262626"/>
<path d="M209.411 185.524H6.05622C2.71544 185.524 0 181.311 0 176.132C0 170.954 2.71544 166.741 6.05622 166.741H209.411C212.751 166.741 215.467 170.954 215.467 176.132C215.467 181.311 212.746 185.524 209.411 185.524ZM6.05622 167.273C3.01715 167.273 0.543078 171.244 0.543078 176.127C0.543078 181.009 3.01715 184.981 6.05622 184.981H209.411C212.45 184.981 214.924 181.009 214.924 176.127C214.924 171.244 212.45 167.273 209.411 167.273H6.05622Z" fill="#1A1A1A"/>
<path d="M80.5573 167.124C80.5573 167.124 162.7 167.585 164.839 166.263C166.979 164.941 165.832 163.438 165.832 163.438L165.393 154.968C165.393 154.968 98.5613 140.766 94.9901 141.671C91.408 142.576 80.5573 167.124 80.5573 167.124Z" fill="#F3F3F3"/>
<path d="M111.595 167.481C96.7621 167.481 83.7939 167.415 80.5519 167.394H80.1404L80.305 167.015C80.3324 166.955 83.0588 160.8 86.1857 154.617C92.56 142.006 94.3319 141.561 94.9134 141.413C98.501 140.503 162.711 154.129 165.443 154.711L165.646 154.754L166.096 163.356C166.216 163.548 166.502 164.08 166.375 164.755C166.255 165.413 165.783 166 164.982 166.499C163.66 167.311 135.25 167.481 111.595 167.481ZM80.9688 166.861C104.031 166.988 162.826 167.086 164.697 166.039C165.366 165.627 165.75 165.161 165.843 164.656C165.953 164.069 165.618 163.614 165.613 163.608L165.564 163.543L165.13 155.193C141.981 150.278 97.8153 141.238 95.0505 141.934C92.2693 142.637 84.1066 159.807 80.9688 166.861Z" fill="#262626"/>
<path d="M165.383 154.974C165.383 154.974 168.383 158.282 165.821 163.444C163.929 162.692 161.855 158.145 165.383 154.974Z" fill="#F3F3F3"/>
<path d="M165.959 163.784L165.728 163.691C164.615 163.252 163.589 161.738 163.292 160.087C163.084 158.929 163.057 156.702 165.207 154.766L165.404 154.584L165.586 154.782C165.618 154.815 168.679 158.287 166.068 163.554L165.959 163.784ZM165.355 155.369C163.611 157.08 163.638 158.989 163.819 159.999C164.088 161.502 164.944 162.648 165.695 163.087C167.626 158.957 165.937 156.148 165.355 155.369Z" fill="#262626"/>
<path d="M165.58 155.863C165.58 155.863 168.394 158.759 165.991 163.285C164.214 162.621 162.272 158.638 165.58 155.863Z" fill="#1A1A1A"/>
<path d="M103.18 124.484C88.2922 113.31 85.2805 92.1846 96.4494 77.2909L136.654 23.7177C147.828 8.82955 168.954 5.81791 183.847 16.9868C198.735 28.1611 201.747 49.2865 190.578 64.1801L150.374 117.753C139.199 132.647 118.068 135.659 103.18 124.484Z" fill="#1A1A1A"/>
<path d="M118.792 136.35L83.8761 110.145C78.6317 106.206 77.5676 98.7619 81.5063 93.5121L147.916 5.01698C151.855 -0.232819 159.299 -1.29156 164.549 2.64717L199.465 28.8523C204.715 32.791 205.774 40.2351 201.835 45.4849L135.425 133.98C131.481 139.224 124.037 140.283 118.792 136.35Z" fill="#F3F3F3"/>
<path d="M125.897 139C123.285 139 120.756 138.16 118.633 136.564L83.7116 110.359C81.1169 108.411 79.4328 105.57 78.9775 102.355C78.5222 99.1405 79.3395 95.9424 81.2869 93.3477L147.697 4.85255C151.718 -0.506971 159.348 -1.59314 164.702 2.42787L199.619 28.633C202.213 30.5804 203.898 33.422 204.353 36.6366C204.808 39.8512 203.991 43.0494 202.043 45.6441L135.634 134.139C133.686 136.734 130.845 138.418 127.63 138.873C127.054 138.956 126.473 139 125.897 139ZM157.423 0.546282C153.89 0.546282 150.401 2.1481 148.125 5.18169L81.7148 93.6768C79.8552 96.1563 79.0707 99.2119 79.5096 102.284C79.9484 105.356 81.5557 108.071 84.0353 109.931L118.952 136.136C121.431 137.996 124.487 138.78 127.559 138.341C130.631 137.902 133.346 136.295 135.206 133.816L201.615 45.3205C203.475 42.8409 204.26 39.7854 203.821 36.7134C203.382 33.6414 201.775 30.926 199.295 29.0664L164.379 2.86124C162.294 1.29782 159.847 0.546282 157.423 0.546282Z" fill="#262626"/>
<path d="M84.7648 95.8984C83.5141 97.566 82.9875 99.6177 83.2837 101.675C83.5799 103.737 84.6551 105.559 86.3228 106.809L121.239 133.015C122.6 134.035 124.212 134.578 125.907 134.578C128.387 134.578 130.664 133.442 132.15 131.462L135.639 126.81L88.0946 91.4604L84.7648 95.8984Z" fill="#F3F3F3"/>
<path d="M125.913 134.847C124.163 134.847 122.49 134.287 121.08 133.234L86.1638 107.029C84.4413 105.734 83.3277 103.853 83.0205 101.719C82.7188 99.5847 83.2618 97.4618 84.5564 95.7393L88.0453 91.0874L88.2593 91.2465L136.023 126.755L132.37 131.621C130.834 133.667 128.475 134.847 125.913 134.847ZM88.1496 91.8389L84.9788 96.0629C83.772 97.6702 83.2618 99.6506 83.5471 101.642C83.8323 103.633 84.8746 105.394 86.4819 106.601L121.398 132.806C122.709 133.793 124.273 134.315 125.908 134.315C128.305 134.315 130.499 133.217 131.936 131.303L135.266 126.871L88.1496 91.8389Z" fill="#262626"/>
<path d="M197.008 32.0559L162.091 5.85077C160.731 4.83044 159.118 4.28735 157.423 4.28735C154.943 4.28735 152.667 5.42289 151.18 7.40322L88.1003 91.4604L135.645 126.81L198.56 42.9669C201.144 39.5274 200.442 34.6342 197.008 32.0559Z" fill="#F3F3F3"/>
<path d="M135.699 127.183L87.7217 91.5153L87.8863 91.3013L150.966 7.24414C152.502 5.19249 154.856 4.01855 157.423 4.01855C159.173 4.01855 160.846 4.57809 162.256 5.63134L197.172 31.8365C198.895 33.1256 200.008 35.0127 200.31 37.1466C200.612 39.2805 200.069 41.4035 198.779 43.126L135.699 127.183ZM88.4732 91.4055L135.59 126.432L198.346 42.8024C199.553 41.1951 200.058 39.2147 199.772 37.2234C199.487 35.2321 198.45 33.4712 196.843 32.2644L161.927 6.05923C160.616 5.07181 159.052 4.55067 157.417 4.55067C155.02 4.55067 152.826 5.6478 151.389 7.56231L88.4732 91.4055Z" fill="#262626"/>
<path d="M146.534 31.1782L178.345 54.4979L177.023 56.0887L145.524 32.4948L146.534 31.1782Z" fill="#F3F3F3"/>
<path d="M177.067 56.4563L145.146 32.5496L146.479 30.8052L178.735 54.454L177.067 56.4563ZM145.903 32.4454L176.979 55.7212L177.956 54.5472L146.589 31.5512L145.903 32.4454Z" fill="#262626"/>
<path d="M140.796 37.3992L172.607 60.7188L171.285 62.3097L139.786 38.7157L140.796 37.3992Z" fill="#F3F3F3"/>
<path d="M171.329 62.6772L171.126 62.5236L139.413 38.7706L140.746 37.0261L173.002 60.6749L171.329 62.6772ZM140.165 38.6663L171.241 61.9421L172.218 60.7682L140.851 37.7722L140.165 38.6663Z" fill="#262626"/>
<path d="M135.058 43.6199L166.869 66.9395L165.547 68.5304L134.048 44.9364L135.058 43.6199Z" fill="#F3F3F3"/>
<path d="M165.586 68.8979L165.383 68.7443L133.67 44.9913L135.003 43.2468L167.259 66.8956L165.586 68.8979ZM134.427 44.887L165.503 68.1628L166.48 66.9889L135.113 43.9929L134.427 44.887Z" fill="#262626"/>
<path d="M130.455 50.2629L162.267 73.5826L160.945 75.1734L129.446 51.5795L130.455 50.2629Z" fill="#F3F3F3"/>
<path d="M160.989 75.541L129.067 51.6343L130.4 49.8899L162.656 73.5387L160.989 75.541ZM129.824 51.5301L160.901 74.8059L161.877 73.6319L130.51 50.6359L129.824 51.5301Z" fill="#262626"/>
<path d="M125.178 57.3394L156.989 80.659L155.667 82.2444L124.169 58.6559L125.178 57.3394Z" fill="#F3F3F3"/>
<path d="M155.711 82.612L123.79 58.7054L125.123 56.9609L157.379 80.6097L155.711 82.612ZM124.553 58.6012L155.629 81.8769L156.605 80.703L125.238 57.707L124.553 58.6012Z" fill="#262626"/>
<path d="M152.672 23.5259L160.171 29.0884L158.756 31.0029L151.345 25.5556L152.672 23.5259Z" fill="#F3F3F3"/>
<path d="M158.816 31.3812L150.983 25.6267L152.601 23.1472L160.544 29.0334L158.816 31.3812ZM151.712 25.4896L158.701 30.6242L159.793 29.1376L152.738 23.9097L151.712 25.4896Z" fill="#262626"/>
<path d="M106.477 92.7002L126.752 108.916L140.357 91.5098L120.954 74.8772L106.477 92.7002Z" fill="#1A1A1A"/>
<path d="M109.099 92.4205L121.19 77.5269L137.8 91.7622L126.445 106.294L109.099 92.4205Z" fill="#F3F3F3"/>
<path d="M126.489 106.678L108.721 92.4642L121.157 77.1482L138.173 91.7346L126.489 106.678ZM109.478 92.3765L126.401 105.915L137.433 91.8005L121.228 77.9107L109.478 92.3765Z" fill="#262626"/>
<path d="M114.289 78.1414L118.348 94.9934L145.519 86.5674L143.226 79.9955L122.314 87.0556L119.758 77.1704L114.289 78.1414Z" fill="#FFC700"/>
<path d="M118.151 95.3336L113.96 77.9275L119.956 76.8633L122.506 86.7046L143.396 79.6555L145.87 86.743L118.151 95.3336ZM114.618 78.3554L118.54 94.6479L145.173 86.3919L143.061 80.3357L122.128 87.4013L119.561 77.4832L114.618 78.3554Z" fill="#262626"/>
<path d="M47.5556 145.182C47.5556 145.182 42.4374 156.915 48.0822 165.21C53.727 173.504 79.1586 187.377 105.956 141.523C124.619 159.192 132.754 164.946 143.078 161.77C147.247 154.425 147.247 154.425 147.247 154.425C147.247 154.425 127.751 124.374 113.834 121.407C101.019 118.675 89.4827 126.036 85.1819 131.994C84.2548 130.804 82.6037 133.118 82.6037 133.118C81.6766 132.191 76.1854 134.177 76.1854 134.177L47.5556 145.182Z" fill="#F3F3F3"/>
<path d="M66.1848 174.113C57.6985 174.113 50.781 169.643 47.8626 165.364C44.8949 161.008 44.9059 155.72 45.438 152.05C46.0085 148.089 47.2976 145.105 47.3086 145.078L47.3525 144.973L76.0865 133.925C76.9697 133.607 81.1608 132.153 82.5377 132.757C82.8833 132.323 83.7116 131.396 84.5235 131.38C84.7539 131.374 84.9679 131.446 85.1544 131.583C87.5955 128.33 91.7042 125.208 96.2135 123.195C100.24 121.396 106.576 119.58 113.899 121.144C119.731 122.389 127.158 128.346 135.974 138.857C142.524 146.663 147.433 154.206 147.483 154.283L147.57 154.42L143.27 162.001L143.166 162.034C141.35 162.593 139.605 162.884 137.855 162.884C129.731 162.884 121.535 156.63 106.027 141.956C90.7662 167.936 76.3992 173.784 67.0242 174.108C66.7389 174.108 66.4646 174.113 66.1848 174.113ZM47.7639 145.39C47.2867 146.559 43.0901 157.387 48.3125 165.056C51.1486 169.226 57.896 173.57 66.1848 173.576C66.4536 173.576 66.7279 173.57 67.0022 173.559C76.2785 173.241 90.5303 167.399 105.731 141.386L105.901 141.095L106.148 141.331C124.942 159.121 132.918 164.568 142.902 161.546L146.934 154.436C145.48 152.231 126.95 124.479 113.779 121.67C100.646 118.867 89.4003 126.613 85.4012 132.153L85.1927 132.444L84.9733 132.159C84.8471 131.994 84.71 131.917 84.5345 131.923C83.9146 131.934 83.0918 132.905 82.823 133.278L82.6364 133.536L82.4115 133.311C81.8575 132.757 78.4892 133.634 76.273 134.43L47.7639 145.39Z" fill="#262626"/>
<path d="M46.1786 146.734C46.1786 146.734 55.1751 149.823 65.0165 145.281C74.8523 140.738 80.0144 136.569 80.0144 136.569L71.1495 136.152L47.1935 144.798L46.1786 146.734Z" fill="#1A1A1A"/>
<path d="M29.0247 164.031C29.0247 164.031 24.6581 163.191 24.2632 165.397C23.8682 167.602 30.1767 167.295 33.2596 166.982C36.3481 166.675 36.392 164.069 36.1726 163.142C35.9531 162.215 36.6114 159.703 36.6114 159.703L32.3764 157.848C32.3764 157.848 31.7566 160.01 31.0763 160.805C30.3961 161.601 26.9511 161.068 24.5265 160.608C22.1018 160.147 14.9978 164.843 14.9978 164.843C14.9978 164.843 13.9829 166.587 17.779 166.406C21.5751 166.231 24.9269 166.543 24.9269 166.543" fill="#F3F3F3"/>
<path d="M29.2333 167.481C27.4998 167.481 25.8212 167.322 24.8502 166.817C24.4114 166.779 21.2681 166.527 17.7901 166.686C16.128 166.763 15.135 166.499 14.7565 165.874C14.4219 165.32 14.7511 164.738 14.7675 164.711L14.8005 164.656L14.8553 164.623C15.1515 164.431 22.0799 159.873 24.5814 160.35C29.4692 161.282 30.6266 160.931 30.879 160.635C31.5153 159.895 32.1187 157.805 32.1242 157.783L32.2065 157.486L36.9352 159.554L36.8749 159.779C36.6938 160.46 36.2659 162.385 36.436 163.087C36.5731 163.669 36.6225 164.919 35.9204 165.901C35.3663 166.68 34.4831 167.136 33.2872 167.251C32.1517 167.372 30.6705 167.481 29.2333 167.481ZM27.2365 164.146C26.4685 164.146 25.6127 164.25 25.0642 164.629C24.7624 164.837 24.5869 165.106 24.5211 165.446C24.4772 165.682 24.532 165.874 24.6966 166.049C25.6456 167.081 29.727 167.07 33.2324 166.719C34.2637 166.615 35.0207 166.236 35.476 165.589C36.0684 164.76 36.0246 163.702 35.9094 163.208C35.7119 162.38 36.1288 160.531 36.2933 159.862L32.5466 158.221C32.3492 158.852 31.8444 160.328 31.2794 160.986C30.6705 161.694 28.5695 161.661 24.4717 160.876C22.5901 160.52 17.2032 163.718 15.2009 165.029C15.157 165.133 15.0802 165.375 15.2119 165.594C15.36 165.836 15.892 166.231 17.7572 166.143C20.4397 166.017 22.9247 166.137 24.148 166.22C23.9889 165.962 23.9286 165.665 23.989 165.347C24.0768 164.859 24.3345 164.47 24.7569 164.179C26.1558 163.219 28.9535 163.74 29.0687 163.762L28.97 164.289C28.959 164.294 28.1581 164.146 27.2365 164.146Z" fill="#262626"/>
<path d="M47.8461 94.5764C47.8461 94.5764 37.533 119.514 33.5888 142.055C32.0638 152.335 31.0763 158.693 31.0763 158.693C31.0763 158.693 32.3325 161.206 36.6333 160.481C40.2045 153.932 53.8748 124.325 57.3198 122.12C57.8464 116.914 47.8461 94.5764 47.8461 94.5764Z" fill="#FFC700"/>
<path d="M35.1248 160.887C31.9047 160.887 30.8789 158.913 30.8295 158.819L30.7911 158.743L30.8021 158.66C30.8131 158.594 31.8115 152.187 33.3146 142.028C37.2204 119.706 47.4895 94.7301 47.5938 94.4832L47.8352 93.9072L48.093 94.4777C48.5044 95.3939 58.1154 116.942 57.5833 122.159L57.5723 122.29L57.4625 122.361C55.0378 123.914 47.0453 140.157 41.7516 150.904C39.667 155.138 37.8622 158.797 36.8693 160.624L36.809 160.739L36.6827 160.761C36.1122 160.844 35.5966 160.887 35.1248 160.887ZM31.3561 158.644C31.592 159.028 32.8757 160.794 36.4579 160.235C37.4617 158.386 39.2281 154.793 41.2688 150.651C46.8258 139.367 54.4015 123.974 57.0621 121.972C57.3857 117.167 49.4095 98.7785 47.8626 95.2677C46.2937 99.168 37.4234 121.753 33.8577 142.104C32.4478 151.6 31.4823 157.821 31.3561 158.644Z" fill="#262626"/>
<path d="M45.3501 144.036C45.3501 144.036 37.7633 104.818 52.1852 86.6882C66.6071 68.558 80.4859 80.1822 82.6034 86.4688C84.7209 92.7554 89.4605 109.717 81.1716 135.741C73.5849 141.649 45.7505 151.046 45.3501 144.036Z" fill="#FFC700"/>
<path d="M50.1282 146.795C48.7184 146.795 47.5445 146.619 46.6942 146.235C45.6848 145.78 45.1473 145.05 45.0814 144.068C44.9882 143.591 43.1779 133.876 43.0901 122.164C43.0353 115.137 43.6003 108.768 44.7688 103.244C46.2335 96.3154 48.6581 90.6926 51.9769 86.5235C59.4375 77.1429 66.4098 76.1226 70.9465 76.918C77.3428 78.0371 81.7642 83.1278 82.8614 86.3863C87.6778 100.682 87.1786 117.775 81.4296 135.829L81.4022 135.906L81.3363 135.955C75.5105 140.492 58.5927 146.795 50.1282 146.795ZM68.4724 77.2362C64.1936 77.2362 58.483 79.211 52.4048 86.8526C45.0046 96.1563 43.5509 111.182 43.6332 122.148C43.7265 134.057 45.6026 143.882 45.619 143.981L45.6245 144.019C45.6684 144.803 46.0908 145.368 46.9191 145.741C47.7036 146.098 48.7898 146.257 50.1009 146.257C58.2965 146.257 75.2363 139.971 80.9414 135.576C86.6355 117.666 87.1237 100.715 82.3512 86.5509C81.2979 83.4241 77.0356 78.5253 70.8532 77.4447C70.1236 77.3185 69.3227 77.2362 68.4724 77.2362Z" fill="#262626"/>
<path d="M150.341 167.415L150.78 168.386C150.78 168.386 154.307 166.883 158.542 161.771C162.777 156.653 167.056 150.607 165.114 150.454C163.172 150.3 159.645 152.374 159.645 152.374L150.341 167.415Z" fill="#262626"/>
<path d="M150.648 168.737L150.039 167.393L159.458 152.171L159.513 152.138C159.661 152.05 163.139 150.02 165.141 150.185C165.459 150.212 165.69 150.366 165.799 150.624C166.507 152.297 161.109 159.094 158.756 161.941C154.526 167.048 151.037 168.573 150.889 168.633L150.648 168.737ZM150.648 167.432L150.917 168.024C151.773 167.591 154.823 165.846 158.344 161.595C162.903 156.087 165.701 151.759 165.306 150.832C165.289 150.799 165.262 150.733 165.103 150.722C163.402 150.585 160.303 152.313 159.847 152.571L150.648 167.432Z" fill="#262626"/>
<path d="M153.001 164.832C152.195 166.445 150.61 167.767 148.81 168.162C148.975 168.222 149.134 168.282 149.304 168.321C153.276 169.314 157.176 159.055 159.228 155.089C161.279 151.118 165.119 150.459 165.119 150.459C165.119 150.459 164.883 149.752 164.538 149.006C158.021 151.068 155.942 158.951 153.001 164.832Z" fill="#F3F3F3"/>
<path d="M149.858 168.655C149.65 168.655 149.447 168.628 149.238 168.578C149.079 168.54 148.915 168.485 148.712 168.408L147.872 168.085L148.75 167.893C150.423 167.525 151.959 166.302 152.754 164.705C153.336 163.537 153.879 162.314 154.45 161.019C156.743 155.813 159.118 150.426 164.45 148.737L164.675 148.665L164.774 148.879C165.125 149.631 165.355 150.333 165.366 150.366L165.465 150.662L165.158 150.717C165.119 150.722 161.422 151.408 159.463 155.21C159.118 155.884 158.723 156.718 158.268 157.689C156.079 162.363 153.122 168.655 149.858 168.655ZM149.836 168.118C149.842 168.118 149.847 168.118 149.853 168.118C152.782 168.118 155.772 161.749 157.785 157.464C158.246 156.488 158.641 155.643 158.992 154.963C160.764 151.534 163.786 150.508 164.763 150.256C164.68 150.031 164.549 149.691 164.39 149.329C159.447 151.03 157.154 156.219 154.943 161.244C154.373 162.544 153.83 163.773 153.237 164.952C152.53 166.373 151.273 167.525 149.836 168.118Z" fill="#262626"/>
<path d="M142.129 161.601C142.129 161.601 141.136 159.264 143.517 156.768C145.897 154.272 146.715 154.414 146.715 154.414C146.715 154.414 146.934 155.643 146.139 157.207C145.343 158.77 142.968 162.462 142.129 161.601Z" fill="#1A1A1A"/>
<path d="M153.001 164.832C155.942 158.956 158.021 151.068 164.538 149C164.121 148.106 163.545 147.162 163.002 147.294C162.009 147.541 148.229 154.82 147.049 154.787C145.87 154.754 142.688 160.246 142.688 160.246C142.688 160.246 145.118 166.741 148.81 168.156C150.61 167.761 152.195 166.444 153.001 164.832Z" fill="#F3F3F3"/>
<path d="M148.788 168.436L148.712 168.408C144.948 166.96 142.535 160.608 142.43 160.339L142.387 160.218L142.452 160.109C143.215 158.792 145.782 154.513 147.038 154.513C147.044 154.513 147.055 154.513 147.06 154.513C147.752 154.513 153.594 151.589 157.467 149.658C160.698 148.045 162.541 147.129 162.936 147.031C163.528 146.883 164.132 147.486 164.779 148.885L164.911 149.165L164.62 149.258C159.518 150.876 157.192 156.148 154.949 161.25C154.378 162.55 153.835 163.778 153.243 164.958C152.376 166.697 150.697 168.024 148.871 168.43L148.788 168.436ZM142.984 160.268C143.33 161.14 145.601 166.565 148.832 167.876C150.472 167.487 151.976 166.28 152.76 164.711C153.341 163.543 153.885 162.319 154.455 161.025C156.71 155.912 159.036 150.635 164.165 148.835C163.655 147.821 163.26 147.502 163.073 147.552C162.716 147.64 160.286 148.857 157.714 150.141C151.932 153.032 147.779 155.073 147.044 155.056H147.038C146.408 155.056 144.466 157.733 142.984 160.268Z" fill="#262626"/>
<path d="M77.3428 85.695C77.3428 85.695 67.4193 87.2804 68.478 97.0778C69.5367 106.875 78.2699 120.633 89.6528 121.824C101.036 123.014 114.135 111.9 116.648 105.943C117.871 103.661 113.153 100.792 111.617 101.181C111.617 101.181 94.151 115.208 84.4852 94.4337C81.7094 88.0813 79.0379 85.2397 77.3428 85.695Z" fill="#FFC700"/>
<path d="M91.3477 122.18C90.7662 122.18 90.1902 122.153 89.6197 122.093C77.8913 120.864 69.2459 106.711 68.2036 97.1053C67.6441 91.9158 70.151 89.0139 72.3563 87.4944C74.6658 85.9035 77.0575 85.4701 77.2824 85.4317C79.2847 84.9106 82.066 88.2349 84.732 94.324C87.5791 100.446 91.3917 104.11 96.0545 105.197C103.811 107.007 111.37 101.033 111.447 100.973L111.491 100.934L111.546 100.918C112.731 100.622 115.238 101.905 116.412 103.414C117.141 104.346 117.301 105.262 116.884 106.058C114.393 111.944 102.27 122.18 91.3477 122.18ZM77.6938 85.92C77.5951 85.92 77.5018 85.9309 77.4141 85.9584L77.3867 85.9638C77.3647 85.9693 74.9236 86.3753 72.6525 87.9497C69.6354 90.0397 68.3188 93.1007 68.7467 97.0504C69.7671 106.475 78.2205 120.359 89.6801 121.56C90.2397 121.621 90.8047 121.648 91.3697 121.648C102.078 121.648 113.965 111.609 116.401 105.844L116.412 105.822C116.818 105.07 116.412 104.281 116 103.754C114.903 102.35 112.671 101.263 111.738 101.439C111.052 101.971 103.608 107.523 95.9392 105.729C91.1064 104.599 87.1732 100.841 84.2493 94.5544C81.4406 88.1362 79.0378 85.92 77.6938 85.92Z" fill="#262626"/>
<path d="M111.508 101.834C110.306 102.673 108.831 103.419 111.08 106.069C113.329 108.719 115.298 108.883 116.176 106.31C117.048 103.738 112.709 100.995 111.508 101.834Z" fill="#1A1A1A"/>
<path d="M111.573 102.767C111.573 102.767 116.867 96.107 120.087 95.7504C123.307 95.3993 127.059 96.0576 127.674 97.5607C128.294 99.0583 125.161 99.6782 125.161 99.6782C125.161 99.6782 126.483 104.045 123.527 104.44C120.57 104.835 117.75 102.235 117.75 102.235C117.75 102.235 115.912 106.936 114.865 107.226C113.559 107.6 110.997 105.285 111.573 102.767Z" fill="#F3F3F3"/>
<path d="M114.574 107.539C113.982 107.539 113.268 107.199 112.632 106.59C111.754 105.756 110.948 104.297 111.316 102.706L111.327 102.646L111.365 102.597C111.584 102.322 116.768 95.8436 120.06 95.4816C123.307 95.125 127.235 95.7778 127.926 97.4564C128.074 97.813 128.058 98.1696 127.888 98.4932C127.449 99.3106 126.105 99.7275 125.496 99.8811C125.672 100.594 126.023 102.492 125.249 103.699C124.882 104.27 124.317 104.61 123.571 104.714C121.053 105.054 118.683 103.354 117.865 102.69C117.355 103.946 115.945 107.215 114.942 107.495C114.821 107.523 114.7 107.539 114.574 107.539ZM111.82 102.887C111.54 104.237 112.243 105.482 113 106.201C113.614 106.788 114.338 107.1 114.793 106.969C115.424 106.793 116.757 104.034 117.498 102.136L117.641 101.768L117.931 102.037C117.959 102.064 120.702 104.549 123.494 104.176C124.086 104.1 124.509 103.847 124.794 103.408C125.611 102.141 124.915 99.7824 124.909 99.7604L124.821 99.4752L125.112 99.4148C125.633 99.3106 127.059 98.8992 127.411 98.2409C127.509 98.0599 127.515 97.8733 127.427 97.6649C126.911 96.4196 123.499 95.6516 120.12 96.0192C117.185 96.3428 112.308 102.289 111.82 102.887Z" fill="#262626"/>
<path d="M176.113 165.243C176.113 165.243 173.512 165.923 173.512 161.463C173.512 157.004 176.189 145.566 174.275 142.286C172.36 139.005 176.568 142.055 177.413 145.412C178.258 148.77 180.474 163.872 176.113 165.243Z" fill="#262626"/>
<path d="M175.756 165.55C175.421 165.55 174.933 165.474 174.467 165.117C173.655 164.492 173.244 163.263 173.244 161.464C173.244 159.96 173.545 157.651 173.869 155.204C174.494 150.448 175.273 144.529 174.044 142.423C173.408 141.331 173.463 140.985 173.6 140.788C173.649 140.722 173.787 140.569 174.077 140.623C174.933 140.783 177.094 143.021 177.676 145.347C178.246 147.623 181.05 163.971 176.195 165.501L176.184 165.507C176.167 165.507 176.003 165.55 175.756 165.55ZM174.066 141.172C174.094 141.309 174.193 141.594 174.511 142.148C175.833 144.414 175.076 150.179 174.401 155.27C174.083 157.7 173.781 159.993 173.781 161.464C173.781 163.054 174.127 164.168 174.79 164.684C175.356 165.123 175.97 165.002 176.041 164.985C179.925 163.74 178.225 149.757 177.155 145.478C176.601 143.278 174.648 141.408 174.066 141.172Z" fill="#262626"/>
<path d="M172.289 141.424C169.667 143.009 168.46 148.841 168.284 151.869C168.081 155.429 164.867 157.514 164.867 157.514C161.713 161.694 164.867 165.698 164.867 165.698L173.419 165.369C174.703 157.415 175.24 148.934 172.289 141.424Z" fill="#F3F3F3"/>
<path d="M164.741 165.973L164.658 165.863C164.626 165.819 161.416 161.644 164.653 157.349L164.68 157.311L164.719 157.283C164.752 157.261 167.818 155.226 168.016 151.847C168.202 148.578 169.491 142.79 172.152 141.183L172.426 141.018L172.541 141.315C175.701 149.357 174.812 158.413 173.688 165.402L173.655 165.622L164.741 165.973ZM165.059 157.711C162.36 161.332 164.532 164.766 165.004 165.424L173.194 165.106C174.275 158.304 175.098 149.592 172.163 141.836C169.98 143.492 168.745 148.621 168.559 151.885C168.356 155.358 165.459 157.442 165.059 157.711Z" fill="#262626"/>
<path d="M173.792 141.018C173.249 141.002 172.75 141.15 172.289 141.424C175.24 148.934 174.703 157.421 173.419 165.369L175.729 165.282C175.734 165.282 176.392 145.462 173.792 141.018Z" fill="#F3F3F3"/>
<path d="M173.106 165.649L173.161 165.325C174.275 158.402 175.158 149.439 172.042 141.523L171.96 141.309L172.152 141.194C172.673 140.881 173.227 140.733 173.803 140.75L173.951 140.755L174.028 140.881C176.639 145.341 176.03 164.475 176.003 165.287L175.992 165.539L173.106 165.649ZM172.629 141.545C175.641 149.406 174.834 158.205 173.743 165.09L175.471 165.024C175.537 162.742 175.932 145.582 173.633 141.287C173.287 141.298 172.953 141.38 172.629 141.545Z" fill="#262626"/>
<path d="M70.1784 160.597C69.7066 160.597 69.2513 160.569 68.8234 160.509C68.6753 160.487 68.5711 160.355 68.593 160.207C68.6149 160.059 68.7466 159.955 68.8947 159.977C69.3007 160.032 69.734 160.059 70.1784 160.059C70.4417 160.059 70.7105 160.048 70.9902 160.032C71.1384 160.021 71.27 160.13 71.2755 160.284C71.2865 160.432 71.1768 160.564 71.0232 160.569C70.7379 160.586 70.4527 160.597 70.1784 160.597ZM73.1352 160.251C73.0145 160.251 72.9048 160.169 72.8719 160.043C72.839 159.9 72.9267 159.752 73.0693 159.719C73.7112 159.565 74.3804 159.335 75.0552 159.033C75.1923 158.973 75.3514 159.033 75.4117 159.17C75.4721 159.307 75.4117 159.467 75.2746 159.527C74.5724 159.84 73.8757 160.075 73.201 160.24C73.1736 160.246 73.1516 160.251 73.1352 160.251ZM66.7992 159.922C66.7608 159.922 66.7224 159.916 66.684 159.894C65.9983 159.576 65.3839 159.143 64.8573 158.605C64.7531 158.501 64.753 158.331 64.8627 158.227C64.9669 158.123 65.137 158.123 65.2413 158.232C65.724 158.721 66.2836 159.121 66.9089 159.412C67.0461 159.472 67.1009 159.637 67.0406 159.768C66.9967 159.862 66.8979 159.922 66.7992 159.922ZM77.0684 158.55C76.9751 158.55 76.8874 158.507 76.838 158.419C76.7612 158.293 76.7996 158.128 76.9312 158.051C77.5017 157.706 78.0942 157.305 78.6977 156.861C78.8184 156.773 78.9884 156.795 79.0761 156.916C79.1639 157.036 79.142 157.206 79.0213 157.294C78.4069 157.75 77.8035 158.161 77.2165 158.512C77.1616 158.539 77.1123 158.55 77.0684 158.55ZM63.815 156.932C63.7163 156.932 63.623 156.877 63.5736 156.784C63.2609 156.164 63.0086 155.468 62.8166 154.705C62.7782 154.562 62.8659 154.414 63.014 154.376C63.1567 154.337 63.3048 154.425 63.3432 154.573C63.5243 155.297 63.7656 155.956 64.0563 156.543C64.1222 156.674 64.0673 156.839 63.9357 156.905C63.8973 156.921 63.8589 156.932 63.815 156.932ZM140.34 156.916C140.291 156.916 140.236 156.899 140.192 156.872C139.693 156.537 139.122 156.109 138.448 155.555C138.333 155.462 138.316 155.292 138.409 155.177C138.503 155.062 138.673 155.045 138.788 155.138C139.452 155.681 140.006 156.104 140.488 156.428C140.615 156.51 140.648 156.68 140.56 156.801C140.51 156.872 140.428 156.916 140.34 156.916ZM80.5354 156C80.4586 156 80.3818 155.967 80.3324 155.906C80.2336 155.791 80.2501 155.621 80.3598 155.528C80.8754 155.089 81.413 154.606 81.9506 154.096C82.0604 153.992 82.2304 153.997 82.3292 154.107C82.4334 154.217 82.4279 154.387 82.3182 154.486C81.7696 155.001 81.2265 155.495 80.7054 155.939C80.6615 155.978 80.6012 156 80.5354 156ZM136.978 154.211C136.912 154.211 136.851 154.189 136.802 154.145C136.314 153.712 135.787 153.24 135.195 152.697C135.085 152.598 135.08 152.428 135.178 152.319C135.277 152.209 135.447 152.204 135.557 152.302C136.144 152.845 136.67 153.317 137.159 153.745C137.268 153.844 137.279 154.014 137.181 154.124C137.126 154.178 137.049 154.211 136.978 154.211ZM83.6786 153.043C83.6128 153.043 83.5415 153.015 83.4922 152.966C83.3879 152.862 83.3824 152.692 83.4867 152.588C83.9639 152.105 84.4631 151.578 84.9678 151.03C85.0665 150.92 85.2366 150.914 85.3463 151.013C85.456 151.112 85.4615 151.282 85.3628 151.392C84.8526 151.946 84.3479 152.472 83.8706 152.961C83.8213 153.015 83.75 153.043 83.6786 153.043ZM62.7288 152.785C62.5917 152.785 62.4765 152.681 62.46 152.544C62.4052 151.957 62.3777 151.337 62.3777 150.7C62.3777 150.585 62.3777 150.476 62.3777 150.36C62.3777 150.212 62.4984 150.097 62.6465 150.097H62.652C62.8001 150.097 62.9208 150.223 62.9153 150.371C62.9153 150.481 62.9153 150.591 62.9153 150.7C62.9153 151.32 62.9428 151.924 62.9976 152.494C63.0141 152.642 62.9043 152.774 62.7562 152.79C62.7453 152.785 62.7343 152.785 62.7288 152.785ZM133.79 151.298C133.725 151.298 133.659 151.276 133.604 151.227C133.094 150.75 132.567 150.256 132.03 149.746C131.92 149.642 131.914 149.472 132.019 149.367C132.123 149.258 132.293 149.252 132.397 149.356C132.935 149.861 133.456 150.36 133.966 150.838C134.076 150.942 134.081 151.112 133.977 151.216C133.933 151.265 133.862 151.298 133.79 151.298ZM86.6135 149.878C86.5476 149.878 86.4873 149.856 86.4325 149.812C86.3228 149.713 86.3118 149.543 86.4105 149.433C86.8603 148.923 87.3267 148.396 87.8259 147.809C87.9246 147.694 88.0946 147.683 88.2043 147.782C88.3195 147.881 88.3305 148.051 88.2318 148.161C87.7271 148.748 87.2608 149.28 86.811 149.79C86.7671 149.85 86.6903 149.878 86.6135 149.878ZM62.7782 148.479C62.7672 148.479 62.7617 148.479 62.7507 148.479C62.6026 148.462 62.4929 148.331 62.5094 148.183C62.6411 146.899 62.8275 146.054 62.833 146.021C62.8659 145.879 63.0086 145.785 63.1512 145.818C63.2938 145.851 63.3871 145.994 63.3541 146.136C63.3541 146.147 63.1677 146.987 63.036 148.237C63.0305 148.375 62.9153 148.479 62.7782 148.479ZM130.647 148.331C130.581 148.331 130.515 148.309 130.461 148.259C129.945 147.771 129.424 147.277 128.892 146.773C128.782 146.668 128.776 146.498 128.881 146.394C128.985 146.284 129.155 146.279 129.259 146.383C129.791 146.882 130.312 147.382 130.828 147.87C130.938 147.974 130.938 148.144 130.839 148.248C130.79 148.303 130.724 148.331 130.647 148.331ZM89.4331 146.614C89.3728 146.614 89.3125 146.592 89.2576 146.548C89.1424 146.455 89.1314 146.284 89.2247 146.169C89.691 145.621 90.1518 145.067 90.6126 144.513C90.7058 144.397 90.8758 144.381 90.991 144.48C91.1062 144.573 91.1227 144.743 91.024 144.858C90.5632 145.412 90.0969 145.966 89.6361 146.515C89.5867 146.581 89.5099 146.614 89.4331 146.614ZM127.515 145.363C127.449 145.363 127.383 145.341 127.328 145.292C126.807 144.803 126.28 144.31 125.754 143.816C125.644 143.717 125.639 143.542 125.737 143.437C125.836 143.333 126.012 143.322 126.116 143.421C126.648 143.915 127.169 144.408 127.696 144.897C127.806 145.001 127.811 145.171 127.707 145.275C127.657 145.335 127.586 145.363 127.515 145.363ZM92.2089 143.3C92.1486 143.3 92.0882 143.278 92.0388 143.24C91.9236 143.147 91.9072 142.977 92.0059 142.861C92.4722 142.302 92.933 141.753 93.3938 141.205C93.4925 141.09 93.6571 141.079 93.7723 141.172C93.8875 141.271 93.8985 141.435 93.8052 141.55C93.3444 142.093 92.8837 142.647 92.4174 143.202C92.3625 143.267 92.2857 143.3 92.2089 143.3ZM124.35 142.428C124.284 142.428 124.218 142.406 124.169 142.357C123.636 141.868 123.104 141.386 122.572 140.908C122.462 140.81 122.451 140.64 122.55 140.53C122.649 140.42 122.819 140.409 122.929 140.508C123.461 140.985 123.998 141.468 124.531 141.956C124.64 142.055 124.646 142.225 124.547 142.335C124.492 142.395 124.421 142.428 124.35 142.428ZM94.9956 140.003C94.9353 140.003 94.8695 139.981 94.8201 139.938C94.7104 139.839 94.6939 139.669 94.7927 139.559C95.3028 138.967 95.7746 138.434 96.2189 137.935C96.3177 137.826 96.4878 137.815 96.5975 137.913C96.7072 138.012 96.7181 138.182 96.6194 138.292C96.175 138.791 95.7088 139.318 95.1986 139.91C95.1492 139.976 95.0724 140.003 94.9956 140.003ZM121.135 139.548C121.075 139.548 121.009 139.526 120.959 139.482C120.4 138.994 119.851 138.522 119.325 138.078C119.209 137.985 119.198 137.815 119.292 137.699C119.39 137.584 119.555 137.573 119.67 137.666C120.197 138.111 120.751 138.583 121.31 139.076C121.42 139.175 121.437 139.345 121.338 139.455C121.283 139.515 121.212 139.548 121.135 139.548ZM97.8866 136.8C97.8208 136.8 97.755 136.778 97.7001 136.723C97.5904 136.619 97.5904 136.449 97.6891 136.344C98.2212 135.785 98.7314 135.269 99.2141 134.803C99.3184 134.699 99.4939 134.704 99.5926 134.808C99.6969 134.918 99.6914 135.088 99.5871 135.187C99.1099 135.648 98.5997 136.163 98.0786 136.712C98.0292 136.767 97.9579 136.8 97.8866 136.8ZM117.833 136.767C117.772 136.767 117.712 136.745 117.662 136.706C117.081 136.235 116.51 135.79 115.973 135.379C115.852 135.291 115.83 135.121 115.924 135C116.011 134.88 116.181 134.858 116.302 134.951C116.845 135.368 117.421 135.818 118.008 136.29C118.123 136.383 118.14 136.553 118.046 136.668C117.992 136.734 117.909 136.767 117.833 136.767ZM114.393 134.156C114.338 134.156 114.283 134.139 114.239 134.106C113.62 133.673 113.016 133.272 112.457 132.921C112.33 132.845 112.292 132.674 112.369 132.548C112.446 132.422 112.616 132.384 112.742 132.461C113.312 132.817 113.921 133.223 114.552 133.662C114.673 133.75 114.706 133.914 114.618 134.035C114.563 134.117 114.481 134.156 114.393 134.156ZM100.997 133.81C100.92 133.81 100.843 133.777 100.794 133.717C100.695 133.602 100.712 133.432 100.827 133.338C101.425 132.834 102.006 132.384 102.555 132.005C102.676 131.923 102.846 131.95 102.928 132.077C103.01 132.197 102.983 132.367 102.857 132.45C102.319 132.817 101.754 133.25 101.173 133.75C101.123 133.788 101.057 133.81 100.997 133.81ZM110.723 131.896C110.679 131.896 110.641 131.885 110.602 131.868C109.906 131.511 109.253 131.232 108.66 131.04C108.518 130.996 108.441 130.842 108.49 130.7C108.54 130.557 108.688 130.48 108.831 130.53C109.45 130.733 110.131 131.023 110.849 131.391C110.981 131.457 111.036 131.621 110.964 131.753C110.915 131.841 110.822 131.896 110.723 131.896ZM104.568 131.424C104.464 131.424 104.365 131.363 104.321 131.265C104.261 131.127 104.321 130.968 104.453 130.908C105.194 130.573 105.907 130.365 106.581 130.283C106.73 130.266 106.861 130.37 106.878 130.519C106.894 130.667 106.79 130.798 106.642 130.815C106.022 130.886 105.358 131.084 104.672 131.396C104.645 131.418 104.607 131.424 104.568 131.424Z" fill="#1A1A1A"/>
<path d="M175.591 27.5962C177.418 27.5962 178.899 26.1152 178.899 24.2883C178.899 22.4615 177.418 20.9805 175.591 20.9805C173.765 20.9805 172.284 22.4615 172.284 24.2883C172.284 26.1152 173.765 27.5962 175.591 27.5962Z" fill="#F3F3F3"/>
<path d="M175.591 27.865C173.617 27.865 172.015 26.2577 172.015 24.2883C172.015 22.3135 173.622 20.7117 175.591 20.7117C177.561 20.7117 179.168 22.319 179.168 24.2883C179.168 26.2577 177.566 27.865 175.591 27.865ZM175.591 21.2493C173.918 21.2493 172.552 22.6152 172.552 24.2883C172.552 25.9615 173.918 27.3274 175.591 27.3274C177.265 27.3274 178.63 25.9615 178.63 24.2883C178.63 22.6097 177.27 21.2493 175.591 21.2493Z" fill="#262626"/>
<path d="M214.386 124.435H164.538V126.092H214.386V124.435Z" fill="#F3F3F3"/>
<path d="M214.655 126.361H164.269V124.166H214.655V126.361ZM164.807 125.823H214.117V124.709H164.807V125.823Z" fill="#262626"/>
<path d="M209.224 114.753H203.223V123.749H209.224V114.753Z" fill="#1A1A1A"/>
<path d="M198.637 108.148H188.801V123.755H198.637V108.148Z" fill="#F3F3F3"/>
<path d="M198.906 124.024H188.532V107.879H198.906V124.024ZM189.07 123.486H198.368V108.422H189.07V123.486Z" fill="#262626"/>
<path d="M23.2813 121.347H13.4454V136.954H23.2813V121.347Z" fill="#F3F3F3"/>
<path d="M23.5501 137.222H13.1766V121.078H23.5501V137.222ZM13.7142 136.685H23.0125V121.621H13.7142V136.685Z" fill="#262626"/>
<path d="M204.989 160.328H194.402V169.368H204.989V160.328Z" fill="#F3F3F3"/>
<path d="M205.258 169.637H194.133V160.059H205.258V169.637ZM194.671 169.099H204.72V160.602H194.671V169.099Z" fill="#262626"/>
<path d="M119.21 65.623C119.078 65.623 118.963 65.5297 118.946 65.3926C118.836 64.6904 118.716 63.9773 118.584 63.2751C118.557 63.127 118.655 62.9898 118.798 62.9624C118.946 62.935 119.083 63.0337 119.111 63.1764C119.242 63.8785 119.363 64.5971 119.473 65.3103C119.495 65.4584 119.396 65.5955 119.248 65.6175C119.237 65.623 119.226 65.623 119.21 65.623ZM12.7159 62.3645C12.6939 62.3645 12.672 62.359 12.65 62.3535C12.5074 62.3151 12.4196 62.167 12.458 62.0244C12.6391 61.3277 12.8365 60.6255 13.0395 59.9398C13.0834 59.7972 13.2315 59.7149 13.3741 59.7588C13.5167 59.8027 13.5991 59.9508 13.5552 60.0934C13.3522 60.7736 13.1602 61.4703 12.9792 62.1615C12.9462 62.2822 12.8365 62.3645 12.7159 62.3645ZM118.414 61.3935C118.293 61.3935 118.178 61.3057 118.151 61.1851C117.997 60.4884 117.827 59.7862 117.646 59.1005C117.608 58.9579 117.695 58.8097 117.838 58.7714C117.981 58.733 118.129 58.8207 118.167 58.9633C118.348 59.6545 118.518 60.3622 118.677 61.0644C118.71 61.207 118.617 61.3551 118.474 61.388C118.458 61.388 118.436 61.3935 118.414 61.3935ZM13.9446 58.2337C13.9172 58.2337 13.8898 58.2283 13.8569 58.2173C13.7142 58.1679 13.6375 58.0198 13.6868 57.8772C13.9172 57.197 14.1586 56.5112 14.4109 55.8365C14.4603 55.6994 14.6194 55.6281 14.7565 55.6774C14.8937 55.7268 14.965 55.8859 14.9156 56.023C14.6688 56.6868 14.4274 57.367 14.197 58.0472C14.1586 58.1624 14.0544 58.2337 13.9446 58.2337ZM117.328 57.2244C117.213 57.2244 117.103 57.1476 117.07 57.0324C116.867 56.3467 116.648 55.661 116.423 54.9862C116.373 54.8436 116.45 54.69 116.593 54.6461C116.735 54.5967 116.889 54.6735 116.933 54.8162C117.163 55.4964 117.383 56.1876 117.586 56.8788C117.63 57.0214 117.547 57.1695 117.405 57.2134C117.383 57.2189 117.355 57.2244 117.328 57.2244ZM15.4532 54.2018C15.4203 54.2018 15.3819 54.1963 15.349 54.1798C15.2119 54.125 15.146 53.9659 15.2009 53.8287C15.4752 53.165 15.7659 52.4957 16.0621 51.8429C16.1225 51.7058 16.2815 51.6454 16.4187 51.7113C16.5558 51.7716 16.6162 51.9307 16.5503 52.0678C16.2541 52.7152 15.9689 53.3789 15.6946 54.0372C15.6562 54.1359 15.5574 54.2018 15.4532 54.2018ZM115.951 53.143C115.841 53.143 115.737 53.0772 115.699 52.9675C115.446 52.2982 115.183 51.629 114.909 50.9762C114.854 50.839 114.914 50.68 115.051 50.6251C115.189 50.5702 115.348 50.6306 115.402 50.7677C115.677 51.4315 115.946 52.1062 116.203 52.781C116.258 52.9181 116.187 53.0772 116.044 53.1266C116.017 53.1375 115.984 53.143 115.951 53.143ZM17.2361 50.2795C17.1977 50.2795 17.1538 50.2685 17.1154 50.2521C16.9837 50.1862 16.9289 50.0217 16.9947 49.89C17.3129 49.2482 17.653 48.6009 17.9931 47.97C18.0644 47.8384 18.229 47.789 18.3606 47.8603C18.4923 47.9316 18.5416 48.0962 18.4703 48.2279C18.1302 48.8532 17.8011 49.4951 17.4829 50.1314C17.428 50.2247 17.3348 50.2795 17.2361 50.2795ZM114.289 49.1659C114.185 49.1659 114.091 49.1056 114.042 49.0068C113.746 48.3595 113.433 47.7122 113.109 47.0759C113.044 46.9442 113.098 46.7796 113.23 46.7138C113.362 46.648 113.526 46.6973 113.592 46.8345C113.916 47.4763 114.234 48.1291 114.53 48.7819C114.591 48.9191 114.536 49.0781 114.399 49.1385C114.366 49.1549 114.327 49.1659 114.289 49.1659ZM19.2877 46.4944C19.2438 46.4944 19.1944 46.4834 19.1506 46.456C19.0244 46.3792 18.9805 46.2146 19.0573 46.0884C19.4248 45.4686 19.8034 44.8487 20.1874 44.2452C20.2696 44.1191 20.4342 44.0807 20.5604 44.163C20.6866 44.2452 20.7249 44.4098 20.6426 44.536C20.2586 45.1339 19.8857 45.7483 19.5236 46.3627C19.4742 46.445 19.381 46.4944 19.2877 46.4944ZM112.352 45.3204C112.259 45.3204 112.166 45.2711 112.116 45.1833C111.776 44.5634 111.414 43.938 111.052 43.3291C110.975 43.203 111.019 43.0384 111.146 42.9616C111.272 42.8848 111.436 42.9287 111.513 43.0549C111.881 43.6692 112.243 44.3001 112.588 44.9255C112.66 45.0571 112.61 45.2217 112.484 45.293C112.44 45.3095 112.396 45.3204 112.352 45.3204ZM21.6081 42.8629C21.5533 42.8629 21.504 42.8464 21.4546 42.8135C21.3339 42.7312 21.301 42.5611 21.3833 42.4405C21.7892 41.848 22.2116 41.2555 22.6394 40.6795C22.7272 40.5589 22.8973 40.5369 23.018 40.6247C23.1387 40.7125 23.1606 40.8825 23.0728 41.0032C22.6504 41.5737 22.228 42.1607 21.8276 42.7477C21.7782 42.819 21.6904 42.8629 21.6081 42.8629ZM110.142 41.6341C110.054 41.6341 109.966 41.5902 109.917 41.5134C109.527 40.9154 109.127 40.3175 108.721 39.7415C108.633 39.6208 108.666 39.4508 108.787 39.3685C108.907 39.2807 109.077 39.3136 109.16 39.4343C109.571 40.0213 109.977 40.6192 110.367 41.2226C110.449 41.3488 110.41 41.5134 110.29 41.5957C110.246 41.6176 110.191 41.6341 110.142 41.6341ZM24.1755 39.4014C24.1151 39.4014 24.0547 39.3794 24.0054 39.341C23.8902 39.2478 23.8683 39.0777 23.9615 38.9625C24.4113 38.403 24.8721 37.838 25.3439 37.2949C25.4427 37.1797 25.6127 37.1687 25.7224 37.2675C25.8376 37.3662 25.8486 37.5363 25.7499 37.646C25.2891 38.1836 24.8283 38.7431 24.3839 39.2972C24.3345 39.3685 24.2523 39.4014 24.1755 39.4014ZM107.668 38.1177C107.585 38.1177 107.509 38.0793 107.454 38.0135C107.02 37.4485 106.576 36.8835 106.126 36.3349C106.033 36.2197 106.049 36.0496 106.165 35.9564C106.28 35.8631 106.45 35.8796 106.543 35.9948C106.998 36.5488 107.448 37.1193 107.882 37.6898C107.969 37.8105 107.947 37.9751 107.832 38.0684C107.783 38.0958 107.728 38.1177 107.668 38.1177ZM26.9786 36.1319C26.9128 36.1319 26.847 36.11 26.7976 36.0606C26.6879 35.9619 26.6824 35.7918 26.7812 35.6821C27.2694 35.1555 27.7741 34.6288 28.2787 34.1187C28.383 34.0144 28.553 34.0144 28.6572 34.1187C28.7615 34.2229 28.7615 34.393 28.6572 34.4972C28.158 35.0019 27.6589 35.523 27.1761 36.0496C27.1267 36.1045 27.0554 36.1319 26.9786 36.1319ZM104.941 34.7934C104.864 34.7934 104.793 34.7605 104.738 34.7002C104.266 34.168 103.778 33.6414 103.29 33.1258C103.186 33.016 103.191 32.846 103.301 32.7472C103.411 32.643 103.581 32.6485 103.679 32.7527C104.173 33.2684 104.667 33.806 105.144 34.3436C105.243 34.4533 105.232 34.6234 105.122 34.7221C105.067 34.7715 105.007 34.7934 104.941 34.7934ZM30.0122 33.0764C29.9409 33.0764 29.8696 33.049 29.8148 32.9941C29.7105 32.8844 29.716 32.7143 29.8257 32.6156C30.3523 32.1219 30.8899 31.6336 31.433 31.1564C31.5427 31.0577 31.7128 31.0686 31.8115 31.1838C31.9102 31.2935 31.8993 31.4636 31.7841 31.5623C31.2465 32.0341 30.7089 32.5169 30.1878 33.0051C30.1439 33.049 30.0781 33.0764 30.0122 33.0764ZM101.968 31.6885C101.902 31.6885 101.831 31.6611 101.781 31.6117C101.271 31.118 100.745 30.6298 100.213 30.158C100.103 30.0593 100.092 29.8892 100.191 29.7795C100.289 29.6698 100.459 29.6588 100.569 29.7576C101.101 30.2348 101.639 30.7285 102.155 31.2277C102.264 31.3319 102.264 31.502 102.16 31.6062C102.111 31.6611 102.039 31.6885 101.968 31.6885ZM33.2652 30.2293C33.1884 30.2293 33.1116 30.1964 33.0568 30.1306C32.9635 30.0154 32.98 29.8453 33.0952 29.7521C33.6547 29.2967 34.2307 28.8469 34.8012 28.4136C34.9219 28.3258 35.0865 28.3477 35.1797 28.4684C35.273 28.5891 35.2456 28.7537 35.1249 28.8469C34.5544 29.2748 33.9839 29.7246 33.4298 30.1745C33.3859 30.2129 33.3256 30.2293 33.2652 30.2293ZM98.7589 28.825C98.6985 28.825 98.6382 28.803 98.5888 28.7646C98.0403 28.3148 97.4752 27.865 96.9102 27.4371C96.7895 27.3493 96.7676 27.1793 96.8553 27.0586C96.9431 26.9379 97.1131 26.916 97.2338 27.0037C97.8043 27.4371 98.3749 27.8869 98.9289 28.3422C99.0441 28.4355 99.0606 28.6055 98.9673 28.7207C98.9125 28.7921 98.8356 28.825 98.7589 28.825ZM36.7157 27.6291C36.628 27.6291 36.5457 27.5907 36.4963 27.5139C36.4085 27.3932 36.4414 27.2232 36.5621 27.1409C37.1546 26.7294 37.758 26.3235 38.3614 25.934C38.4876 25.8517 38.6522 25.8901 38.7345 26.0163C38.8168 26.1425 38.7784 26.3071 38.6522 26.3893C38.0543 26.7733 37.4508 27.1793 36.8694 27.5852C36.8255 27.6181 36.7706 27.6291 36.7157 27.6291ZM95.3303 26.2303C95.2754 26.2303 95.2261 26.2138 95.1767 26.1809C94.5897 25.7749 93.9918 25.3745 93.3938 24.996C93.2677 24.9137 93.2293 24.7491 93.3116 24.6229C93.3939 24.4968 93.5584 24.4584 93.6846 24.5407C94.288 24.9247 94.8969 25.3251 95.4894 25.7365C95.6101 25.8188 95.643 25.9889 95.5552 26.1096C95.4949 26.1864 95.4126 26.2303 95.3303 26.2303ZM40.3473 25.2922C40.254 25.2922 40.1662 25.2428 40.1168 25.1605C40.04 25.0344 40.0839 24.8698 40.2101 24.793C40.83 24.4255 41.4663 24.0634 42.0972 23.7178C42.2288 23.6465 42.3934 23.6959 42.4647 23.8275C42.536 23.9592 42.4867 24.1237 42.355 24.1951C41.7297 24.5352 41.0988 24.8917 40.4844 25.2593C40.4405 25.2812 40.3911 25.2922 40.3473 25.2922ZM91.6933 23.9263C91.6494 23.9263 91.6 23.9153 91.5616 23.8879C90.9472 23.5313 90.3109 23.1857 89.6855 22.862C89.5538 22.7907 89.5045 22.6316 89.5703 22.5C89.6361 22.3683 89.8007 22.319 89.9324 22.3848C90.5687 22.7139 91.2051 23.065 91.8304 23.4216C91.9566 23.4984 92.006 23.663 91.9292 23.7891C91.8798 23.8769 91.7865 23.9263 91.6933 23.9263ZM44.1379 23.2241C44.0391 23.2241 43.9459 23.1692 43.8965 23.076C43.8307 22.9443 43.8855 22.7798 44.0172 22.7139C44.6645 22.3903 45.3228 22.0776 45.9756 21.7868C46.1127 21.7265 46.2718 21.7868 46.3322 21.924C46.3925 22.0611 46.3322 22.2202 46.195 22.2806C45.5477 22.5713 44.8949 22.884 44.2531 23.2022C44.2202 23.2186 44.1763 23.2241 44.1379 23.2241ZM87.8753 21.9404C87.8369 21.9404 87.7985 21.935 87.7601 21.913C87.1128 21.6113 86.4544 21.3206 85.7962 21.0518C85.659 20.9969 85.5932 20.8378 85.648 20.7007C85.7029 20.5635 85.862 20.4977 85.9991 20.5526C86.6629 20.8268 87.3267 21.1176 87.9849 21.4248C88.1221 21.4851 88.1769 21.6497 88.1166 21.7814C88.0727 21.8856 87.974 21.9404 87.8753 21.9404ZM48.0711 21.4522C47.9669 21.4522 47.8626 21.3864 47.8188 21.2822C47.7639 21.145 47.8297 20.9859 47.9669 20.9311C48.6361 20.6623 49.3163 20.399 49.9911 20.1576C50.1282 20.1082 50.2873 20.1795 50.3367 20.3222C50.386 20.4648 50.3148 20.6184 50.1721 20.6678C49.5029 20.9091 48.8281 21.167 48.1644 21.4358C48.1424 21.4467 48.1095 21.4522 48.0711 21.4522ZM83.8926 20.3002C83.8597 20.3002 83.8323 20.2947 83.7994 20.2838C83.1301 20.0424 82.4444 19.812 81.7697 19.6035C81.6271 19.5597 81.5502 19.4061 81.5941 19.2689C81.638 19.1263 81.7917 19.0495 81.9288 19.0934C82.6145 19.3073 83.3057 19.5377 83.9859 19.7791C84.1286 19.8285 84.1998 19.9821 84.1505 20.1247C84.1066 20.2344 84.0024 20.3002 83.8926 20.3002ZM52.1305 19.9875C52.0153 19.9875 51.9111 19.9162 51.8727 19.801C51.8288 19.6584 51.9056 19.5103 52.0482 19.4609C52.7339 19.2415 53.4361 19.0385 54.1273 18.8465C54.2699 18.8081 54.418 18.8904 54.4564 19.033C54.4948 19.1757 54.4126 19.3238 54.2699 19.3622C53.5842 19.5487 52.893 19.7571 52.2128 19.9711C52.1854 19.9821 52.1579 19.9875 52.1305 19.9875ZM79.7784 19.0275C79.7564 19.0275 79.7345 19.0221 79.7126 19.0166C79.3725 18.9288 79.0214 18.841 78.6813 18.7587C78.3356 18.6765 77.9791 18.5997 77.628 18.5229C77.4799 18.4899 77.3921 18.3473 77.4195 18.2047C77.4524 18.0566 77.5951 17.9688 77.7377 17.9962C78.0943 18.073 78.4508 18.1498 78.8019 18.2321C79.1475 18.3144 79.4986 18.4022 79.8497 18.4899C79.9923 18.5283 80.0801 18.6765 80.0417 18.8191C80.0033 18.9453 79.8936 19.0275 79.7784 19.0275ZM56.2941 18.8465C56.1734 18.8465 56.0583 18.7642 56.0308 18.6381C55.9979 18.4954 56.0857 18.3473 56.2338 18.3144C56.936 18.1498 57.6491 18.0017 58.3567 17.8701C58.5049 17.8426 58.642 17.9359 58.6695 18.084C58.6969 18.2321 58.6036 18.3693 58.4555 18.3967C57.7588 18.5283 57.0512 18.6765 56.3545 18.8355C56.3326 18.841 56.3161 18.8465 56.2941 18.8465ZM75.5599 18.1334C75.5434 18.1334 75.5325 18.1334 75.516 18.1279C74.8138 18.0127 74.1007 17.9139 73.393 17.8317C73.2449 17.8152 73.1407 17.6781 73.1572 17.5354C73.1736 17.3873 73.3107 17.2831 73.4534 17.2996C74.1665 17.3818 74.8906 17.4861 75.5983 17.6013C75.7464 17.6232 75.8452 17.7658 75.8232 17.9085C75.8013 18.0401 75.6915 18.1334 75.5599 18.1334ZM60.5346 18.0456C60.403 18.0456 60.2878 17.9469 60.2658 17.8152C60.2439 17.6671 60.3481 17.5299 60.4907 17.508C61.2038 17.4038 61.928 17.3105 62.6411 17.2392C62.7892 17.2228 62.9209 17.3325 62.9374 17.4806C62.9538 17.6287 62.8441 17.7604 62.6959 17.7768C61.9883 17.8481 61.2752 17.9414 60.5675 18.0401C60.5565 18.0456 60.5456 18.0456 60.5346 18.0456ZM71.2811 17.6342C71.2756 17.6342 71.2701 17.6342 71.2591 17.6342C70.5514 17.5848 69.8328 17.5464 69.1197 17.5299C68.9715 17.5245 68.8564 17.4038 68.8564 17.2557C68.8564 17.1076 68.9825 16.9924 69.1306 16.9924C69.8493 17.0143 70.5789 17.0472 71.292 17.0966C71.4402 17.1076 71.5498 17.2337 71.5389 17.3818C71.5389 17.5245 71.4182 17.6342 71.2811 17.6342ZM64.8189 17.6013C64.6763 17.6013 64.5611 17.4915 64.5501 17.3489C64.5391 17.2008 64.6543 17.0746 64.8024 17.0637C65.5211 17.0198 66.2507 16.9924 66.9693 16.9814C67.1174 16.9759 67.2381 17.0966 67.2436 17.2447C67.2436 17.3928 67.1284 17.5135 66.9803 17.519C66.2726 17.53 65.5485 17.5574 64.8409 17.6013C64.8299 17.6013 64.8244 17.6013 64.8189 17.6013Z" fill="#1A1A1A"/>
</svg>
