<svg width="610" height="215" viewBox="0 0 610 215" fill="none" xmlns="http://www.w3.org/2000/svg">
<path d="M329.96 91.48C338.48 91.48 344.28 84.72 344.28 77V76.92C344.28 69.2 338.56 62.52 330.04 62.52C321.52 62.52 315.72 69.28 315.72 77V77.08C315.72 84.8 321.44 91.48 329.96 91.48ZM330.04 88.56C323.64 88.56 319 83.36 319 77V76.92C319 70.56 323.56 65.44 329.96 65.44C336.36 65.44 341 70.64 341 77V77.08C341 83.44 336.44 88.56 330.04 88.56ZM365.064 97.4V91.12C373.424 91 377.984 86.4 377.984 80.64V80.6C377.984 74.8 373.464 70.4 365.064 70.2V61.8H362.024V70.2C353.624 70.4 349.104 74.88 349.104 80.64V80.68C349.104 86.52 353.584 91 362.024 91.12V97.4H365.064ZM374.864 80.68C374.864 85.16 371.624 88.28 365.024 88.4V72.92C371.584 73.04 374.864 76.28 374.864 80.64V80.68ZM352.264 80.64C352.264 76.24 355.464 73.04 362.064 72.92V88.4C355.504 88.28 352.264 85.08 352.264 80.68V80.64ZM383.549 91H386.429L399.109 74.92V91H402.149V70.32H399.189L386.629 86.36V70.32H383.549V91ZM427.137 96.48H429.937V88.2H427.497V70.32H424.417V88.2H412.137V70.32H409.057V91H427.137V96.48ZM434.995 91H437.875L450.555 74.92V91H453.595V70.32H450.635L438.075 86.36V70.32H434.995V91ZM466.663 91.44C470.343 91.44 472.703 89.76 474.143 87.88V91H477.103V78.36C477.103 75.76 476.383 73.72 474.983 72.32C473.463 70.8 471.223 70.04 468.303 70.04C465.263 70.04 463.063 70.68 460.783 71.76L461.703 74.28C463.623 73.36 465.543 72.76 467.983 72.76C471.863 72.76 474.143 74.68 474.143 78.4V79.12C472.263 78.6 470.463 78.24 467.783 78.24C462.543 78.24 458.943 80.6 458.943 84.92V85C458.943 89.28 462.823 91.44 466.663 91.44ZM467.263 89C464.503 89 462.062 87.48 462.062 84.88V84.8C462.062 82.2 464.223 80.52 468.103 80.52C470.663 80.52 472.623 80.96 474.183 81.4V83.4C474.183 86.68 471.103 89 467.263 89ZM493.827 70.16H490.987L481.627 91H484.947L492.387 73.96L499.787 91H503.227L493.827 70.16ZM508.081 91H517.361C522.641 91 525.601 88.28 525.601 84.24V84.16C525.601 80 522.561 77.44 517.481 77.44H511.161V70.32H508.081V91ZM511.161 88.36V80.04H517.361C520.841 80 522.481 81.72 522.481 84.16V84.2C522.481 86.8 520.841 88.36 517.321 88.36H511.161ZM530.659 91H533.739V81.96H546.099V91H549.139V70.32H546.099V79.16H533.739V70.32H530.659V91ZM559.129 70.32H556.049V91H565.329C570.609 91 573.569 88.28 573.569 84.24V84.16C573.569 80 570.529 77.44 565.449 77.44H559.129V70.32ZM559.129 80.04H565.329C568.809 80 570.449 81.72 570.449 84.16V84.2C570.449 86.8 568.809 88.36 565.289 88.36H559.129V80.04ZM577.369 91H580.449V70.32H577.369V91ZM587.338 91H590.218L602.898 74.92V91H605.938V70.32H602.978L590.418 86.36V70.32H587.338V91ZM596.618 67.28C599.978 67.28 602.258 65.48 602.538 62.28H600.298C599.818 63.76 598.658 64.8 596.618 64.8C594.578 64.8 593.418 63.76 592.938 62.28H590.698C590.978 65.48 593.258 67.28 596.618 67.28ZM327.68 130.16H324.48L316.4 148.2H314.04V156.48H316.84V151H335.32V156.48H338.12V148.2H335.76L327.68 130.16ZM326.08 133.24L332.48 148.28H319.56L326.08 133.24ZM342.612 151H345.492L358.172 134.92V151H361.212V130.32H358.252L345.692 146.36V130.32H342.612V151ZM368.12 151H371.2V133.12H383.48V151H386.56V130.32H368.12V151ZM403.592 130.16H400.752L391.392 151H394.712L402.152 133.96L409.552 151H412.992L403.592 130.16ZM426.232 151.48C432.472 151.48 437.072 146.56 437.072 140.68V140.6C437.072 134.76 432.552 129.88 426.312 129.88C420.032 129.88 415.512 134.8 415.512 140.68V140.76C415.512 146.6 420.032 151.48 426.232 151.48ZM426.312 148.72C421.952 148.72 418.672 145.12 418.672 140.68V140.6C418.672 136.24 421.752 132.6 426.232 132.6C430.592 132.6 433.912 136.24 433.912 140.68V140.76C433.912 145.08 430.792 148.72 426.312 148.72ZM442.651 151H445.691V135.16L453.611 146.6H453.731L461.651 135.12V151H464.731V130.32H461.531L453.731 141.92L445.891 130.32H442.651V151Z" fill="#262626"/>
<path d="M116.242 158.812C104.755 159.399 91.902 165.784 81.8961 177.699C75.9057 165.718 63.4971 160.639 53.5515 162.625C59.5583 150.792 71.8408 142.684 86.0158 142.684C98.611 142.69 109.709 149.086 116.242 158.812Z" fill="#FFC700"/>
<path d="M81.8356 178.188L81.6546 177.82C75.5271 165.56 62.9045 161.028 53.6008 162.888L53.0577 162.998L53.3101 162.504C56.3272 156.558 60.9187 151.538 66.5745 147.994C72.3948 144.346 79.1147 142.421 86.0157 142.421C98.2488 142.421 109.632 148.494 116.461 158.664L116.725 159.059L116.247 159.081C104.228 159.695 91.4575 166.722 82.0934 177.875L81.8356 178.188ZM57.8906 161.933C61.7196 161.933 65.6583 162.866 69.3282 164.682C74.7426 167.359 79.0983 171.687 81.9563 177.217C86.7727 171.555 92.2969 167.03 98.3915 163.771C104.058 160.738 110.054 158.944 115.754 158.571C108.995 148.784 97.9142 142.959 86.0212 142.959C72.5264 142.959 60.3262 150.342 54.0451 162.263C55.3013 162.043 56.585 161.933 57.8906 161.933Z" fill="#262626"/>
<path d="M236.757 191.232C236.8 187.579 233.833 183.898 229.625 181.879C230.892 172.674 227.585 169.707 226.954 169.18C221.797 164.89 209.032 168.412 196.881 180.76C189.113 188.309 180.874 193.185 173.496 195.385H235.451C236.279 194.058 236.74 192.626 236.757 191.232Z" fill="#F3F3F3"/>
<path d="M235.605 195.654H171.653L173.425 195.127C181.137 192.834 189.399 187.661 196.7 180.568C209.202 167.864 221.989 164.693 227.129 168.972C228.347 169.987 231.041 173.251 229.922 181.72C234.288 183.882 237.07 187.601 237.026 191.238C237.009 192.659 236.543 194.145 235.682 195.533L235.605 195.654ZM175.213 195.116H235.303C236.06 193.849 236.472 192.505 236.488 191.227C236.532 187.804 233.729 184.145 229.51 182.121L229.335 182.033L229.362 181.841C230.542 173.261 227.689 170.14 226.784 169.389C224.271 167.299 219.844 167.15 214.633 168.988C208.922 171.001 202.685 175.253 197.079 180.952C190.227 187.607 182.525 192.588 175.213 195.116Z" fill="#262626"/>
<path d="M162.667 195.72H17.0165C16.8958 195.72 16.7861 195.638 16.7587 195.522C15.2172 189.817 15.9304 184.809 18.569 182.752C20.0007 181.633 22.173 181.238 24.68 181.627C29.4032 182.368 34.2909 185.67 37.9499 190.541C35.7885 180.267 39.3268 169.932 46.7983 165.055C51.6147 161.912 58.0385 161.1 64.4238 162.828C71.8953 164.852 78.2642 170.085 81.9506 177.222C88.9942 168.944 97.9249 162.883 107.135 160.151C116.181 157.463 124.909 158.083 131.711 161.895C139.265 166.125 143.16 173.585 145.096 179.093C145.102 179.104 145.102 179.109 145.102 179.12C146.446 184.858 148.936 189.104 152.507 191.737C155.228 193.745 158.651 194.908 162.678 195.188C162.821 195.199 162.936 195.319 162.93 195.467C162.93 195.605 162.81 195.72 162.667 195.72ZM17.2249 195.182H158.953C156.386 194.595 154.126 193.586 152.195 192.165C148.519 189.455 145.963 185.111 144.586 179.252C142.677 173.832 138.848 166.503 131.448 162.356C124.772 158.615 116.192 158.011 107.289 160.661C98.0676 163.404 89.1204 169.515 82.1042 177.875C82.0438 177.946 81.956 177.979 81.8683 177.968C81.7805 177.957 81.6983 177.902 81.6599 177.82C78.0668 170.639 71.7362 165.362 64.2867 163.343C58.0495 161.654 51.7848 162.444 47.1 165.505C39.4969 170.469 36.0793 181.26 38.7947 191.737C38.8276 191.863 38.7618 191.995 38.6466 192.05C38.5259 192.105 38.3888 192.066 38.312 191.957C34.664 186.597 29.5404 182.933 24.6087 182.159C22.2499 181.792 20.2257 182.148 18.9091 183.174C16.4625 185.078 15.8096 189.773 17.2249 195.182Z" fill="#1A1A1A"/>
<path d="M242.769 214.218H6.97785C3.13238 214.218 0 210.005 0 204.826C0 199.648 3.13238 195.435 6.97785 195.435H242.769C246.615 195.435 249.747 199.648 249.747 204.826C249.747 210.005 246.615 214.218 242.769 214.218ZM6.97785 195.972C3.42861 195.972 0.537654 199.944 0.537654 204.826C0.537654 209.708 3.42312 213.68 6.97785 213.68H242.769C246.318 213.68 249.209 209.708 249.209 204.826C249.209 199.944 246.324 195.972 242.769 195.972H6.97785Z" fill="#1A1A1A"/>
<path d="M62.5479 139.278H67.1942L85.873 119.858L87.014 116.26L86.2844 115.804L62.5479 139.278Z" fill="#1A1A1A"/>
<path d="M193.14 19.9638L193.99 42.0492L186.365 36.5251L157.132 81.1841L186.118 35.5871L192.416 39.8933L191.653 18.6912L193.14 19.9638Z" fill="#1A1A1A"/>
<path d="M62.548 139.278L140.779 63.0816L157.132 81.1844L186.119 35.5873L192.416 39.8936L191.654 18.6914L172.536 28.2968L179.163 32.1094L155.64 69.0445L139.408 53.5584L55.7567 133.485L62.548 139.278Z" fill="#F3F3F3"/>
<path d="M62.5588 139.645L55.3561 133.496L139.408 53.1908L155.591 68.6275L178.784 32.2026L171.971 28.2858L191.906 18.2634L192.701 40.4201L186.195 35.9712L157.165 81.6286L140.763 63.4765L62.5588 139.645ZM56.157 133.474L62.5368 138.916L140.79 62.6975L157.094 80.7399L186.042 35.2087L192.125 39.3724L191.396 19.1247L173.101 28.3187L179.536 32.0215L155.684 69.4723L139.402 53.9369L56.157 133.474Z" fill="#262626"/>
<path d="M75.2966 195.451C75.2966 195.451 41.8943 199.187 58.0332 201.107C74.1721 203.032 95.5059 204.574 90.4536 206.401C85.4012 208.227 86.1034 213.697 97.3326 213.28C108.562 212.863 104.629 205.863 113.472 204.376C122.314 202.895 132.534 205.276 130.79 206.401C129.051 207.525 128.129 211.316 138.415 211.031C148.701 210.745 142.727 199.752 149.013 200.059C155.294 200.366 153.473 195.451 153.473 195.451H75.2966Z" fill="#F3F3F3"/>
<path d="M96.1258 213.576C90.1025 213.576 87.568 211.76 87.2224 209.983C86.9262 208.452 88.1605 206.949 90.3603 206.154C90.7717 206.006 90.8978 205.896 90.9308 205.852C90.7936 205.649 89.8446 205.128 84.326 204.354C80.3928 203.8 75.1978 203.252 69.6957 202.67C65.7899 202.259 61.7524 201.831 58.0002 201.381C53.9189 200.893 53.3538 200.344 53.3593 199.823C53.3593 199.39 53.7872 198.836 56.9524 198.057C58.7572 197.612 61.2697 197.135 64.4239 196.641C69.7835 195.802 75.2143 195.193 75.2692 195.188H75.2966H153.66L153.725 195.363C153.758 195.446 154.477 197.437 153.402 198.902C152.628 199.96 151.147 200.438 148.997 200.333C146.462 200.207 146.111 202.061 145.667 204.409C145.096 207.41 144.389 211.146 138.42 211.305C131.777 211.486 129.912 210.01 129.517 208.743C129.193 207.69 129.874 206.675 130.642 206.181C130.68 206.154 130.702 206.137 130.707 206.126C130.581 205.808 128.848 205.04 125.079 204.541C121.195 204.025 116.977 204.064 113.51 204.645C109.577 205.303 108.271 207.042 106.894 208.875C105.254 211.058 103.559 213.318 97.3326 213.548C96.9212 213.565 96.5152 213.576 96.1258 213.576ZM75.313 195.72C74.9949 195.758 69.756 196.351 64.5666 197.163C54.2809 198.77 53.9079 199.719 53.8969 199.823C53.9024 199.845 54.045 200.366 58.0661 200.843C61.8128 201.288 65.8502 201.716 69.756 202.133C75.3679 202.725 80.667 203.285 84.6332 203.85C90.843 204.733 91.419 205.298 91.4793 205.797C91.5342 206.247 90.9747 206.505 90.5468 206.658C88.6049 207.36 87.5077 208.622 87.7546 209.878C88.0673 211.48 90.7607 213.263 97.3271 213.016C103.296 212.791 104.843 210.734 106.477 208.556C107.86 206.719 109.286 204.815 113.433 204.118C121.426 202.78 130.675 204.524 131.229 205.945C131.278 206.066 131.344 206.379 130.949 206.636C130.324 207.037 129.813 207.838 130.049 208.589C130.274 209.308 131.536 210.965 138.42 210.773C143.955 210.619 144.592 207.273 145.151 204.316C145.607 201.919 146.035 199.659 149.035 199.801C150.994 199.894 152.316 199.489 152.979 198.589C153.714 197.585 153.424 196.214 153.287 195.731H75.313V195.72Z" fill="#262626"/>
<path d="M137.493 209.961C137.493 209.961 141.339 211.025 144.789 204.76C146.084 202.807 150.577 203.279 150.577 202.127C150.577 200.975 149.71 199.741 147.817 200.235C145.925 200.728 142.299 202.231 142.299 202.231C142.299 202.231 136.621 208.463 137.493 209.961Z" fill="#1A1A1A"/>
<path d="M108.984 202.807C108.984 202.807 109.933 202.824 110.246 203.844C110.564 204.859 106.845 204.93 106.351 206.302C105.857 207.668 98.8413 213.384 96.9487 212.232C95.0561 211.074 102.879 202.516 105.227 202.198C107.574 201.88 108.984 202.807 108.984 202.807Z" fill="#1A1A1A"/>
<path d="M56.2675 98.1679L67.6776 85.5618L61.9726 104.07L56.2675 98.1679Z" fill="#F3F3F3"/>
<path d="M62.093 104.586L55.8942 98.1786L68.2918 84.4863L62.093 104.586ZM56.6347 98.1621L61.8516 103.555L67.0685 86.6422L56.6347 98.1621Z" fill="#262626"/>
<path d="M48.9275 96.4838L55.6145 97.9265L67.1948 85.644L48.9275 96.4838Z" fill="#F3F3F3"/>
<path d="M55.7076 98.2225L48.2031 96.6043L68.7141 84.437L55.7076 98.2225ZM49.6568 96.3629L55.5266 97.6301L65.6915 86.8562L49.6568 96.3629Z" fill="#262626"/>
<path d="M55.28 98.9741C55.28 99.5336 56.2675 104.405 56.2675 104.405L57.6389 100.658L55.878 98.2993L55.28 98.9741Z" fill="#F3F3F3"/>
<path d="M56.1904 105.392L56.0039 104.46C55.8997 103.96 55.011 99.5445 55.011 98.974V98.8697L55.8997 97.8713L57.9458 100.614L56.1904 105.392ZM55.5541 99.0672C55.6089 99.6158 55.9984 101.678 56.344 103.412L57.3369 100.702L55.8613 98.7216L55.5541 99.0672Z" fill="#262626"/>
<path d="M200.436 193.75C200.348 193.75 200.261 193.707 200.211 193.63C200.129 193.504 200.167 193.339 200.288 193.257C200.897 192.862 201.495 192.461 202.071 192.061C202.192 191.979 202.362 192.006 202.444 192.127C202.526 192.247 202.499 192.417 202.378 192.5C201.797 192.9 201.193 193.306 200.584 193.707C200.54 193.739 200.486 193.75 200.436 193.75ZM203.975 191.293C203.892 191.293 203.81 191.254 203.761 191.183C203.673 191.062 203.695 190.892 203.815 190.805C204.397 190.371 204.967 189.932 205.51 189.494C205.626 189.4 205.796 189.417 205.889 189.537C205.982 189.653 205.966 189.823 205.845 189.916C205.297 190.36 204.721 190.805 204.134 191.238C204.084 191.276 204.029 191.293 203.975 191.293ZM207.332 188.588C207.255 188.588 207.184 188.555 207.129 188.495C207.03 188.385 207.041 188.215 207.156 188.117C207.699 187.639 208.231 187.157 208.736 186.674C208.846 186.57 209.016 186.575 209.115 186.685C209.219 186.795 209.213 186.965 209.104 187.063C208.593 187.552 208.056 188.045 207.502 188.523C207.458 188.566 207.392 188.588 207.332 188.588ZM210.437 185.61C210.371 185.61 210.305 185.588 210.25 185.538C210.14 185.434 210.135 185.264 210.239 185.16C210.738 184.633 211.216 184.096 211.66 183.563C211.753 183.448 211.923 183.432 212.038 183.531C212.154 183.624 212.165 183.794 212.071 183.909C211.616 184.452 211.133 184.995 210.629 185.527C210.579 185.582 210.508 185.61 210.437 185.61ZM213.201 182.307C213.147 182.307 213.092 182.291 213.042 182.258C212.922 182.17 212.894 182 212.982 181.879C213.41 181.298 213.81 180.7 214.178 180.113C214.255 179.987 214.425 179.948 214.551 180.025C214.677 180.102 214.715 180.272 214.639 180.398C214.266 180.996 213.854 181.605 213.421 182.198C213.366 182.269 213.284 182.307 213.201 182.307ZM215.467 178.648C215.423 178.648 215.385 178.637 215.346 178.621C215.215 178.555 215.16 178.39 215.231 178.259C215.56 177.617 215.851 176.964 216.103 176.322C216.158 176.185 216.312 176.114 216.454 176.169C216.592 176.224 216.663 176.377 216.608 176.52C216.35 177.178 216.049 177.847 215.714 178.506C215.659 178.593 215.566 178.648 215.467 178.648ZM217.03 174.644C217.008 174.644 216.981 174.638 216.959 174.633C216.816 174.594 216.729 174.446 216.773 174.304C216.959 173.612 217.107 172.916 217.211 172.23C217.233 172.082 217.371 171.983 217.519 172.005C217.667 172.027 217.766 172.164 217.744 172.312C217.639 173.02 217.486 173.739 217.294 174.452C217.261 174.561 217.151 174.644 217.03 174.644ZM217.661 170.392H217.656C217.508 170.387 217.387 170.266 217.392 170.118C217.392 169.997 217.398 169.877 217.398 169.762C217.398 169.175 217.365 168.588 217.305 168.006C217.288 167.858 217.398 167.726 217.546 167.71C217.694 167.693 217.826 167.803 217.842 167.951C217.908 168.549 217.941 169.164 217.941 169.767C217.941 169.888 217.941 170.014 217.936 170.135C217.925 170.277 217.804 170.392 217.661 170.392ZM217.2 166.124C217.08 166.124 216.97 166.042 216.937 165.916C216.773 165.241 216.57 164.561 216.317 163.892C216.268 163.755 216.334 163.596 216.476 163.546C216.613 163.497 216.773 163.563 216.822 163.705C217.08 164.391 217.294 165.093 217.458 165.79C217.491 165.932 217.403 166.081 217.261 166.114C217.244 166.124 217.222 166.124 217.2 166.124ZM215.708 162.103C215.61 162.103 215.516 162.049 215.467 161.955C215.154 161.341 214.798 160.721 214.414 160.112C214.331 159.986 214.37 159.821 214.496 159.739C214.622 159.657 214.787 159.695 214.869 159.821C215.264 160.441 215.632 161.078 215.95 161.709C216.016 161.84 215.966 162.005 215.829 162.071C215.791 162.093 215.752 162.103 215.708 162.103ZM213.399 158.483C213.317 158.483 213.24 158.445 213.185 158.379C212.763 157.83 212.296 157.282 211.814 156.749C211.715 156.64 211.72 156.47 211.83 156.371C211.94 156.272 212.11 156.278 212.209 156.387C212.702 156.93 213.174 157.49 213.613 158.05C213.706 158.165 213.684 158.335 213.563 158.428C213.514 158.466 213.454 158.483 213.399 158.483ZM210.502 155.301C210.437 155.301 210.371 155.279 210.316 155.224C209.811 154.747 209.274 154.27 208.72 153.804C208.604 153.71 208.588 153.54 208.687 153.425C208.78 153.31 208.95 153.293 209.065 153.392C209.63 153.864 210.173 154.352 210.683 154.835C210.793 154.939 210.793 155.109 210.694 155.213C210.645 155.274 210.574 155.301 210.502 155.301ZM207.206 152.536C207.151 152.536 207.09 152.52 207.046 152.482C206.487 152.065 205.9 151.648 205.302 151.247C205.176 151.165 205.143 150.995 205.231 150.874C205.313 150.748 205.483 150.715 205.604 150.803C206.213 151.209 206.805 151.631 207.37 152.054C207.491 152.141 207.513 152.312 207.425 152.432C207.365 152.498 207.288 152.536 207.206 152.536ZM203.629 150.134C203.58 150.134 203.536 150.123 203.492 150.095C202.894 149.733 202.268 149.371 201.638 149.02C201.506 148.949 201.462 148.784 201.533 148.653C201.605 148.521 201.769 148.477 201.901 148.548C202.537 148.899 203.168 149.267 203.772 149.635C203.898 149.711 203.942 149.876 203.859 150.002C203.81 150.084 203.722 150.134 203.629 150.134ZM199.866 148.044C199.827 148.044 199.783 148.033 199.745 148.016C199.12 147.698 198.467 147.385 197.814 147.084C197.677 147.023 197.622 146.859 197.682 146.727C197.743 146.59 197.907 146.535 198.039 146.595C198.697 146.903 199.356 147.221 199.986 147.539C200.118 147.605 200.173 147.769 200.107 147.901C200.058 147.989 199.964 148.044 199.866 148.044ZM195.954 146.228C195.922 146.228 195.883 146.222 195.85 146.206C195.203 145.932 194.534 145.657 193.864 145.394C193.727 145.339 193.656 145.186 193.711 145.043C193.766 144.906 193.919 144.835 194.062 144.889C194.737 145.153 195.411 145.427 196.064 145.707C196.201 145.767 196.267 145.921 196.207 146.058C196.163 146.168 196.059 146.228 195.954 146.228ZM74.6604 145.723C74.5123 145.723 74.3916 145.603 74.3916 145.454C74.3916 145.306 74.5123 145.186 74.6604 145.186C75.3626 145.18 76.0866 145.164 76.8108 145.147C76.9589 145.142 77.085 145.262 77.0905 145.411C77.096 145.559 76.9753 145.685 76.8272 145.69C76.0976 145.701 75.3681 145.712 74.6604 145.723C74.6659 145.723 74.6659 145.723 74.6604 145.723ZM72.51 145.712C72.5045 145.712 72.5045 145.712 72.51 145.712C71.7749 145.701 71.0508 145.679 70.3432 145.652C70.1951 145.646 70.0798 145.52 70.0853 145.372C70.0908 145.224 70.217 145.109 70.3651 145.114C71.0618 145.142 71.7859 145.164 72.51 145.175C72.6581 145.175 72.7788 145.301 72.7733 145.449C72.7733 145.597 72.6526 145.712 72.51 145.712ZM78.9722 145.597C78.8295 145.597 78.7088 145.487 78.7034 145.339C78.6979 145.191 78.8131 145.065 78.9612 145.059C79.6633 145.027 80.3875 144.983 81.1061 144.939C81.2542 144.928 81.3803 145.043 81.3913 145.191C81.4023 145.339 81.2871 145.465 81.139 145.476C80.4149 145.526 79.6908 145.564 78.9831 145.603C78.9776 145.597 78.9722 145.597 78.9722 145.597ZM68.2037 145.531C68.1983 145.531 68.1928 145.531 68.1818 145.531C67.4522 145.482 66.7281 145.416 66.0259 145.345C65.8778 145.328 65.7681 145.197 65.7845 145.048C65.801 144.9 65.9327 144.791 66.0808 144.807C66.772 144.878 67.4906 144.944 68.2147 144.994C68.3628 145.005 68.4725 145.131 68.4616 145.279C68.4616 145.422 68.3464 145.531 68.2037 145.531ZM83.2674 145.312C83.1303 145.312 83.0096 145.208 82.9986 145.065C82.9877 144.917 83.0973 144.785 83.2455 144.774C83.9476 144.719 84.6663 144.654 85.3904 144.582C85.5385 144.566 85.6702 144.675 85.6866 144.824C85.7031 144.972 85.5933 145.103 85.4452 145.12C84.7211 145.191 83.997 145.257 83.2949 145.312C83.2839 145.312 83.2784 145.312 83.2674 145.312ZM63.9249 145.081C63.9139 145.081 63.8975 145.081 63.8865 145.076C63.1569 144.972 62.4383 144.851 61.7526 144.719C61.6045 144.692 61.5112 144.549 61.5386 144.407C61.5661 144.259 61.7087 144.165 61.8513 144.193C62.5315 144.319 63.2392 144.44 63.9633 144.544C64.1114 144.566 64.2101 144.703 64.1937 144.851C64.1717 144.983 64.0565 145.081 63.9249 145.081ZM87.5573 144.9C87.4201 144.9 87.3049 144.796 87.2884 144.659C87.2719 144.511 87.3762 144.379 87.5243 144.363C88.221 144.286 88.9396 144.204 89.6638 144.116C89.8119 144.099 89.9435 144.204 89.9654 144.352C89.9819 144.5 89.8777 144.632 89.7296 144.654C89.011 144.741 88.2868 144.824 87.5847 144.906C87.5792 144.9 87.5682 144.9 87.5573 144.9ZM191.944 144.659C191.911 144.659 191.884 144.654 191.851 144.643C191.187 144.401 190.507 144.165 189.821 143.94C189.679 143.891 189.602 143.743 189.651 143.6C189.701 143.458 189.849 143.381 189.991 143.43C190.677 143.661 191.368 143.896 192.032 144.138C192.175 144.187 192.246 144.341 192.197 144.483C192.158 144.588 192.054 144.659 191.944 144.659ZM91.8361 144.374C91.7044 144.374 91.5892 144.275 91.5673 144.138C91.5453 143.99 91.6496 143.853 91.7977 143.836C92.4999 143.743 93.2075 143.644 93.9261 143.54C94.0743 143.518 94.2114 143.622 94.2333 143.77C94.2552 143.918 94.1511 144.056 94.003 144.078C93.2788 144.182 92.5712 144.28 91.869 144.379C91.858 144.374 91.847 144.374 91.8361 144.374ZM59.6954 144.275C59.6735 144.275 59.6516 144.275 59.6296 144.27C58.911 144.094 58.2088 143.902 57.5395 143.694C57.3969 143.65 57.3201 143.496 57.364 143.359C57.4079 143.216 57.5615 143.139 57.6986 143.183C58.3569 143.386 59.0481 143.578 59.7558 143.748C59.8984 143.781 59.9862 143.929 59.9533 144.072C59.9258 144.193 59.8161 144.275 59.6954 144.275ZM96.0985 143.754C95.9668 143.754 95.8516 143.661 95.8352 143.523C95.8132 143.375 95.912 143.238 96.0601 143.216C96.7568 143.107 97.4699 142.991 98.183 142.876C98.3312 142.854 98.4683 142.953 98.4902 143.096C98.5121 143.244 98.4134 143.381 98.2708 143.403C97.5521 143.523 96.8445 143.639 96.1423 143.743C96.1259 143.754 96.1149 143.754 96.0985 143.754ZM187.858 143.299C187.83 143.299 187.803 143.293 187.781 143.288C187.106 143.079 186.415 142.876 185.718 142.684C185.575 142.646 185.493 142.498 185.532 142.35C185.57 142.207 185.724 142.125 185.866 142.163C186.563 142.36 187.26 142.563 187.94 142.772C188.082 142.816 188.165 142.964 188.121 143.107C188.077 143.222 187.973 143.299 187.858 143.299ZM100.35 143.052C100.224 143.052 100.109 142.958 100.087 142.827C100.059 142.679 100.158 142.542 100.306 142.514C101.003 142.393 101.71 142.267 102.423 142.136C102.572 142.108 102.709 142.207 102.736 142.35C102.764 142.498 102.665 142.635 102.522 142.662C101.804 142.794 101.096 142.92 100.399 143.041C100.383 143.052 100.366 143.052 100.35 143.052ZM55.5867 142.991C55.5538 142.991 55.5208 142.986 55.4879 142.975C54.7967 142.706 54.1274 142.41 53.4966 142.097C53.3649 142.031 53.3101 141.872 53.3759 141.735C53.4417 141.603 53.6009 141.549 53.738 141.614C54.3524 141.916 55.0106 142.207 55.6854 142.47C55.8225 142.525 55.8938 142.679 55.839 142.821C55.7951 142.931 55.6964 142.991 55.5867 142.991ZM104.59 142.273C104.464 142.273 104.349 142.185 104.327 142.053C104.3 141.905 104.393 141.768 104.541 141.741C105.249 141.603 105.956 141.472 106.664 141.346C106.812 141.318 106.949 141.417 106.977 141.56C107.004 141.708 106.905 141.845 106.757 141.872C106.055 141.998 105.347 142.13 104.64 142.267C104.623 142.273 104.607 142.273 104.59 142.273ZM183.71 142.13C183.688 142.13 183.666 142.125 183.645 142.119C182.959 141.944 182.257 141.768 181.56 141.603C181.417 141.571 181.324 141.422 181.363 141.28C181.395 141.137 181.544 141.044 181.686 141.082C182.388 141.247 183.096 141.422 183.782 141.603C183.924 141.642 184.012 141.79 183.974 141.933C183.941 142.048 183.831 142.13 183.71 142.13ZM108.831 141.505C108.705 141.505 108.589 141.411 108.567 141.28C108.54 141.132 108.639 140.995 108.787 140.967C109.5 140.841 110.208 140.726 110.915 140.605C111.063 140.583 111.201 140.682 111.222 140.825C111.244 140.973 111.146 141.11 111.003 141.132C110.301 141.247 109.593 141.368 108.88 141.494C108.864 141.505 108.847 141.505 108.831 141.505ZM179.519 141.132C179.503 141.132 179.481 141.132 179.464 141.126C178.773 140.978 178.066 140.83 177.358 140.687C177.21 140.66 177.117 140.517 177.144 140.369C177.171 140.221 177.314 140.128 177.462 140.155C178.17 140.298 178.883 140.44 179.574 140.594C179.722 140.627 179.81 140.77 179.783 140.912C179.75 141.049 179.64 141.132 179.519 141.132ZM51.7412 141.082C51.6918 141.082 51.6424 141.071 51.5986 141.038C50.9677 140.643 50.3698 140.216 49.8212 139.766C49.706 139.673 49.6895 139.502 49.7828 139.387C49.876 139.272 50.0461 139.256 50.1613 139.349C50.6934 139.782 51.2749 140.194 51.8838 140.583C52.01 140.66 52.0484 140.83 51.9661 140.956C51.9168 141.033 51.829 141.082 51.7412 141.082ZM113.082 140.803C112.95 140.803 112.835 140.709 112.819 140.572C112.797 140.424 112.896 140.287 113.044 140.265C113.757 140.155 114.47 140.046 115.178 139.941C115.326 139.919 115.463 140.024 115.485 140.166C115.507 140.314 115.403 140.451 115.26 140.473C114.552 140.578 113.845 140.687 113.132 140.797C113.11 140.803 113.099 140.803 113.082 140.803ZM175.29 140.298C175.273 140.298 175.257 140.298 175.24 140.292C174.544 140.166 173.831 140.046 173.123 139.93C172.975 139.908 172.876 139.766 172.898 139.623C172.92 139.475 173.063 139.376 173.205 139.398C173.918 139.513 174.632 139.634 175.334 139.76C175.482 139.788 175.575 139.925 175.553 140.073C175.531 140.205 175.416 140.298 175.29 140.298ZM117.345 140.172C117.213 140.172 117.098 140.073 117.076 139.941C117.054 139.793 117.158 139.656 117.306 139.64C118.019 139.541 118.732 139.442 119.446 139.349C119.594 139.327 119.731 139.431 119.747 139.579C119.764 139.727 119.665 139.865 119.517 139.881C118.809 139.974 118.096 140.067 117.383 140.166C117.372 140.172 117.355 140.172 117.345 140.172ZM121.618 139.612C121.486 139.612 121.366 139.513 121.349 139.376C121.333 139.228 121.437 139.097 121.585 139.075C122.304 138.987 123.017 138.905 123.73 138.822C123.878 138.806 124.01 138.91 124.026 139.058C124.043 139.206 123.938 139.338 123.79 139.354C123.083 139.431 122.369 139.519 121.651 139.601C121.64 139.612 121.629 139.612 121.618 139.612ZM171.038 139.601C171.027 139.601 171.011 139.601 171 139.596C170.298 139.491 169.579 139.393 168.872 139.299C168.723 139.278 168.619 139.146 168.641 138.998C168.663 138.85 168.795 138.745 168.943 138.767C169.656 138.861 170.375 138.959 171.082 139.064C171.23 139.086 171.329 139.223 171.307 139.371C171.285 139.508 171.17 139.601 171.038 139.601ZM125.902 139.135C125.765 139.135 125.65 139.031 125.633 138.894C125.617 138.745 125.727 138.614 125.875 138.597C126.593 138.526 127.312 138.455 128.02 138.389C128.168 138.372 128.299 138.482 128.31 138.63C128.327 138.778 128.217 138.91 128.069 138.921C127.356 138.987 126.643 139.058 125.93 139.129C125.919 139.135 125.913 139.135 125.902 139.135ZM166.765 139.047C166.754 139.047 166.743 139.047 166.732 139.047C166.03 138.965 165.311 138.888 164.593 138.817C164.445 138.8 164.335 138.669 164.351 138.521C164.368 138.372 164.499 138.263 164.648 138.279C165.366 138.35 166.085 138.427 166.792 138.51C166.941 138.526 167.045 138.658 167.028 138.806C167.017 138.943 166.897 139.047 166.765 139.047ZM130.192 138.734C130.055 138.734 129.934 138.63 129.923 138.488C129.912 138.339 130.022 138.208 130.17 138.197C130.889 138.137 131.607 138.082 132.32 138.027C132.469 138.016 132.6 138.126 132.611 138.274C132.622 138.422 132.512 138.553 132.364 138.564C131.651 138.619 130.938 138.674 130.219 138.734C130.208 138.734 130.197 138.734 130.192 138.734ZM162.475 138.614C162.47 138.614 162.459 138.614 162.453 138.614C161.746 138.553 161.027 138.493 160.308 138.444C160.16 138.433 160.051 138.301 160.062 138.153C160.073 138.005 160.199 137.895 160.352 137.906C161.071 137.961 161.795 138.016 162.503 138.076C162.651 138.087 162.761 138.219 162.75 138.367C162.733 138.51 162.612 138.614 162.475 138.614ZM134.487 138.416C134.345 138.416 134.229 138.307 134.218 138.164C134.208 138.016 134.323 137.89 134.471 137.879C135.195 137.835 135.908 137.791 136.627 137.753C136.775 137.747 136.901 137.857 136.912 138.005C136.917 138.153 136.808 138.279 136.66 138.29C135.946 138.329 135.233 138.372 134.509 138.416C134.504 138.416 134.498 138.416 134.487 138.416ZM48.4223 138.361C48.351 138.361 48.2797 138.334 48.2249 138.274C47.7257 137.736 47.2649 137.155 46.8589 136.562C46.7766 136.441 46.8096 136.271 46.9302 136.189C47.0509 136.107 47.221 136.14 47.3033 136.26C47.6928 136.836 48.1371 137.39 48.6198 137.912C48.7185 138.021 48.7131 138.191 48.6034 138.29C48.5485 138.339 48.4827 138.361 48.4223 138.361ZM158.18 138.301C158.175 138.301 158.169 138.301 158.164 138.301C157.456 138.257 156.732 138.219 156.013 138.186C155.865 138.18 155.75 138.054 155.755 137.906C155.761 137.758 155.887 137.643 156.035 137.648C156.754 137.681 157.478 137.72 158.191 137.763C158.339 137.774 158.454 137.901 158.443 138.049C158.438 138.191 158.317 138.301 158.18 138.301ZM138.794 138.18C138.651 138.18 138.53 138.065 138.525 137.923C138.519 137.774 138.634 137.648 138.783 137.643C139.507 137.61 140.225 137.582 140.938 137.561C141.087 137.555 141.213 137.67 141.218 137.818C141.224 137.966 141.109 138.093 140.96 138.098C140.247 138.12 139.529 138.147 138.81 138.18C138.799 138.18 138.799 138.18 138.794 138.18ZM153.874 138.098C153.868 138.098 153.868 138.098 153.863 138.098C153.155 138.076 152.431 138.054 151.712 138.038C151.564 138.032 151.444 137.912 151.449 137.763C151.455 137.615 151.57 137.5 151.718 137.5H151.723C152.442 137.517 153.166 137.539 153.879 137.561C154.027 137.566 154.143 137.692 154.137 137.84C154.137 137.983 154.016 138.098 153.874 138.098ZM143.1 138.038C142.952 138.038 142.836 137.923 142.831 137.774C142.826 137.626 142.946 137.5 143.094 137.5C143.818 137.484 144.537 137.473 145.25 137.462C145.25 137.462 145.25 137.462 145.256 137.462C145.404 137.462 145.524 137.582 145.524 137.731C145.524 137.879 145.409 137.999 145.256 138.005C144.543 138.016 143.824 138.027 143.105 138.043C143.105 138.038 143.1 138.038 143.1 138.038ZM149.562 137.999C148.882 137.994 148.201 137.988 147.516 137.988H147.406C147.258 137.988 147.137 137.868 147.137 137.72C147.137 137.571 147.258 137.451 147.406 137.451H147.516C148.201 137.451 148.882 137.456 149.562 137.462C149.71 137.462 149.831 137.588 149.831 137.736C149.831 137.879 149.71 137.999 149.562 137.999ZM46.0196 134.812C45.9209 134.812 45.8221 134.757 45.7728 134.659C45.4656 134.006 45.2077 133.315 44.9993 132.607C44.9554 132.464 45.0377 132.316 45.1803 132.272C45.323 132.228 45.4711 132.311 45.515 132.453C45.7179 133.134 45.9648 133.797 46.261 134.428C46.3268 134.565 46.2665 134.724 46.1293 134.785C46.0964 134.801 46.058 134.812 46.0196 134.812ZM44.7963 130.698C44.6646 130.698 44.5495 130.605 44.533 130.468C44.4288 129.765 44.363 129.036 44.341 128.29C44.3355 128.142 44.4507 128.015 44.6043 128.01C44.7524 128.004 44.8786 128.12 44.8841 128.273C44.906 128.997 44.9718 129.705 45.0706 130.385C45.0925 130.533 44.9938 130.67 44.8456 130.692C44.8182 130.698 44.8073 130.698 44.7963 130.698ZM44.6482 126.397C44.6427 126.397 44.6373 126.397 44.6318 126.397C44.4837 126.386 44.3739 126.26 44.3794 126.112C44.4287 125.41 44.5111 124.68 44.6263 123.951C44.6482 123.802 44.7853 123.704 44.9334 123.726C45.0816 123.748 45.1803 123.885 45.1584 124.033C45.0432 124.751 44.9663 125.465 44.917 126.15C44.906 126.287 44.7908 126.397 44.6482 126.397ZM45.3065 122.14C45.2846 122.14 45.2681 122.14 45.2462 122.135C45.1035 122.102 45.0103 121.954 45.0432 121.811C45.2023 121.125 45.3887 120.418 45.6027 119.71C45.6466 119.567 45.7947 119.485 45.9373 119.529C46.0799 119.573 46.1623 119.721 46.1184 119.864C45.9099 120.56 45.7234 121.257 45.5698 121.932C45.5424 122.058 45.4272 122.14 45.3065 122.14ZM46.5298 118.01C46.5024 118.01 46.4694 118.004 46.4365 117.993C46.2939 117.944 46.2226 117.79 46.272 117.647C46.5079 116.984 46.7711 116.303 47.0509 115.623C47.1058 115.486 47.2649 115.42 47.402 115.475C47.5391 115.53 47.605 115.689 47.5501 115.826C47.2758 116.495 47.018 117.17 46.7821 117.828C46.7437 117.938 46.645 118.01 46.5298 118.01ZM48.1645 114.016C48.1261 114.016 48.0877 114.01 48.0493 113.989C47.9122 113.928 47.8573 113.764 47.9177 113.632C48.2139 112.99 48.5321 112.332 48.8612 111.679C48.927 111.547 49.0916 111.493 49.2233 111.558C49.3549 111.624 49.4098 111.789 49.344 111.92C49.0148 112.562 48.7021 113.215 48.4113 113.851C48.3675 113.961 48.2687 114.016 48.1645 114.016ZM50.1175 110.17C50.0736 110.17 50.0296 110.16 49.9857 110.138C49.8541 110.066 49.8102 109.902 49.8815 109.77C50.2271 109.145 50.5892 108.508 50.9622 107.894C51.039 107.768 51.2036 107.724 51.3298 107.801C51.4559 107.877 51.4998 108.042 51.423 108.168C51.0554 108.783 50.6934 109.408 50.3533 110.033C50.3039 110.121 50.2107 110.17 50.1175 110.17ZM52.3336 106.468C52.2843 106.468 52.2349 106.451 52.1855 106.424C52.0593 106.341 52.0265 106.177 52.1033 106.051C52.8384 104.921 53.3266 104.251 53.3266 104.246C53.4143 104.125 53.5844 104.103 53.705 104.191C53.8257 104.279 53.8531 104.449 53.7599 104.57C53.7544 104.575 53.2772 105.228 52.5531 106.347C52.5092 106.424 52.4214 106.468 52.3336 106.468Z" fill="#1A1A1A"/>
<path d="M100.289 4.24734C100.289 4.24734 104.014 4.81236 104.348 6.2551C104.683 7.69783 101.562 8.94308 100.289 9.02537C99.0164 9.10766 99.1151 11.4555 99.1151 11.4555L95.8182 10.7095C95.8182 10.7095 96.2023 7.25898 95.2368 4.80139C94.2713 2.3438 95.9005 0.220841 98.221 0.275698C100.541 0.330555 104.985 1.63066 104.82 3.72619C104.656 5.82173 103.992 5.73944 103.992 5.73944" fill="#F3F3F3"/>
<path d="M99.3951 11.7957L95.5167 10.918L95.5442 10.6766C95.5496 10.6437 95.9117 7.26452 94.9791 4.8947C94.4909 3.65494 94.6006 2.39323 95.2754 1.42775C95.9282 0.489696 97.0033 -0.031444 98.2212 0.00147009C100.042 0.0453556 103.241 0.857237 104.513 2.26706C104.93 2.72786 105.122 3.22705 105.084 3.74271C105.001 4.7795 104.788 5.4707 104.447 5.79984C104.524 5.92053 104.579 6.05218 104.612 6.18933C104.7 6.57881 104.601 6.97378 104.316 7.35778C103.531 8.41103 101.386 9.21743 100.311 9.28874C99.3348 9.35457 99.3896 11.4172 99.3896 11.4391L99.3951 11.7957ZM96.1037 10.5011L98.8465 11.121C98.874 10.4078 99.0769 8.83891 100.267 8.75663C101.255 8.6908 103.202 7.94474 103.877 7.04509C104.069 6.78726 104.135 6.55138 104.08 6.3155C103.844 5.2787 101.161 4.65333 100.245 4.5107L100.328 3.97859C100.651 4.02797 103.01 4.41196 104.096 5.3939C104.233 5.24579 104.458 4.83436 104.546 3.70431C104.574 3.34225 104.431 2.9802 104.113 2.62911C102.955 1.35095 99.8888 0.582953 98.2102 0.544554C97.1789 0.517125 96.2682 0.955979 95.7197 1.74043C95.1492 2.5578 95.0614 3.633 95.4838 4.7027C96.3286 6.84761 96.175 9.66177 96.1037 10.5011Z" fill="#262626"/>
<path d="M122.155 36.0261C122.155 36.0261 120.224 34.2871 120.8 33.4862C121.382 32.6853 121.821 33.2119 121.821 33.2119C121.821 33.2119 117.899 27.0021 120.466 25.1205C123.033 23.2444 124.245 26.1847 124.245 26.1847C124.245 26.1847 124.081 24.1989 125.074 24.6926C126.067 25.1863 126.44 26.1409 126.939 26.1025C127.438 26.0586 124.953 23.3706 126.193 20.8417C127.433 18.3183 129.38 16.1185 132.737 16.5354C136.089 16.9468 133.522 19.2673 133.483 20.3864C133.445 21.5055 133.856 23.6174 135.431 23.036C137.005 22.4545 139.304 23.409 138.695 25.3948C138.086 27.3806 141.065 26.4316 141.975 26.4919C142.886 26.5523 146.243 29.4926 144.499 32.5152C142.754 35.5378 141.767 36.4101 141.767 36.4101C141.767 36.4101 145.947 37.0299 145.453 40.6779C144.954 44.3204 141.706 45.4011 138.695 45.5218C135.683 45.648 133.9 47.7161 133.774 48.709C133.648 49.7019 132.49 50.3657 131.871 49.9926C131.251 49.6251 122.155 36.0261 122.155 36.0261Z" fill="#262626"/>
<path d="M132.282 50.3711C132.084 50.3711 131.898 50.3217 131.733 50.2285C131.097 49.8445 123.516 38.5494 121.947 36.2071C121.546 35.8395 119.912 34.2596 120.581 33.3326C120.795 33.0418 121.02 32.8608 121.261 32.8004C120.345 31.1877 118.019 26.5852 120.307 24.9065C121.135 24.3031 121.925 24.1001 122.66 24.3031C123.263 24.4732 123.708 24.8846 124.009 25.2741C124.064 24.9449 124.185 24.6158 124.426 24.4512C124.574 24.3525 124.832 24.2702 125.194 24.4512C125.732 24.72 126.094 25.0985 126.385 25.4057C126.434 25.4551 126.483 25.51 126.527 25.5593C126.516 25.5374 126.505 25.5155 126.494 25.4935C125.984 24.4732 125.041 22.5806 125.951 20.7264C127.603 17.3637 129.835 15.91 132.77 16.2721C133.747 16.3928 134.345 16.6835 134.597 17.1608C134.953 17.83 134.531 18.6474 134.163 19.366C133.966 19.75 133.763 20.1504 133.752 20.4028C133.725 21.105 133.9 22.3063 134.476 22.7287C134.707 22.8988 134.986 22.9152 135.332 22.7891C136.38 22.3996 137.691 22.6355 138.437 23.3486C139.018 23.8972 139.199 24.6542 138.941 25.4825C138.843 25.8062 138.848 26.0366 138.958 26.1737C139.254 26.5303 140.324 26.3932 141.026 26.3054C141.41 26.256 141.739 26.2176 141.975 26.2341C142.65 26.278 143.988 27.3641 144.696 28.6917C145.201 29.6407 145.618 31.0944 144.712 32.6633C143.544 34.693 142.705 35.7682 142.271 36.2619C143.407 36.5691 146.122 37.6388 145.7 40.7218C145.277 43.8267 142.787 45.6315 138.684 45.8015C135.694 45.9222 134.114 47.9903 134.021 48.7528C133.944 49.3617 133.533 49.9213 132.94 50.2065C132.732 50.3162 132.496 50.3711 132.282 50.3711ZM121.453 33.3106C121.448 33.3106 121.448 33.3106 121.442 33.3106C121.321 33.3161 121.173 33.4368 121.02 33.6452C120.724 34.0567 121.629 35.1922 122.336 35.8285L122.38 35.8779C125.968 41.2374 131.492 49.3617 132.024 49.7732C132.189 49.8719 132.457 49.8554 132.732 49.7183C133.154 49.5153 133.461 49.1039 133.516 48.6815C133.659 47.5569 135.557 45.3846 138.689 45.2584C141.383 45.1487 144.701 44.2546 145.19 40.645C145.645 37.3042 141.893 36.7063 141.734 36.6843L141.158 36.5965L141.597 36.2125C141.608 36.2071 142.589 35.3184 144.274 32.389C145.053 31.0395 144.691 29.7669 144.246 28.944C143.56 27.6658 142.365 26.7936 141.964 26.7717C141.778 26.7607 141.454 26.7991 141.114 26.843C140.192 26.9582 139.051 27.1008 138.563 26.5248C138.327 26.2396 138.283 25.8391 138.442 25.3289C138.634 24.6981 138.514 24.1495 138.08 23.7436C137.482 23.1731 136.385 22.9865 135.529 23.2992C134.882 23.5351 134.432 23.3596 134.169 23.1676C133.363 22.5806 133.193 21.1434 133.22 20.3863C133.236 20.0133 133.456 19.5854 133.692 19.1246C133.999 18.5212 134.35 17.8355 134.131 17.4186C133.966 17.1114 133.489 16.9084 132.715 16.8097C130.033 16.4805 127.987 17.841 126.445 20.9678C125.65 22.5861 126.522 24.3251 126.988 25.2576C127.24 25.7678 127.361 25.9982 127.241 26.2066C127.186 26.3054 127.087 26.3657 126.972 26.3767C126.593 26.4096 126.319 26.1189 126.001 25.7843C125.726 25.4935 125.414 25.1644 124.964 24.9395C124.893 24.9011 124.794 24.8681 124.739 24.9065C124.558 25.0272 124.487 25.6581 124.525 26.1683L124.668 27.8853L124.009 26.2944C124.004 26.2834 123.499 25.104 122.523 24.8297C121.958 24.6707 121.321 24.8462 120.636 25.3454C118.299 27.0514 122.018 33.0144 122.057 33.0747L121.623 33.3929C121.618 33.3874 121.546 33.3106 121.453 33.3106Z" fill="#262626"/>
<path d="M107.755 198.841C107.706 198.792 107.657 198.748 107.602 198.704C106.905 198.09 102.637 197.404 102.264 198.315C102.094 198.726 101.606 199.209 101.123 199.604C103.142 200.679 105.94 200.355 107.755 198.841Z" fill="#1A1A1A"/>
<path d="M107.756 198.841C105.945 200.355 103.142 200.679 101.118 199.604C100.794 199.867 100.476 200.097 100.257 200.251C102.44 202.028 105.748 201.244 107.992 199.752C108.063 199.68 108.184 199.582 108.315 199.461C108.151 199.236 107.959 199.033 107.756 198.841Z" fill="#F3F3F3"/>
<path d="M103.334 201.546C102.16 201.546 101.024 201.227 100.086 200.459L99.8066 200.234L100.103 200.031C100.311 199.889 100.624 199.664 100.948 199.395L101.085 199.28L101.244 199.362C103.18 200.388 105.846 200.081 107.58 198.633L107.761 198.479L107.936 198.644C108.178 198.868 108.37 199.082 108.523 199.296L108.661 199.488L108.49 199.653C108.419 199.719 108.348 199.779 108.287 199.834C108.244 199.872 108.2 199.911 108.172 199.938L108.134 199.971C106.746 200.898 105.002 201.546 103.334 201.546ZM100.712 200.256C102.763 201.65 105.715 200.931 107.816 199.538C107.849 199.505 107.893 199.466 107.942 199.428C107.876 199.351 107.81 199.28 107.733 199.203C105.885 200.618 103.18 200.915 101.151 199.927C100.997 200.042 100.849 200.158 100.712 200.256Z" fill="#262626"/>
<path d="M107.986 199.752C105.742 201.249 102.434 202.028 100.251 200.251C100.07 200.377 99.9549 200.448 99.9549 200.448C96.647 202.209 94.4637 205.896 94.513 209.637C94.5185 210.224 94.5898 210.849 94.9354 211.327C95.3798 211.941 96.1807 212.182 96.9377 212.226C98.9181 212.347 100.865 211.37 102.237 209.939C103.608 208.501 104.47 206.647 105.062 204.755C105.227 204.223 105.397 203.647 105.841 203.312C106.269 202.988 106.845 202.961 107.344 202.763C108.129 202.451 108.699 201.661 108.748 200.816C108.781 200.317 108.589 199.867 108.299 199.467C108.183 199.582 108.057 199.681 107.986 199.752Z" fill="#F3F3F3"/>
<path d="M97.2722 212.506C97.157 212.506 97.0473 212.501 96.9321 212.495C95.9392 212.435 95.1547 212.073 94.7268 211.486C94.3209 210.926 94.2606 210.208 94.2496 209.643C94.2002 205.808 96.4384 202.023 99.8231 200.218C99.8505 200.202 99.9547 200.13 100.103 200.032L100.267 199.917L100.426 200.043C102.484 201.721 105.616 200.997 107.821 199.538C107.854 199.505 107.898 199.467 107.947 199.428C108.002 199.379 108.063 199.324 108.128 199.264L108.353 199.05L108.534 199.302C108.896 199.801 109.066 200.317 109.033 200.827C108.973 201.776 108.342 202.654 107.459 203.01C107.262 203.087 107.059 203.142 106.861 203.191C106.543 203.274 106.247 203.351 106.022 203.526C105.654 203.806 105.501 204.311 105.347 204.804L105.336 204.837C104.628 207.108 103.685 208.842 102.451 210.131C100.997 211.634 99.088 212.506 97.2722 212.506ZM100.245 200.586C100.158 200.646 100.108 200.679 100.108 200.679L100.092 200.69C96.8772 202.402 94.7488 205.995 94.7927 209.637C94.7981 210.12 94.8475 210.729 95.1657 211.168C95.6155 211.788 96.4877 211.93 96.965 211.958C98.7259 212.067 100.629 211.239 102.056 209.752C103.23 208.524 104.135 206.861 104.815 204.673L104.826 204.64C104.996 204.097 105.188 203.477 105.687 203.093C106 202.851 106.367 202.758 106.719 202.665C106.905 202.615 107.086 202.572 107.251 202.506C107.936 202.231 108.441 201.529 108.49 200.789C108.507 200.482 108.43 200.18 108.255 199.867C108.227 199.895 108.2 199.917 108.178 199.938L108.139 199.971C105.824 201.518 102.516 202.281 100.245 200.586Z" fill="#262626"/>
<path d="M100.997 203.46C100.975 203.46 100.953 203.46 100.937 203.455L98.4461 202.857C98.3035 202.824 98.2103 202.676 98.2487 202.533C98.2816 202.39 98.4297 202.297 98.5723 202.336L101.063 202.934C101.205 202.966 101.299 203.115 101.26 203.257C101.233 203.372 101.123 203.46 100.997 203.46Z" fill="#1A1A1A"/>
<path d="M98.8904 207.525C98.8685 207.525 98.8466 207.525 98.8301 207.519L96.3396 206.921C96.1969 206.888 96.1037 206.74 96.1421 206.598C96.175 206.455 96.3232 206.362 96.4658 206.4L98.9563 206.998C99.0989 207.031 99.1921 207.179 99.1537 207.322C99.1208 207.443 99.0111 207.525 98.8904 207.525Z" fill="#1A1A1A"/>
<path d="M99.8834 205.023C99.8614 205.023 99.8395 205.023 99.823 205.018L97.3325 204.42C97.1899 204.387 97.0966 204.239 97.135 204.096C97.1679 203.954 97.316 203.86 97.4587 203.899L99.9492 204.497C100.092 204.53 100.185 204.678 100.147 204.82C100.114 204.936 100.004 205.023 99.8834 205.023Z" fill="#1A1A1A"/>
<path d="M144.115 193.718C143.742 193.641 143.352 193.619 142.963 193.668C142.963 193.668 140.28 194.069 140.198 195.725C140.165 196.411 139.869 197.097 139.539 197.673C141.69 197.958 143.632 195.835 144.115 193.718Z" fill="#1A1A1A"/>
<path d="M144.114 193.718C143.632 195.835 141.69 197.958 139.539 197.673C139.068 198.496 138.519 199.083 138.519 199.083C138.453 199.154 138.393 199.22 138.333 199.291C139.43 199.856 140.724 199.45 141.465 199.154C143.418 198.457 145.173 196.669 145.749 194.496C145.272 194.118 144.712 193.844 144.114 193.718Z" fill="#F3F3F3"/>
<path d="M139.567 199.845C139.062 199.845 138.607 199.741 138.201 199.532L137.894 199.373L138.124 199.115C138.19 199.044 138.25 198.973 138.316 198.901L138.333 198.885C138.415 198.792 138.892 198.254 139.304 197.536L139.391 197.376L139.572 197.398C141.564 197.662 143.39 195.67 143.851 193.652L143.912 193.394L144.169 193.449C144.8 193.58 145.404 193.871 145.914 194.288L146.051 194.398L146.007 194.568C145.426 196.751 143.681 198.649 141.553 199.406C140.829 199.702 140.165 199.845 139.567 199.845ZM138.771 199.192C139.463 199.417 140.329 199.324 141.361 198.912C143.281 198.227 144.861 196.548 145.436 194.606C145.091 194.354 144.707 194.162 144.306 194.047C143.714 196.148 141.799 198.122 139.677 197.963C139.495 198.249 139.079 198.89 138.771 199.192Z" fill="#262626"/>
<path d="M147.137 197.234C147.104 196.148 146.556 195.166 145.744 194.507C145.168 196.68 143.412 198.468 141.459 199.165C140.719 199.461 139.424 199.867 138.327 199.302C136.402 201.48 134.805 204.513 135.409 207.459C135.924 209.873 138.848 210.805 140.626 209.077C142.2 207.711 142.672 205.556 143.697 203.822C144.948 201.716 147.236 199.872 147.137 197.234Z" fill="#F3F3F3"/>
<path d="M138.475 210.229C138.152 210.229 137.822 210.18 137.493 210.081C136.286 209.719 135.409 208.754 135.145 207.508C134.388 203.833 136.978 200.415 138.124 199.115L138.261 198.956L138.448 199.049C139.183 199.428 140.165 199.379 141.355 198.901C143.33 198.194 144.943 196.438 145.48 194.425L145.59 194.019L145.914 194.282C146.83 195.028 147.373 196.098 147.406 197.212C147.477 199.176 146.309 200.701 145.184 202.171C144.723 202.774 144.285 203.345 143.928 203.943C143.588 204.513 143.303 205.155 143.028 205.775C142.469 207.026 141.887 208.326 140.801 209.269C140.159 209.9 139.331 210.229 138.475 210.229ZM138.398 199.625C137.252 200.964 134.997 204.096 135.672 207.399C135.897 208.452 136.637 209.258 137.652 209.565C138.645 209.867 139.688 209.609 140.439 208.874C141.448 207.997 141.975 206.812 142.54 205.561C142.825 204.93 143.116 204.277 143.473 203.674C143.846 203.048 144.312 202.44 144.767 201.853C145.837 200.459 146.945 199.011 146.879 197.239C146.857 196.411 146.495 195.61 145.886 194.99C145.206 196.992 143.549 198.704 141.558 199.411C140.313 199.911 139.249 199.982 138.398 199.625Z" fill="#262626"/>
<path d="M139.232 203.356H136.599C136.451 203.356 136.33 203.235 136.33 203.087C136.33 202.939 136.451 202.818 136.599 202.818H139.232C139.38 202.818 139.501 202.939 139.501 203.087C139.501 203.235 139.38 203.356 139.232 203.356Z" fill="#1A1A1A"/>
<path d="M138.98 205.095H136.072C135.924 205.095 135.804 204.974 135.804 204.826C135.804 204.678 135.924 204.557 136.072 204.557H138.98C139.128 204.557 139.249 204.678 139.249 204.826C139.249 204.974 139.133 205.095 138.98 205.095Z" fill="#1A1A1A"/>
<path d="M140.455 202.039C140.384 202.039 140.318 202.012 140.263 201.962C140.082 201.847 138.87 201.781 137.861 201.798C137.713 201.803 137.592 201.683 137.586 201.535C137.586 201.386 137.702 201.266 137.85 201.26C138.958 201.244 140.34 201.288 140.642 201.584C140.746 201.688 140.746 201.858 140.642 201.962C140.593 202.017 140.527 202.039 140.455 202.039Z" fill="#1A1A1A"/>
<path d="M109.818 150.2C108.989 166.157 108.161 182.121 107.338 198.079C107.338 198.079 107.294 199.176 106.148 199.521C104.365 200.054 102.324 199.982 100.893 198.797C100.893 198.797 101.282 197.865 100.904 196.801C93.07 174.913 88.0615 152.004 86.1964 128.833C85.8563 124.614 85.4668 120.78 86.8437 116.775L87.0137 116.254L106.197 119.315L130.795 122.228L130.296 125.53" fill="#F3F3F3"/>
<path d="M104.047 200.114C102.763 200.114 101.606 199.735 100.723 199.006L100.569 198.88L100.646 198.693C100.651 198.688 100.986 197.837 100.651 196.894C92.7355 174.781 87.7874 151.889 85.9278 128.86L85.8839 128.301C85.5602 124.329 85.2531 120.571 86.5916 116.698L86.8329 115.963L106.241 119.057L131.102 121.998L130.565 125.574L130.033 125.492L130.488 122.469L106.164 119.589L87.2005 116.567L87.1017 116.869C85.8016 120.643 86.1033 124.34 86.4215 128.257L86.4653 128.816C88.314 151.801 93.2566 174.644 101.156 196.713C101.463 197.574 101.31 198.353 101.211 198.704C102.434 199.62 104.195 199.829 106.077 199.264C107.02 198.984 107.075 198.106 107.075 198.068L109.555 150.183L110.092 150.211L107.613 198.09C107.596 198.534 107.284 199.461 106.23 199.779C105.479 200.004 104.744 200.114 104.047 200.114Z" fill="#262626"/>
<path d="M131.684 122.234C133.154 134.258 128.409 156.706 128.409 156.706C129.863 167.074 133.527 177.129 139.079 185.999C140.642 188.495 143.725 190.942 143.1 193.822C142.546 196.362 140.126 197.519 140.126 197.519C133.055 196.806 126.544 192.884 121.837 187.563C117.125 182.242 114.097 175.609 112.149 168.774C110.202 161.939 109.286 154.863 108.381 147.819L108.518 147.632C105.731 144.467 103.477 140.836 101.869 136.935" fill="#F3F3F3"/>
<path d="M140.176 197.793L140.099 197.788C133.417 197.113 126.687 193.454 121.634 187.744C117.366 182.922 114.086 176.564 111.892 168.851C109.939 161.983 109.012 154.802 108.112 147.852L108.096 147.742L108.172 147.643C105.419 144.478 103.219 140.912 101.617 137.034L102.116 136.831C103.718 140.72 105.94 144.292 108.721 147.451L108.864 147.616L108.661 147.89C109.549 154.786 110.476 161.906 112.407 168.703C114.58 176.339 117.822 182.62 122.035 187.382C126.983 192.966 133.549 196.559 140.072 197.239C140.45 197.036 142.365 195.912 142.831 193.761C143.253 191.809 141.805 189.998 140.406 188.243C139.858 187.557 139.287 186.844 138.848 186.136C133.297 177.266 129.594 167.101 128.14 156.733L128.135 156.684L128.146 156.64C128.195 156.415 132.863 134.099 131.415 122.256L131.947 122.19C133.374 133.858 128.919 155.548 128.683 156.706C130.132 166.98 133.807 177.058 139.309 185.851C139.737 186.531 140.269 187.201 140.834 187.903C142.315 189.751 143.84 191.666 143.363 193.871C142.787 196.51 140.346 197.706 140.242 197.755L140.176 197.793Z" fill="#262626"/>
<path d="M86.4819 117.324C86.4819 117.324 93.4707 122.755 102.522 124.439C111.573 126.123 124.245 126.573 131.827 123.698C130.384 121.597 129.051 121.356 129.051 121.356L89.543 115.81L86.4819 117.324Z" fill="#1A1A1A"/>
<path d="M133.84 118.514C133.017 120.242 132.128 121.932 131.168 123.588C131.168 123.588 116.757 125.229 108.529 124.565C97.0032 123.632 86.2842 115.81 86.2842 115.81C86.4981 114.828 86.7176 113.84 86.9315 112.858C89.9432 113.105 93.3059 112.831 93.3059 112.831C97.6999 111.756 101.885 104.251 102.302 93.7352C102.714 83.2137 109.812 67.009 111.304 64.6337C112.796 62.2638 114.738 61.1448 115.484 59.6965C116.137 58.4293 115.205 54.1889 113.916 51.5284C115.797 51.2925 117.712 51.6326 117.712 51.6326C123.225 52.3348 128.206 55.3738 131.947 59.532C132.435 63.9589 129.221 65.3687 125.37 68.5175C121.519 71.6663 123.175 86.3405 122.852 93.9602C122.528 101.58 120.647 102.293 119.204 111.086C117.448 121.712 133.84 118.514 133.84 118.514Z" fill="#FFC700"/>
<path d="M113.093 124.987C111.453 124.987 109.889 124.943 108.507 124.828C97.0364 123.895 86.235 116.1 86.1253 116.024L85.9827 115.919L86.7233 112.568L86.9591 112.584C89.7897 112.814 92.9769 112.579 93.2677 112.557C97.2009 111.575 101.606 104.646 102.034 93.7187C102.451 83.1698 109.467 67.0473 111.074 64.4855C111.881 63.2018 112.802 62.2912 113.62 61.4903C114.316 60.8046 114.914 60.2121 115.249 59.5703C115.819 58.4677 115.007 54.3918 113.674 51.638L113.51 51.2979L113.883 51.2485C115.786 51.0072 117.679 51.3363 117.756 51.3528C123.006 52.022 128.118 54.8581 132.145 59.3344L132.216 59.4112V59.5045C132.627 63.2896 130.367 65.0066 127.504 67.1845C126.873 67.6617 126.22 68.1609 125.546 68.715C122.792 70.9641 122.967 79.8235 123.11 86.9384C123.159 89.5331 123.209 91.9798 123.126 93.9601C122.945 98.2334 122.26 100.4 121.47 102.907C120.833 104.931 120.109 107.23 119.467 111.119C119.094 113.401 119.555 115.195 120.85 116.446C124.52 120.012 133.703 118.267 133.796 118.251L134.323 118.146L134.092 118.629C133.269 120.363 132.364 122.08 131.41 123.72L131.344 123.835L131.207 123.852C131.081 123.868 121.135 124.987 113.093 124.987ZM86.5861 115.689C87.8917 116.605 97.9415 123.429 108.551 124.29C116.236 124.916 129.523 123.495 131.004 123.33C131.838 121.882 132.633 120.385 133.368 118.865C131.311 119.194 123.861 120.121 120.466 116.83C119.039 115.448 118.524 113.495 118.93 111.026C119.577 107.104 120.301 104.783 120.948 102.743C121.76 100.17 122.397 98.1347 122.578 93.9327C122.66 91.9688 122.611 89.5277 122.561 86.9439C122.408 79.3353 122.238 70.7118 125.194 68.2926C125.88 67.733 126.533 67.2338 127.169 66.7511C129.983 64.6117 132.024 63.0592 131.684 59.6252C127.751 55.2805 122.781 52.5322 117.673 51.8794C117.646 51.8739 116.011 51.5886 114.316 51.7368C115.529 54.4247 116.406 58.4732 115.721 59.8007C115.348 60.5193 114.722 61.1392 113.993 61.8579C113.197 62.6423 112.298 63.5255 111.524 64.7598C110.114 67.0034 102.977 83.3124 102.566 93.7297C102.368 98.7601 101.321 103.324 99.5324 106.928C97.8482 110.335 95.654 112.518 93.3664 113.078L93.3225 113.083C93.2896 113.083 90.075 113.347 87.1402 113.133L86.5861 115.689Z" fill="#262626"/>
<path d="M113.916 51.5173C115.205 54.1779 116.138 58.4238 115.485 59.6855C114.739 61.1337 112.791 62.2528 111.305 64.6226C109.813 66.9979 102.72 83.2027 102.303 93.7242C101.886 104.24 97.7058 111.745 93.3063 112.82C93.3063 112.82 89.9435 113.094 86.9319 112.847C88.8354 104.202 89.5979 94.8268 91.5069 86.1814C92.7632 80.4818 93.8164 73.7947 95.9284 68.3584C98.0403 62.9166 102.401 59.4277 106.713 55.489C108.414 53.9365 110.334 52.5706 112.517 51.8245C112.961 51.6764 113.439 51.5777 113.916 51.5173Z" fill="#F3F3F3"/>
<path d="M89.702 113.226C88.8078 113.226 87.8423 113.198 86.9098 113.122L86.6025 113.094L86.6684 112.792C87.6174 108.481 88.2976 103.906 88.9504 99.4787C89.6087 95.0462 90.2835 90.4602 91.238 86.1265C91.5287 84.7935 91.8085 83.433 92.0992 81.9958C93.0537 77.3055 94.0411 72.4507 95.6704 68.2651C97.5684 63.3719 101.222 60.0805 105.084 56.5971C105.561 56.1692 106.044 55.7358 106.521 55.2969C108.529 53.4647 110.46 52.2469 112.418 51.5722C112.846 51.424 113.334 51.3198 113.872 51.2485L114.064 51.2266L114.146 51.4021C115.441 54.0791 116.428 58.4238 115.71 59.8117C115.337 60.5303 114.711 61.1502 113.982 61.8688C113.186 62.6533 112.287 63.5364 111.513 64.7707C110.103 67.0144 102.966 83.3233 102.555 93.7406C102.357 98.771 101.31 103.335 99.5214 106.939C97.8373 110.346 95.643 112.529 93.3555 113.089L93.3116 113.094C93.3061 113.094 91.6878 113.226 89.702 113.226ZM87.2664 112.606C90.0147 112.798 92.9879 112.578 93.2677 112.557C97.2009 111.575 101.606 104.646 102.034 93.7187C102.451 83.1697 109.467 67.0473 111.074 64.4855C111.881 63.2018 112.802 62.2912 113.62 61.4903C114.316 60.8046 114.914 60.2121 115.249 59.5703C115.808 58.4896 115.046 54.5619 113.762 51.819C113.334 51.8848 112.95 51.9726 112.61 52.0933C110.718 52.7406 108.852 53.92 106.9 55.7029C106.417 56.1417 105.94 56.5751 105.457 57.0085C101.639 60.448 98.0348 63.6955 96.1861 68.4681C94.5788 72.6153 93.5913 77.4427 92.6423 82.111C92.3461 83.5537 92.0718 84.9142 91.7756 86.2527C90.8265 90.5644 90.1463 95.1395 89.4935 99.5664C88.8462 103.889 88.1825 108.365 87.2664 112.606Z" fill="#262626"/>
<path d="M133.84 118.514C133.84 118.514 117.448 121.718 119.198 111.075C120.641 102.282 122.523 101.569 122.846 93.9492C123.17 86.3295 121.513 71.6553 125.364 68.5066C129.215 65.3578 132.43 63.9479 131.942 59.521C133.099 60.8046 134.13 62.1925 135.03 63.6572C138.832 69.8615 140.357 77.2233 140.697 84.4864C141.256 96.1599 138.854 107.96 133.84 118.514Z" fill="#F3F3F3"/>
<path d="M128.722 119.244C125.847 119.244 122.457 118.766 120.471 116.83C119.045 115.448 118.529 113.495 118.935 111.026C119.582 107.104 120.307 104.783 120.954 102.743C121.766 100.17 122.402 98.1348 122.583 93.9327C122.665 91.9688 122.616 89.5277 122.567 86.9439C122.413 79.3353 122.243 70.7118 125.2 68.2926C125.886 67.7331 126.538 67.2339 127.175 66.7511C130.011 64.5953 132.062 63.0373 131.678 59.5429L131.585 58.7146L132.145 59.3345C133.302 60.6181 134.35 62.0225 135.261 63.5091C138.651 69.0441 140.571 76.0933 140.966 84.4644C141.52 96.1599 139.139 107.971 134.081 118.618L134.021 118.739L133.889 118.766C133.703 118.816 131.442 119.244 128.722 119.244ZM132.265 60.2945C132.298 63.542 130.159 65.1713 127.504 67.19C126.873 67.6672 126.22 68.1664 125.545 68.7205C122.792 70.9696 122.967 79.829 123.11 86.9439C123.159 89.5387 123.208 91.9853 123.126 93.9656C122.945 98.239 122.259 100.406 121.47 102.913C120.833 104.937 120.109 107.236 119.467 111.125C119.094 113.407 119.555 115.201 120.85 116.451C124.278 119.781 132.518 118.481 133.664 118.278C138.645 107.746 140.988 96.0721 140.439 84.5083C140.044 76.2249 138.151 69.2636 134.811 63.8053C134.048 62.5656 133.192 61.3861 132.265 60.2945Z" fill="#262626"/>
<path d="M145.349 121.866C145.349 121.866 142.886 121.016 142.2 121.284C141.514 121.553 141.267 122.442 141.163 123.934C141.059 125.426 144.125 128.24 147 127.516C149.874 126.792 148.678 119.068 148.678 119.068L145.305 118.509L143.955 121.559" fill="#F3F3F3"/>
<path d="M146.051 127.906C144.828 127.906 143.533 127.407 142.43 126.485C141.432 125.651 140.851 124.669 140.9 123.923C141.004 122.437 141.245 121.378 142.107 121.043C142.469 120.901 143.176 120.999 143.851 121.158L145.151 118.218L148.925 118.843L148.953 119.035C149.002 119.359 150.154 127.012 147.077 127.785C146.742 127.862 146.402 127.906 146.051 127.906ZM142.567 121.498C142.452 121.498 142.365 121.509 142.299 121.537C141.789 121.74 141.536 122.437 141.432 123.956C141.394 124.516 141.931 125.366 142.77 126.068C144.06 127.143 145.618 127.593 146.934 127.258C149.035 126.732 148.755 121.515 148.437 119.304L145.464 118.81L144.372 121.285C144.861 121.416 145.272 121.553 145.431 121.614L145.255 122.124C144.433 121.833 143.182 121.498 142.567 121.498Z" fill="#262626"/>
<path d="M133.84 61.8689C135.206 62.7905 139.506 66.5701 141.964 69.9383C152.436 84.2999 154.175 101.964 149.957 119.233C149.957 119.233 148.536 119.853 147.28 119.858C144.707 119.869 143.906 118.163 143.906 118.163C142.781 107.866 141.816 97.8824 137.416 88.5019C136.796 87.1853 136.122 85.8907 135.469 84.5851" fill="#F3F3F3"/>
<path d="M147.252 120.132C144.559 120.132 143.698 118.36 143.659 118.284L143.643 118.245L143.527 117.187C142.436 107.142 141.41 97.6575 137.175 88.628C136.742 87.7064 136.27 86.7793 135.82 85.8797C135.623 85.4957 135.431 85.1062 135.233 84.7167L135.716 84.4754C135.908 84.8594 136.105 85.2488 136.297 85.6328C136.753 86.5325 137.224 87.4651 137.663 88.3976C141.937 97.5093 142.968 107.038 144.065 117.126L144.169 118.092C144.301 118.328 145.102 119.606 147.28 119.595C148.262 119.589 149.364 119.183 149.726 119.041C152.892 106.007 154.049 86.9768 141.75 70.1029C139.32 66.7676 134.997 62.9769 133.692 62.0938L133.993 61.6494C135.502 62.6698 139.764 66.4658 142.183 69.7847C147.252 76.7351 150.467 84.7003 151.74 93.4609C152.924 101.629 152.414 110.318 150.22 119.299L150.187 119.43L150.066 119.485C150.006 119.512 148.58 120.127 147.285 120.132C147.274 120.132 147.263 120.132 147.252 120.132Z" fill="#262626"/>
<path d="M111.65 52.9217C111.65 52.9217 110.526 53.3825 106.944 44.8578C101.891 32.8386 99.3239 13.8801 99.3239 13.8801C99.3239 13.8801 97.2558 14.1269 93.6901 13.134C85.489 47.1727 97.2613 74.5902 97.2613 74.5902" fill="#F3F3F3"/>
<path d="M97.0144 74.7001C96.987 74.6288 94.0357 67.6894 92.1376 56.6796C90.3822 46.5201 89.1808 30.7049 93.4322 13.0793L93.4981 12.8105L93.7668 12.8873C97.2228 13.8528 99.2745 13.6279 99.2964 13.6224L99.5597 13.5895L99.5981 13.8528C99.6256 14.0393 102.215 32.9156 107.201 44.7592C110.416 52.3953 111.584 52.6531 111.634 52.6641C111.634 52.6641 111.606 52.6586 111.557 52.6805L111.76 53.1797C111.349 53.3498 110.032 52.8835 106.702 44.9731C102.006 33.8098 99.4281 16.4695 99.0989 14.182C98.4516 14.2149 96.6359 14.2149 93.893 13.4798C89.7458 30.9023 90.9362 46.5201 92.6697 56.5754C94.5568 67.5303 97.4861 74.4258 97.5135 74.4971L97.0144 74.7001Z" fill="#262626"/>
<path d="M118.902 115.568C109.33 115.568 101.48 113.067 96.5317 110.938C96.4385 110.9 96.4001 110.796 96.4385 110.703C96.4769 110.609 96.5811 110.571 96.6744 110.609C101.71 112.776 109.774 115.332 119.599 115.206C119.698 115.206 119.775 115.283 119.78 115.382C119.78 115.481 119.703 115.563 119.605 115.563C119.369 115.568 119.133 115.568 118.902 115.568Z" fill="#1A1A1A"/>
<path d="M94.118 11.7736C94.118 11.7736 92.9714 11.0002 94.118 10.4735C95.2645 9.94691 98.9783 10.6381 99.7628 11.6036C100.207 12.1522 99.6914 13.1067 98.8905 13.0244C98.0951 12.9476 94.118 11.7736 94.118 11.7736Z" fill="#F3F3F3"/>
<path d="M98.9893 13.3042C98.9509 13.3042 98.907 13.3042 98.8686 13.2987C98.0512 13.2164 94.2057 12.0809 94.0412 12.0315L94.0028 12.0206L93.9698 11.9986C93.8985 11.9547 93.3006 11.5323 93.3445 10.9893C93.3719 10.6766 93.5913 10.4242 94.0082 10.2322C95.1931 9.68914 99.0825 10.3419 99.9766 11.4391C100.251 11.7737 100.278 12.24 100.053 12.6569C99.834 13.0574 99.4226 13.3042 98.9893 13.3042ZM94.2386 11.5268C95.621 11.9328 98.3145 12.6953 98.9234 12.7611C99.2416 12.794 99.472 12.5966 99.5762 12.3991C99.6695 12.2235 99.7134 11.9712 99.5543 11.7792C98.8741 10.9454 95.2919 10.2377 94.2277 10.7205C94.0082 10.8192 93.882 10.9289 93.8766 11.0331C93.8656 11.1867 94.0741 11.4062 94.2386 11.5268Z" fill="#262626"/>
<path d="M94.0468 13.6935C94.0468 13.6935 92.5547 12.6458 93.0813 11.6803C93.6079 10.7148 97.5521 12.2343 98.962 12.3715C100.372 12.5086 100.333 14.1489 99.3844 14.4999C98.4353 14.851 94.6283 13.9678 94.0468 13.6935Z" fill="#F3F3F3"/>
<path d="M98.7039 14.8511C97.1624 14.8511 94.4196 14.1709 93.9314 13.935L93.893 13.9131C93.8216 13.8637 92.2143 12.7117 92.8452 11.5487C93.306 10.6985 95.2644 11.2031 97.157 11.6914C97.8866 11.8779 98.5723 12.0589 98.9892 12.0973C99.8669 12.1851 100.251 12.7666 100.322 13.2822C100.404 13.9186 100.053 14.5329 99.4829 14.7469C99.2964 14.8182 99.0276 14.8511 98.7039 14.8511ZM94.1837 13.4578C94.8036 13.732 98.4515 14.5549 99.2908 14.2422C99.6748 14.0996 99.8285 13.6882 99.7846 13.3535C99.7571 13.1615 99.6255 12.7007 98.9343 12.6349C98.4735 12.591 97.7988 12.4155 97.0198 12.2125C95.8185 11.8998 93.5803 11.3238 93.317 11.8066C92.944 12.4923 94.0301 13.3426 94.1837 13.4578Z" fill="#262626"/>
<path d="M100.196 6.43624C99.7024 6.43624 99.0497 6.14002 98.2487 5.55853C97.6563 5.12516 97.3436 4.61499 97.3216 4.04448C97.2777 2.99123 98.2542 2.14095 98.2926 2.10255C98.3694 2.03672 98.4791 2.04769 98.5449 2.11901C98.6108 2.19581 98.5998 2.30552 98.5285 2.37135C98.5175 2.37683 97.6453 3.15032 97.6782 4.02803C97.6947 4.48334 97.9579 4.90025 98.4626 5.26231C99.5598 6.0687 100.114 6.1071 100.344 6.05773C100.514 6.02482 100.569 5.93156 100.569 5.92607C100.619 5.84379 100.728 5.81087 100.811 5.85476C100.893 5.89864 100.931 6.00287 100.887 6.09064C100.876 6.11259 100.761 6.32104 100.443 6.39784C100.372 6.42527 100.284 6.43624 100.196 6.43624Z" fill="#1A1A1A"/>
<path d="M128.036 48.2315L123.093 45.5271L116.659 53.5636C118.831 59.0548 122.698 60.8212 128.14 59.1426L128.036 48.2315Z" fill="#F3F3F3"/>
<path d="M124.487 60.0148C120.789 60.0148 118.079 57.8864 116.406 53.6569L116.351 53.5088L123.022 45.176L128.299 48.067L128.409 59.3346L128.217 59.3949C126.884 59.8064 125.639 60.0148 124.487 60.0148ZM116.966 53.602C119.05 58.7366 122.621 60.4866 127.866 58.9396L127.762 48.3906L123.159 45.8672L116.966 53.602Z" fill="#262626"/>
<path d="M120.372 48.9229C120.372 48.9229 122.72 50.8922 126.368 49.9103C122.72 48.2097 121.492 47.6831 121.492 47.6831L120.372 48.9229Z" fill="#1A1A1A"/>
<path d="M127.262 30.0083C127.262 30.0083 117.141 37.7377 119.939 45.5219C122.737 53.3061 133.779 48.0069 135.107 46.6245C136.818 45.851 139.205 43.5745 138.607 41.7751C138.009 39.9758 135.54 40.5957 134.816 41.2759C134.092 41.9617 132.457 42.9765 131.733 41.9781C131.009 40.9852 133.143 39.0378 134.24 38.1491C135.337 37.2604 134.904 34.8358 132.644 35.2691C130.965 35.4995 130.987 33.0968 130.137 32.3727C129.287 31.6486 127.696 32.1862 127.794 31.687C127.899 31.1878 130.57 30.0083 129.989 29.18C129.407 28.3517 128.727 28.8289 129.221 27.8744C129.714 26.9199 129.802 25.7405 128.661 27.1064C127.52 28.4833 127.948 29.756 127.262 30.0083Z" fill="#F3F3F3"/>
<path d="M126.138 49.9433C125.512 49.9433 124.898 49.8884 124.311 49.7623C122.057 49.2795 120.499 47.8862 119.681 45.6206C118.507 42.3456 119.423 38.566 122.331 34.6931C124.509 31.7911 127.07 29.8218 127.092 29.7998L127.125 29.7779L127.164 29.7614C127.339 29.6956 127.405 29.4652 127.504 29.0264C127.63 28.4778 127.805 27.7263 128.453 26.9528C128.831 26.4975 129.27 26.0586 129.632 26.3C130.159 26.6511 129.484 27.9621 129.457 28.017C129.352 28.2145 129.325 28.3077 129.32 28.3516C129.347 28.3681 129.396 28.3955 129.435 28.412C129.632 28.5107 129.934 28.6533 130.208 29.0428C130.729 29.7834 129.671 30.5404 128.82 31.1438C128.59 31.3084 128.288 31.5224 128.14 31.665C128.244 31.6759 128.381 31.6814 128.497 31.6814C129.04 31.6979 129.78 31.7253 130.307 32.1751C130.664 32.4769 130.867 32.9815 131.08 33.5082C131.486 34.5175 131.794 35.121 132.6 35.0112C133.648 34.8083 134.509 35.1758 134.888 35.9987C135.266 36.8106 135.058 37.8309 134.399 38.363C132.496 39.9045 131.536 41.2649 131.942 41.8245C132.073 42.0055 132.249 42.1042 132.474 42.1262C133.17 42.192 134.141 41.5392 134.624 41.0839C135.189 40.5518 136.467 40.1513 137.471 40.4037C138.152 40.5737 138.634 41.0181 138.854 41.6928C139.528 43.7225 136.934 46.0759 135.255 46.8548C134.301 47.7874 130.022 49.9433 126.138 49.9433ZM127.394 30.2442C126.807 30.705 117.558 38.1216 120.186 45.4341C120.932 47.5131 122.358 48.7913 124.421 49.2356C128.541 50.1133 134.048 47.3376 134.904 46.4434L134.942 46.405L134.992 46.3831C136.676 45.6206 138.87 43.4318 138.349 41.8629C138.184 41.3692 137.844 41.0565 137.345 40.9303C136.484 40.7164 135.398 41.1058 135.003 41.4789C134.493 41.9616 133.379 42.7515 132.435 42.6638C132.057 42.6309 131.739 42.4498 131.514 42.1426C130.664 40.9797 132.748 39.0158 134.065 37.9461C134.531 37.5676 134.679 36.816 134.405 36.2236C134.13 35.6311 133.505 35.3843 132.688 35.5379C131.393 35.7134 130.943 34.5998 130.581 33.7057C130.395 33.2394 130.214 32.795 129.961 32.5811C129.572 32.2519 128.968 32.23 128.48 32.2135C128.069 32.2026 127.767 32.1916 127.608 31.9886C127.531 31.8954 127.504 31.7692 127.531 31.6375C127.586 31.3633 127.904 31.1274 128.508 30.6995C129.062 30.3045 129.983 29.6462 129.769 29.3445C129.577 29.0648 129.38 28.9715 129.204 28.8892C129.051 28.8124 128.875 28.7301 128.809 28.5272C128.738 28.3132 128.831 28.0664 128.985 27.7647C129.177 27.3916 129.27 27.0515 129.298 26.854C129.21 26.9253 129.073 27.057 128.875 27.2929C128.31 27.9731 128.157 28.6204 128.036 29.147C127.915 29.6353 127.817 30.0632 127.394 30.2442Z" fill="#262626"/>
<path d="M126.654 44.6056C122.6 44.6056 120.96 40.837 120.943 40.7931C120.905 40.6998 120.948 40.5956 121.036 40.5572C121.13 40.5188 121.234 40.5627 121.272 40.6504C121.365 40.8644 123.56 45.8893 129.407 43.7005C129.501 43.6676 129.605 43.7115 129.638 43.8047C129.671 43.898 129.627 44.0022 129.534 44.0351C128.458 44.4356 127.504 44.6056 126.654 44.6056Z" fill="#1A1A1A"/>
<path d="M191.917 169.926C184.961 171.802 180.765 170.151 179.327 174.013C177.89 177.875 172.3 181.035 172.3 181.035C167.314 187.283 161.406 186.345 155.031 181.742C155.031 181.742 149.233 181.024 149.732 176.663C149.935 174.891 151.054 174.595 152.365 174.814L160.056 157.079C160.056 157.079 158.899 150.375 162.376 148.883C165.854 147.397 171.208 147.561 169.058 160.864C171.049 155.784 173.973 157.441 173.2 160.2C172.426 162.959 172.426 162.959 172.426 162.959C172.426 162.959 172.421 163.042 172.404 163.19C175.559 156.876 179.733 150.611 184.407 148.878C194.676 145.071 196.777 155.45 192.471 161.522C199.427 160.321 198.878 168.05 191.917 169.926Z" fill="#F3F3F3"/>
<path d="M164.296 185.719C161.488 185.719 158.383 184.48 154.932 182C154.252 181.896 148.975 180.936 149.468 176.635C149.562 175.829 149.847 175.242 150.313 174.885C150.774 174.54 151.394 174.419 152.206 174.523L159.782 157.051C159.655 156.239 158.811 150.123 162.272 148.642C163.517 148.11 165.871 147.424 167.648 148.812C169.59 150.326 170.232 153.815 169.568 159.191C170.572 157.523 171.663 157.134 172.453 157.397C173.397 157.715 173.83 158.955 173.457 160.288L173.271 160.952C176.952 154.127 180.666 149.991 184.313 148.642C189.706 146.645 192.301 148.68 193.365 150.068C195.471 152.811 195.296 157.589 193.025 161.187C195.921 160.869 197.293 162.191 197.605 163.607C198.116 165.905 196.108 169.076 191.983 170.189C189.465 170.87 187.27 171.095 185.509 171.276C182.344 171.599 180.435 171.791 179.574 174.112C178.175 177.88 173.051 180.914 172.475 181.249C170.089 184.227 167.374 185.719 164.296 185.719ZM151.674 175.022C151.24 175.022 150.9 175.121 150.637 175.313C150.291 175.576 150.077 176.037 150.001 176.696C149.54 180.738 154.839 181.452 155.064 181.479L155.13 181.49L155.184 181.528C158.564 183.97 161.504 185.165 164.181 185.193C167.143 185.226 169.738 183.81 172.08 180.87L172.113 180.832L172.157 180.804C172.212 180.771 177.681 177.65 179.064 173.925C180.04 171.292 182.196 171.073 185.449 170.738C187.188 170.563 189.355 170.338 191.834 169.668C195.658 168.637 197.529 165.779 197.073 163.722C196.711 162.082 195 161.368 192.504 161.802L191.862 161.917L192.24 161.385C194.698 157.918 195 153.096 192.932 150.397C191.242 148.197 188.247 147.753 184.495 149.146C180.611 150.584 176.623 155.356 172.64 163.321L172.015 164.567L172.13 163.179C172.141 163.031 172.152 162.948 172.152 162.948L172.163 162.899L172.936 160.14C173.271 158.944 172.848 158.099 172.278 157.907C171.499 157.644 170.276 158.494 169.305 160.974L168.383 163.321L168.789 160.831C169.771 154.769 169.261 150.759 167.313 149.24C165.75 148.022 163.616 148.653 162.48 149.141C159.233 150.529 160.308 156.974 160.319 157.04L160.33 157.117L152.524 175.116L152.315 175.083C152.091 175.044 151.871 175.022 151.674 175.022Z" fill="#262626"/>
<path d="M154.142 180.311C154.142 180.311 161.427 183.959 166.304 182.028C171.181 180.097 171.905 180.135 171.905 180.135C172.942 179.943 173.172 180.113 173.326 180.311C173.326 180.311 170.314 183.421 164.592 183.701C158.876 183.981 153.824 183.257 154.142 180.311Z" fill="#1A1A1A"/>
<path d="M154.043 180.311C154.043 180.311 155.59 183.843 163.1 183.404C170.61 182.96 173.331 180.311 173.331 180.311L169.502 198.753C169.502 198.753 165.816 201.293 159.875 199.307C156.364 187.376 154.043 180.311 154.043 180.311Z" fill="#F3F3F3"/>
<path d="M164.346 200.339C163.035 200.339 161.504 200.13 159.793 199.56L159.661 199.516L159.623 199.379C156.15 187.596 153.813 180.464 153.791 180.393L154.296 180.201C154.312 180.234 155.887 183.558 163.089 183.136C170.385 182.708 173.123 180.146 173.15 180.119L173.776 179.515L169.749 198.918L169.661 198.978C169.546 199.05 167.621 200.339 164.346 200.339ZM160.094 199.094C165.262 200.772 168.679 198.934 169.261 198.583L172.914 180.969C171.746 181.77 168.778 183.333 163.111 183.668C158.328 183.948 155.903 182.653 154.746 181.611C155.58 184.216 157.522 190.371 160.094 199.094Z" fill="#262626"/>
<path d="M154.872 178.374C154.872 178.539 140.571 164.846 143.61 159.547C146.649 154.248 152.771 152.537 157.412 163.634C155.865 157.671 157.412 155.685 159.897 156.014C162.382 156.344 161.499 161.703 161.499 161.703C161.499 161.703 164.812 159.432 166.079 162.361C167.352 165.291 162.875 172.247 162.875 172.247" fill="#F3F3F3"/>
<path d="M154.877 178.648C154.724 178.648 154.433 178.413 152.968 176.926C152.069 176.01 150.692 174.556 149.216 172.806C145.546 168.45 141.553 162.592 143.374 159.416C145.009 156.558 147.302 155.005 149.66 155.148C151.52 155.263 154.153 156.492 156.666 161.39C156.326 159.097 156.567 157.474 157.395 156.541C157.982 155.877 158.86 155.603 159.93 155.746C160.44 155.811 160.862 156.069 161.18 156.503C162.086 157.726 161.948 160.107 161.833 161.193C162.475 160.858 163.638 160.392 164.697 160.694C165.421 160.902 165.964 161.429 166.326 162.257C167.637 165.285 163.287 172.109 163.1 172.395L162.645 172.104C162.689 172.038 167.023 165.236 165.827 162.471C165.536 161.796 165.103 161.374 164.543 161.215C163.254 160.842 161.658 161.917 161.641 161.928L161.12 162.285L161.224 161.665C161.23 161.632 161.778 158.225 160.742 156.832C160.506 156.514 160.215 156.338 159.853 156.289C158.953 156.168 158.262 156.377 157.79 156.909C157.137 157.649 156.583 159.405 157.664 163.574L157.154 163.744C154.46 157.309 151.569 155.811 149.617 155.691C147.466 155.559 145.36 157.013 143.829 159.684C141.01 164.611 154.197 177.59 154.993 178.149C154.943 178.116 154.839 178.089 154.735 178.138L154.855 178.374H155.124L154.949 178.626C154.932 178.643 154.905 178.648 154.877 178.648Z" fill="#262626"/>
<path d="M148.931 158.927C148.931 158.927 159.414 180.563 161.718 182.527L148.931 158.927Z" fill="#F3F3F3"/>
<path d="M161.543 182.73C159.222 180.749 149.117 159.926 148.69 159.043L149.172 158.807C149.277 159.021 159.655 180.415 161.894 182.318L161.543 182.73Z" fill="#262626"/>
<path d="M168.389 173.557C168.389 173.557 171.954 164.676 172.431 162.97L168.389 173.557Z" fill="#F3F3F3"/>
<path d="M168.636 173.662L168.136 173.459C168.169 173.371 171.702 164.572 172.168 162.899L172.689 163.042C172.212 164.748 168.784 173.3 168.636 173.662Z" fill="#262626"/>
<path d="M170.408 174.753C170.408 174.753 184.424 156.996 186.179 154.259L170.408 174.753Z" fill="#F3F3F3"/>
<path d="M170.621 174.918L170.199 174.583C170.342 174.408 184.226 156.81 185.954 154.111L186.409 154.402C184.665 157.122 171.192 174.194 170.621 174.918Z" fill="#262626"/>
<path d="M178.784 168.939H174.763V169.476H178.784V168.939Z" fill="#262626"/>
<path d="M179.317 158.457L178.784 158.528L179.39 163.052L179.923 162.981L179.317 158.457Z" fill="#262626"/>
<path d="M189.997 157.232L182.918 158.328L183 158.859L190.08 157.763L189.997 157.232Z" fill="#262626"/>
<path d="M185.663 166.893C185.663 166.893 191.467 164.249 192.471 161.533L185.663 166.893Z" fill="#F3F3F3"/>
<path d="M185.773 167.139L185.548 166.651C185.603 166.624 191.264 164.024 192.218 161.445L192.723 161.632C191.697 164.419 186.014 167.03 185.773 167.139Z" fill="#262626"/>
<path d="M157.412 163.634C157.412 163.634 160.028 169.91 160.308 172.11C160.588 174.309 163.067 178.237 163.441 179.219C163.814 180.201 163.687 180.859 163.687 180.859" fill="#F3F3F3"/>
<path d="M163.951 180.909L163.424 180.804C163.424 180.799 163.528 180.201 163.194 179.312C163.089 179.044 162.793 178.489 162.448 177.848C161.57 176.213 160.248 173.75 160.045 172.143C159.771 170.003 157.192 163.799 157.17 163.738L157.67 163.53C157.779 163.788 160.303 169.866 160.583 172.077C160.775 173.585 162.069 175.999 162.93 177.595C163.298 178.281 163.589 178.824 163.704 179.126C164.088 180.168 163.956 180.881 163.951 180.909Z" fill="#262626"/>
<path d="M165.29 152.768L164.753 152.786L165.049 161.366L165.586 161.348L165.29 152.768Z" fill="#262626"/>
<path d="M37.4786 173.234C48.6792 173.234 57.7591 165.979 57.7591 157.029C57.7591 148.08 48.6792 140.824 37.4786 140.824C26.2779 140.824 17.198 148.08 17.198 157.029C17.198 165.979 26.2779 173.234 37.4786 173.234Z" fill="#F3F3F3"/>
<path d="M37.4784 173.503C26.145 173.503 16.9291 166.113 16.9291 157.029C16.9291 147.945 26.1505 140.556 37.4784 140.556C48.8064 140.556 58.0278 147.945 58.0278 157.029C58.0278 166.113 48.8064 173.503 37.4784 173.503ZM37.4784 141.093C26.4412 141.093 17.4667 148.241 17.4667 157.029C17.4667 165.817 26.4467 172.965 37.4784 172.965C48.5102 172.965 57.4902 165.817 57.4902 157.029C57.4902 148.241 48.5102 141.093 37.4784 141.093Z" fill="#262626"/>
<path d="M42.7389 150.095H46.738C46.738 150.095 45.5805 158.165 44.0007 158.691C42.4208 159.218 39.475 158.691 39.475 158.691L39.7931 157.462C39.7931 157.462 43.5124 158.093 43.9677 156.936C44.423 155.778 45.4434 151.286 45.4434 151.286L42.7061 151.181L42.7389 150.095Z" fill="#F3F3F3"/>
<path d="M42.1192 159.196C40.7917 159.196 39.508 158.971 39.4312 158.954L39.146 158.905L39.5958 157.155L39.8426 157.199C41.2963 157.446 43.4632 157.495 43.721 156.837C44.0941 155.888 44.8676 152.586 45.1089 151.543L42.4319 151.439L42.4868 149.821H47.0563L47.0125 150.128C46.815 151.505 45.7452 158.389 44.094 158.944C43.529 159.136 42.8159 159.196 42.1192 159.196ZM39.8097 158.472C40.5777 158.587 42.7007 158.839 43.9185 158.433C44.9169 158.099 45.9647 153.43 46.4309 150.364H43.0024L42.986 150.923L45.7782 151.033L45.7069 151.351C45.663 151.538 44.6811 155.877 44.2203 157.04C43.7595 158.214 40.9891 157.918 39.9962 157.77L39.8097 158.472Z" fill="#262626"/>
<path d="M40.6216 157.029C43.9789 155.68 43.3919 148.482 43.3919 148.482H37.429H31.466C31.466 148.482 30.879 155.685 34.2363 157.029C35.7284 158.658 35.4596 162.164 35.4596 162.164L32.8484 165.389H37.429H42.0095L39.3983 162.164C39.3983 162.169 39.135 158.658 40.6216 157.029Z" fill="#F3F3F3"/>
<path d="M42.5747 165.664H32.289L35.1964 162.065C35.2238 161.544 35.3061 158.664 34.0773 157.254C30.6433 155.795 31.1754 148.762 31.1973 148.46L31.2193 148.214H43.6444L43.6664 148.46C43.6883 148.762 44.2204 155.795 40.7864 157.254C39.5521 158.658 39.6398 161.544 39.6673 162.065L42.5747 165.664ZM33.4136 165.126H41.4446L39.1352 162.273L39.1297 162.191C39.1187 162.043 38.8718 158.549 40.4243 156.854L40.4682 156.81L40.523 156.788C43.3152 155.663 43.2 150.018 43.1397 148.757H31.7185C31.6582 150.013 31.543 155.663 34.3352 156.788L34.39 156.81L34.4339 156.854C35.9864 158.549 35.7395 162.043 35.7285 162.191L35.723 162.273L33.4136 165.126Z" fill="#262626"/>
<path d="M32.1188 150.095H28.1198C28.1198 150.095 29.2772 158.165 30.8571 158.691C32.437 159.218 35.3828 158.691 35.3828 158.691L35.0646 157.462C35.0646 157.462 31.3454 158.093 30.89 156.936C30.4347 155.778 29.4144 151.286 29.4144 151.286L32.1518 151.181L32.1188 150.095Z" fill="#F3F3F3"/>
<path d="M32.7389 159.196C32.0422 159.196 31.3291 159.136 30.7695 158.949C29.1183 158.401 28.0486 151.511 27.8511 150.134L27.8073 149.826H32.3768L32.4262 151.445L29.7492 151.549C29.9906 152.591 30.764 155.894 31.137 156.843C31.3949 157.501 33.5617 157.452 35.0155 157.205L35.2623 157.161L35.7121 158.911L35.4269 158.96C35.3501 158.971 34.0664 159.196 32.7389 159.196ZM28.4271 150.364C28.8934 153.436 29.9357 158.104 30.9396 158.433C32.1574 158.839 34.2803 158.582 35.0483 158.472L34.8673 157.77C33.8689 157.918 31.1042 158.214 30.6434 157.04C30.1826 155.877 29.2006 151.538 29.1567 151.351L29.0854 151.033L31.8777 150.924L31.8612 150.364H28.4271Z" fill="#262626"/>
<path d="M140.379 63.4763L157.132 83.126L165.92 67.5905L157.132 81.1841L140.779 63.0813L140.379 63.4763Z" fill="#1A1A1A"/>
<path d="M217.48 120.791H206.251V133.841H217.48V120.791Z" fill="#1A1A1A"/>
<path d="M222.949 113.083H213.475V125.777H222.949V113.083Z" fill="#F3F3F3"/>
<path d="M223.218 126.046H213.207V112.815H223.218V126.046ZM213.744 125.509H222.681V113.352H213.744V125.509Z" fill="#262626"/>
<path d="M28.1198 77.558C31.7494 77.558 34.6917 74.6157 34.6917 70.9862C34.6917 67.3566 31.7494 64.4143 28.1198 64.4143C24.4903 64.4143 21.548 67.3566 21.548 70.9862C21.548 74.6157 24.4903 77.558 28.1198 77.558Z" fill="#F3F3F3"/>
<path d="M28.1197 77.8268C24.3455 77.8268 21.2791 74.7603 21.2791 70.9862C21.2791 67.212 24.3455 64.1455 28.1197 64.1455C31.8938 64.1455 34.9604 67.212 34.9604 70.9862C34.9549 74.7603 31.8884 77.8268 28.1197 77.8268ZM28.1197 64.6886C24.6472 64.6886 21.8166 67.5137 21.8166 70.9916C21.8166 74.4696 24.6418 77.2947 28.1197 77.2947C31.5921 77.2947 34.4227 74.4696 34.4227 70.9916C34.4227 67.5137 31.5921 64.6886 28.1197 64.6886Z" fill="#262626"/>
</svg>
