<svg width="705" height="216" viewBox="0 0 705 216" fill="none" xmlns="http://www.w3.org/2000/svg">
<path d="M317.96 92H321.12V66.92H337.24V92H340.4V64H317.96V92ZM357.232 92.48C363.472 92.48 368.072 87.56 368.072 81.68V81.6C368.072 75.76 363.552 70.88 357.312 70.88C351.032 70.88 346.512 75.8 346.512 81.68V81.76C346.512 87.6 351.032 92.48 357.232 92.48ZM357.312 89.72C352.952 89.72 349.672 86.12 349.672 81.68V81.6C349.672 77.24 352.752 73.6 357.232 73.6C361.592 73.6 364.912 77.24 364.912 81.68V81.76C364.912 86.08 361.792 89.72 357.312 89.72ZM373.651 92H376.691V76.16L384.611 87.6H384.731L392.651 76.12V92H395.731V71.32H392.531L384.731 82.92L376.891 71.32H373.651V92ZM412.075 92.48C418.315 92.48 422.915 87.56 422.915 81.68V81.6C422.915 75.76 418.395 70.88 412.155 70.88C405.875 70.88 401.355 75.8 401.355 81.68V81.76C401.355 87.6 405.875 92.48 412.075 92.48ZM412.155 89.72C407.795 89.72 404.515 86.12 404.515 81.68V81.6C404.515 77.24 407.595 73.6 412.075 73.6C416.435 73.6 419.755 77.24 419.755 81.68V81.76C419.755 86.08 416.635 89.72 412.155 89.72ZM428.495 92H457.735V97.48H460.535V89.2H458.575V71.32H455.495V89.2H445.055V71.32H442.015V89.2H431.575V71.32H428.495V92ZM465.565 92H474.845C480.125 92 483.085 89.28 483.085 85.24V85.16C483.085 81 480.045 78.44 474.965 78.44H468.645V71.32H465.565V92ZM468.645 89.36V81.04H474.845C478.325 81 479.965 82.72 479.965 85.16V85.2C479.965 87.8 478.325 89.36 474.805 89.36H468.645ZM317.44 152H327.88C332.68 152.04 335.68 150 335.68 146.44V146.4C335.68 143.56 333.88 142.16 331.16 141.4C333.4 140.64 334.88 139.2 334.88 136.68V136.64C334.88 133.28 332.2 131.32 327.88 131.32H317.44V152ZM320.48 140.36V133.8H327.52C330.28 133.76 331.76 135 331.76 136.88V136.92C331.76 139 330.24 140.36 327.24 140.36H320.48ZM320.48 142.76H327.48C330.84 142.72 332.6 144.12 332.6 146.24V146.28C332.6 148.24 330.88 149.52 327.8 149.52H320.48V142.76ZM359.299 152H362.379V134.08H370.699V131.32H351.019V134.08H359.299V152ZM375.253 158.4H378.333V148.04C379.933 150.4 382.413 152.44 386.253 152.44C391.253 152.44 396.133 148.4 396.133 141.68V141.6C396.133 134.8 391.213 130.88 386.253 130.88C382.413 130.88 380.053 133.04 378.333 135.48V131.32H375.253V158.4ZM385.693 149.68C381.853 149.68 378.213 146.48 378.213 141.68V141.6C378.213 136.92 381.853 133.64 385.693 133.64C389.653 133.64 392.973 136.72 392.973 141.64V141.72C392.973 146.72 389.693 149.68 385.693 149.68ZM409.639 148.56L402.119 131.32H398.719L408.119 151.92C406.879 154.84 405.759 155.8 403.879 155.8C402.559 155.8 401.639 155.56 400.639 155.04L399.599 157.48C400.999 158.16 402.279 158.52 403.999 158.52C407.079 158.52 409.119 156.96 410.879 152.68L419.559 131.32H416.279L409.639 148.56ZM433.485 131.16H430.285L422.205 149.2H419.845V157.48H422.645V152H441.125V157.48H443.925V149.2H441.565L433.485 131.16ZM431.885 134.24L438.285 149.28H425.365L431.885 134.24ZM456.646 152.48C462.886 152.48 467.486 147.56 467.486 141.68V141.6C467.486 135.76 462.966 130.88 456.726 130.88C450.446 130.88 445.926 135.8 445.926 141.68V141.76C445.926 147.6 450.446 152.48 456.646 152.48ZM456.726 149.72C452.366 149.72 449.086 146.12 449.086 141.68V141.6C449.086 137.24 452.166 133.6 456.646 133.6C461.006 133.6 464.326 137.24 464.326 141.68V141.76C464.326 146.08 461.206 149.72 456.726 149.72ZM480.694 148.56L473.174 131.32H469.774L479.174 151.92C477.934 154.84 476.814 155.8 474.934 155.8C473.614 155.8 472.694 155.56 471.694 155.04L470.654 157.48C472.054 158.16 473.334 158.52 475.054 158.52C478.134 158.52 480.174 156.96 481.934 152.68L490.614 131.32H487.334L480.694 148.56ZM503.596 152.48C507.476 152.48 509.956 150.84 512.036 148.48L510.076 146.64C508.436 148.4 506.436 149.72 503.756 149.72C499.436 149.72 496.156 146.16 496.156 141.68V141.6C496.156 137.12 499.356 133.6 503.556 133.6C506.396 133.6 508.196 135 509.836 136.72L511.876 134.56C509.916 132.48 507.516 130.88 503.596 130.88C497.516 130.88 492.996 135.8 492.996 141.68V141.76C492.996 147.56 497.516 152.48 503.596 152.48ZM522.542 152H525.622V134.08H533.942V131.32H514.262V134.08H522.542V152ZM538.495 158.4H541.575V148.04C543.175 150.4 545.655 152.44 549.495 152.44C554.495 152.44 559.375 148.4 559.375 141.68V141.6C559.375 134.8 554.455 130.88 549.495 130.88C545.655 130.88 543.295 133.04 541.575 135.48V131.32H538.495V158.4ZM548.935 149.68C545.095 149.68 541.455 146.48 541.455 141.68V141.6C541.455 136.92 545.095 133.64 548.935 133.64C552.895 133.64 556.215 136.72 556.215 141.64V141.72C556.215 146.72 552.935 149.68 548.935 149.68ZM574.497 152.48C580.737 152.48 585.337 147.56 585.337 141.68V141.6C585.337 135.76 580.817 130.88 574.577 130.88C568.297 130.88 563.777 135.8 563.777 141.68V141.76C563.777 147.6 568.297 152.48 574.497 152.48ZM574.577 149.72C570.217 149.72 566.937 146.12 566.937 141.68V141.6C566.937 137.24 570.017 133.6 574.497 133.6C578.857 133.6 582.177 137.24 582.177 141.68V141.76C582.177 146.08 579.057 149.72 574.577 149.72ZM590.917 152H593.797L606.477 135.92V152H609.517V131.32H606.557L593.997 147.36V131.32H590.917V152ZM600.197 128.28C603.557 128.28 605.837 126.48 606.117 123.28H603.877C603.397 124.76 602.237 125.8 600.197 125.8C598.157 125.8 596.997 124.76 596.517 123.28H594.277C594.557 126.48 596.837 128.28 600.197 128.28ZM625.744 152.48C629.624 152.48 632.104 150.84 634.184 148.48L632.224 146.64C630.584 148.4 628.584 149.72 625.904 149.72C621.584 149.72 618.304 146.16 618.304 141.68V141.6C618.304 137.12 621.504 133.6 625.704 133.6C628.544 133.6 630.344 135 631.984 136.72L634.024 134.56C632.064 132.48 629.664 130.88 625.744 130.88C619.664 130.88 615.144 135.8 615.144 141.68V141.76C615.144 147.56 619.664 152.48 625.744 152.48ZM644.69 152H647.77V134.08H656.09V131.32H636.41V134.08H644.69V152ZM660.643 152H671.083C675.883 152.04 678.883 150 678.883 146.44V146.4C678.883 143.56 677.083 142.16 674.363 141.4C676.603 140.64 678.083 139.2 678.083 136.68V136.64C678.083 133.28 675.403 131.32 671.083 131.32H660.643V152ZM663.683 140.36V133.8H670.723C673.483 133.76 674.963 135 674.963 136.88V136.92C674.963 139 673.443 140.36 670.443 140.36H663.683ZM663.683 142.76H670.683C674.043 142.72 675.803 144.12 675.803 146.24V146.28C675.803 148.24 674.083 149.52 671.003 149.52H663.683V142.76ZM693.55 152.48C697.51 152.48 699.99 150.96 702.07 148.6L700.15 146.88C698.43 148.64 696.51 149.8 693.63 149.8C689.95 149.8 686.79 147.28 686.35 142.8H702.75C702.79 142.44 702.79 142.24 702.79 141.8C702.79 135.76 699.27 130.88 693.15 130.88C687.39 130.88 683.23 135.68 683.23 141.64V141.72C683.23 148.12 687.91 152.48 693.55 152.48ZM686.35 140.52C686.79 136.52 689.43 133.48 693.07 133.48C697.23 133.48 699.35 136.8 699.67 140.52H686.35Z" fill="#262626"/>
<path d="M164.509 166.748C161.24 171.477 158.557 176.919 156.698 182.97C142.748 165.042 121.94 156.112 103.152 159.683C109.219 150.077 119.927 143.698 132.127 143.698C147.125 143.698 159.868 153.336 164.509 166.748Z" fill="#FFC700"/>
<path d="M156.802 183.546L156.484 183.134C142.764 165.503 121.853 156.402 103.201 159.946L102.592 160.061L102.921 159.535C109.296 149.447 120.212 143.429 132.127 143.429C146.84 143.429 159.951 152.765 164.756 166.661L164.8 166.792L164.723 166.902C161.361 171.762 158.749 177.193 156.95 183.052L156.802 183.546ZM111.474 158.641C118.227 158.641 125.138 160.116 131.842 163.018C141.239 167.088 149.786 173.787 156.588 182.399C158.382 176.721 160.944 171.444 164.202 166.704C159.435 153.1 146.56 143.966 132.122 143.966C120.596 143.966 110.025 149.688 103.706 159.304C106.262 158.86 108.857 158.641 111.474 158.641Z" fill="#262626"/>
<path d="M222.257 215.664H18.9027C17.2625 215.664 15.7264 214.671 14.5854 212.867C13.4663 211.1 12.852 208.758 12.852 206.273C12.852 201.094 15.5674 196.881 18.9027 196.881H222.257C223.804 196.881 225.274 197.781 226.399 199.41C226.459 199.498 226.52 199.586 226.574 199.679C227.693 201.445 228.308 203.788 228.308 206.273C228.308 211.451 225.592 215.664 222.257 215.664ZM18.8972 197.419C15.8582 197.419 13.3841 201.391 13.3841 206.273C13.3841 208.659 13.9711 210.897 15.0353 212.581C16.0776 214.222 17.449 215.127 18.8972 215.127H222.252C225.291 215.127 227.765 211.155 227.765 206.273C227.765 203.887 227.178 201.648 226.114 199.964C226.059 199.877 226.004 199.794 225.949 199.712C224.929 198.231 223.618 197.419 222.252 197.419H18.8972Z" fill="#1A1A1A"/>
<path d="M226.174 199.833C226.163 199.833 226.157 199.833 226.147 199.833C226.07 199.822 225.998 199.783 225.954 199.717C224.934 198.236 223.623 197.419 222.257 197.419H40.0281C39.9678 197.419 39.9074 197.397 39.858 197.358C39.7922 197.304 33.182 191.928 33.1765 184.248C33.171 179.009 36.1717 173.946 42.0907 169.195C45.5138 166.447 50.2589 165.289 55.4593 165.92C62.7498 166.814 69.7716 170.994 74.7745 177.413C79.558 171.307 87.7316 163.473 99.7892 160.182C109.466 157.543 119.976 158.284 130.191 162.332C140.246 166.315 149.369 173.249 156.593 182.399C160.258 170.813 167.236 160.791 176.293 154.137C185.196 147.592 195.322 144.784 204.807 146.221C212.399 147.373 220.54 151.443 226.585 157.11C233.41 163.512 237.008 171.334 236.717 179.135C236.355 188.9 230.074 196.239 226.36 199.75C226.311 199.805 226.245 199.833 226.174 199.833ZM40.1213 196.876H222.252C223.716 196.876 225.115 197.682 226.212 199.152C229.888 195.62 235.829 188.499 236.174 179.124C236.772 162.952 220.079 149.09 204.719 146.759C184.768 143.73 164.229 159.332 156.95 183.052C156.923 183.151 156.84 183.222 156.742 183.238C156.643 183.255 156.544 183.216 156.478 183.14C141.716 164.165 119.516 155.36 99.9263 160.709C87.8304 164.006 79.6841 171.943 74.9774 178.021C74.928 178.087 74.8458 178.126 74.7635 178.126C74.6812 178.126 74.5989 178.087 74.5495 178.021C69.6234 171.559 62.6401 167.346 55.388 166.463C50.3357 165.843 45.7277 166.968 42.4198 169.623C36.6379 174.264 33.7031 179.184 33.7086 184.248C33.7196 191.236 39.4192 196.278 40.1213 196.876Z" fill="#1A1A1A"/>
<path d="M71.3622 195.34C71.3622 195.34 38.289 196.218 51.1585 199.679C64.0279 203.14 106.536 200.639 106.536 200.639C106.536 200.639 101.314 197.128 102.598 195.34C81.0061 195.433 71.3622 195.34 71.3622 195.34Z" fill="#F3F3F3"/>
<path d="M76.9193 201.764C66.6227 201.764 56.3479 201.347 51.0871 199.931C48.7886 199.311 47.8396 198.768 47.9219 198.11C47.9768 197.638 48.4925 197.079 51.8772 196.508C53.8191 196.185 56.5015 195.894 59.8588 195.642C65.5584 195.219 71.3019 195.066 71.3622 195.06H71.3677H71.3732C71.472 195.06 81.2585 195.153 102.598 195.06H103.124L102.817 195.488C102.68 195.68 102.636 195.905 102.686 196.174C102.998 197.896 106.652 200.376 106.69 200.403L107.354 200.847L106.558 200.897C106.301 200.919 91.5935 201.764 76.9193 201.764ZM71.3677 195.609C71.1702 195.614 65.5145 195.773 59.8917 196.185C49.1343 196.98 48.4759 197.984 48.454 198.176C48.454 198.198 48.4321 198.664 51.2243 199.416C62.9527 202.57 99.9537 200.721 105.752 200.409C104.639 199.58 102.417 197.759 102.148 196.278C102.104 196.037 102.11 195.817 102.17 195.609C81.3134 195.696 71.631 195.609 71.3677 195.609Z" fill="#262626"/>
<path d="M72.4266 195.559C72.4266 195.559 71.0168 198.922 81.0885 199.372C91.1602 199.827 96.0753 196.673 96.0753 196.673L94.6546 195.433L72.4266 195.559Z" fill="#1A1A1A"/>
<path d="M82.7396 187.682V148.168H86.8321V192.191H82.7396" fill="#F3F3F3"/>
<path d="M87.1008 192.465H82.7396V191.922H86.5632V148.437H83.0085V187.682H82.4708V147.894H87.1008V192.465Z" fill="#262626"/>
<path d="M80.5672 191.138C80.5672 191.138 74.9389 192.026 74.8347 196.569C79.4756 197.754 86.0968 197.062 86.0968 197.062V191.132" fill="#F3F3F3"/>
<path d="M81.6919 197.534C79.525 197.534 76.9304 197.386 74.769 196.837L74.5605 196.783L74.566 196.569C74.6702 191.856 80.4631 190.885 80.5235 190.875L80.6057 191.407C80.5509 191.418 75.3779 192.284 75.1145 196.366C79.1465 197.331 84.6213 196.931 85.8281 196.821V191.138H86.3657V197.309L86.1244 197.337C86.0914 197.337 84.1769 197.534 81.6919 197.534Z" fill="#262626"/>
<path d="M86.8321 190.348C86.8321 190.348 96.1741 191.236 96.0754 196.673C91.9282 198.845 84.1221 199.339 77.0071 198.351" fill="#F3F3F3"/>
<path d="M83.9739 199.103C81.7028 199.103 79.3276 198.944 76.9743 198.62L77.0455 198.088C84.4018 199.108 91.9007 198.478 95.8065 196.514C95.7133 191.533 86.8978 190.633 86.8046 190.622L86.8539 190.084C87.2433 190.123 96.4429 191.061 96.3441 196.678L96.3386 196.837L96.196 196.914C93.4861 198.335 88.9768 199.103 83.9739 199.103Z" fill="#262626"/>
<path d="M81.2586 138.091C81.2586 138.091 71.8725 137.202 71.3788 142.534C70.8851 147.866 81.3573 149.452 85.1095 149.353C88.8617 149.254 102.499 150.242 102.302 144.91C102.104 139.572 81.2586 138.091 81.2586 138.091Z" fill="#F3F3F3"/>
<path d="M89.1963 149.633C88.4722 149.633 87.7865 149.628 87.1611 149.622C86.3383 149.617 85.6306 149.606 85.1205 149.622C82.3063 149.693 75.1695 148.827 72.295 145.755C71.4008 144.795 71.0003 143.708 71.11 142.513C71.2197 141.35 71.7354 140.379 72.6405 139.627C75.4327 137.312 81.0007 137.8 81.2805 137.822C81.4396 137.833 86.6181 138.217 91.7582 139.232C98.8457 140.637 102.483 142.54 102.57 144.893C102.603 145.744 102.307 146.495 101.698 147.121C99.5094 149.375 93.6452 149.633 89.1963 149.633ZM85.8336 149.073C86.2286 149.073 86.6784 149.079 87.1666 149.084C91.2754 149.123 98.928 149.2 101.314 146.748C101.824 146.221 102.06 145.623 102.033 144.915C101.879 140.735 86.9691 138.766 81.242 138.36H81.2366C81.1817 138.354 75.6248 137.861 72.9917 140.039C72.1963 140.697 71.7463 141.547 71.6531 142.562C71.5598 143.599 71.9055 144.548 72.6954 145.387C75.2902 148.163 82.0594 149.161 85.1095 149.084C85.3179 149.079 85.5648 149.073 85.8336 149.073Z" fill="#262626"/>
<path d="M77.402 138.173C77.402 138.173 83.1401 146.857 98.2696 147.334C88.6861 140.472 80.2163 138.031 80.2163 138.031L77.402 138.173Z" fill="#1A1A1A"/>
<path d="M133.729 139.786C133.729 139.786 114.304 148.284 115.517 185.318C121.49 190.458 122.357 191.763 122.357 191.763L141.832 136.846L136.894 136.632L133.729 139.786Z" fill="#F3F3F3"/>
<path d="M122.434 192.361L122.138 191.911C122.132 191.9 121.167 190.534 115.341 185.52L115.253 185.444L115.248 185.323C114.968 176.848 115.758 169.173 117.59 162.503C119.06 157.159 121.194 152.453 123.948 148.503C128.452 142.041 133.032 139.803 133.576 139.55L136.796 136.341L142.21 136.577L122.434 192.361ZM115.786 185.197C120.015 188.839 121.666 190.545 122.27 191.226L141.464 137.098L137.01 136.906L133.888 140.017L133.844 140.039C133.795 140.061 128.979 142.227 124.371 148.86C120.114 154.971 115.182 166.233 115.786 185.197Z" fill="#262626"/>
<path d="M115.012 199.673L107.069 195.334C106.756 195.959 106.564 196.524 106.542 196.991L114.332 201.099L115.012 199.673Z" fill="#F3F3F3"/>
<path d="M114.447 201.473L106.262 197.155L106.273 196.985C106.295 196.503 106.487 195.91 106.833 195.219L106.959 194.972L115.369 199.564L114.447 201.473ZM106.822 196.843L114.206 200.738L114.661 199.794L107.189 195.713C106.986 196.141 106.866 196.519 106.822 196.843Z" fill="#262626"/>
<path d="M106.537 196.997C106.52 197.315 106.58 197.584 106.734 197.803C108.533 200.326 114.008 201.753 114.008 201.753L114.321 201.105L106.537 196.997Z" fill="#1A1A1A"/>
<path d="M115.643 185.29C115.643 185.29 109.016 191.472 107.069 195.34L115.012 199.679L120.465 188.307L115.643 185.29Z" fill="#F3F3F3"/>
<path d="M115.127 200.047L106.707 195.45L106.822 195.219C108.769 191.357 115.182 185.35 115.456 185.093L115.61 184.95L120.81 188.197L115.127 200.047ZM107.425 195.23L114.886 199.306L120.114 188.406L115.676 185.63C114.705 186.552 109.296 191.763 107.425 195.23Z" fill="#262626"/>
<path d="M114.99 186.426L119.724 189.777L120.465 188.302L115.643 185.29L114.99 186.426Z" fill="#1A1A1A"/>
<path d="M141.65 200.096C134.667 193.968 127.36 194.204 127.36 194.204L129.154 190.611L120.574 188.241C120.574 188.241 114.419 192.767 113.366 199.218L144.124 213.026C145.309 209.69 146.242 204.122 141.65 200.096Z" fill="#F3F3F3"/>
<path d="M144.289 213.393L113.075 199.383L113.108 199.18C114.162 192.69 120.163 188.214 120.421 188.027L120.525 187.95L129.543 190.441L127.794 193.941C129.494 194.007 135.825 194.627 141.832 199.893C146.626 204.1 145.49 209.986 144.388 213.113L144.289 213.393ZM113.673 199.059L143.971 212.658C145.2 209.01 145.693 204.002 141.475 200.293C134.651 194.308 127.443 194.467 127.371 194.467L126.921 194.484L128.776 190.781L120.64 188.532C119.845 189.152 114.705 193.348 113.673 199.059Z" fill="#262626"/>
<path d="M113.372 199.218C113.278 199.805 113.224 200.409 113.218 201.023L143.603 214.359C143.773 213.975 143.954 213.525 144.13 213.026L113.372 199.218Z" fill="#F3F3F3"/>
<path d="M143.746 214.715L112.949 201.198V201.023C112.949 200.419 113.004 199.794 113.103 199.174L113.158 198.829L144.465 212.883L144.382 213.119C144.223 213.574 144.042 214.029 143.85 214.468L143.746 214.715ZM113.492 200.847L143.466 214.002C143.581 213.728 143.691 213.448 143.795 213.168L113.591 199.608C113.531 200.024 113.498 200.441 113.492 200.847Z" fill="#262626"/>
<path d="M113.218 201.023C113.218 201.561 113.251 202.109 113.333 202.663C128.677 210.568 142.841 215.9 142.841 215.9C142.841 215.9 143.186 215.319 143.609 214.353L113.218 201.023Z" fill="#1A1A1A"/>
<path d="M119 189.037C119 189.037 126.433 192.778 128.2 192.531C128.792 191.549 128.792 191.549 128.792 191.549L120.459 188.477L119 189.037Z" fill="#1A1A1A"/>
<path d="M83.3652 91.1665C83.3652 91.1665 66.9026 102.489 70.0624 122.578C73.2221 142.666 105.758 159.266 136.319 138.98C118.666 154.126 119.724 185.871 119.198 188.241C129.209 192.191 129.209 192.191 129.209 192.191C129.209 192.191 176.232 147.274 162.535 126.066C151.733 109.999 120.251 110.789 115.775 110.657C111.298 110.525 106.219 105.747 109.417 96.8716C106.548 93.7996 83.3652 91.1665 83.3652 91.1665Z" fill="#F3F3F3"/>
<path d="M129.264 192.509L118.879 188.411L118.929 188.186C118.995 187.89 119.038 187.007 119.099 185.789C119.494 177.818 120.657 154.34 134.047 140.735C126.779 145.096 119.137 147.647 111.293 148.316C103.591 148.975 95.9328 147.746 89.147 144.762C78.6255 140.137 71.2088 131.651 69.788 122.627C68.1423 112.16 71.8781 104.107 75.3012 99.1921C79.0095 93.8709 83.1676 90.98 83.206 90.9526L83.2882 90.8977L83.3871 90.9087C84.3361 91.0184 106.701 93.5912 109.598 96.7016L109.707 96.8222L109.652 96.9758C108.204 101.002 108.369 104.634 110.119 107.207C111.435 109.138 113.547 110.333 115.764 110.399C116.06 110.41 116.482 110.41 117.003 110.421C120.761 110.465 129.566 110.564 138.792 112.528C150.367 114.996 158.426 119.506 162.743 125.929C165.919 130.844 166.122 137.411 163.346 145.447C161.141 151.838 157.06 159.173 151.212 167.253C141.266 180.995 129.5 192.284 129.379 192.399L129.264 192.509ZM119.494 188.071L129.143 191.878C130.427 190.633 141.426 179.865 150.79 166.918C156.604 158.882 160.664 151.591 162.847 145.255C165.563 137.383 165.382 130.976 162.304 126.215C158.069 119.917 150.126 115.485 138.694 113.043C129.522 111.085 120.756 110.986 117.014 110.948C116.488 110.942 116.065 110.937 115.764 110.926C113.372 110.855 111.101 109.576 109.685 107.497C107.859 104.815 107.65 101.068 109.098 96.9429C105.988 94.1233 85.093 91.6328 83.4363 91.4408C82.8439 91.8687 79.1028 94.6664 75.7345 99.5048C72.3718 104.338 68.7073 112.253 70.3256 122.534C71.719 131.382 79.0149 139.709 89.3664 144.262C95.0496 146.764 101.084 147.998 107.211 147.998C116.954 147.998 126.943 144.877 136.165 138.755L136.489 139.183C121.304 152.217 120.048 177.5 119.636 185.811C119.587 186.908 119.549 187.654 119.494 188.071Z" fill="#262626"/>
<path d="M77.3802 96.8991C77.3802 96.8991 84.1824 103.542 94.9344 101.046C105.686 98.5503 109.23 97.3983 109.23 97.3983L109.411 96.8772L78.3565 95.418L77.3802 96.8991Z" fill="#1A1A1A"/>
<path d="M121.37 62.5151L127.251 59.6022L121.37 52.981C121.37 52.981 112.922 55.3508 112.922 55.647C112.922 55.9432 116.378 61.4783 116.477 61.6758C116.575 61.8733 121.37 62.5151 121.37 62.5151Z" fill="#F3F3F3"/>
<path d="M121.414 62.7948L121.331 62.7838C116.4 62.1201 116.312 61.95 116.235 61.7964C116.208 61.7416 115.928 61.2917 115.61 60.7651C112.851 56.2668 112.653 55.8335 112.653 55.647C112.653 55.3836 112.653 55.263 117.069 53.9464C119.159 53.321 121.277 52.7286 121.299 52.7231L121.463 52.6792L127.689 59.6899L121.414 62.7948ZM116.674 61.4782C117.113 61.6318 119.582 62.0049 121.32 62.2353L126.806 59.5144L121.277 53.2826C118.457 54.078 114.134 55.3507 113.251 55.7457C113.613 56.4808 115.308 59.2401 116.071 60.4798C116.427 61.0668 116.597 61.3521 116.674 61.4782Z" fill="#262626"/>
<path d="M124.228 57.1829C124.228 57.1829 123.773 59.4978 124.683 60.8692C127.256 59.7831 127.256 59.7831 127.256 59.7831L124.228 57.1829Z" fill="#1A1A1A"/>
<path d="M122.456 54.906C122.456 54.906 124.579 59.0038 126.307 60.0406C128.035 61.0774 132.928 64.6815 139.149 59.3988C145.375 54.1161 146.017 51.4445 146.017 51.4445L132.78 44.9714L122.456 54.906Z" fill="#F3F3F3"/>
<path d="M132.429 62.4928C129.741 62.4928 127.673 61.2091 126.499 60.4795C126.378 60.4027 126.269 60.3369 126.164 60.2766C124.393 59.2123 122.297 55.2023 122.209 55.0322L122.116 54.8512L132.72 44.6533L146.319 51.302L146.269 51.5104C146.242 51.6201 145.534 54.3246 139.314 59.6073C136.763 61.7851 134.426 62.4928 132.429 62.4928ZM122.785 54.9609C123.213 55.7509 125.001 58.949 126.444 59.8158C126.548 59.8761 126.658 59.9474 126.784 60.0242C128.726 61.2256 133.263 64.0452 138.973 59.1959C144.081 54.8622 145.392 52.2949 145.683 51.5872L132.829 45.3061L122.785 54.9609Z" fill="#262626"/>
<path d="M162.063 69.1195C162.919 67.3696 163.785 65.6251 164.734 63.9246C165.947 61.7577 167.444 59.174 170.198 58.96C171.405 58.8668 173.369 59.3221 173.961 60.5234C174.29 61.1872 174.362 61.9497 174.345 62.6793C174.345 62.7232 174.34 62.7616 174.334 62.8055C174.148 64.517 171.531 64.6322 170.944 63.8642C169.501 64.336 169.03 64.4676 169.03 64.4676C169.03 64.4676 168.799 65.8665 168.892 66.7991C168.986 67.7316 164.915 69.69 163.868 70.2221C162.831 70.7542 162.063 69.1195 162.063 69.1195Z" fill="#F3F3F3"/>
<path d="M163.456 70.6007C163.33 70.6007 163.204 70.5787 163.078 70.5348C162.315 70.2715 161.843 69.2786 161.821 69.2402L161.766 69.125L161.821 69.0098C162.644 67.3257 163.533 65.5374 164.504 63.8039C165.65 61.7468 167.225 58.9326 170.182 58.7022C171.454 58.6035 173.544 59.0697 174.208 60.4137C174.504 61.0172 174.641 61.7632 174.62 62.6958C174.62 62.7506 174.614 62.8 174.609 62.8439C174.521 63.6393 173.961 64.2373 173.073 64.4841C172.244 64.7145 171.334 64.5774 170.878 64.1769C170.001 64.4622 169.512 64.6158 169.282 64.6816C169.227 65.0711 169.101 66.075 169.172 66.7771C169.243 67.5287 167.878 68.5216 164.295 70.3209L164.005 70.469C163.818 70.5513 163.637 70.6007 163.456 70.6007ZM162.364 69.1195C162.518 69.3993 162.858 69.8875 163.248 70.0247C163.418 70.085 163.582 70.0685 163.752 69.9808L164.049 69.8327C168.245 67.7262 168.651 67.0295 168.629 66.8265C168.536 65.872 168.761 64.4841 168.766 64.4293L168.794 64.2592L168.958 64.2153C168.964 64.2153 169.446 64.0782 170.862 63.6119L171.043 63.5515L171.158 63.7051C171.377 63.9959 172.156 64.1769 172.919 63.963C173.308 63.8533 173.978 63.557 174.065 62.7835C174.071 62.7506 174.071 62.7122 174.071 62.6793C174.087 61.84 173.972 61.1762 173.714 60.6551C173.193 59.5964 171.345 59.1575 170.214 59.2453C167.548 59.4537 166.056 62.1198 164.965 64.0727C164.032 65.7403 163.171 67.4793 162.364 69.1195Z" fill="#262626"/>
<path d="M111.155 71.4732C111.155 71.4732 117.316 63.7987 123.723 68.3628C130.131 72.9324 140.915 83.9641 162.392 66.8762C164.663 70.9576 165.617 70.4529 165.617 70.4529C165.617 70.4529 160.938 86.3614 143.625 89.6692C126.307 92.9826 102.417 83.8654 111.155 71.4732Z" fill="#FFC700"/>
<path d="M135.995 90.6347C125.122 90.6347 114.074 86.7508 110.36 80.9908C108.407 77.9627 108.605 74.6165 110.936 71.3141L110.947 71.3031C111.013 71.2208 112.549 69.3283 114.902 67.9733C118.062 66.152 121.167 66.2124 123.882 68.1488C124.403 68.5219 124.947 68.9333 125.528 69.3667C131.93 74.1831 142.643 82.2525 162.227 66.6677L162.474 66.4702L162.628 66.75C164.531 70.1731 165.42 70.2169 165.513 70.206L166.056 69.9152L165.875 70.5296C165.864 70.568 164.652 74.6055 161.328 78.9831C158.256 83.026 152.704 88.21 143.675 89.9325C141.195 90.4098 138.595 90.6347 135.995 90.6347ZM111.37 71.6322C109.153 74.781 108.961 77.8311 110.81 80.7001C112.949 84.0189 117.832 86.8879 124.206 88.5666C130.553 90.2397 137.608 90.5469 143.571 89.4059C152.43 87.7108 157.883 82.6256 160.9 78.6594C163.615 75.0827 164.888 71.7529 165.25 70.7106C164.712 70.5516 163.769 69.8275 162.315 67.2821C153.703 74.0734 146.774 76.3499 141.168 76.3499C133.916 76.3499 128.869 72.5484 125.204 69.7891C124.628 69.3557 124.085 68.9443 123.57 68.5767C121.008 66.75 118.188 66.7006 115.188 68.4231C112.971 69.7013 111.468 71.517 111.37 71.6322Z" fill="#262626"/>
<path d="M74.5385 90.8374C74.5385 90.8374 86.1956 59.9475 115.736 57.9727C118.205 58.6639 122.851 61.5768 125.023 66.47C120.827 73.0912 111.095 92.154 111.391 96.2079C103.042 99.1647 81.6534 105.177 74.5385 90.8374Z" fill="#FFC700"/>
<path d="M92.0982 100.278C83.3595 100.278 77.3692 97.1406 74.3027 90.9527L74.2533 90.8485L74.2972 90.7388C74.3246 90.662 77.3033 82.8833 83.8642 74.9729C87.7206 70.3211 92.0434 66.5359 96.7063 63.7108C102.549 60.178 108.945 58.1593 115.725 57.704L115.769 57.6985L115.813 57.7095C118.292 58.4061 123.054 61.3629 125.27 66.3549L125.331 66.4866L125.254 66.6072C120.722 73.7496 111.38 92.3296 111.66 96.1806L111.677 96.3836L111.485 96.4549C106.696 98.1554 99.5149 100.196 92.5096 100.278C92.367 100.278 92.2299 100.278 92.0982 100.278ZM74.8348 90.8211C81.7632 104.552 102.357 99.099 111.112 96.016C111.112 91.419 120.613 72.9597 124.716 66.4482C122.56 61.736 118.084 58.9273 115.709 58.2471C100.579 59.2784 90.266 68.0884 84.2811 75.3075C78.192 82.6419 75.2188 89.8556 74.8348 90.8211Z" fill="#262626"/>
<path d="M162.529 82.4717C164.197 80.8424 169.189 73.9469 173.166 74.7643C173.659 74.9289 176.386 77.3919 176.391 77.3974C177.467 78.6207 175.552 80.0251 175.601 81.4952C175.151 83.6182 172.963 80.8808 172.507 79.8002C170.993 79.866 170.5 79.866 170.5 79.866C169.979 80.7272 170.088 81.8079 169.276 82.4827C167.801 83.3659 165.99 83.5908 164.328 83.9583C163.319 84.3533 162.633 83.3713 162.529 82.4717Z" fill="#F3F3F3"/>
<path d="M163.878 84.3204C163.637 84.3204 163.412 84.2545 163.198 84.1284C162.71 83.8376 162.343 83.1958 162.26 82.5046L162.244 82.373L162.337 82.2797C162.633 81.989 163.056 81.5062 163.544 80.9522C165.886 78.2751 169.814 73.7988 173.215 74.501L173.248 74.5065C173.747 74.671 175.914 76.6075 176.567 77.1945L176.589 77.2164C177.346 78.0777 176.858 79.0212 176.419 79.855C176.139 80.3926 175.848 80.9522 175.865 81.4843V81.5172L175.859 81.5501C175.695 82.3236 175.311 82.5156 175.014 82.5485C174.06 82.6418 172.776 80.9576 172.332 80.0799C171.399 80.1183 170.884 80.1348 170.648 80.1348C170.5 80.4146 170.417 80.7218 170.324 81.0454C170.16 81.6324 169.989 82.2358 169.435 82.6966L169.403 82.7185C168.168 83.4591 166.731 83.7444 165.343 84.0241C165.025 84.09 164.707 84.1503 164.394 84.2216C164.23 84.2875 164.049 84.3204 163.878 84.3204ZM162.814 82.5649C162.902 83.0422 163.16 83.4756 163.473 83.6676C163.697 83.8047 163.95 83.8157 164.224 83.7115L164.262 83.7005C164.586 83.6292 164.91 83.5633 165.239 83.4975C166.577 83.2287 167.96 82.9544 169.112 82.2687C169.523 81.9176 169.66 81.4239 169.809 80.9028C169.913 80.5352 170.017 80.1567 170.22 79.8002V79.6027H170.489C170.544 79.6027 171.059 79.5972 172.485 79.5368L172.672 79.5314L172.743 79.7014C173.111 80.5736 174.367 82.0712 174.96 82.0164C175.163 81.9944 175.267 81.7202 175.322 81.4733C175.311 80.815 175.629 80.2061 175.942 79.6137C176.408 78.7195 176.671 78.1435 176.194 77.5894C174.905 76.4265 173.396 75.1483 173.089 75.0276C169.995 74.4077 166.062 78.895 163.95 81.3087C163.505 81.8134 163.116 82.2578 162.814 82.5649Z" fill="#262626"/>
<path d="M112.873 71.0121C112.873 71.0121 120.876 65.2795 125.813 71.407C130.75 77.5346 138.162 91.0677 163.451 80.3981C165.87 79.8605 166.555 83.108 165.59 84.7098C165.316 85.3846 156.797 98.7696 139.231 97.2885C121.666 95.8074 101.117 80.5956 112.873 71.0121Z" fill="#FFC700"/>
<path d="M141.886 97.6727C141.02 97.6727 140.131 97.6343 139.209 97.5575C126.186 96.4604 112.044 88.0728 109.537 79.9649C108.473 76.5254 109.565 73.3547 112.697 70.8038L112.708 70.7929C112.79 70.7325 114.782 69.3227 117.415 68.6535C120.948 67.7538 123.921 68.648 126.016 71.2372C126.417 71.7364 126.834 72.2795 127.272 72.8555C132.138 79.2244 140.285 89.8776 163.341 80.1515L163.385 80.135C164.323 79.9265 165.135 80.2228 165.667 80.9633C166.407 81.9946 166.473 83.7226 165.82 84.8362C165.596 85.319 163.396 88.7859 159.046 92.028C155.485 94.683 149.725 97.6727 141.886 97.6727ZM113.037 71.2262C110.053 73.6619 109.049 76.5474 110.058 79.8059C111.227 83.58 115.155 87.6559 120.838 90.9912C126.499 94.31 133.213 96.5098 139.259 97.0199C148.31 97.7825 154.849 94.491 158.738 91.5946C163.001 88.4239 165.2 84.9624 165.343 84.6113L165.36 84.5729C165.914 83.6458 165.859 82.1373 165.239 81.2815C164.959 80.892 164.432 80.4696 163.533 80.6561C156.774 83.5032 151.278 84.6278 146.752 84.6278C135.594 84.6278 130.377 77.7981 126.85 73.1846C126.411 72.6141 126 72.071 125.605 71.5773C123.63 69.1307 120.931 68.3188 117.574 69.1691C115.1 69.7945 113.158 71.1385 113.037 71.2262Z" fill="#262626"/>
<path d="M115.736 57.9729C115.736 57.9729 116.032 56.8374 119.093 56.788C122.154 56.7386 127.591 55.4275 131.639 50.9732C134.404 47.9012 137.372 50.8141 137.07 52.7889C136.774 54.7638 140.18 52.4927 140.872 51.8015C141.563 51.1103 143.389 52.2952 142.6 54.4675C143.143 55.5537 144.772 55.0106 145.414 53.2826C144.327 55.2081 144.179 55.8499 144.179 55.8499C144.179 55.8499 146.204 56.9855 147.043 54.2701C146.599 55.8993 147.059 56.1791 147.372 56.2614C147.372 56.2614 152.254 48.6253 145.068 41.642C133.345 30.2482 124.848 45.1309 112.532 42.3003C101.671 39.8043 98.1106 37.7581 86.6839 44.0447C85.4003 67.5564 97.2549 64.5338 97.2549 64.5338" fill="#262626"/>
<path d="M95.9766 64.9286C94.7697 64.9286 92.932 64.6324 91.1656 63.1787C87.4902 60.1615 85.8939 53.7158 86.426 44.0226L86.437 43.8745L86.5687 43.8032C96.7775 38.1859 100.908 39.1952 109.137 41.203C110.234 41.4718 111.364 41.7461 112.609 42.0313C117.59 43.1778 121.968 41.3621 126.197 39.6067C132.391 37.0393 138.244 34.6092 145.271 41.4389C149.062 45.1253 149.5 48.9927 149.199 51.5929C148.875 54.4016 147.668 56.3161 147.613 56.3983L147.509 56.5629L147.317 56.5135C147.065 56.4477 146.884 56.3106 146.763 56.1021C146.692 55.9814 146.648 55.8333 146.62 55.6633C146.401 55.9156 146.149 56.0966 145.863 56.2118C144.964 56.5739 144.097 56.0966 144.059 56.0747L143.883 55.9759L143.927 55.7785C143.932 55.762 143.976 55.5755 144.168 55.1311C143.971 55.2189 143.768 55.2738 143.565 55.2847C143.044 55.3122 142.605 55.0543 142.369 54.5771L142.32 54.4729L142.358 54.3631C142.77 53.2276 142.396 52.3664 141.848 52.0098C141.552 51.8233 141.244 51.8068 141.074 51.9769C140.707 52.3444 138.211 54.2589 137.19 53.7433C136.966 53.6336 136.724 53.3648 136.817 52.7339C136.96 51.7794 136.242 50.6055 135.216 50.1172C134.574 49.8155 133.285 49.5467 131.853 51.1376C127.975 55.4054 122.73 56.9853 119.11 57.0456C116.356 57.0895 116.01 58.0276 116.005 58.0386L115.484 57.8959C115.517 57.7588 115.922 56.5629 119.099 56.5081C122.445 56.4532 127.689 54.9227 131.452 50.781C132.67 49.4315 134.124 49.0146 135.446 49.6345C136.691 50.2215 137.531 51.6203 137.35 52.8162C137.322 52.9862 137.317 53.2057 137.432 53.266C137.948 53.5293 140.021 52.2731 140.696 51.5984C141.047 51.2473 141.628 51.2308 142.139 51.56C142.852 52.0153 143.356 53.074 142.907 54.429C143.055 54.6539 143.274 54.7636 143.543 54.7472C143.894 54.7307 144.344 54.4893 144.722 54.0121C144.86 53.7542 145.013 53.4635 145.2 53.1398L145.688 53.3648C145.556 53.7104 145.386 54.023 145.183 54.2973C144.805 55.0159 144.618 55.4603 144.53 55.6962C144.783 55.7839 145.233 55.8937 145.671 55.7126C146.171 55.5097 146.555 54.994 146.801 54.1821L147.317 54.3302C147.048 55.3067 147.147 55.6907 147.229 55.8333C147.246 55.8607 147.262 55.8827 147.279 55.8991C147.591 55.3396 148.414 53.6884 148.661 51.5106C149.073 47.912 147.8 44.659 144.892 41.8284C138.118 35.2455 132.429 37.6044 126.4 40.1058C122.094 41.8942 117.634 43.7429 112.489 42.5579C111.238 42.2727 110.108 41.9929 109.011 41.7241C100.7 39.6944 96.8872 38.7673 86.9581 44.2037C86.3437 55.9321 89.0866 60.7649 91.5003 62.7563C94.2047 64.9889 97.1724 64.2758 97.1999 64.2648L97.3315 64.786C97.2767 64.8024 96.761 64.9286 95.9766 64.9286Z" fill="#262626"/>
<path d="M168.986 84.5785L169.638 87.9357L196.71 84.9735V81.8137L168.986 84.5785Z" fill="#FFC700"/>
<path d="M169.419 88.2319L168.662 84.3371L196.979 81.512V85.2148L169.419 88.2319ZM169.304 84.8143L169.852 87.6395L196.441 84.7266V82.1044L169.304 84.8143Z" fill="#262626"/>
<path d="M205.668 61.3298L197.632 80.5627L199.936 82.0767L208.762 62.9097L205.668 61.3298Z" fill="#FFC700"/>
<path d="M200.051 82.4718L197.297 80.6615L197.385 80.453L205.531 60.9514L209.113 62.7836L200.051 82.4718ZM197.966 80.4585L199.821 81.6763L208.406 63.0305L205.8 61.6975L197.966 80.4585Z" fill="#262626"/>
<path d="M199.212 83.7278V85.3626L196.595 84.8743L196.71 81.7036L199.212 83.7278Z" fill="#FFC700"/>
<path d="M199.486 85.6863L196.321 85.0994L196.463 81.1606L199.486 83.6073V85.6863ZM196.875 84.6495L198.948 85.0335V83.8541L196.963 82.2468L196.875 84.6495Z" fill="#262626"/>
<path d="M138.809 202.987C138.727 202.987 138.65 202.948 138.595 202.883C138.524 202.789 138.518 202.658 138.589 202.564C139.544 201.204 139.522 198.521 139.44 197.183C138.814 198.066 137.448 199.651 134.854 201.286C134.744 201.358 134.601 201.336 134.514 201.242C134.426 201.149 134.42 201.001 134.497 200.897C135.869 199.065 135.139 196.481 134.711 195.345C134.212 196.206 132.819 197.797 128.929 199.416C128.808 199.465 128.666 199.421 128.594 199.311C128.523 199.202 128.545 199.054 128.649 198.966C130.246 197.578 130.635 193.617 130.641 193.573C130.657 193.425 130.789 193.316 130.931 193.332C131.08 193.348 131.189 193.475 131.173 193.623C131.162 193.765 130.877 196.64 129.747 198.461C134.053 196.437 134.442 194.627 134.448 194.605C134.47 194.489 134.563 194.402 134.678 194.385C134.793 194.369 134.903 194.424 134.958 194.528C135.029 194.67 136.499 197.671 135.496 200.206C138.463 198.11 139.396 196.245 139.407 196.223C139.456 196.113 139.577 196.058 139.692 196.075C139.807 196.097 139.901 196.19 139.917 196.305C139.939 196.47 140.356 199.981 139.423 202.164C140.498 201.67 142.007 200.787 142.007 199.926C142.007 199.778 142.128 199.657 142.276 199.657C142.424 199.657 142.545 199.778 142.545 199.926C142.545 201.571 139.286 202.822 138.913 202.965C138.869 202.981 138.842 202.987 138.809 202.987Z" fill="#1A1A1A"/>
<path d="M194.351 93.3555L193.891 197.145H197.632V93.1306" fill="#F3F3F3"/>
<path d="M197.901 197.419H193.616L194.083 93.3555H194.626L194.159 196.876H197.363V93.1306H197.901V197.419Z" fill="#262626"/>
<path d="M212.646 85.9774C211.417 85.6482 210.123 85.6812 208.85 85.7196C196.288 86.1036 183.748 87.2391 171.323 89.1152C171.992 90.6292 172.343 92.2804 172.365 93.9316C181.438 93.4215 190.511 91.2766 199.59 90.7609C204.621 90.4043 209.464 89.8612 214.495 88.7861C214.912 88.7038 215.334 88.5995 215.757 88.4679C215.718 88.3691 215.68 88.2759 215.63 88.1826C215.054 87.0416 213.875 86.3065 212.646 85.9774Z" fill="#F3F3F3"/>
<path d="M172.096 94.2169L172.091 93.9372C172.074 92.3134 171.723 90.6841 171.076 89.2249L170.933 88.9013L171.284 88.8464C183.671 86.9758 196.31 85.8348 208.845 85.4508C210.052 85.4124 211.423 85.374 212.718 85.7196C214.166 86.1036 215.318 86.9594 215.866 88.062C215.916 88.1552 215.96 88.2595 216.004 88.3692L216.108 88.638L215.833 88.7257C215.438 88.8519 215.016 88.9616 214.544 89.0549C210.128 90.0039 205.52 90.6128 199.607 91.0352C195.081 91.2931 190.479 91.9623 186.03 92.6151C181.559 93.2679 176.934 93.9481 172.376 94.2005L172.096 94.2169ZM171.707 89.3292C172.261 90.6841 172.573 92.1653 172.628 93.6464C177.072 93.3831 181.586 92.7193 185.953 92.0775C190.413 91.4247 195.026 90.75 199.574 90.4921C205.455 90.0697 210.041 89.4663 214.435 88.5228C214.775 88.457 215.087 88.3802 215.384 88.2979C214.901 87.3379 213.881 86.5863 212.58 86.2407C211.363 85.9171 210.035 85.9555 208.861 85.9884C196.458 86.3724 183.962 87.4915 171.707 89.3292Z" fill="#262626"/>
<path d="M215.746 88.4678C215.329 88.5994 214.901 88.7037 214.484 88.7859C209.454 89.8611 204.61 90.4042 199.579 90.7608C190.506 91.2764 181.433 93.4213 172.354 93.9315C172.359 94.2442 172.348 94.5514 172.332 94.8586L215.921 90.7772C216.064 89.9873 216.036 89.2029 215.746 88.4678Z" fill="#F3F3F3"/>
<path d="M172.047 95.1546L172.069 94.8419C172.085 94.5457 172.096 94.2385 172.091 93.9313L172.085 93.6735L172.343 93.657C176.874 93.4047 181.488 92.7299 185.947 92.0717C190.407 91.4189 195.021 90.7441 199.568 90.4863C205.449 90.0639 210.035 89.4605 214.429 88.5169C214.884 88.4237 215.285 88.3249 215.663 88.2042L215.905 88.1274L215.998 88.3633C216.283 89.0929 216.349 89.8938 216.19 90.8209L216.157 91.0239L172.047 95.1546ZM172.634 94.1836C172.634 94.3098 172.628 94.436 172.623 94.5622L215.696 90.5302C215.784 89.8883 215.746 89.3178 215.581 88.7967C215.257 88.89 214.917 88.9722 214.544 89.049C210.128 89.9981 205.52 90.607 199.607 91.0294C195.081 91.2872 190.484 91.9564 186.03 92.6092C181.641 93.2511 177.104 93.9148 172.634 94.1836Z" fill="#262626"/>
<path d="M172.337 94.8586C172.315 95.1658 172.288 95.473 172.244 95.7802C179.584 94.7105 186.957 93.8986 194.357 93.3555C195.449 93.2732 196.54 93.1964 197.637 93.1306C203.562 92.7576 209.497 92.5491 215.433 92.5162C215.658 91.9457 215.839 91.3642 215.938 90.7827L172.337 94.8586Z" fill="#1A1A1A"/>
<path d="M126.131 190.046C126.115 190.046 126.104 190.046 126.087 190.041C125.939 190.013 125.841 189.876 125.868 189.728C125.901 189.547 125.928 189.366 125.961 189.19C125.989 189.042 126.126 188.944 126.274 188.971C126.422 188.998 126.521 189.136 126.493 189.284C126.461 189.459 126.433 189.64 126.4 189.821C126.378 189.953 126.263 190.046 126.131 190.046ZM126.62 187.391C126.603 187.391 126.587 187.391 126.57 187.386C126.422 187.358 126.329 187.216 126.356 187.068C126.499 186.354 126.642 185.641 126.795 184.956C126.828 184.813 126.971 184.72 127.113 184.747C127.256 184.78 127.349 184.923 127.322 185.065C127.174 185.751 127.026 186.459 126.889 187.166C126.856 187.303 126.746 187.391 126.62 187.391ZM127.536 183.184C127.514 183.184 127.492 183.184 127.47 183.178C127.327 183.145 127.234 182.997 127.272 182.854C127.443 182.147 127.624 181.439 127.805 180.764C127.843 180.622 127.991 180.534 128.134 180.572C128.276 180.611 128.364 180.759 128.326 180.902C128.145 181.576 127.964 182.278 127.794 182.981C127.766 183.101 127.656 183.184 127.536 183.184ZM128.655 179.031C128.627 179.031 128.605 179.025 128.578 179.02C128.435 178.976 128.353 178.828 128.397 178.685C128.606 177.989 128.825 177.297 129.044 176.623C129.094 176.48 129.242 176.403 129.384 176.453C129.527 176.502 129.604 176.65 129.554 176.793C129.335 177.457 129.116 178.148 128.913 178.839C128.88 178.954 128.776 179.031 128.655 179.031ZM130.015 174.944C129.982 174.944 129.955 174.939 129.922 174.928C129.785 174.878 129.708 174.719 129.763 174.582C130.015 173.902 130.279 173.222 130.547 172.569C130.602 172.432 130.761 172.366 130.898 172.421C131.036 172.476 131.101 172.635 131.047 172.772C130.778 173.425 130.52 174.094 130.273 174.769C130.229 174.878 130.125 174.944 130.015 174.944ZM131.645 170.962C131.606 170.962 131.568 170.956 131.535 170.94C131.398 170.879 131.337 170.72 131.403 170.583C131.699 169.925 132.018 169.266 132.336 168.63C132.402 168.498 132.566 168.444 132.698 168.509C132.829 168.575 132.884 168.74 132.818 168.871C132.5 169.502 132.193 170.15 131.897 170.802C131.848 170.901 131.749 170.962 131.645 170.962ZM133.581 167.116C133.537 167.116 133.493 167.105 133.449 167.083C133.318 167.012 133.274 166.847 133.345 166.716C133.696 166.085 134.064 165.459 134.437 164.845C134.514 164.719 134.678 164.68 134.81 164.757C134.936 164.834 134.974 164.999 134.898 165.13C134.53 165.734 134.162 166.359 133.817 166.979C133.768 167.067 133.674 167.116 133.581 167.116ZM135.825 163.446C135.775 163.446 135.72 163.43 135.676 163.402C135.55 163.32 135.523 163.15 135.605 163.029C136 162.442 136.417 161.844 136.85 161.257C136.938 161.137 137.108 161.109 137.229 161.197C137.35 161.285 137.377 161.455 137.289 161.576C136.867 162.157 136.45 162.744 136.061 163.325C136 163.408 135.912 163.446 135.825 163.446ZM138.365 159.974C138.304 159.974 138.249 159.957 138.2 159.913C138.085 159.82 138.063 159.65 138.156 159.535C138.589 158.986 139.05 158.427 139.522 157.862C139.615 157.746 139.785 157.736 139.901 157.829C140.016 157.922 140.027 158.092 139.933 158.207C139.462 158.767 139.006 159.326 138.578 159.869C138.524 159.941 138.447 159.974 138.365 159.974ZM141.14 156.682C141.074 156.682 141.014 156.66 140.959 156.616C140.85 156.518 140.839 156.348 140.937 156.238C141.382 155.739 141.853 155.212 142.386 154.636C142.484 154.526 142.654 154.521 142.764 154.62C142.874 154.718 142.879 154.888 142.781 154.998C142.254 155.574 141.782 156.095 141.338 156.589C141.288 156.649 141.212 156.682 141.14 156.682ZM144.042 153.506C143.976 153.506 143.911 153.484 143.861 153.435C143.751 153.331 143.746 153.16 143.85 153.056L144.393 152.475C144.7 152.146 145.013 151.816 145.32 151.482C145.425 151.372 145.595 151.367 145.699 151.471C145.809 151.57 145.814 151.745 145.71 151.849C145.403 152.179 145.09 152.513 144.783 152.842L144.24 153.424C144.19 153.479 144.119 153.506 144.042 153.506ZM146.977 150.352C146.911 150.352 146.845 150.33 146.796 150.28C146.686 150.182 146.681 150.012 146.78 149.902C147.301 149.331 147.767 148.81 148.211 148.306C148.31 148.196 148.48 148.185 148.59 148.284C148.7 148.382 148.711 148.552 148.612 148.662C148.162 149.172 147.69 149.699 147.169 150.27C147.125 150.319 147.048 150.352 146.977 150.352ZM149.813 147.115C149.753 147.115 149.693 147.093 149.643 147.055C149.528 146.962 149.511 146.792 149.61 146.676C150.076 146.117 150.532 145.552 150.96 145.009C151.053 144.894 151.223 144.872 151.338 144.965C151.453 145.058 151.475 145.228 151.382 145.343C150.954 145.892 150.499 146.457 150.022 147.022C149.967 147.082 149.89 147.115 149.813 147.115ZM152.397 143.67C152.348 143.67 152.298 143.659 152.26 143.632C152.134 143.555 152.09 143.39 152.172 143.264C152.556 142.628 152.88 141.997 153.126 141.383C153.181 141.246 153.34 141.18 153.478 141.235C153.615 141.289 153.681 141.449 153.626 141.586C153.368 142.227 153.033 142.886 152.633 143.544C152.578 143.626 152.49 143.67 152.397 143.67ZM153.949 139.682C153.938 139.682 153.922 139.682 153.911 139.677C153.763 139.655 153.664 139.518 153.686 139.369C153.741 139.002 153.768 138.634 153.768 138.278C153.768 137.949 153.746 137.625 153.697 137.307C153.675 137.159 153.779 137.022 153.922 137C154.07 136.978 154.207 137.082 154.229 137.225C154.278 137.57 154.306 137.921 154.306 138.272C154.306 138.656 154.273 139.051 154.218 139.446C154.196 139.589 154.081 139.682 153.949 139.682ZM153.324 135.491C153.225 135.491 153.127 135.436 153.083 135.343C152.792 134.745 152.397 134.169 151.92 133.62C151.821 133.511 151.832 133.341 151.947 133.242C152.057 133.143 152.227 133.154 152.326 133.269C152.836 133.851 153.253 134.471 153.565 135.107C153.631 135.239 153.576 135.403 153.445 135.469C153.406 135.486 153.362 135.491 153.324 135.491ZM112.258 132.617C111.819 132.617 111.38 132.611 110.953 132.595C110.804 132.589 110.689 132.463 110.695 132.315C110.7 132.167 110.826 132.052 110.975 132.057C111.397 132.073 111.836 132.079 112.264 132.079C112.543 132.079 112.823 132.073 113.108 132.068H113.114C113.262 132.068 113.377 132.183 113.383 132.331C113.388 132.479 113.268 132.606 113.119 132.606C112.834 132.611 112.543 132.617 112.258 132.617C112.264 132.617 112.258 132.617 112.258 132.617ZM115.27 132.501C115.133 132.501 115.012 132.392 115.001 132.255C114.99 132.106 115.1 131.975 115.248 131.964C115.944 131.914 116.658 131.843 117.382 131.755C117.53 131.739 117.662 131.843 117.684 131.991C117.7 132.139 117.596 132.271 117.448 132.293C116.718 132.381 115.994 132.452 115.292 132.507C115.281 132.501 115.275 132.501 115.27 132.501ZM108.819 132.447C108.808 132.447 108.802 132.447 108.791 132.447C108.062 132.37 107.337 132.271 106.641 132.145C106.493 132.117 106.399 131.98 106.421 131.832C106.449 131.684 106.591 131.591 106.734 131.613C107.414 131.733 108.127 131.838 108.841 131.909C108.989 131.925 109.098 132.057 109.082 132.205C109.071 132.342 108.95 132.447 108.819 132.447ZM150.554 132.249C150.499 132.249 150.438 132.233 150.389 132.194C149.857 131.783 149.265 131.393 148.623 131.031C148.491 130.96 148.447 130.795 148.519 130.664C148.59 130.532 148.754 130.488 148.886 130.559C149.55 130.932 150.164 131.338 150.718 131.766C150.834 131.86 150.855 132.024 150.768 132.145C150.713 132.211 150.631 132.249 150.554 132.249ZM119.543 131.986C119.411 131.986 119.302 131.892 119.28 131.761C119.258 131.613 119.357 131.476 119.505 131.454C120.196 131.344 120.904 131.212 121.617 131.07C121.759 131.042 121.902 131.135 121.935 131.284C121.962 131.432 121.869 131.569 121.721 131.602C121.002 131.744 120.289 131.876 119.593 131.986C119.576 131.986 119.56 131.986 119.543 131.986ZM104.589 131.673C104.567 131.673 104.54 131.668 104.518 131.662C103.81 131.47 103.114 131.245 102.444 130.998C102.307 130.943 102.236 130.79 102.285 130.653C102.34 130.516 102.494 130.444 102.631 130.494C103.278 130.735 103.958 130.954 104.655 131.141C104.798 131.179 104.885 131.327 104.847 131.47C104.814 131.596 104.71 131.673 104.589 131.673ZM123.773 131.146C123.652 131.146 123.542 131.064 123.509 130.938C123.476 130.795 123.564 130.647 123.712 130.614C124.393 130.455 125.095 130.28 125.797 130.093C125.939 130.055 126.088 130.143 126.126 130.285C126.164 130.428 126.077 130.576 125.934 130.614C125.232 130.801 124.524 130.976 123.838 131.141C123.811 131.141 123.789 131.146 123.773 131.146ZM100.568 130.164C100.53 130.164 100.486 130.153 100.447 130.137C99.7946 129.813 99.1583 129.451 98.5549 129.062C98.4287 128.98 98.3958 128.815 98.4726 128.689C98.5549 128.563 98.7195 128.53 98.8456 128.607C99.4326 128.985 100.053 129.336 100.689 129.654C100.821 129.72 100.875 129.885 100.81 130.016C100.766 130.11 100.667 130.164 100.568 130.164ZM146.818 130.121C146.785 130.121 146.747 130.115 146.714 130.099C146.077 129.83 145.408 129.583 144.712 129.364C144.569 129.32 144.492 129.166 144.536 129.023C144.58 128.881 144.733 128.804 144.876 128.848C145.584 129.073 146.275 129.325 146.922 129.599C147.059 129.66 147.125 129.813 147.065 129.951C147.021 130.055 146.922 130.121 146.818 130.121ZM127.936 130.044C127.821 130.044 127.711 129.967 127.678 129.852C127.635 129.709 127.717 129.561 127.859 129.517C128.534 129.32 129.225 129.106 129.911 128.886C130.054 128.842 130.202 128.919 130.251 129.062C130.295 129.204 130.218 129.353 130.076 129.402C129.384 129.627 128.688 129.841 128.013 130.038C127.986 130.038 127.958 130.044 127.936 130.044ZM142.715 128.815C142.693 128.815 142.676 128.815 142.654 128.809C141.963 128.65 141.261 128.519 140.553 128.42C140.405 128.398 140.307 128.261 140.328 128.113C140.35 127.965 140.487 127.866 140.636 127.888C141.354 127.992 142.073 128.129 142.775 128.288C142.918 128.321 143.011 128.464 142.978 128.612C142.945 128.727 142.835 128.815 142.715 128.815ZM132.034 128.722C131.919 128.722 131.809 128.645 131.776 128.524C131.738 128.382 131.82 128.233 131.963 128.19C132.616 128.003 133.34 127.855 134.113 127.756C134.256 127.74 134.398 127.844 134.415 127.987C134.431 128.135 134.327 128.272 134.184 128.288C133.438 128.387 132.742 128.524 132.111 128.705C132.083 128.716 132.061 128.722 132.034 128.722ZM138.452 128.19C138.447 128.19 138.441 128.19 138.436 128.19C137.712 128.14 136.993 128.124 136.307 128.14H136.302C136.154 128.14 136.039 128.025 136.033 127.877C136.028 127.729 136.148 127.603 136.296 127.603C137.004 127.586 137.734 127.603 138.474 127.652C138.622 127.663 138.738 127.789 138.727 127.937C138.71 128.08 138.589 128.19 138.452 128.19ZM96.9641 127.839C96.9037 127.839 96.8434 127.817 96.794 127.778C96.2344 127.317 95.6969 126.824 95.1867 126.303C95.0825 126.198 95.088 126.023 95.1922 125.924C95.3019 125.82 95.4719 125.825 95.5707 125.93C96.0644 126.434 96.5856 126.917 97.1287 127.367C97.2439 127.46 97.2602 127.63 97.167 127.745C97.1176 127.806 97.0409 127.839 96.9641 127.839ZM93.9689 124.756C93.8866 124.756 93.8097 124.717 93.7549 124.651C93.316 124.086 92.8991 123.483 92.5096 122.863C92.4328 122.737 92.4713 122.572 92.5975 122.49C92.7237 122.413 92.8882 122.452 92.9705 122.578C93.349 123.187 93.7549 123.774 94.1828 124.322C94.276 124.437 94.2541 124.607 94.1334 124.701C94.084 124.739 94.0292 124.756 93.9689 124.756ZM91.6923 121.108C91.5935 121.108 91.5003 121.053 91.4509 120.959C91.1328 120.323 90.8365 119.654 90.5732 118.968C90.5183 118.831 90.5896 118.672 90.7268 118.617C90.8639 118.562 91.0231 118.634 91.0779 118.771C91.3412 119.44 91.6319 120.098 91.9391 120.718C92.0049 120.85 91.9501 121.014 91.8184 121.08C91.7745 121.097 91.7361 121.108 91.6923 121.108ZM90.1179 117.098C90.0027 117.098 89.893 117.021 89.8601 116.906C89.6517 116.225 89.4652 115.518 89.3061 114.799C89.2732 114.656 89.3663 114.508 89.509 114.475C89.6571 114.442 89.7998 114.536 89.8327 114.678C89.9918 115.381 90.1728 116.077 90.3758 116.746C90.4196 116.889 90.3373 117.037 90.1947 117.081C90.1727 117.092 90.1454 117.098 90.1179 117.098ZM89.1634 112.896C89.0318 112.896 88.9166 112.802 88.9001 112.671C88.7904 111.963 88.6972 111.233 88.6313 110.509C88.6149 110.361 88.7246 110.229 88.8727 110.219C89.0153 110.202 89.1525 110.312 89.1634 110.46C89.2293 111.173 89.317 111.886 89.4267 112.583C89.4487 112.731 89.3499 112.868 89.2017 112.89C89.1908 112.89 89.1799 112.896 89.1634 112.896ZM88.7685 108.595C88.6259 108.595 88.505 108.48 88.4996 108.331C88.4886 108.035 88.4887 107.744 88.4887 107.465C88.4887 106.642 88.5215 106.165 88.527 106.143C88.538 105.995 88.6697 105.885 88.8178 105.896C88.9659 105.907 89.0756 106.038 89.0646 106.187C89.0646 106.192 89.0318 106.664 89.0318 107.465C89.0318 107.739 89.0373 108.024 89.0428 108.315C89.0483 108.463 88.9274 108.589 88.7793 108.589C88.7738 108.595 88.7685 108.595 88.7685 108.595Z" fill="#1A1A1A"/>
<path d="M93.0801 119.961C92.943 119.961 92.8223 119.857 92.8113 119.714C92.8004 119.566 92.91 119.434 93.0582 119.423C93.1569 119.412 93.2557 119.407 93.3544 119.396C93.5025 119.379 93.6342 119.484 93.6507 119.632C93.6671 119.78 93.5629 119.912 93.4148 119.928C93.3106 119.939 93.2118 119.95 93.1076 119.961C93.0966 119.961 93.0856 119.961 93.0801 119.961ZM95.4774 119.467C95.3677 119.467 95.2634 119.396 95.225 119.286C95.1756 119.144 95.2524 118.99 95.3896 118.946C96.0533 118.716 96.6843 118.409 97.2548 118.036C97.381 117.953 97.5455 117.986 97.6278 118.112C97.7101 118.238 97.6771 118.403 97.5509 118.485C96.942 118.886 96.2728 119.215 95.5652 119.456C95.5322 119.462 95.5049 119.467 95.4774 119.467ZM99.0376 117.13C98.9718 117.13 98.9059 117.108 98.8566 117.059C98.7469 116.96 98.7414 116.79 98.8401 116.681C99.2954 116.187 99.7123 115.622 100.085 114.996C100.162 114.87 100.327 114.826 100.453 114.903C100.579 114.98 100.623 115.145 100.546 115.271C100.157 115.924 99.7123 116.521 99.2351 117.043C99.1802 117.103 99.109 117.13 99.0376 117.13ZM101.259 113.471C101.226 113.471 101.193 113.466 101.161 113.455C101.023 113.4 100.952 113.247 101.007 113.104C101.254 112.479 101.473 111.798 101.66 111.085C101.698 110.943 101.841 110.855 101.989 110.893C102.132 110.932 102.219 111.08 102.181 111.222C101.994 111.957 101.764 112.654 101.512 113.307C101.468 113.406 101.363 113.471 101.259 113.471ZM102.351 109.308C102.334 109.308 102.324 109.308 102.307 109.302C102.159 109.28 102.06 109.143 102.082 108.995C102.186 108.315 102.269 107.602 102.324 106.872C102.335 106.724 102.466 106.614 102.614 106.625C102.762 106.636 102.872 106.768 102.861 106.916C102.806 107.657 102.724 108.386 102.614 109.083C102.598 109.209 102.483 109.308 102.351 109.308ZM102.675 105.007C102.526 105.007 102.406 104.886 102.406 104.738V104.689C102.406 103.438 102.324 102.621 102.324 102.615C102.307 102.467 102.417 102.335 102.565 102.319C102.713 102.303 102.845 102.412 102.861 102.56C102.867 102.593 102.943 103.411 102.943 104.689V104.738C102.943 104.886 102.823 105.007 102.675 105.007Z" fill="#1A1A1A"/>
<path d="M16.9171 166.205C16.9171 166.205 -7.14857 149.183 2.58304 139.962C12.3092 130.746 18.2008 160.187 18.2008 160.187L19.9946 166.205H16.9171Z" fill="#FFC700"/>
<path d="M20.351 166.474H16.8347L16.7635 166.425C16.1052 165.958 0.673943 154.943 0.0211458 145.749C-0.143425 143.434 0.6574 141.421 2.40185 139.77C4.13533 138.124 5.88524 137.564 7.59678 138.113C14.3881 140.269 18.272 159.156 18.464 160.127L20.351 166.474ZM16.9993 165.931H19.6215L17.9264 160.237C17.888 160.039 13.9438 140.691 7.42133 138.618C5.91277 138.14 4.34386 138.656 2.7585 140.154C1.13473 141.69 0.394151 143.555 0.54775 145.705C1.16763 154.345 15.8583 165.108 16.9993 165.931Z" fill="#262626"/>
<path d="M22.5451 166.205C22.5451 166.205 0.997337 125.178 13.4992 118.266C26.0011 111.354 18.7052 134.262 25.2332 136.632C31.7611 139.002 33.8731 145.14 29.8411 149.37C25.8091 153.599 26.9611 167.423 26.9611 167.423L22.5451 166.205Z" fill="#F3F3F3"/>
<path d="M27.263 167.78L22.3643 166.43L22.3094 166.326C22.2545 166.222 16.8675 155.925 13.0824 144.91C10.8552 138.431 9.60447 132.968 9.37407 128.683C9.07784 123.241 10.4219 119.659 13.3732 118.025C15.8527 116.653 17.7179 116.346 19.0893 117.081C21.4701 118.359 21.7882 122.446 22.1283 126.774C22.4629 131.042 22.8086 135.458 25.3265 136.369C28.8209 137.636 31.306 140.11 31.9807 142.973C32.5293 145.316 31.8381 147.653 30.0387 149.54C26.1384 153.632 27.219 167.248 27.23 167.385L27.263 167.78ZM22.7318 165.975L26.665 167.056C26.5059 164.741 25.908 153.095 29.6493 149.178C31.3224 147.422 31.9641 145.266 31.4595 143.105C30.8286 140.417 28.4697 138.086 25.1454 136.879C22.2984 135.848 21.9418 131.256 21.5907 126.818C21.278 122.824 20.9544 118.699 18.8314 117.558C17.6355 116.916 15.935 117.224 13.631 118.496C1.80383 125.041 21.5469 163.682 22.7318 165.975Z" fill="#262626"/>
<path d="M37.5267 166.205C37.5267 166.205 54.4227 155.327 52.5027 140.346C50.5827 125.37 42.3267 141.953 44.2467 147.389C46.1667 152.826 36.7587 153.978 36.5667 158.394C36.3747 162.81 35.2885 166.2 35.2885 166.2H37.5267V166.205Z" fill="#F3F3F3"/>
<path d="M37.6036 166.474H34.9155L35.0307 166.123C35.0416 166.09 36.1114 162.711 36.2979 158.383C36.3912 156.293 38.3825 154.91 40.308 153.572C42.7162 151.899 44.9927 150.313 43.9943 147.483C42.8533 144.252 45.1189 137.499 47.582 135.003C48.6736 133.895 49.5404 133.878 50.078 134.054C51.3891 134.498 52.2942 136.605 52.7714 140.313C53.7753 148.146 49.6117 154.839 45.9418 159.068C41.9756 163.638 37.7187 166.403 37.6748 166.43L37.6036 166.474ZM35.6451 165.931H37.4445C37.993 165.569 41.8934 162.908 45.5413 158.701C49.1345 154.554 53.2158 148.009 52.2393 140.379C51.6524 135.804 50.5278 134.767 49.9079 134.558C49.2058 134.323 48.4652 134.871 47.9715 135.37C45.6346 137.74 43.4512 144.301 44.5045 147.291C45.64 150.511 43.0893 152.288 40.6207 154.005C38.7172 155.327 36.9178 156.578 36.841 158.399C36.6764 161.998 35.9249 164.949 35.6451 165.931Z" fill="#262626"/>
<path d="M44.3071 166.205C44.3071 166.205 54.5488 161.126 56.3372 157.033C58.1255 152.941 52.7824 147.132 48.1799 157.801C44.3015 162.837 43.3636 166.205 43.3636 166.205H44.3071Z" fill="#FFC700"/>
<path d="M44.3728 166.474H43.0179L43.1111 166.134C43.1495 165.997 44.104 162.667 47.9495 157.664C49.5788 153.901 51.5482 151.701 53.4901 151.482C54.5104 151.367 55.4758 151.811 56.1396 152.711C57.0338 153.923 57.2148 155.706 56.584 157.143C54.7737 161.279 44.8446 166.238 44.4223 166.452L44.3728 166.474ZM43.742 165.931H44.2467C45.064 165.52 54.4336 160.725 56.0958 156.918C56.6499 155.651 56.4963 154.082 55.7118 153.023C55.1578 152.272 54.3897 151.91 53.5559 152.008C52.541 152.124 50.5279 153.045 48.4323 157.9L48.3994 157.96C45.3 161.987 44.0876 164.96 43.742 165.931Z" fill="#262626"/>
<path d="M31.2512 166.205C31.2512 166.205 44.6472 139.709 41.065 134.756C37.4829 129.802 34.8773 135.266 35.2832 140.472C35.6891 145.678 31.8875 147.302 30.8452 151.224C29.803 155.152 33.3905 156.09 31.8984 157.538C30.4008 158.986 29.1227 159.754 29.4628 161.718C29.8029 163.682 29.4079 166.2 29.4079 166.2H31.2512V166.205Z" fill="#FFC700"/>
<path d="M31.4157 166.474H29.0898L29.1391 166.162C29.1446 166.134 29.5231 163.666 29.194 161.768C28.8813 159.957 29.8357 159.08 31.0481 157.966C31.262 157.769 31.4816 157.566 31.7065 157.346C32.2002 156.863 32.0081 156.518 31.4815 155.711C30.8506 154.746 29.9839 153.424 30.5819 151.153C31.0043 149.556 31.8764 148.328 32.7157 147.137C34.0213 145.289 35.2501 143.55 35.0142 140.489C34.7619 137.214 35.689 133.39 37.6858 132.655C38.4758 132.364 39.743 132.463 41.279 134.592C44.916 139.616 32.0355 165.229 31.487 166.315L31.4157 166.474ZM29.7151 165.931H31.0865C31.5967 164.911 34.6303 158.789 37.2524 152.228C41.0101 142.842 42.2554 136.857 40.8456 134.91C40.105 133.889 38.986 132.754 37.8724 133.165C36.3254 133.736 35.2831 137 35.5519 140.45C35.8043 143.698 34.4602 145.607 33.1546 147.45C32.3043 148.657 31.498 149.792 31.103 151.295C30.5599 153.331 31.3224 154.488 31.9313 155.421C32.436 156.194 32.9188 156.924 32.0849 157.736C31.8545 157.961 31.6297 158.164 31.4157 158.366C30.2418 159.447 29.4628 160.16 29.7316 161.68C30.0004 163.271 29.8083 165.191 29.7151 165.931Z" fill="#262626"/>
<path d="M36.4571 198.423H26.0507C20.7241 198.423 16.4069 194.106 16.4069 188.779V167.264H46.1064V188.774C46.101 194.106 41.7837 198.423 36.4571 198.423Z" fill="#F3F3F3"/>
<path d="M36.457 198.692H26.0507C20.5814 198.692 16.138 194.243 16.138 188.779V167.001H46.3752V188.779C46.3697 194.243 41.9208 198.692 36.457 198.692ZM16.6701 167.533V188.773C16.6701 193.941 20.8777 198.148 26.0452 198.148H36.4515C41.619 198.148 45.8266 193.941 45.8266 188.773V167.533H16.6701Z" fill="#262626"/>
<path d="M48.1853 165.136H13.4994V168.466H48.1853V165.136Z" fill="#1A1A1A"/>
<path d="M20.181 167.686C20.1371 167.686 20.0933 167.676 20.0494 167.654C16.5056 165.673 12.8028 159.754 10.3178 155.135C7.67367 150.215 5.69873 145.475 5.69873 145.272C5.69873 145.124 5.81941 145.003 5.96752 145.003C6.09918 145.003 6.20888 145.096 6.23083 145.217C6.34054 145.579 8.24955 150.187 10.8827 155.058C14.3606 161.488 17.6192 165.679 20.3072 167.182C20.4388 167.253 20.4827 167.418 20.4114 167.549C20.3675 167.637 20.2743 167.686 20.181 167.686Z" fill="#1A1A1A"/>
<path d="M25.0248 166.09C24.926 166.09 24.8328 166.035 24.7889 165.948C20.8886 158.569 15.924 125.946 15.7156 124.558C15.6936 124.41 15.7925 124.273 15.9406 124.251C16.0887 124.229 16.2257 124.328 16.2477 124.476C16.297 124.816 21.4043 158.394 25.2662 165.695C25.3376 165.827 25.2881 165.991 25.1564 166.057C25.107 166.079 25.0632 166.09 25.0248 166.09Z" fill="#1A1A1A"/>
<path d="M35.5409 167.072C35.4641 167.072 35.3927 167.039 35.3379 166.979C35.2391 166.864 35.2556 166.694 35.3653 166.601C42.6064 160.358 45.8759 153.907 47.3461 149.595C48.937 144.938 48.8217 141.723 48.8162 141.695C48.8107 141.547 48.9259 141.421 49.074 141.416C49.2276 141.41 49.3483 141.525 49.3538 141.674C49.3593 141.805 49.4745 145.02 47.8562 149.77C46.3641 154.142 43.0452 160.687 35.7163 167.006C35.667 167.05 35.6012 167.072 35.5409 167.072Z" fill="#1A1A1A"/>
<path d="M44.3071 166.474C44.2413 166.474 44.1754 166.452 44.126 166.403C44.0163 166.304 44.0053 166.134 44.1041 166.024L52.4478 156.764C52.5465 156.655 52.7167 156.644 52.8264 156.742C52.9361 156.841 52.9469 157.011 52.8482 157.121L44.5045 166.381C44.4551 166.441 44.3839 166.474 44.3071 166.474Z" fill="#1A1A1A"/>
<path d="M188.312 30.9009C196.771 30.9009 203.628 24.0437 203.628 15.5848C203.628 7.12602 196.771 0.268799 188.312 0.268799C179.853 0.268799 172.996 7.12602 172.996 15.5848C172.996 24.0437 179.853 30.9009 188.312 30.9009Z" fill="#F3F3F3"/>
<path d="M188.312 31.1697C179.716 31.1697 172.727 24.1754 172.727 15.5848C172.727 6.99425 179.721 0 188.312 0C196.902 0 203.897 6.99425 203.897 15.5848C203.897 24.1754 196.902 31.1697 188.312 31.1697ZM188.312 0.537597C180.017 0.537597 173.264 7.28499 173.264 15.5848C173.264 23.8847 180.012 30.6321 188.312 30.6321C196.612 30.6321 203.359 23.8847 203.359 15.5848C203.359 7.28499 196.606 0.537597 188.312 0.537597Z" fill="#262626"/>
<path d="M182.919 15.3158L187.516 20.3517L196.392 8.98535" fill="#F3F3F3"/>
<path d="M187.533 20.7686L182.722 15.4969L183.122 15.1293L187.5 19.9348L196.178 8.8208L196.606 9.15543L187.533 20.7686Z" fill="#262626"/>
<path d="M45.6233 74.8853H4.42038C2.70336 74.8853 1.30991 73.492 1.30991 71.7749C1.30991 70.0579 2.70336 68.6646 4.42038 68.6646H45.6233C47.3403 68.6646 48.7336 70.0579 48.7336 71.7749C48.7336 73.492 47.3403 74.8853 45.6233 74.8853Z" fill="#F3F3F3"/>
<path d="M45.6234 75.1541H4.42047C2.55533 75.1541 1.0412 73.6401 1.0412 71.7749C1.0412 69.9098 2.55533 68.3958 4.42047 68.3958H45.6234C47.4885 68.3958 49.0025 69.9098 49.0025 71.7749C49.0025 73.6401 47.4885 75.1541 45.6234 75.1541ZM4.42047 68.9388C2.85705 68.9388 1.57879 70.2115 1.57879 71.7804C1.57879 73.3438 2.85156 74.622 4.42047 74.622H45.6234C47.1868 74.622 48.4649 73.3493 48.4649 71.7804C48.4649 70.217 47.1923 68.9388 45.6234 68.9388H4.42047Z" fill="#262626"/>
<path d="M9.67021 68.6701H8.97901C8.16712 68.6701 7.50339 68.0119 7.50339 67.1945V54.72C7.50339 53.9082 8.16164 53.2444 8.97901 53.2444H9.67021C10.4821 53.2444 11.146 53.9027 11.146 54.72V67.1945C11.1405 68.0064 10.4821 68.6701 9.67021 68.6701Z" fill="#262626"/>
<path d="M9.67017 68.9389H8.98446C8.02447 68.9389 7.24005 68.1545 7.24005 67.1945V54.72C7.24005 53.76 8.02447 52.9756 8.98446 52.9756H9.67017C10.6302 52.9756 11.4147 53.76 11.4147 54.72V67.1945C11.4092 68.1545 10.6302 68.9389 9.67017 68.9389ZM8.97897 53.5132C8.3152 53.5132 7.77764 54.0508 7.77764 54.72V67.1945C7.77764 67.8583 8.3152 68.4013 8.97897 68.4013H9.66468C10.3285 68.4013 10.8716 67.8637 10.8716 67.1945V54.72C10.8716 54.0563 10.3339 53.5132 9.66468 53.5132H8.97897Z" fill="#262626"/>
<path d="M19.7639 68.67H18.9411C18.1292 68.67 17.4653 68.0117 17.4653 67.1943V46.6505C17.4653 45.8386 18.1237 45.1748 18.9411 45.1748H19.7639C20.5758 45.1748 21.2396 45.8331 21.2396 46.6505V67.1943C21.2396 68.0062 20.5813 68.67 19.7639 68.67Z" fill="#F3F3F3"/>
<path d="M19.7639 68.9388H18.9411C17.9811 68.9388 17.1965 68.1543 17.1965 67.1943V46.6505C17.1965 45.6905 17.9811 44.906 18.9411 44.906H19.7639C20.7239 44.906 21.5083 45.6905 21.5083 46.6505V67.1943C21.5083 68.1543 20.7294 68.9388 19.7639 68.9388ZM18.9411 45.4491C18.2773 45.4491 17.7341 45.9867 17.7341 46.6559V67.1998C17.7341 67.8636 18.2718 68.4067 18.9411 68.4067H19.7639C20.4277 68.4067 20.9708 67.8691 20.9708 67.1998V46.6559C20.9708 45.9922 20.4332 45.4491 19.7639 45.4491H18.9411Z" fill="#262626"/>
<path d="M27.7784 68.6703H27.1585C26.3467 68.6703 25.6829 68.012 25.6829 67.1946V60.2772C25.6829 59.4653 26.3412 58.8015 27.1585 58.8015H27.7784C28.5902 58.8015 29.254 59.4598 29.254 60.2772V67.1946C29.2485 68.0065 28.5902 68.6703 27.7784 68.6703Z" fill="#F3F3F3"/>
<path d="M27.7784 68.9391H27.1586C26.1986 68.9391 25.4141 68.1546 25.4141 67.1946V60.2772C25.4141 59.3172 26.1986 58.5327 27.1586 58.5327H27.7784C28.7384 58.5327 29.523 59.3172 29.523 60.2772V67.1946C29.523 68.1546 28.7384 68.9391 27.7784 68.9391ZM27.1586 59.0758C26.4948 59.0758 25.9518 59.6134 25.9518 60.2827V67.2001C25.9518 67.8639 26.4948 68.407 27.1586 68.407H27.7784C28.4422 68.407 28.9853 67.8694 28.9853 67.2001V60.2827C28.9853 59.6189 28.4477 59.0758 27.7784 59.0758H27.1586Z" fill="#262626"/>
<path d="M236.46 149.408C241.043 149.408 244.759 145.692 244.759 141.108C244.759 136.524 241.043 132.808 236.46 132.808C231.876 132.808 228.16 136.524 228.16 141.108C228.16 145.692 231.876 149.408 236.46 149.408Z" fill="#F3F3F3"/>
<path d="M236.46 149.677C231.736 149.677 227.891 145.831 227.891 141.108C227.891 136.385 231.736 132.54 236.46 132.54C241.183 132.54 245.028 136.385 245.028 141.108C245.028 145.831 241.188 149.677 236.46 149.677ZM236.46 133.083C232.033 133.083 228.434 136.681 228.434 141.108C228.434 145.535 232.033 149.134 236.46 149.134C240.887 149.134 244.485 145.535 244.485 141.108C244.491 136.681 240.887 133.083 236.46 133.083Z" fill="#262626"/>
<path d="M66.7543 163.572C69.2992 163.572 71.3622 161.509 71.3622 158.964C71.3622 156.419 69.2992 154.356 66.7543 154.356C64.2093 154.356 62.1463 156.419 62.1463 158.964C62.1463 161.509 64.2093 163.572 66.7543 163.572Z" fill="#F3F3F3"/>
<path d="M66.7544 163.841C64.0664 163.841 61.8777 161.652 61.8777 158.964C61.8777 156.276 64.0664 154.087 66.7544 154.087C69.4424 154.087 71.6311 156.276 71.6311 158.964C71.6311 161.652 69.4424 163.841 66.7544 163.841ZM66.7544 154.625C64.3626 154.625 62.4152 156.572 62.4152 158.964C62.4152 161.356 64.3626 163.303 66.7544 163.303C69.1461 163.303 71.0935 161.356 71.0935 158.964C71.0935 156.572 69.1461 154.625 66.7544 154.625Z" fill="#262626"/>
<path d="M240.941 150.033H231.983V155.036H240.941V150.033Z" fill="#1A1A1A"/>
</svg>
