<svg width="550" height="216" viewBox="0 0 550 216" fill="none" xmlns="http://www.w3.org/2000/svg">
<path d="M317.96 121H321.12V95.92H337.24V121H340.4V93H317.96V121ZM357.232 121.48C363.472 121.48 368.072 116.56 368.072 110.68V110.6C368.072 104.76 363.552 99.88 357.312 99.88C351.032 99.88 346.512 104.8 346.512 110.68V110.76C346.512 116.6 351.032 121.48 357.232 121.48ZM357.312 118.72C352.952 118.72 349.672 115.12 349.672 110.68V110.6C349.672 106.24 352.752 102.6 357.232 102.6C361.592 102.6 364.912 106.24 364.912 110.68V110.76C364.912 115.08 361.792 118.72 357.312 118.72ZM373.651 127.4H376.731V117.04C378.331 119.4 380.811 121.44 384.651 121.44C389.651 121.44 394.531 117.4 394.531 110.68V110.6C394.531 103.8 389.611 99.88 384.651 99.88C380.811 99.88 378.451 102.04 376.731 104.48V100.32H373.651V127.4ZM384.091 118.68C380.251 118.68 376.611 115.48 376.611 110.68V110.6C376.611 105.92 380.251 102.64 384.091 102.64C388.051 102.64 391.371 105.72 391.371 110.64V110.72C391.371 115.72 388.091 118.68 384.091 118.68ZM405.042 121H408.122V103.08H416.442V100.32H396.762V103.08H405.042V121ZM434.346 127.4V121.12C442.706 121 447.266 116.4 447.266 110.64V110.6C447.266 104.8 442.746 100.4 434.346 100.2V91.8H431.306V100.2C422.906 100.4 418.386 104.88 418.386 110.64V110.68C418.386 116.52 422.866 121 431.306 121.12V127.4H434.346ZM444.146 110.68C444.146 115.16 440.906 118.28 434.306 118.4V102.92C440.866 103.04 444.146 106.28 444.146 110.64V110.68ZM421.546 110.64C421.546 106.24 424.746 103.04 431.346 102.92V118.4C424.786 118.28 421.546 115.08 421.546 110.68V110.64ZM462.271 121.48C468.511 121.48 473.111 116.56 473.111 110.68V110.6C473.111 104.76 468.591 99.88 462.351 99.88C456.071 99.88 451.551 104.8 451.551 110.68V110.76C451.551 116.6 456.071 121.48 462.271 121.48ZM462.351 118.72C457.991 118.72 454.711 115.12 454.711 110.68V110.6C454.711 106.24 457.791 102.6 462.271 102.6C466.631 102.6 469.951 106.24 469.951 110.68V110.76C469.951 115.08 466.831 118.72 462.351 118.72ZM487.795 100.16H484.955L475.595 121H478.915L486.355 103.96L493.755 121H497.195L487.795 100.16ZM502.049 121H504.929L517.609 104.92V121H520.649V100.32H517.689L505.129 116.36V100.32H502.049V121ZM536.997 121.48C543.237 121.48 547.837 116.56 547.837 110.68V110.6C547.837 104.76 543.317 99.88 537.077 99.88C530.797 99.88 526.277 104.8 526.277 110.68V110.76C526.277 116.6 530.797 121.48 536.997 121.48ZM537.077 118.72C532.717 118.72 529.437 115.12 529.437 110.68V110.6C529.437 106.24 532.517 102.6 536.997 102.6C541.357 102.6 544.677 106.24 544.677 110.68V110.76C544.677 115.08 541.557 118.72 537.077 118.72Z" fill="#262626"/>
<path d="M192.718 175.355C189.157 176.128 185.751 178.103 183.244 181.263C180.331 175.569 174.834 166.923 165.454 160.911C168.164 159.172 175.52 155.48 182.86 160.67C190.09 165.788 192.257 173.375 192.718 175.355Z" fill="#FFC700"/>
<path d="M183.189 181.757L182.997 181.384C178.565 172.711 172.442 165.711 165.3 161.136L164.944 160.911L165.3 160.686C168.147 158.865 175.564 155.19 183.008 160.456C190.265 165.591 192.471 173.117 192.975 175.3L193.036 175.564L192.767 175.624C189.108 176.419 185.795 178.482 183.447 181.433L183.189 181.757ZM165.953 160.911C172.92 165.475 178.905 172.327 183.293 180.769C185.641 177.961 188.85 175.98 192.394 175.152C191.796 172.727 189.536 165.728 182.706 160.889C175.816 156.018 168.932 159.095 165.953 160.911Z" fill="#262626"/>
<path d="M209.411 197.084H43.6879C43.0461 196.201 42.5029 195.213 42.1135 194.122C38.471 184.044 49.1406 169.54 62.2734 167.242C72.0214 165.536 82.4224 170.67 88.5773 180.106C109.505 156.424 139.068 148.119 160.582 158.218C162.31 159.03 163.929 159.935 165.448 160.906C174.829 166.918 180.325 175.564 183.238 181.258C185.751 178.104 189.152 176.123 192.712 175.35C196.744 174.472 200.984 175.147 204.358 177.412C210.409 181.488 212.625 189.996 209.411 197.084Z" fill="#F3F3F3"/>
<path d="M209.581 197.353H43.5508L43.4686 197.243C42.7828 196.294 42.2397 195.273 41.8557 194.215C40.369 190.1 41.1261 185.109 43.9897 180.171C47.9668 173.309 54.9556 168.251 62.2241 166.978C67.057 166.134 72.1257 166.918 76.8873 169.255C81.5282 171.531 85.5711 175.125 88.6047 179.667C98.7642 168.256 111.096 160.154 124.278 156.237C130.68 154.334 137.049 153.505 143.204 153.78C149.468 154.06 155.349 155.469 160.692 157.976C162.382 158.772 164.027 159.682 165.591 160.681C172.711 165.245 178.822 172.184 183.288 180.769C185.696 177.889 189.009 175.882 192.657 175.092C196.848 174.181 201.166 174.949 204.506 177.198C207.491 179.206 209.663 182.349 210.617 186.058C211.572 189.766 211.232 193.721 209.652 197.199L209.581 197.353ZM43.8251 196.815H209.235C212.307 189.859 210.162 181.647 204.21 177.642C200.99 175.476 196.821 174.741 192.772 175.618C189.114 176.414 185.8 178.476 183.452 181.428L183.194 181.757L183.002 181.384C178.57 172.711 172.448 165.711 165.306 161.136C163.764 160.143 162.135 159.243 160.467 158.465C138.662 148.228 109.182 157.203 88.7802 180.292L88.5444 180.555L88.3523 180.259C82.1974 170.824 71.9776 165.821 62.3173 167.51C55.2024 168.756 48.3562 173.715 44.4559 180.446C41.6746 185.246 40.9287 190.073 42.3604 194.039C42.717 195.005 43.2052 195.937 43.8251 196.815Z" fill="#262626"/>
<path d="M209.411 215.598H6.05609C2.7153 215.598 0 211.385 0 206.206C0 201.028 2.7153 196.815 6.05609 196.815H209.411C212.751 196.815 215.467 201.028 215.467 206.206C215.467 211.385 212.751 215.598 209.411 215.598ZM6.05609 197.353C3.01702 197.353 0.543078 201.324 0.543078 206.206C0.543078 211.089 3.01702 215.06 6.05609 215.06H209.411C212.45 215.06 214.924 211.089 214.924 206.206C214.924 201.324 212.45 197.353 209.411 197.353H6.05609Z" fill="#1A1A1A"/>
<path d="M130.631 125.336C129.863 111.705 127.685 68.598 127.685 68.598C127.685 68.598 138.568 79.2567 148.87 103.383C155.234 118.276 154.888 136.983 140.807 150.104C136.517 147.482 136.517 147.482 136.517 147.482C136.517 147.482 140.165 130.52 130.631 125.336Z" fill="#FFC700"/>
<path d="M140.84 150.444L136.215 147.614L136.253 147.427C136.264 147.383 137.159 143.159 136.879 138.359C136.626 133.971 135.315 128.194 130.499 125.578L130.367 125.507L130.356 125.358C129.599 111.88 127.432 69.0478 127.41 68.6199L127.378 67.9342L127.871 68.4169C127.981 68.5212 138.908 79.3883 149.117 103.289C152.518 111.249 153.78 119.604 152.771 127.454C151.635 136.286 147.559 144.185 140.988 150.313L140.84 150.444ZM136.818 147.35L140.774 149.77C155.294 136.105 154.362 116.921 148.624 103.492C139.698 82.5865 130.23 71.7138 127.992 69.3111C128.277 74.9943 130.181 112.522 130.894 125.177C134.8 127.372 137.054 131.919 137.422 138.343C137.663 142.627 136.989 146.473 136.818 147.35Z" fill="#262626"/>
<path d="M135.244 98.3909C135.244 98.3909 135.782 120.131 132.951 127.054C129.226 124.569 129.226 124.25 129.226 124.25L135.244 98.3909Z" fill="#1A1A1A"/>
<path d="M78.9169 87.3647C78.9169 87.3647 69.7833 88.9007 69.3609 80.365C68.9385 71.8292 81.5007 75.0768 80.5956 68.845C79.685 62.6133 69.3499 59.4151 69.8216 53.4741C69.8216 53.4741 68.8507 45.8051 76.7007 43.1555C72.6029 40.5114 71.835 30.9499 77.7266 27.3677C83.6182 23.7856 90.6124 26.9398 92.5763 29.1616C96.1584 25.3216 102.171 22.1618 107.744 28.3058C113.312 34.4498 112.802 39.4856 108.194 42.9855C108.962 46.0575 108.309 48.7455 106.378 49.2337C104.442 49.7274 97.87 56.1566 97.87 56.1566L97.4751 76.0971L78.9169 87.3647Z" fill="#262626"/>
<path d="M77.3043 87.7431C75.7628 87.7431 73.4368 87.4579 71.6321 86.0096C70.0686 84.7534 69.2074 82.8554 69.0868 80.3759C68.8509 75.6033 72.4879 74.3635 75.697 73.2664C78.3905 72.3448 80.7164 71.5549 80.3269 68.8778C79.9045 65.9814 77.3207 63.7158 74.8193 61.5215C71.9832 59.031 69.3061 56.6832 69.542 53.474C69.4871 52.9529 68.9166 45.816 76.1193 43.0732C74.2871 41.603 73.1461 38.7285 73.19 35.5688C73.2394 31.8769 74.8357 28.7994 77.5731 27.1373C83.1959 23.7142 90.1354 26.3089 92.5655 28.7665C94.1673 27.1043 97.2119 24.5754 100.904 24.5754C100.926 24.5754 100.942 24.5754 100.964 24.5754C103.471 24.5919 105.813 25.7878 107.936 28.1247C110.904 31.3996 112.276 34.4826 112.018 37.2858C111.815 39.4691 110.63 41.422 108.49 43.0896C109.258 46.3701 108.425 48.9867 106.433 49.4914C104.925 49.8754 100.004 54.4395 98.1279 56.2662L97.7275 76.2451L97.6013 76.3219L79.0103 87.6115L78.961 87.6224C78.8897 87.6389 78.2424 87.7431 77.3043 87.7431ZM83.6128 26.0127C81.7312 26.0127 79.7454 26.4515 77.8584 27.5981C75.2801 29.167 73.777 32.0744 73.7331 35.5797C73.6892 38.7505 74.9399 41.7017 76.8435 42.9305L77.3153 43.2323L76.7832 43.4133C73.6179 44.4775 71.5333 46.4853 70.5734 49.3707C69.8547 51.5376 70.0797 53.4192 70.0797 53.4411L70.085 53.4686V53.496C69.8547 56.4473 72.4384 58.7184 75.1758 61.1211C77.7486 63.3812 80.4092 65.7126 80.859 68.8065C81.3143 71.9224 78.6702 72.8275 75.8725 73.7821C72.6963 74.8682 69.4104 75.9873 69.6298 80.3539C69.745 82.6744 70.535 84.4353 71.9722 85.5927C74.5176 87.6444 78.3466 87.1726 78.8238 87.1068L97.2009 75.9489L97.5959 56.0468L97.6726 55.97C97.9414 55.7067 104.316 49.4805 106.302 48.9813C108.019 48.5424 108.688 46.1068 107.925 43.0567L107.882 42.8867L108.024 42.7769C110.125 41.1806 111.288 39.321 111.48 37.2419C111.727 34.5923 110.399 31.652 107.536 28.4922C105.523 26.2705 103.312 25.135 100.959 25.1185C100.942 25.1185 100.92 25.1185 100.904 25.1185C97.2558 25.1185 94.2386 27.7626 92.7629 29.348L92.56 29.5674L92.3625 29.348C91.1885 28.0095 87.6338 26.0127 83.6128 26.0127Z" fill="#262626"/>
<path d="M83.1794 151.964C85.1433 150.17 85.1433 150.17 85.1433 150.17L127.553 149.49C127.553 149.49 150.401 160.796 153.473 187.1C153.857 197.084 153.857 197.084 153.857 197.084H80.5078V195.74C80.5133 195.74 69.6133 166.896 83.1794 151.964Z" fill="#F3F3F3"/>
<path d="M154.142 197.353H80.2446V195.789C80.0087 195.147 77.4689 188.109 76.4924 179.48C75.8945 174.181 75.9878 169.326 76.7777 165.053C77.7651 159.688 79.8551 155.223 82.9819 151.778L82.9984 151.761L85.039 149.902L127.619 149.216L127.679 149.243C127.734 149.271 133.5 152.162 139.561 158.234C145.151 163.846 152.156 173.397 153.753 187.062V187.084L154.142 197.353ZM80.7821 196.815H153.583L153.21 187.122C151.63 173.622 144.712 164.181 139.188 158.635C133.516 152.941 128.107 150.072 127.493 149.759L85.2476 150.439L83.3715 152.156C76.4431 159.792 76.0975 171.191 77.0245 179.415C78.0394 188.356 80.7384 195.575 80.7658 195.652L80.7821 195.696V196.815Z" fill="#262626"/>
<path d="M85.2695 149.49L84.7154 154.592C84.7154 154.592 86.1636 160.33 103.065 159.304C102.977 158.278 102.977 158.278 102.977 158.278C102.977 158.278 109.933 158.404 116.291 156.144C122.649 153.884 123.126 152.6 123.126 152.6L93.4596 151.75L85.2695 149.49Z" fill="#1A1A1A"/>
<path d="M86.8492 153.884C86.2458 152.222 66.086 98.3964 76.3716 87.447C86.6573 76.4976 108.545 65.7511 118.913 65.7511C129.281 65.7511 134.383 74.0509 135.233 90.2666C136.089 106.482 130.751 145.178 124.739 151.964C112.967 156.956 90.6508 158.147 86.8492 153.884Z" fill="#FFC700"/>
<path d="M99.1154 156.764C92.7465 156.764 88.1989 155.799 86.6519 154.065L86.6189 154.027L86.5367 153.807C83.1082 144.504 66.4865 97.5791 76.1797 87.2715C81.0235 82.1149 88.7968 76.6457 97.4971 72.2626C105.918 68.0222 113.927 65.4878 118.919 65.4878C124.125 65.4878 128.146 67.6053 130.872 71.7854C133.554 75.8941 135.068 81.9339 135.507 90.2557C135.924 98.2154 134.877 111.732 132.83 124.695C130.57 139.034 127.696 149.04 124.942 152.145L124.904 152.189L124.849 152.211C119.357 154.537 110.915 156.243 102.818 156.665C101.529 156.731 100.289 156.764 99.1154 156.764ZM87.0853 153.742C88.8297 155.623 94.8365 156.539 102.791 156.128C110.8 155.711 119.138 154.032 124.58 151.739C127.213 148.7 130.099 138.568 132.298 124.607C134.339 111.677 135.387 98.2044 134.97 90.2776C134.536 82.0546 133.05 76.0971 130.422 72.0761C127.762 68.0002 123.998 66.0199 118.919 66.0199C108.211 66.0199 86.4434 77.1284 76.5691 87.6335C72.4878 91.9727 72.8279 104.25 77.5456 123.126C80.9632 136.807 85.6754 149.923 87.0359 153.615L87.0853 153.742Z" fill="#262626"/>
<path d="M136.215 150.905C136.215 150.905 132.918 154.027 131.366 149.945C130.631 148.014 133.094 147.959 134.301 147.784C135.239 147.647 136.489 147.619 136.489 147.619C136.489 147.619 136.703 147.74 140.258 149.753C140.296 151.838 139.967 153.665 138.102 155.179C136.237 156.698 135.173 158.426 132.293 156.49C128.453 153.911 129.062 152.776 129.259 151.35C129.572 149.111 131.629 148.289 131.629 148.289" fill="#F3F3F3"/>
<path d="M134.575 157.625C133.895 157.625 133.11 157.368 132.139 156.715C128.497 154.268 128.711 153.012 128.93 151.684C128.952 151.564 128.968 151.443 128.99 151.317C129.32 148.953 131.437 148.08 131.525 148.047L131.58 148.185C132.183 147.779 133.105 147.669 133.823 147.581C133.977 147.565 134.12 147.543 134.251 147.526C135.195 147.389 136.423 147.356 136.473 147.356H136.55L140.521 149.605L140.527 149.759C140.565 151.706 140.313 153.736 138.272 155.398C137.998 155.618 137.746 155.848 137.499 156.067C136.577 156.879 135.732 157.625 134.575 157.625ZM130.998 148.969C130.422 149.391 129.698 150.159 129.528 151.388C129.512 151.52 129.49 151.646 129.468 151.772C129.265 152.974 129.089 154.016 132.441 156.27C134.723 157.801 135.732 156.901 137.137 155.656C137.389 155.431 137.647 155.201 137.932 154.97C139.649 153.571 140.011 151.931 139.989 149.913L136.418 147.888C136.138 147.899 135.118 147.932 134.333 148.047C134.202 148.069 134.054 148.086 133.895 148.102C133.072 148.201 131.936 148.344 131.602 148.903C131.459 149.139 131.464 149.446 131.613 149.847C132.024 150.933 132.594 151.564 133.308 151.728C134.602 152.025 136.007 150.719 136.023 150.702L136.391 151.092C136.325 151.152 134.767 152.611 133.187 152.249C132.287 152.041 131.585 151.295 131.102 150.033C130.96 149.644 130.921 149.282 130.998 148.969Z" fill="#262626"/>
<path d="M77.7597 86.0425C53.4361 100.508 60.3974 146.418 74.2213 148.552C88.0452 150.686 94.7049 138.058 99.4829 125.594C99.823 123.29 98.287 115.27 90.0091 113.564C81.9013 115.528 78.5386 127.756 78.5386 127.756" fill="#FFC700"/>
<path d="M77.2549 149.057C76.2565 149.057 75.2363 148.974 74.183 148.815C68.9167 148.003 64.402 141.069 62.3888 130.718C60.8089 122.577 61.127 113.537 63.2664 105.912C65.8118 96.8329 70.7763 89.8825 77.6279 85.8066L77.9022 86.2674C63.3706 94.9074 59.9531 115.309 62.9209 130.608C64.8573 140.576 69.3117 147.51 74.2652 148.278C75.2856 148.437 76.2784 148.514 77.2384 148.514C82.1317 148.514 86.3447 146.484 90.0421 142.359C94.2441 137.674 97.1515 130.904 99.2196 125.518C99.3677 124.431 99.099 121.952 97.744 119.472C96.603 117.399 94.3428 114.738 90.0146 113.828C82.1975 115.775 78.8348 127.69 78.8019 127.811L78.2808 127.668C78.2918 127.635 79.153 124.541 81.0017 121.25C83.4647 116.861 86.5587 114.107 89.9489 113.29L90.0091 113.273L90.0695 113.284C94.6336 114.228 97.0198 117.026 98.2212 119.209C99.6584 121.826 99.9273 124.475 99.7572 125.616L99.7407 125.671C97.6562 131.102 94.7214 137.948 90.4535 142.704C86.6355 146.967 82.2962 149.057 77.2549 149.057Z" fill="#262626"/>
<path d="M89.9871 114.135C89.9871 114.135 85.061 120.021 92.9933 124.821C100.931 129.621 98.9783 123.219 98.8795 122.802C98.7863 122.391 93.7942 113.592 89.9871 114.135Z" fill="#1A1A1A"/>
<path d="M98.5832 114.881C100.415 116.417 103.663 116.587 104.985 116.631C106.307 116.675 108.227 115.479 106.949 114.113C108.611 114.157 109.423 111.979 107.739 110.657C109.807 110.443 109.445 107.349 107.739 106.773C108.463 106.773 109.192 106.323 109.384 104.787C109.576 103.251 106.954 102.483 99.9766 103.125C100.295 100.503 97.6067 93.9748 94.7267 95.061C91.8467 96.1471 94.4689 100.947 95.1107 105.303C95.7525 109.658 91.397 116.373 91.3366 116.631C91.3366 116.631 90.0583 122.177 97.3982 122.945C99.8722 118.381 101.343 116.17 101.343 116.17" fill="#F3F3F3"/>
<path d="M97.541 123.235L97.36 123.219C94.7817 122.95 92.9494 122.072 91.9071 120.613C90.5851 118.759 91.0459 116.664 91.0678 116.576C91.0843 116.504 91.1172 116.444 91.3476 116.044C94.0191 111.37 95.1931 107.771 94.8366 105.352C94.65 104.09 94.2989 102.801 93.9588 101.545C93.1359 98.5279 92.3571 95.6753 94.6227 94.8196C95.3907 94.5288 96.2134 94.6989 96.9979 95.3188C98.8685 96.7889 100.339 100.645 100.256 102.84C105.32 102.395 108.266 102.686 109.264 103.712C109.566 104.025 109.692 104.403 109.637 104.831C109.478 106.093 108.973 106.658 108.469 106.894C109.165 107.464 109.489 108.446 109.401 109.263C109.319 110.02 108.907 110.569 108.282 110.81C108.99 111.584 109.033 112.478 108.809 113.114C108.578 113.751 108.068 114.195 107.437 114.343C107.662 114.749 107.695 115.171 107.514 115.566C107.119 116.433 105.89 116.938 104.969 116.91C103.636 116.867 102.456 116.724 101.447 116.488C101.074 117.07 99.6914 119.258 97.6178 123.087L97.541 123.235ZM91.5891 116.713C91.5562 116.888 91.2215 118.726 92.3515 120.301C93.2786 121.595 94.9188 122.385 97.2392 122.659C99.1263 119.182 100.432 117.08 100.909 116.334C99.8779 116.033 99.0441 115.621 98.4132 115.089L98.7588 114.678C99.9821 115.704 102.083 116.269 104.996 116.362C105.731 116.389 106.746 115.972 107.031 115.336C107.179 115.007 107.086 114.656 106.751 114.299L106.313 113.827L106.954 113.844C107.58 113.86 108.095 113.509 108.309 112.922C108.507 112.368 108.419 111.534 107.569 110.871L107.042 110.459L107.706 110.393C108.649 110.295 108.836 109.527 108.869 109.198C108.962 108.386 108.518 107.327 107.646 107.031L106.088 106.504H107.728C108.496 106.504 108.962 105.917 109.105 104.754C109.138 104.491 109.061 104.271 108.874 104.074C108.266 103.443 106.23 102.818 99.9876 103.388L99.653 103.421L99.6914 103.092C99.9273 101.15 98.4736 97.1565 96.6578 95.7302C96.0215 95.231 95.3961 95.0884 94.8036 95.3133C92.9988 95.9935 93.6791 98.5005 94.4691 101.397C94.8147 102.664 95.1712 103.975 95.3632 105.264C95.7362 107.81 94.5403 111.523 91.8084 116.307C91.7152 116.483 91.6165 116.658 91.5891 116.713Z" fill="#262626"/>
<path d="M101.529 57.2811C101.057 63.3812 104.162 68.7572 105.863 69.9092C107.207 70.0079 110.405 68.247 111.431 70.3809C105.967 90.0087 86.8548 81.3029 86.8548 81.3029C86.8548 81.3029 85.6151 80.1948 88.1769 78.7027C90.7388 77.2106 92.3131 68.247 88.3031 63.0027C89.9653 61.4228 89.7622 55.8329 87.6832 52.344C84.2601 51.768 81.8574 48.0542 84.8691 45.9751C87.8752 43.896 96.751 46.8309 95.0888 35.6072C101.321 35.7333 106.653 37.5272 106.565 46.5731C106.477 55.619 101.189 59.1627 92.6148 59.7168" fill="#F3F3F3"/>
<path d="M96.1475 83.4862C91.0733 83.4862 86.8 81.5772 86.7396 81.5498L86.7012 81.5333L86.6684 81.5059C86.6519 81.4895 86.2185 81.0945 86.2843 80.4527C86.3556 79.7724 86.9427 79.1032 88.0343 78.4668C88.934 77.9402 89.7568 76.3055 90.1737 74.199C90.8045 71.0118 90.5851 66.4367 88.0836 63.1618L87.9355 62.9698L88.1111 62.8052C89.5977 61.3954 89.5592 56.1236 87.5076 52.5854C85.4395 52.1904 83.6786 50.6873 83.2946 48.9703C83.0148 47.7141 83.5196 46.5731 84.7045 45.7502C85.5767 45.1468 86.8768 44.9438 88.2537 44.7354C91.8742 44.1758 95.9775 43.5395 94.8091 35.6456L94.7598 35.3329L95.0779 35.3384C98.8465 35.4152 101.474 36.1119 103.345 37.5326C105.726 39.3374 106.861 42.2997 106.823 46.5785C106.779 51.0494 105.512 54.3024 102.939 56.5351C102.577 56.8477 102.193 57.1385 101.781 57.4128C101.37 63.2441 104.228 68.4171 105.94 69.6513C106.291 69.6568 106.812 69.5307 107.36 69.4045C108.831 69.0534 110.844 68.5707 111.661 70.2712L111.705 70.3645L111.678 70.4632C110.076 76.2287 107.135 80.14 102.955 82.0874C100.728 83.1187 98.3583 83.4862 96.1475 83.4862ZM87.0084 81.078C87.6887 81.3743 95.8788 84.7918 102.741 81.5882C106.751 79.7176 109.577 75.9544 111.145 70.4084C110.487 69.207 108.902 69.5855 107.498 69.9201C106.845 70.0737 106.28 70.2109 105.846 70.178L105.775 70.1725L105.715 70.1341C103.959 68.9437 100.959 63.6994 101.238 57.7529C99.055 59.0201 96.2189 59.7552 92.6368 59.9856L92.6038 59.448C101.875 58.85 106.225 54.7577 106.307 46.5731C106.395 37.5272 100.898 36.046 95.4071 35.8869C96.4932 44.0112 91.9894 44.7134 88.3579 45.2729C87.0413 45.4759 85.8015 45.6679 85.0335 46.2C83.7554 47.0832 83.6786 48.1365 83.8432 48.8606C84.1833 50.3801 85.8565 51.7625 87.7436 52.0807L87.8642 52.1026L87.93 52.2069C89.9597 55.608 90.2999 61.1101 88.6706 63.0191C91.1501 66.4203 91.3641 71.0557 90.7223 74.3032C90.2724 76.5907 89.3727 78.3242 88.3249 78.9331C87.1675 79.6079 86.8822 80.1564 86.8438 80.4966C86.7945 80.7983 86.9426 81.0067 87.0084 81.078Z" fill="#262626"/>
<path d="M94.7433 59.5907C94.7433 59.5907 101.035 59.9088 101.359 58.9708C101.518 57.4074 101.518 57.4073 101.518 57.4073C99.7791 58.3783 97.4038 59.0531 94.7433 59.5907Z" fill="#1A1A1A"/>
<path d="M76.6733 119C76.6733 119 77.6498 125.556 78.5385 127.75C75.0716 129.176 74.1115 130.647 74.1115 130.647" fill="#FFC700"/>
<path d="M74.3419 130.795L73.8922 130.499C73.9306 130.438 74.8905 129.006 78.1984 127.602C77.3371 125.21 76.4484 119.297 76.41 119.039L76.9421 118.962C76.9531 119.028 77.9241 125.512 78.7908 127.652L78.8896 127.898L78.6427 128.003C75.3184 129.369 74.3474 130.784 74.3419 130.795Z" fill="#262626"/>
<path d="M81.1278 154.586C81.1278 154.586 85.8236 163.056 98.5394 163.056L81.1278 154.586Z" fill="#F3F3F3"/>
<path d="M98.5448 163.325C91.9017 163.325 87.4637 160.994 84.9074 159.035C82.1316 156.907 80.9468 154.806 80.8974 154.718L81.3691 154.455C81.3801 154.477 82.5596 156.561 85.2585 158.624C87.7435 160.522 92.0662 162.787 98.5448 162.787V163.325Z" fill="#262626"/>
<path d="M107.075 92.8778C106.987 92.8778 106.91 92.8119 106.899 92.7187C106.296 87.787 108.172 84.9509 111.579 79.8054C112.577 78.2968 113.707 76.5907 114.963 74.5556C116.653 71.8182 117.097 69.805 116.286 68.5816C115.018 66.6781 111.052 67.276 111.014 67.2815C110.915 67.298 110.822 67.2322 110.811 67.1334C110.794 67.0347 110.86 66.9414 110.959 66.9304C111.129 66.903 115.188 66.2886 116.587 68.3842C117.487 69.7336 117.048 71.8785 115.276 74.7476C114.02 76.7827 112.884 78.4943 111.886 80.0083C108.414 85.2472 106.674 87.8803 107.261 92.6803C107.272 92.779 107.201 92.8668 107.102 92.8778C107.092 92.8723 107.081 92.8778 107.075 92.8778Z" fill="#1A1A1A"/>
<path d="M101.529 95.1213C101.458 95.1213 101.392 95.0774 101.364 95.0061C101.342 94.9457 98.8794 89.0212 91.2543 89.4161C87.9574 89.5862 85.5657 88.8292 84.1449 87.167C82.1591 84.8466 82.8065 81.6429 82.8339 81.5113C82.8558 81.4125 82.949 81.3522 83.0478 81.3741C83.1465 81.3961 83.2069 81.4893 83.1849 81.5881C83.1794 81.621 82.5486 84.7588 84.4192 86.9421C85.7632 88.511 88.0617 89.2296 91.2379 89.0651C99.1263 88.6591 101.672 94.8195 101.699 94.8799C101.738 94.9731 101.688 95.0774 101.6 95.1103C101.573 95.1158 101.551 95.1213 101.529 95.1213Z" fill="#1A1A1A"/>
<path d="M214.392 148.686C219.086 142.307 214.179 130.727 203.434 122.822C192.689 114.917 180.174 113.68 175.481 120.06C170.788 126.439 175.694 138.018 186.439 145.923C197.184 153.829 209.699 155.065 214.392 148.686Z" fill="#1A1A1A"/>
<path d="M215.94 146.585C220.633 140.205 215.727 128.626 204.982 120.721C194.237 112.816 181.722 111.579 177.029 117.958C172.336 124.337 177.242 135.917 187.987 143.822C198.732 151.727 211.247 152.964 215.94 146.585Z" fill="#F3F3F3"/>
<path d="M206.24 150.872C200.678 150.872 193.925 148.524 187.77 143.993C182.536 140.142 178.504 135.309 176.414 130.378C174.308 125.402 174.429 120.92 176.754 117.755C179.08 114.59 183.326 113.142 188.702 113.674C194.029 114.2 199.844 116.609 205.082 120.46C210.316 124.311 214.348 129.143 216.438 134.075C218.544 139.051 218.424 143.532 216.098 146.698C214.035 149.501 210.48 150.872 206.24 150.872ZM186.585 114.102C182.388 114.102 179.097 115.479 177.188 118.073C174.977 121.079 174.878 125.375 176.908 130.169C178.96 135.008 182.931 139.764 188.088 143.56C198.697 151.36 211.067 152.628 215.664 146.379C217.875 143.373 217.974 139.078 215.944 134.284C213.893 129.445 209.921 124.689 204.764 120.893C199.608 117.097 193.886 114.722 188.653 114.206C187.94 114.135 187.254 114.102 186.585 114.102Z" fill="#262626"/>
<path d="M206.24 146.665C201.407 146.665 195.439 144.394 190.271 140.592C180.682 133.538 177.243 124.212 180.156 120.251C181.735 118.101 184.879 117.783 186.612 117.783C191.445 117.783 197.413 120.054 202.581 123.855C212.17 130.91 215.61 140.236 212.697 144.196C211.117 146.347 207.973 146.665 206.24 146.665Z" fill="#FFC700"/>
<path d="M206.24 146.939C201.352 146.939 195.323 144.652 190.112 140.812C185.636 137.52 182.147 133.461 180.282 129.374C178.537 125.556 178.411 122.171 179.941 120.092C181.593 117.849 184.835 117.514 186.618 117.514C191.505 117.514 197.534 119.801 202.745 123.641C207.222 126.933 210.711 130.992 212.576 135.079C214.32 138.897 214.446 142.282 212.916 144.361C211.265 146.599 208.023 146.939 206.24 146.939ZM186.612 118.057C184.928 118.057 181.883 118.364 180.369 120.416C178.981 122.303 179.13 125.567 180.77 129.155C182.597 133.154 186.031 137.142 190.43 140.378C195.554 144.147 201.467 146.402 206.24 146.402C207.924 146.402 210.969 146.094 212.483 144.043C213.87 142.156 213.722 138.892 212.082 135.304C210.255 131.305 206.821 127.317 202.422 124.08C197.298 120.306 191.385 118.057 186.612 118.057Z" fill="#262626"/>
<path d="M203.108 142.057C199.822 142.057 195.757 140.51 192.235 137.921C185.707 133.121 183.365 126.768 185.35 124.075C186.426 122.61 188.565 122.391 189.744 122.391C193.03 122.391 197.095 123.938 200.617 126.527C207.145 131.327 209.487 137.679 207.502 140.373C206.426 141.837 204.287 142.057 203.108 142.057Z" fill="#F3F3F3"/>
<path d="M203.108 142.326C199.761 142.326 195.642 140.762 192.076 138.14C185.422 133.247 183.074 126.713 185.131 123.921C186.278 122.363 188.516 122.127 189.744 122.127C193.091 122.127 197.21 123.691 200.776 126.313C207.43 131.206 209.778 137.739 207.721 140.532C206.575 142.095 204.336 142.326 203.108 142.326ZM189.744 122.665C188.614 122.665 186.574 122.868 185.564 124.239C183.661 126.828 185.992 133 192.394 137.707C195.866 140.263 199.871 141.788 203.108 141.788C204.238 141.788 206.278 141.585 207.288 140.214C209.197 137.624 206.86 131.453 200.458 126.746C196.98 124.19 192.975 122.665 189.744 122.665Z" fill="#262626"/>
<path d="M199.596 136.889C198.039 136.889 196.108 136.154 194.44 134.931C191.346 132.654 190.232 129.643 191.176 128.365C191.686 127.673 192.701 127.569 193.26 127.569C194.818 127.569 196.749 128.304 198.417 129.527C201.511 131.804 202.625 134.816 201.681 136.094C201.165 136.785 200.151 136.889 199.596 136.889Z" fill="#FFC700"/>
<path d="M199.591 137.158C197.978 137.158 195.987 136.407 194.276 135.145C191.006 132.737 189.914 129.61 190.951 128.205C191.533 127.415 192.641 127.3 193.255 127.3C194.868 127.3 196.859 128.052 198.571 129.314C200.041 130.394 201.187 131.733 201.802 133.077C202.394 134.371 202.427 135.529 201.895 136.258C201.314 137.037 200.206 137.158 199.591 137.158ZM193.255 127.832C192.745 127.832 191.829 127.92 191.39 128.518C190.529 129.692 191.714 132.588 194.599 134.706C196.223 135.902 198.088 136.615 199.597 136.615C200.107 136.615 201.023 136.527 201.462 135.929C201.868 135.375 201.813 134.388 201.314 133.291C200.738 132.029 199.651 130.767 198.253 129.736C196.629 128.546 194.764 127.832 193.255 127.832Z" fill="#262626"/>
<path d="M196.426 132.226L216.432 110.541V106.191L220.206 101.391L220.782 105.55L225.39 105.868L219.822 111.754L217.069 111.562L197.803 132.748C197.803 132.748 196.579 134.969 196.426 132.226Z" fill="#F3F3F3"/>
<path d="M196.942 133.867C196.903 133.867 196.865 133.861 196.826 133.856C196.42 133.762 196.212 133.269 196.157 132.243L196.152 132.128L196.229 132.045L216.163 110.437V106.098L220.387 100.728L221.018 105.297L225.977 105.643L219.932 112.039L217.184 111.847L198.028 132.912C197.874 133.175 197.435 133.867 196.942 133.867ZM196.7 132.325C196.766 133.23 196.947 133.329 196.947 133.329C197.046 133.329 197.348 133.016 197.567 132.621L197.605 132.572L216.959 111.293L219.713 111.485L224.803 106.104L220.546 105.807L220.025 102.061L216.701 106.29V110.657L196.7 132.325Z" fill="#262626"/>
<path d="M28.7998 154.493C28.745 154.493 28.6901 154.466 28.6572 154.422C28.4871 154.191 24.4715 148.766 25.1188 145.667C25.2669 144.948 25.6565 144.399 26.2763 144.048C27.922 143.11 30.7691 142.792 33.4297 144.202C36.5785 145.87 38.5204 149.457 38.8989 154.307C38.9044 154.405 38.8331 154.493 38.7343 154.499C38.6356 154.504 38.5477 154.433 38.5423 154.334C38.1747 149.611 36.2987 146.127 33.2651 144.52C30.7252 143.176 28.0153 143.472 26.4574 144.361C25.9253 144.668 25.6016 145.118 25.47 145.743C24.8556 148.689 28.9039 154.159 28.9423 154.213C29.0026 154.29 28.9863 154.405 28.904 154.466C28.8766 154.482 28.8382 154.493 28.7998 154.493Z" fill="#1A1A1A"/>
<path d="M31.0379 152.485L38.9757 197.084H63.8094L47.4237 152.672L31.0379 152.485Z" fill="#F3F3F3"/>
<path d="M64.1989 197.353H38.7508L38.7124 197.128L30.7198 152.206L47.6156 152.398L64.1989 197.353ZM39.2007 196.815H63.4199L47.2317 152.941L31.3561 152.76L39.2007 196.815Z" fill="#262626"/>
<path d="M23.5719 196.969L27.4557 152.485H31.0378L38.9756 197.084L23.5719 196.969Z" fill="#F3F3F3"/>
<path d="M39.2994 197.358L23.2812 197.237L23.3086 196.947L27.2089 152.216H31.2684L31.3067 152.436L39.2994 197.358ZM23.8681 196.7L38.6521 196.809L30.813 152.748H27.7027L23.8681 196.7Z" fill="#262626"/>
<path d="M26.3258 152.705L21.7342 197.215L23.7749 196.941L27.4557 152.485L26.3258 152.705Z" fill="#1A1A1A"/>
<path d="M33.6655 153.983C33.5997 153.983 33.5338 153.944 33.5064 153.884C33.3364 153.539 29.3318 145.31 31.6358 140.559C32.3983 138.985 33.7807 137.976 35.7391 137.564C37.522 137.186 39.0525 137.537 40.2813 138.607C44.5546 142.315 43.8579 153.352 43.825 153.818C43.8195 153.917 43.7317 153.994 43.633 153.983C43.5342 153.977 43.4575 153.89 43.4685 153.791C43.474 153.676 44.1816 142.468 40.0454 138.875C38.9044 137.888 37.478 137.564 35.8104 137.915C33.9672 138.305 32.6672 139.248 31.954 140.713C29.7214 145.305 33.7807 153.637 33.8191 153.72C33.863 153.807 33.8247 153.917 33.7369 153.961C33.7204 153.977 33.6929 153.983 33.6655 153.983Z" fill="#1A1A1A"/>
<path d="M12.2658 170.89L13.2258 197.084H20.2036L19.8635 170.89H12.2658Z" fill="#F3F3F3"/>
<path d="M20.4779 197.353H12.968L11.9861 170.621H20.1269L20.4779 197.353ZM13.4837 196.815H19.9293L19.5948 171.158H12.5456L13.4837 196.815Z" fill="#262626"/>
<path d="M14.6578 172.947C14.5645 172.947 14.4877 172.881 14.4822 172.788C14.4548 172.519 13.802 166.205 15.4751 164.23C15.7933 163.857 16.1772 163.654 16.6161 163.627C17.1207 163.599 17.5542 163.769 17.8998 164.142C19.3919 165.761 18.7116 170.703 18.6842 170.912C18.6677 171.01 18.58 171.076 18.4813 171.065C18.3825 171.049 18.3167 170.961 18.3277 170.862C18.3331 170.813 19.0134 165.876 17.6365 164.384C17.3677 164.087 17.0385 163.961 16.638 163.983C16.2979 164.005 16.0072 164.159 15.7494 164.46C14.175 166.32 14.8332 172.684 14.8387 172.749C14.8497 172.848 14.7783 172.936 14.6796 172.947C14.6686 172.947 14.6632 172.947 14.6578 172.947Z" fill="#1A1A1A"/>
<path d="M199.054 99.6195H177.665C175.449 99.6195 173.649 97.8202 173.649 95.604V61.3568C173.649 59.1406 175.449 57.3413 177.665 57.3413H199.054C201.27 57.3413 203.069 59.1406 203.069 61.3568V95.604C203.069 97.8257 201.27 99.6195 199.054 99.6195Z" fill="#F3F3F3"/>
<path d="M199.054 99.8939H177.665C175.301 99.8939 173.381 97.9684 173.381 95.6096V61.3624C173.381 58.9981 175.306 57.0781 177.665 57.0781H199.054C201.418 57.0781 203.338 59.0036 203.338 61.3624V95.6096C203.338 97.9684 201.418 99.8939 199.054 99.8939ZM177.665 57.6102C175.597 57.6102 173.918 59.2889 173.918 61.357V95.6041C173.918 97.6722 175.597 99.3508 177.665 99.3508H199.054C201.122 99.3508 202.8 97.6722 202.8 95.6041V61.357C202.8 59.2889 201.122 57.6102 199.054 57.6102H177.665Z" fill="#262626"/>
<path d="M208.588 66.3981H185.734C184.917 66.3981 184.253 65.7343 184.253 64.9169C184.253 64.0996 184.917 63.4358 185.734 63.4358H208.588C209.405 63.4358 210.069 64.0996 210.069 64.9169C210.069 65.7343 209.405 66.3981 208.588 66.3981Z" fill="#F3F3F3"/>
<path d="M208.588 66.667H185.734C184.769 66.667 183.984 65.8825 183.984 64.917C183.984 63.9516 184.769 63.1671 185.734 63.1671H208.588C209.553 63.1671 210.338 63.9516 210.338 64.917C210.338 65.8825 209.553 66.667 208.588 66.667ZM185.734 63.7102C185.065 63.7102 184.522 64.2533 184.522 64.9225C184.522 65.5918 185.065 66.1349 185.734 66.1349H208.588C209.257 66.1349 209.8 65.5918 209.8 64.9225C209.8 64.2533 209.257 63.7102 208.588 63.7102H185.734Z" fill="#262626"/>
<path d="M208.588 74.912H185.734C184.917 74.912 184.253 74.2482 184.253 73.4308C184.253 72.6135 184.917 71.9497 185.734 71.9497H208.588C209.405 71.9497 210.069 72.6135 210.069 73.4308C210.069 74.2482 209.405 74.912 208.588 74.912Z" fill="#F3F3F3"/>
<path d="M208.588 75.1807H185.734C184.769 75.1807 183.984 74.3962 183.984 73.4307C183.984 72.4652 184.769 71.6808 185.734 71.6808H208.588C209.553 71.6808 210.338 72.4652 210.338 73.4307C210.338 74.3962 209.553 75.1807 208.588 75.1807ZM185.734 72.2184C185.065 72.2184 184.522 72.7615 184.522 73.4307C184.522 74.1 185.065 74.6431 185.734 74.6431H208.588C209.257 74.6431 209.8 74.1 209.8 73.4307C209.8 72.7615 209.257 72.2184 208.588 72.2184H185.734Z" fill="#262626"/>
<path d="M208.588 84.0785H185.734C184.917 84.0785 184.253 83.4147 184.253 82.5973C184.253 81.78 184.917 81.1162 185.734 81.1162H208.588C209.405 81.1162 210.069 81.78 210.069 82.5973C210.069 83.4147 209.405 84.0785 208.588 84.0785Z" fill="#F3F3F3"/>
<path d="M208.588 84.3473H185.734C184.769 84.3473 183.984 83.5628 183.984 82.5973C183.984 81.6319 184.769 80.8474 185.734 80.8474H208.588C209.553 80.8474 210.338 81.6319 210.338 82.5973C210.338 83.5628 209.553 84.3473 208.588 84.3473ZM185.734 81.385C185.065 81.385 184.522 81.9281 184.522 82.5973C184.522 83.2666 185.065 83.8097 185.734 83.8097H208.588C209.257 83.8097 209.8 83.2666 209.8 82.5973C209.8 81.9281 209.257 81.385 208.588 81.385H185.734Z" fill="#262626"/>
<path d="M208.588 92.8558H185.734C184.917 92.8558 184.253 92.1921 184.253 91.3747C184.253 90.5573 184.917 89.8936 185.734 89.8936H208.588C209.405 89.8936 210.069 90.5573 210.069 91.3747C210.069 92.1921 209.405 92.8558 208.588 92.8558Z" fill="#F3F3F3"/>
<path d="M208.588 93.1246H185.734C184.769 93.1246 183.984 92.3402 183.984 91.3747C183.984 90.4092 184.769 89.6248 185.734 89.6248H208.588C209.553 89.6248 210.338 90.4092 210.338 91.3747C210.338 92.3402 209.553 93.1246 208.588 93.1246ZM185.734 90.1678C185.065 90.1678 184.522 90.7109 184.522 91.3802C184.522 92.0494 185.065 92.5925 185.734 92.5925H208.588C209.257 92.5925 209.8 92.0494 209.8 91.3802C209.8 90.7109 209.257 90.1678 208.588 90.1678H185.734Z" fill="#262626"/>
<path d="M177.363 65.3394L178.899 66.6724C179.02 66.7766 179.179 66.8205 179.333 66.7985C179.486 66.7766 179.629 66.6833 179.711 66.5462L181.368 63.8527C181.521 63.6004 181.444 63.2658 181.192 63.1122C180.94 62.9586 180.605 63.0354 180.452 63.2877L179.129 65.4381L178.071 64.522C177.846 64.3245 177.506 64.3519 177.308 64.5768C177.111 64.8072 177.138 65.1474 177.363 65.3394Z" fill="#F3F3F3"/>
<path d="M179.25 67.0729C179.058 67.0729 178.872 67.0016 178.724 66.8754L177.188 65.5424C176.853 65.2517 176.815 64.7415 177.105 64.4014C177.396 64.0668 177.912 64.0284 178.246 64.3191L179.064 65.0268L180.221 63.1452C180.457 62.7667 180.956 62.646 181.335 62.8819C181.713 63.1178 181.834 63.6169 181.598 63.9955L179.941 66.6889C179.815 66.8919 179.612 67.029 179.376 67.062C179.333 67.0674 179.294 67.0729 179.25 67.0729ZM177.714 64.6647C177.637 64.6647 177.561 64.6976 177.511 64.758C177.412 64.8732 177.429 65.0432 177.539 65.1365L179.075 66.4695C179.135 66.5189 179.212 66.5463 179.294 66.5298C179.371 66.5189 179.442 66.4695 179.481 66.4037L181.137 63.7102C181.214 63.584 181.176 63.4195 181.049 63.3372C180.923 63.2604 180.759 63.2988 180.676 63.4249L179.184 65.8441L177.884 64.7196C177.84 64.6867 177.78 64.6647 177.714 64.6647Z" fill="#262626"/>
<path d="M177.363 73.8532L178.899 75.1862C179.02 75.2904 179.179 75.3343 179.333 75.3123C179.486 75.2904 179.629 75.1971 179.711 75.06L181.368 72.3665C181.521 72.1142 181.444 71.7796 181.192 71.626C180.94 71.4724 180.605 71.5492 180.452 71.8015L179.129 73.9519L178.071 73.0358C177.846 72.8383 177.506 72.8657 177.308 73.0906C177.111 73.321 177.138 73.6612 177.363 73.8532Z" fill="#F3F3F3"/>
<path d="M179.25 75.5866C179.058 75.5866 178.872 75.5152 178.724 75.3891L177.188 74.0561C176.853 73.7653 176.815 73.2551 177.105 72.915C177.396 72.5804 177.906 72.542 178.246 72.8327L179.064 73.5404L180.221 71.6588C180.336 71.4723 180.512 71.3461 180.72 71.2968C180.929 71.2474 181.148 71.2803 181.329 71.3955C181.708 71.6314 181.828 72.1306 181.593 72.5091L179.936 75.2026C179.81 75.4055 179.607 75.5427 179.371 75.5756C179.333 75.5811 179.294 75.5866 179.25 75.5866ZM177.714 73.1783C177.637 73.1783 177.561 73.2113 177.511 73.2716C177.462 73.3265 177.44 73.3978 177.445 73.4691C177.451 73.5404 177.484 73.6062 177.539 73.6556L179.075 74.9886C179.135 75.038 179.212 75.0654 179.294 75.049C179.371 75.038 179.442 74.9886 179.481 74.9228L181.137 72.2293C181.214 72.1031 181.176 71.9386 181.049 71.8563C180.989 71.8179 180.918 71.8069 180.847 71.8234C180.775 71.8398 180.715 71.8837 180.682 71.9441L179.19 74.3633L177.89 73.2387C177.84 73.2003 177.78 73.1783 177.714 73.1783Z" fill="#262626"/>
<path d="M177.363 83.02L178.899 84.353C179.02 84.4573 179.179 84.5012 179.333 84.4792C179.486 84.4573 179.629 84.364 179.711 84.2269L181.368 81.5334C181.521 81.2811 181.444 80.9464 181.192 80.7928C180.94 80.6392 180.605 80.716 180.452 80.9684L179.129 83.1188L178.071 82.2027C177.846 82.0052 177.506 82.0326 177.308 82.2575C177.111 82.4824 177.138 82.828 177.363 83.02Z" fill="#F3F3F3"/>
<path d="M179.25 84.7534C179.058 84.7534 178.872 84.6821 178.724 84.5559L177.188 83.2229C176.853 82.9322 176.815 82.422 177.105 82.0819C177.396 81.7473 177.906 81.7089 178.246 81.9996L179.064 82.7073L180.221 80.8257C180.336 80.6392 180.512 80.513 180.72 80.4636C180.929 80.4143 181.148 80.4472 181.329 80.5624C181.708 80.7983 181.828 81.2975 181.593 81.676L179.936 84.3694C179.81 84.5724 179.607 84.7095 179.371 84.7425C179.333 84.7479 179.294 84.7534 179.25 84.7534ZM177.714 82.3452C177.637 82.3452 177.561 82.3781 177.511 82.4385C177.462 82.4933 177.44 82.5646 177.445 82.636C177.451 82.7073 177.484 82.7731 177.539 82.8225L179.075 84.1555C179.135 84.2049 179.212 84.2323 179.294 84.2158C179.371 84.2049 179.442 84.1555 179.481 84.0897L181.137 81.3962C181.214 81.27 181.176 81.1055 181.049 81.0232C180.989 80.9848 180.918 80.9738 180.847 80.9903C180.775 81.0067 180.715 81.0506 180.682 81.1109L179.19 83.5301L177.89 82.4056C177.84 82.3617 177.78 82.3452 177.714 82.3452Z" fill="#262626"/>
<path d="M177.363 91.7969L178.899 93.1299C179.02 93.2341 179.179 93.278 179.333 93.2561C179.486 93.2341 179.629 93.1409 179.711 93.0037L181.368 90.3103C181.521 90.0579 181.444 89.7233 181.192 89.5697C180.94 89.4161 180.605 89.4929 180.452 89.7452L179.129 91.8956L178.071 90.9795C177.846 90.782 177.506 90.8094 177.308 91.0344C177.111 91.2648 177.138 91.6049 177.363 91.7969Z" fill="#F3F3F3"/>
<path d="M179.25 93.5305C179.058 93.5305 178.872 93.4592 178.724 93.333L177.188 92C176.853 91.7093 176.815 91.1991 177.105 90.859C177.396 90.5244 177.906 90.486 178.246 90.7767L179.064 91.4844L180.221 89.6028C180.336 89.4163 180.512 89.2901 180.72 89.2407C180.929 89.1914 181.148 89.2243 181.329 89.3395C181.708 89.5754 181.828 90.0746 181.593 90.4531L179.936 93.1465C179.81 93.3495 179.607 93.4867 179.371 93.5196C179.333 93.5251 179.294 93.5305 179.25 93.5305ZM177.714 91.1223C177.637 91.1223 177.561 91.1552 177.511 91.2156C177.462 91.2704 177.44 91.3417 177.445 91.4131C177.451 91.4844 177.484 91.5502 177.539 91.5996L179.075 92.9326C179.135 92.982 179.212 93.0094 179.294 92.9929C179.371 92.982 179.442 92.9326 179.481 92.8668L181.137 90.1733C181.214 90.0471 181.176 89.8825 181.049 89.8003C180.989 89.7619 180.918 89.7509 180.847 89.7674C180.775 89.7838 180.715 89.8277 180.682 89.888L179.19 92.3072L177.89 91.1827C177.84 91.1443 177.78 91.1223 177.714 91.1223Z" fill="#262626"/>
<path d="M41.3949 117.454H2.75366V122.265H41.3949V117.454Z" fill="#F3F3F3"/>
<path d="M41.6583 122.533H2.4794V117.185H41.6583V122.533ZM3.02248 121.996H41.1262V117.722H3.02248V121.996Z" fill="#262626"/>
<path d="M16.1608 104.787H7.647V116.943H16.1608V104.787Z" fill="#1A1A1A"/>
<path d="M28.3499 117.415C29.9647 117.415 31.2737 116.106 31.2737 114.491C31.2737 112.876 29.9647 111.567 28.3499 111.567C26.7351 111.567 25.426 112.876 25.426 114.491C25.426 116.106 26.7351 117.415 28.3499 117.415Z" fill="#F3F3F3"/>
<path d="M28.35 117.684C26.5891 117.684 25.1573 116.252 25.1573 114.491C25.1573 112.73 26.5891 111.299 28.35 111.299C30.1109 111.299 31.5427 112.73 31.5427 114.491C31.5427 116.252 30.1109 117.684 28.35 117.684ZM28.35 111.836C26.8853 111.836 25.6949 113.027 25.6949 114.491C25.6949 115.956 26.8853 117.146 28.35 117.146C29.8147 117.146 31.005 115.956 31.005 114.491C31.005 113.027 29.8147 111.836 28.35 111.836Z" fill="#262626"/>
<path d="M32.5301 50.5939L30.292 51.5264C29.9684 51.6636 29.7269 51.9489 29.6556 52.2944L29.151 54.6698C28.9645 55.5365 27.8674 55.8217 27.2859 55.1415L25.7114 53.2983C25.481 53.0295 25.1355 52.8924 24.7844 52.9308L22.3706 53.1831C21.4874 53.2764 20.8786 52.3164 21.3449 51.5594L22.6121 49.4913C22.7986 49.1895 22.8205 48.8165 22.6778 48.4929L21.6904 46.2766C21.3283 45.4648 22.0524 44.5925 22.9192 44.7955L25.2781 45.3605C25.6237 45.4428 25.9802 45.3496 26.2435 45.1137L28.0484 43.4899C28.7066 42.8975 29.7654 43.3144 29.8367 44.2031L30.0287 46.6223C30.0562 46.9733 30.2536 47.2915 30.5608 47.467L32.6618 48.6794C33.4243 49.1182 33.353 50.2538 32.5301 50.5939Z" fill="#F3F3F3"/>
<path d="M28.0977 55.7835C27.7137 55.7835 27.3407 55.6189 27.0828 55.3117L25.5085 53.4685C25.3385 53.2655 25.0751 53.1668 24.8118 53.1942L22.398 53.4466C21.8879 53.5014 21.3996 53.2655 21.1253 52.8267C20.851 52.3933 20.8457 51.8502 21.1145 51.4114L22.3816 49.3433C22.5187 49.1184 22.5352 48.8386 22.431 48.5972L21.4435 46.381C21.2351 45.9092 21.3064 45.3716 21.6356 44.9767C21.9647 44.5817 22.4804 44.4116 22.9796 44.5268L25.3384 45.0919C25.5963 45.1522 25.865 45.0864 26.0624 44.9054L27.8673 43.2816C28.2513 42.936 28.7834 42.8427 29.2606 43.0347C29.7379 43.2267 30.0616 43.6601 30.1 44.1758L30.292 46.595C30.314 46.8583 30.4621 47.0941 30.6925 47.2258L32.7934 48.4381C33.2377 48.696 33.4957 49.1732 33.4628 49.6889C33.4298 50.2045 33.1117 50.6434 32.6399 50.8409L30.4017 51.7734C30.1603 51.8722 29.9792 52.0916 29.9244 52.3494L29.4197 54.7247C29.3155 55.2294 28.937 55.6189 28.4378 55.7451C28.3171 55.7725 28.2075 55.7835 28.0977 55.7835ZM24.8941 52.6511C25.2835 52.6511 25.6566 52.8212 25.9145 53.1229L27.4888 54.9661C27.6917 55.202 27.9934 55.3007 28.2952 55.2239C28.5969 55.1471 28.8163 54.9167 28.8822 54.615L29.3868 52.2397C29.4801 51.8064 29.7763 51.4498 30.1822 51.2797L32.4204 50.3472C32.7111 50.2265 32.8923 49.9687 32.9142 49.656C32.9361 49.3433 32.7824 49.0635 32.5136 48.9099L30.4127 47.6976C30.0287 47.4781 29.7819 47.0832 29.7435 46.6443L29.5514 44.2251C29.524 43.9124 29.3375 43.6601 29.0468 43.5449C28.756 43.4297 28.4433 43.4846 28.2129 43.693L26.4081 45.3168C26.079 45.613 25.6292 45.7282 25.1958 45.624L22.8369 45.059C22.5352 44.9876 22.2335 45.0864 22.0305 45.3278C21.8331 45.5691 21.7892 45.8818 21.9154 46.1671L22.9028 48.3833C23.0838 48.7892 23.0508 49.25 22.8204 49.6285L21.5532 51.6966C21.3887 51.9654 21.3941 52.2781 21.5587 52.5469C21.7233 52.8102 22.0086 52.9474 22.3213 52.9145L24.7349 52.6621C24.8008 52.6566 24.8447 52.6511 24.8941 52.6511Z" fill="#262626"/>
<path d="M53.8969 27.2087L51.6642 26.2651C51.3405 26.128 50.9675 26.1609 50.6712 26.3474L48.6251 27.653C47.879 28.1303 46.9026 27.5433 46.9794 26.6601L47.1878 24.2409C47.2152 23.8898 47.0726 23.5442 46.7983 23.3193L44.9223 21.7778C44.2365 21.2128 44.4944 20.1047 45.3611 19.9072L47.7255 19.3586C48.0711 19.2764 48.3508 19.035 48.4825 18.7058L49.3712 16.4457C49.6949 15.6174 50.8304 15.5241 51.2857 16.2812L52.5418 18.3602C52.7228 18.662 53.041 18.854 53.3976 18.8759L55.8169 19.0185C56.7056 19.0734 57.1444 20.1211 56.5629 20.7904L54.9776 22.6226C54.7472 22.8914 54.6593 23.2535 54.7526 23.5936L55.3615 25.9415C55.5755 26.8137 54.7198 27.5543 53.8969 27.2087Z" fill="#F3F3F3"/>
<path d="M48.0491 28.0972C47.8077 28.0972 47.5718 28.0314 47.3524 27.8997C46.9135 27.6309 46.6667 27.1482 46.7106 26.638L46.919 24.2188C46.9409 23.9555 46.8313 23.6977 46.6284 23.5276L44.7522 21.9862C44.3572 21.657 44.1817 21.1468 44.2969 20.6422C44.4121 20.1375 44.796 19.759 45.3007 19.6383L47.6651 19.0897C47.9229 19.0294 48.1314 18.8483 48.2301 18.6015L49.1187 16.3414C49.3053 15.8641 49.7441 15.5405 50.2543 15.4966C50.7645 15.4527 51.2527 15.6996 51.5161 16.1384L52.7723 18.2175C52.9094 18.4424 53.1453 18.5905 53.4141 18.6015L55.8332 18.7441C56.3489 18.777 56.7878 19.0897 56.9908 19.5615C57.1882 20.0332 57.106 20.5708 56.7659 20.9603L55.1805 22.7926C55.0049 22.99 54.9445 23.2643 55.0104 23.5222L55.6193 25.87C55.751 26.3692 55.5864 26.8849 55.1969 27.225C54.8074 27.5596 54.2698 27.6474 53.798 27.4444L51.5655 26.5009C51.3241 26.3966 51.0443 26.4241 50.8194 26.5667L48.7732 27.8723C48.5483 28.0259 48.2959 28.0972 48.0491 28.0972ZM50.3695 16.0397C50.3476 16.0397 50.3202 16.0397 50.2982 16.0452C49.9856 16.0726 49.7332 16.2591 49.618 16.5498L48.7293 18.8099C48.5702 19.2214 48.2136 19.5286 47.7858 19.6273L45.4214 20.1759C45.1197 20.2472 44.8949 20.4721 44.8235 20.7738C44.7522 21.0755 44.8565 21.3772 45.0978 21.5747L46.9739 23.1162C47.314 23.396 47.495 23.8294 47.4566 24.2682L47.2482 26.6874C47.2207 27.0001 47.3633 27.2798 47.6321 27.4444C47.9009 27.6035 48.2191 27.6035 48.4825 27.4334L50.5286 26.1279C50.9016 25.892 51.3679 25.8481 51.7739 26.0236L54.0066 26.9672C54.2973 27.0878 54.61 27.0385 54.8459 26.8355C55.0818 26.6325 55.175 26.3308 55.0982 26.0236L54.4893 23.6757C54.3795 23.2479 54.4838 22.7926 54.7745 22.4579L56.36 20.6257C56.5629 20.3898 56.6123 20.0771 56.4916 19.7864C56.3709 19.4957 56.1131 19.3146 55.8004 19.2982L53.3756 19.1555C52.9368 19.1281 52.5364 18.8867 52.306 18.5082L51.0497 16.4292C50.9016 16.1823 50.6493 16.0397 50.3695 16.0397Z" fill="#262626"/>
<path d="M94.3319 11.7223L92.0991 10.7788C91.7755 10.6416 91.4024 10.6746 91.1062 10.8611L89.06 12.1667C88.314 12.6439 87.3375 12.057 87.4143 11.1738L87.6229 8.75457C87.6503 8.40349 87.5076 8.05789 87.2333 7.83297L85.3572 6.2915C84.6715 5.72647 84.9294 4.61836 85.7961 4.42088L88.1605 3.87231C88.5061 3.79002 88.7858 3.54865 88.9174 3.21951L89.8062 0.959407C90.1298 0.131069 91.2653 0.0378103 91.7207 0.794835L92.9769 2.87391C93.1579 3.17562 93.476 3.36762 93.8326 3.38957L96.2518 3.5322C97.1405 3.58705 97.5793 4.63482 96.9978 5.30407L95.4125 7.13629C95.1821 7.40509 95.0943 7.76715 95.1875 8.10726L95.7965 10.4551C96.0104 11.3219 95.1492 12.0679 94.3319 11.7223Z" fill="#F3F3F3"/>
<path d="M88.4785 12.6056C88.2372 12.6056 88.0013 12.5398 87.7818 12.4081C87.343 12.1393 87.0962 11.6566 87.1401 11.1464L87.3486 8.72725C87.3705 8.46394 87.2608 8.20611 87.0578 8.03606L85.1816 6.49458C84.7867 6.16543 84.6112 5.65527 84.7264 5.15058C84.8416 4.65139 85.2255 4.26739 85.7302 4.1467L88.0946 3.59813C88.3524 3.53779 88.5609 3.35676 88.6596 3.10991L89.5483 0.849804C89.7349 0.372549 90.1736 0.048897 90.6838 0.00501147C91.194 -0.038874 91.6822 0.207981 91.9455 0.646836L93.2018 2.72591C93.3389 2.95083 93.5748 3.09894 93.8436 3.10991L96.2628 3.25254C96.7785 3.28545 97.2173 3.59813 97.4202 4.0699C97.6177 4.54167 97.5355 5.07927 97.2009 5.46876L95.6154 7.30097C95.4399 7.49846 95.3796 7.77274 95.4455 8.03057L96.0543 10.3784C96.186 10.8776 96.0214 11.3933 95.6319 11.7334C95.2424 12.068 94.7048 12.1558 94.233 11.9528L92.0004 11.0093C91.7591 10.9051 91.4792 10.9325 91.2543 11.0751L89.2082 12.3807C88.9833 12.5343 88.7309 12.6056 88.4785 12.6056ZM90.8045 0.548093C90.7825 0.548093 90.7552 0.548094 90.7332 0.55358C90.4205 0.581009 90.1682 0.767521 90.053 1.05826L89.1642 3.31836C89.0052 3.72979 88.6486 4.03699 88.2207 4.13573L85.8564 4.6843C85.5546 4.75562 85.3298 4.98053 85.2585 5.28224C85.1872 5.58395 85.2914 5.88566 85.5328 6.08315L87.4089 7.62463C87.749 7.9044 87.9301 8.33777 87.8917 8.77662L87.6831 11.1958C87.6557 11.5085 87.7983 11.7883 88.0671 11.9528C88.3359 12.1119 88.6541 12.1119 88.9174 11.9419L90.9636 10.6363C91.3366 10.4004 91.8029 10.3565 92.2088 10.532L94.4415 11.4756C94.7323 11.5963 95.045 11.5469 95.2809 11.3439C95.5168 11.141 95.61 10.8392 95.5332 10.532L94.9242 8.18417C94.8145 7.75629 94.9187 7.30097 95.2095 6.96635L96.7949 5.13413C96.9979 4.89824 97.0473 4.58556 96.9266 4.29482C96.8059 4.00408 96.5481 3.82305 96.2354 3.80659L93.8161 3.66396C93.3772 3.63654 92.9768 3.39517 92.7464 3.01665L91.4902 0.937577C91.3366 0.690721 91.0842 0.548093 90.8045 0.548093Z" fill="#262626"/>
<path d="M126.988 20.324L125.94 18.1352C125.787 17.8171 125.491 17.5921 125.14 17.5373L122.742 17.1588C121.865 17.0216 121.525 15.9355 122.172 15.3211L123.933 13.6479C124.191 13.4066 124.306 13.05 124.251 12.7044L123.872 10.3071C123.735 9.42944 124.662 8.77116 125.441 9.19904L127.575 10.3565C127.888 10.5266 128.261 10.5266 128.574 10.3675L130.735 9.26487C131.525 8.85893 132.436 9.53915 132.276 10.4169L131.838 12.8031C131.772 13.1487 131.887 13.5053 132.134 13.7576L133.851 15.4747C134.482 16.1055 134.114 17.1807 133.236 17.2959L130.834 17.6141C130.483 17.658 130.181 17.8774 130.022 18.1901L128.919 20.3514C128.508 21.1414 127.372 21.1249 126.988 20.324Z" fill="#F3F3F3"/>
<path d="M127.959 21.2017C127.954 21.2017 127.948 21.2017 127.943 21.2017C127.427 21.1962 126.972 20.9055 126.747 20.4392L125.699 18.2504C125.584 18.0145 125.359 17.8445 125.101 17.8061L122.704 17.4276C122.194 17.3453 121.788 16.9942 121.634 16.5005C121.481 16.0068 121.618 15.4856 121.991 15.1291L123.752 13.4559C123.944 13.2749 124.031 13.0116 123.993 12.7483L123.614 10.351C123.532 9.84085 123.746 9.34165 124.163 9.04543C124.585 8.7492 125.123 8.71629 125.578 8.96314L127.712 10.1206C127.943 10.2468 128.222 10.2523 128.458 10.1316L130.62 9.02897C131.08 8.79309 131.618 8.84246 132.03 9.14966C132.441 9.45686 132.638 9.96154 132.545 10.4662L132.106 12.8525C132.057 13.1103 132.139 13.3791 132.326 13.5656L134.043 15.2827C134.405 15.6447 134.531 16.1768 134.366 16.6596C134.202 17.1478 133.779 17.4934 133.275 17.5592L130.872 17.8774C130.609 17.9103 130.384 18.0749 130.263 18.3108L129.161 20.4721C128.919 20.9219 128.464 21.2017 127.959 21.2017ZM124.931 9.33617C124.772 9.33617 124.613 9.38554 124.47 9.48428C124.218 9.66531 124.092 9.95605 124.141 10.2633L124.52 12.6605C124.591 13.0939 124.437 13.5382 124.119 13.8454L122.358 15.5185C122.133 15.7325 122.051 16.0397 122.144 16.3414C122.238 16.6376 122.479 16.8461 122.786 16.8954L125.183 17.274C125.622 17.3453 125.995 17.6196 126.182 18.02L127.23 20.2088C127.367 20.4886 127.63 20.6586 127.943 20.6641C127.948 20.6641 127.948 20.6641 127.954 20.6641C128.261 20.6641 128.53 20.4995 128.667 20.2253L129.769 18.0639C129.972 17.6689 130.351 17.4001 130.79 17.3453L133.192 17.0271C133.5 16.9887 133.747 16.7857 133.845 16.4895C133.944 16.1933 133.873 15.8861 133.653 15.6667L131.936 13.9496C131.623 13.6369 131.486 13.1926 131.563 12.7592L132.002 10.373C132.057 10.0658 131.942 9.76954 131.695 9.58303C131.442 9.39651 131.13 9.36908 130.85 9.51171L128.689 10.6143C128.294 10.8173 127.827 10.8118 127.438 10.5979L125.304 9.4404C125.189 9.36908 125.063 9.33617 124.931 9.33617Z" fill="#262626"/>
<path d="M155.338 47.1215L154.779 44.7626C154.696 44.417 154.455 44.1373 154.126 44.0111L151.866 43.1334C151.037 42.8097 150.939 41.6797 151.696 41.2189L153.769 39.9572C154.071 39.7761 154.263 39.4525 154.285 39.1014L154.422 36.6767C154.472 35.7881 155.519 35.3437 156.194 35.9252L158.032 37.5051C158.3 37.7355 158.663 37.8178 159.003 37.73L161.351 37.1101C162.212 36.8852 162.958 37.741 162.612 38.5583L161.674 40.7965C161.537 41.1201 161.57 41.4932 161.762 41.7894L163.073 43.8301C163.556 44.5761 162.969 45.5526 162.086 45.4813L159.666 45.2838C159.315 45.2564 158.97 45.399 158.75 45.6733L157.214 47.5549C156.649 48.2406 155.541 47.9882 155.338 47.1215Z" fill="#F3F3F3"/>
<path d="M156.386 48.2187C156.287 48.2187 156.183 48.2078 156.079 48.1858C155.579 48.0706 155.19 47.6866 155.075 47.1874L154.515 44.8286C154.455 44.5707 154.268 44.3623 154.027 44.2635L151.767 43.3858C151.29 43.1993 150.961 42.766 150.917 42.2558C150.873 41.7456 151.114 41.2574 151.558 40.9941L153.632 39.7324C153.857 39.5952 154 39.3539 154.016 39.0905L154.153 36.6659C154.181 36.1502 154.493 35.7059 154.971 35.5084C155.442 35.3054 155.98 35.3877 156.369 35.7278L158.207 37.3077C158.41 37.4777 158.679 37.5436 158.937 37.4777L161.285 36.8579C161.784 36.7262 162.3 36.8853 162.64 37.2748C162.98 37.6643 163.062 38.1964 162.865 38.6736L161.926 40.9118C161.822 41.1532 161.85 41.4329 161.992 41.6578L163.303 43.6985C163.583 44.1319 163.589 44.675 163.325 45.1138C163.062 45.5527 162.574 45.805 162.064 45.7611L159.644 45.5637C159.381 45.5417 159.123 45.6514 158.959 45.8544L157.423 47.736C157.159 48.0432 156.781 48.2187 156.386 48.2187ZM155.492 35.9308C155.388 35.9308 155.278 35.9527 155.174 35.9966C154.888 36.1173 154.702 36.3806 154.685 36.6878L154.548 39.1125C154.521 39.5513 154.285 39.9518 153.906 40.1822L151.833 41.4439C151.564 41.6085 151.421 41.8882 151.449 42.2009C151.476 42.5136 151.668 42.766 151.959 42.8812L154.219 43.7589C154.63 43.918 154.938 44.269 155.036 44.7024L155.596 47.0612C155.667 47.363 155.892 47.5879 156.199 47.6592C156.501 47.7305 156.803 47.6263 157 47.3849L158.536 45.5033C158.816 45.1632 159.244 44.9767 159.683 45.0151L162.102 45.2126C162.415 45.24 162.694 45.0919 162.854 44.8231C163.013 44.5543 163.007 44.2361 162.843 43.9728L161.532 41.9321C161.29 41.5591 161.252 41.0983 161.422 40.6869L162.36 38.4487C162.481 38.158 162.431 37.8453 162.223 37.6094C162.02 37.3735 161.713 37.2803 161.411 37.3626L159.063 37.9824C158.635 38.0976 158.18 37.9879 157.845 37.7027L156.007 36.1228C155.859 35.9966 155.678 35.9308 155.492 35.9308Z" fill="#262626"/>
<path d="M168.301 190.517C168.471 190.089 158.871 178.75 164.011 173.281C169.151 167.817 173.249 188.553 172.393 191.795C168.301 190.517 168.301 190.517 168.301 190.517Z" fill="#F3F3F3"/>
<path d="M172.585 192.141L167.944 190.687L168.021 190.495C167.939 190.325 167.637 189.875 167.324 189.409C165.179 186.211 159.485 177.708 163.819 173.1C165.026 171.817 166.107 172.009 166.803 172.393C169.129 173.682 170.736 178.926 171.482 181.943C172.514 186.09 173.03 190.452 172.657 191.867L172.585 192.141ZM168.52 190.303L172.19 191.45C172.629 188.312 170.084 174.828 166.54 172.864C165.761 172.431 164.998 172.628 164.208 173.468C160.166 177.763 165.69 186.008 167.769 189.108C168.213 189.777 168.433 190.106 168.52 190.303Z" fill="#262626"/>
<path d="M177.007 191.033C177.007 190.523 167.28 163.127 177.604 161.334C187.929 159.54 179.075 191.801 179.075 191.801L177.007 191.033Z" fill="#F3F3F3"/>
<path d="M179.256 192.152L176.738 191.214V191.044C176.716 190.951 176.595 190.545 176.453 190.078C172.3 176.573 171.483 167.626 174.017 163.5C174.845 162.151 176.036 161.333 177.561 161.07C178.987 160.823 180.15 161.18 181.017 162.134C185.937 167.554 179.607 190.879 179.338 191.872L179.256 192.152ZM177.237 190.83L178.888 191.444C179.607 188.724 185.054 167.39 180.611 162.496C179.865 161.679 178.894 161.383 177.648 161.602C176.283 161.838 175.213 162.573 174.467 163.786C172.783 166.528 171.85 173.292 176.963 189.925C177.116 190.419 177.199 190.682 177.237 190.83Z" fill="#262626"/>
<path d="M181.444 191.285C181.444 191.285 181.082 174.181 190.836 176.529C200.59 178.877 186.14 191.796 186.14 191.796L181.444 191.285Z" fill="#F3F3F3"/>
<path d="M186.228 192.081L181.181 191.532L181.176 191.296C181.165 190.874 181.006 180.895 185.471 177.302C186.952 176.112 188.779 175.766 190.896 176.276C192.86 176.748 194.029 177.686 194.374 179.058C195.543 183.693 186.694 191.669 186.316 192.009L186.228 192.081ZM181.713 191.044L186.047 191.516C186.98 190.665 194.884 183.265 193.853 179.178C193.562 178.015 192.52 177.215 190.77 176.792C188.823 176.32 187.15 176.633 185.806 177.714C181.916 180.846 181.713 189.502 181.713 191.044Z" fill="#262626"/>
<path d="M190.831 190.435C190.831 190.435 200.299 175.415 203.546 178.575C206.788 181.735 195.954 190.435 195.954 190.435H190.831Z" fill="#F3F3F3"/>
<path d="M196.047 190.704H190.348L190.606 190.292C190.913 189.804 198.17 178.361 202.197 177.884C202.806 177.813 203.321 177.977 203.733 178.378C204.221 178.855 204.451 179.464 204.419 180.199C204.232 184.088 196.453 190.38 196.119 190.644L196.047 190.704ZM191.324 190.166H195.855C196.656 189.514 203.716 183.633 203.881 180.177C203.908 179.601 203.738 179.14 203.36 178.767C203.064 178.482 202.707 178.367 202.263 178.421C198.895 178.816 192.685 188.082 191.324 190.166Z" fill="#262626"/>
<path d="M200.875 189.327H164.011V197.089H200.875V189.327Z" fill="#F3F3F3"/>
<path d="M201.149 197.353H163.742V189.053H201.149V197.353ZM164.28 196.815H200.606V189.596H164.28V196.815Z" fill="#262626"/>
<path d="M200.875 189.239H164.011V190.858H200.875V189.239Z" fill="#1A1A1A"/>
</svg>
