<svg width="725" height="182" viewBox="0 0 725 182" fill="none" xmlns="http://www.w3.org/2000/svg">
<path d="M316.96 74H320.12V48.92H336.24V74H339.4V46H316.96V74ZM346.792 80.4H349.872V70.04C351.472 72.4 353.952 74.44 357.792 74.44C362.792 74.44 367.672 70.4 367.672 63.68V63.6C367.672 56.8 362.752 52.88 357.792 52.88C353.952 52.88 351.592 55.04 349.872 57.48V53.32H346.792V80.4ZM357.232 71.68C353.392 71.68 349.752 68.48 349.752 63.68V63.6C349.752 58.92 353.392 55.64 357.232 55.64C361.192 55.64 364.512 58.72 364.512 63.64V63.72C364.512 68.72 361.232 71.68 357.232 71.68ZM382.794 74.48C389.034 74.48 393.634 69.56 393.634 63.68V63.6C393.634 57.76 389.114 52.88 382.874 52.88C376.594 52.88 372.074 57.8 372.074 63.68V63.76C372.074 69.6 376.594 74.48 382.794 74.48ZM382.874 71.72C378.514 71.72 375.234 68.12 375.234 63.68V63.6C375.234 59.24 378.314 55.6 382.794 55.6C387.154 55.6 390.474 59.24 390.474 63.68V63.76C390.474 68.08 387.354 71.72 382.874 71.72ZM413.853 80.4V74.12C422.213 74 426.773 69.4 426.773 63.64V63.6C426.773 57.8 422.253 53.4 413.853 53.2V44.8H410.813V53.2C402.413 53.4 397.893 57.88 397.893 63.64V63.68C397.893 69.52 402.373 74 410.813 74.12V80.4H413.853ZM423.653 63.68C423.653 68.16 420.413 71.28 413.813 71.4V55.92C420.373 56.04 423.653 59.28 423.653 63.64V63.68ZM401.053 63.64C401.053 59.24 404.253 56.04 410.853 55.92V71.4C404.293 71.28 401.053 68.08 401.053 63.68V63.64ZM441.378 74.48C445.338 74.48 447.818 72.96 449.898 70.6L447.978 68.88C446.258 70.64 444.338 71.8 441.458 71.8C437.778 71.8 434.618 69.28 434.178 64.8H450.578C450.618 64.44 450.618 64.24 450.618 63.8C450.618 57.76 447.098 52.88 440.978 52.88C435.218 52.88 431.058 57.68 431.058 63.64V63.72C431.058 70.12 435.738 74.48 441.378 74.48ZM434.178 62.52C434.618 58.52 437.258 55.48 440.898 55.48C445.058 55.48 447.178 58.8 447.498 62.52H434.178ZM465.33 74.48C469.21 74.48 471.69 72.84 473.77 70.48L471.81 68.64C470.17 70.4 468.17 71.72 465.49 71.72C461.17 71.72 457.89 68.16 457.89 63.68V63.6C457.89 59.12 461.09 55.6 465.29 55.6C468.13 55.6 469.93 57 471.57 58.72L473.61 56.56C471.65 54.48 469.25 52.88 465.33 52.88C459.25 52.88 454.73 57.8 454.73 63.68V63.76C454.73 69.56 459.25 74.48 465.33 74.48ZM487.596 74.48C491.476 74.48 493.956 72.84 496.036 70.48L494.076 68.64C492.436 70.4 490.436 71.72 487.756 71.72C483.436 71.72 480.156 68.16 480.156 63.68V63.6C480.156 59.12 483.356 55.6 487.556 55.6C490.396 55.6 492.196 57 493.836 58.72L495.876 56.56C493.916 54.48 491.516 52.88 487.596 52.88C481.516 52.88 476.996 57.8 476.996 63.68V63.76C476.996 69.56 481.516 74.48 487.596 74.48ZM501.128 74H504.008L516.688 57.92V74H519.727V53.32H516.768L504.208 69.36V53.32H501.128V74ZM536.075 74.48C542.315 74.48 546.915 69.56 546.915 63.68V63.6C546.915 57.76 542.395 52.88 536.155 52.88C529.875 52.88 525.355 57.8 525.355 63.68V63.76C525.355 69.6 529.875 74.48 536.075 74.48ZM536.155 71.72C531.795 71.72 528.515 68.12 528.515 63.68V63.6C528.515 59.24 531.595 55.6 536.075 55.6C540.435 55.6 543.755 59.24 543.755 63.68V63.76C543.755 68.08 540.635 71.72 536.155 71.72ZM552.495 74H555.575V64.96H567.935V74H570.975V53.32H567.935V62.16H555.575V53.32H552.495V74ZM584.045 74.44C587.725 74.44 590.085 72.76 591.525 70.88V74H594.485V61.36C594.485 58.76 593.765 56.72 592.365 55.32C590.845 53.8 588.605 53.04 585.685 53.04C582.645 53.04 580.445 53.68 578.165 54.76L579.085 57.28C581.005 56.36 582.925 55.76 585.365 55.76C589.245 55.76 591.525 57.68 591.525 61.4V62.12C589.645 61.6 587.845 61.24 585.165 61.24C579.925 61.24 576.325 63.6 576.325 67.92V68C576.325 72.28 580.205 74.44 584.045 74.44ZM584.645 72C581.885 72 579.445 70.48 579.445 67.88V67.8C579.445 65.2 581.605 63.52 585.485 63.52C588.045 63.52 590.005 63.96 591.565 64.4V66.4C591.565 69.68 588.485 72 584.645 72ZM611.209 53.16H608.369L599.009 74H602.329L609.769 56.96L617.169 74H620.609L611.209 53.16ZM625.463 74H634.743C640.023 74 642.983 71.28 642.983 67.24V67.16C642.983 63 639.943 60.44 634.863 60.44H628.543V53.32H625.463V74ZM628.543 71.36V63.04H634.743C638.223 63 639.863 64.72 639.863 67.16V67.2C639.863 69.8 638.223 71.36 634.703 71.36H628.543ZM648.042 74H651.122V64.96H663.482V74H666.522V53.32H663.482V62.16H651.122V53.32H648.042V74ZM676.512 53.32H673.432V74H682.712C687.992 74 690.952 71.28 690.952 67.24V67.16C690.952 63 687.912 60.44 682.832 60.44H676.512V53.32ZM676.512 63.04H682.712C686.192 63 687.832 64.72 687.832 67.16V67.2C687.832 69.8 686.192 71.36 682.672 71.36H676.512V63.04ZM694.752 74H697.832V53.32H694.752V74ZM713.761 74.48C717.721 74.48 720.201 72.96 722.281 70.6L720.361 68.88C718.641 70.64 716.721 71.8 713.841 71.8C710.161 71.8 707.001 69.28 706.561 64.8H722.961C723.001 64.44 723.001 64.24 723.001 63.8C723.001 57.76 719.481 52.88 713.361 52.88C707.601 52.88 703.441 57.68 703.441 63.64V63.72C703.441 70.12 708.121 74.48 713.761 74.48ZM706.561 62.52C707.001 58.52 709.641 55.48 713.281 55.48C717.441 55.48 719.561 58.8 719.881 62.52H706.561ZM316.44 134H319.32L332 117.92V134H335.04V113.32H332.08L319.52 129.36V113.32H316.44V134ZM341.948 134H345.028V124.96H357.388V134H360.428V113.32H357.388V122.16H345.028V113.32H341.948V134ZM376.658 134.48C380.538 134.48 383.018 132.84 385.098 130.48L383.138 128.64C381.498 130.4 379.498 131.72 376.818 131.72C372.498 131.72 369.218 128.16 369.218 123.68V123.6C369.218 119.12 372.418 115.6 376.618 115.6C379.458 115.6 381.258 117 382.898 118.72L384.938 116.56C382.978 114.48 380.578 112.88 376.658 112.88C370.578 112.88 366.058 117.8 366.058 123.68V123.76C366.058 129.56 370.578 134.48 376.658 134.48ZM395.604 134H398.684V116.08H407.004V113.32H387.324V116.08H395.604V134ZM411.557 140.4H414.637V130.04C416.237 132.4 418.717 134.44 422.557 134.44C427.557 134.44 432.437 130.4 432.437 123.68V123.6C432.437 116.8 427.517 112.88 422.557 112.88C418.717 112.88 416.357 115.04 414.637 117.48V113.32H411.557V140.4ZM421.997 131.68C418.157 131.68 414.517 128.48 414.517 123.68V123.6C414.517 118.92 418.157 115.64 421.997 115.64C425.957 115.64 429.277 118.72 429.277 123.64V123.72C429.277 128.72 425.997 131.68 421.997 131.68ZM445.944 130.56L438.424 113.32H435.024L444.424 133.92C443.184 136.84 442.064 137.8 440.184 137.8C438.864 137.8 437.944 137.56 436.944 137.04L435.904 139.48C437.304 140.16 438.584 140.52 440.304 140.52C443.384 140.52 445.424 138.96 447.184 134.68L455.864 113.32H452.584L445.944 130.56ZM463.817 113.32H460.737V134H463.817V124.92H467.657L475.537 134H479.377L470.057 123.44L479.137 113.32H475.297L467.577 122.2H463.817V113.32ZM489.393 134H492.473V116.08H500.793V113.32H481.113V116.08H489.393V134ZM513.497 134.48C519.737 134.48 524.337 129.56 524.337 123.68V123.6C524.337 117.76 519.817 112.88 513.577 112.88C507.297 112.88 502.777 117.8 502.777 123.68V123.76C502.777 129.6 507.297 134.48 513.497 134.48ZM513.577 131.72C509.217 131.72 505.937 128.12 505.937 123.68V123.6C505.937 119.24 509.017 115.6 513.497 115.6C517.857 115.6 521.177 119.24 521.177 123.68V123.76C521.177 128.08 518.057 131.72 513.577 131.72ZM529.917 140.4H532.997V130.04C534.597 132.4 537.077 134.44 540.917 134.44C545.917 134.44 550.797 130.4 550.797 123.68V123.6C550.797 116.8 545.877 112.88 540.917 112.88C537.077 112.88 534.717 115.04 532.997 117.48V113.32H529.917V140.4ZM540.357 131.68C536.517 131.68 532.877 128.48 532.877 123.68V123.6C532.877 118.92 536.517 115.64 540.357 115.64C544.317 115.64 547.637 118.72 547.637 123.64V123.72C547.637 128.72 544.357 131.68 540.357 131.68ZM562.639 134.44C566.319 134.44 568.679 132.76 570.119 130.88V134H573.079V121.36C573.079 118.76 572.359 116.72 570.959 115.32C569.439 113.8 567.199 113.04 564.279 113.04C561.239 113.04 559.039 113.68 556.759 114.76L557.679 117.28C559.599 116.36 561.519 115.76 563.959 115.76C567.839 115.76 570.119 117.68 570.119 121.4V122.12C568.239 121.6 566.439 121.24 563.759 121.24C558.519 121.24 554.919 123.6 554.919 127.92V128C554.919 132.28 558.799 134.44 562.639 134.44ZM563.239 132C560.479 132 558.039 130.48 558.039 127.88V127.8C558.039 125.2 560.199 123.52 564.079 123.52C566.639 123.52 568.599 123.96 570.159 124.4V126.4C570.159 129.68 567.079 132 563.239 132Z" fill="#262626"/>
<path d="M55.3999 162.759H21.2625C21.2076 162.759 21.1582 162.737 21.1253 162.699C18.6677 159.835 17.0385 156.434 16.4186 152.858C15.7987 149.276 16.2376 145.765 17.6803 142.709C21.7342 134.13 32.8702 130.372 42.5744 134.272C42.9035 133.46 44.2695 130.536 47.0726 129.895C50.2434 129.165 54.407 131.617 55.5645 136.428C55.57 136.444 55.57 136.455 55.57 136.472V162.584C55.5809 162.677 55.4987 162.759 55.3999 162.759ZM21.3502 162.403H55.2244V136.488C54.1108 131.897 50.1611 129.554 47.1659 130.24C44.2694 130.904 42.9913 134.19 42.8541 134.563C42.8377 134.607 42.8048 134.645 42.7554 134.667C42.7115 134.689 42.6621 134.689 42.6128 134.667C33.0457 130.723 22.0085 134.398 18.0094 142.857C15.124 148.974 16.4351 156.637 21.3502 162.403Z" fill="#1A1A1A"/>
<path d="M218.797 131.968H201.901V162.562H218.797V131.968Z" fill="#F3F3F3"/>
<path d="M219.071 162.83H201.637V131.699H219.071V162.83ZM202.169 162.293H218.528V132.237H202.169V162.293Z" fill="#262626"/>
<path d="M203.865 127.102H186.969V162.562H203.865V127.102Z" fill="#F3F3F3"/>
<path d="M204.133 162.831H186.7V126.833H204.133V162.831ZM187.237 162.293H203.596V127.377H187.237V162.293Z" fill="#262626"/>
<path d="M189.656 99.1965H172.76V162.562H189.656V99.1965Z" fill="#F3F3F3"/>
<path d="M189.925 162.831H172.492V98.9277H189.925V162.831ZM173.03 162.293H189.388V99.4653H173.03V162.293Z" fill="#262626"/>
<path d="M134.613 52.0911L147.159 76.4146L124.75 76.3707C124.75 76.3707 121.558 62.5852 121.684 62.2012C121.815 61.8227 134.613 52.0911 134.613 52.0911Z" fill="#F3F3F3"/>
<path d="M147.603 76.6832L124.542 76.6393L124.492 76.4309C123.028 70.1114 121.305 62.4917 121.431 62.1187C121.475 61.9871 121.535 61.8005 128.036 56.7921C131.218 54.34 134.421 51.9044 134.454 51.8769L134.712 51.6849L147.603 76.6832ZM124.964 76.1017L146.715 76.1401L134.52 52.4968C129.676 56.1832 122.633 61.5976 121.952 62.2943C122.029 63.2104 123.763 70.8903 124.964 76.1017Z" fill="#262626"/>
<path d="M218.84 181.339H15.486C12.1452 181.339 9.42981 177.126 9.42981 171.948C9.42981 166.769 12.1452 162.556 15.486 162.556H218.84C222.181 162.556 224.897 166.769 224.897 171.948C224.891 177.126 222.176 181.339 218.84 181.339ZM15.486 163.094C12.4469 163.094 9.97289 167.065 9.97289 171.948C9.97289 176.83 12.4469 180.802 15.486 180.802H218.84C221.88 180.802 224.354 176.83 224.354 171.948C224.354 167.065 221.88 163.094 218.84 163.094H15.486Z" fill="#1A1A1A"/>
<path d="M73.936 55.9966C70.2771 52.8094 65.5594 49.2328 65.6691 43.9007C65.9763 39.7809 68.0389 39.1007 71.1548 37.5044C73.3162 35.0907 70.2716 32.3314 68.7301 30.4717C67.0405 28.1787 66.6401 25.189 66.5852 22.3419C66.3164 18.3099 67.7811 13.9214 72.3287 13.6087C73.4204 11.9904 71.2426 10.5971 74.512 6.78451C77.606 3.2243 84.2766 -0.313969 88.4676 3.12556C88.4676 3.12556 93.52 -2.31624 99.4061 1.77608C105.292 5.87389 105.638 12.358 109.478 12.1879C113.318 12.0179 115.364 16.0279 112.978 18.7598C110.586 21.4916 108.54 21.4039 108.37 23.1977C108.2 24.9915 103.674 24.4759 102.484 23.5378C101.288 22.5998 90.415 50.5877 89.8336 50.6755C89.2576 50.7688 73.936 55.9966 73.936 55.9966Z" fill="#262626"/>
<path d="M73.8757 56.3039L73.7605 56.1997C73.4643 55.9419 73.1625 55.6841 72.8608 55.4207C69.3171 52.3762 65.2961 48.9257 65.4003 43.8898C65.6965 39.9401 67.622 38.9747 70.288 37.6361C70.5129 37.5209 70.7488 37.4058 70.9902 37.2796C72.6579 35.3596 70.7324 33.1598 69.1799 31.388C68.9495 31.1246 68.7301 30.8723 68.5271 30.6364C66.662 28.102 66.3658 24.871 66.3219 22.342C66.0586 18.4417 67.441 13.757 72.1806 13.351C72.4604 12.8683 72.422 12.391 72.3781 11.7986C72.2958 10.6575 72.1806 9.0996 74.3145 6.61458C77.5566 2.8898 84.2107 -0.445496 88.4567 2.7746C89.4221 1.85849 94.1782 -2.18446 99.5706 1.56775C102.445 3.57003 104.025 6.13733 105.292 8.19995C106.653 10.4107 107.635 12.0125 109.472 11.9302C111.414 11.8424 113.098 12.7915 113.872 14.3988C114.59 15.8964 114.327 17.6408 113.186 18.9464C112.073 20.2191 111.041 20.8883 110.218 21.4205C109.286 22.0239 108.726 22.3859 108.644 23.2307C108.611 23.5818 108.419 24.07 107.7 24.3772C106.263 24.9916 103.482 24.5747 102.407 23.8177C101.326 24.6186 96.7071 35.568 93.9314 42.1564C90.3602 50.6263 90.1901 50.9005 89.8829 50.9499C89.4112 51.0322 80.1458 54.1645 74.0348 56.2546L73.8757 56.3039ZM84.3753 2.00112C80.8754 2.00112 76.9586 4.39837 74.7205 6.96567C72.7292 9.28611 72.8334 10.6575 72.9102 11.7602C72.9596 12.4404 73.0089 13.0877 72.5536 13.7624L72.4823 13.8721L72.3507 13.8831C67.8963 14.1903 66.6072 18.6228 66.854 22.3256C66.8979 24.7942 67.1777 27.9155 68.9441 30.3128C69.1251 30.5322 69.3445 30.779 69.5749 31.0423C71.1877 32.8801 73.3984 35.398 71.3523 37.6855L71.3193 37.7239L71.2755 37.7459C71.0177 37.8775 70.7708 38.0037 70.5239 38.1244C67.8305 39.4793 66.2067 40.2912 65.9324 43.9227C65.8337 48.6843 69.7504 52.0525 73.2064 55.0148C73.4697 55.2452 73.733 55.4701 73.9909 55.695C76.0535 54.9929 88.3798 50.7908 89.6964 50.4397C90.0585 49.9296 91.6932 46.0512 93.4212 41.9479C98.6765 29.4899 101.348 23.516 102.308 23.2636C102.429 23.2307 102.549 23.2582 102.643 23.3295C103.515 24.0152 106.208 24.4211 107.476 23.878C107.865 23.7135 108.068 23.4831 108.095 23.1759C108.2 22.0733 108.957 21.585 109.911 20.9651C110.707 20.4495 111.7 19.8077 112.764 18.5898C113.779 17.4324 114.004 15.9512 113.373 14.6292C112.692 13.2194 111.2 12.3855 109.483 12.4623C107.327 12.5611 106.219 10.7563 104.82 8.47423C103.575 6.45001 102.028 3.93757 99.247 2.00112C93.6242 -1.91017 88.8626 3.09826 88.6596 3.3122L88.4896 3.49871L88.2921 3.33963C87.1565 2.40158 85.8016 2.00112 84.3753 2.00112ZM89.7952 50.4178C89.7897 50.4178 89.7897 50.4178 89.7842 50.4178C89.7897 50.4178 89.7952 50.4178 89.7952 50.4178Z" fill="#262626"/>
<path d="M71.9559 54.856C71.9559 54.856 98.5615 35.3214 115.183 39.0353C131.799 42.7491 136.155 52.9854 136.155 52.9854L124.893 69.4973L126.171 76.4092L74.7152 74.9116L71.9559 54.856Z" fill="#FFC700"/>
<path d="M126.489 76.6943L74.4684 75.1803L71.6652 54.7351L71.7968 54.6419C71.8626 54.5925 78.5662 49.6938 87.2171 45.3162C95.2207 41.2623 106.582 36.8408 115.243 38.7773C123.889 40.7082 129.177 44.433 132.085 47.2143C135.255 50.2424 136.352 52.7822 136.402 52.8865L136.462 53.0236L125.178 69.5684L126.489 76.6943ZM74.9456 74.6537L125.842 76.1348L124.602 69.4423L135.842 52.9633C135.573 52.4037 134.389 50.1491 131.69 47.5763C128.826 44.8499 123.631 41.1965 115.123 39.2984C106.62 37.4004 95.3908 41.7779 87.464 45.788C79.5152 49.8145 73.2122 54.2798 72.2412 54.9765L74.9456 74.6537Z" fill="#262626"/>
<path d="M98.83 34.8768C98.83 34.8768 98.649 33.4011 99.2853 38.5687C99.9217 43.7362 106.707 44.9266 106.773 45.8482C106.773 46.7698 104.469 55.1025 93.9752 57.0884C83.4811 59.0742 78.7414 53.6324 80.6614 52.7382C87.1894 49.2164 86.9316 35.7161 86.9316 35.7161C86.9316 35.7161 81.4898 33.3463 80.7218 27.142C76.2399 26.374 75.28 21.2558 78.7359 19.3358C80.0799 18.5679 81.4898 19.0177 81.4898 19.0177C81.4898 19.0177 84.6276 18.2497 84.4356 12.9999C93.1414 14.5359 96.8497 15.3697 100.947 12.9999C104.53 17.926 109.971 36.2976 90.4534 36.0398" fill="#F3F3F3"/>
<path d="M89.5921 57.785C83.865 57.785 80.5572 55.4042 80.0415 53.8134C79.8495 53.2209 80.036 52.7272 80.5407 52.4913C86.4543 49.3042 86.6573 37.4222 86.6573 35.8807C85.7466 35.4254 81.2593 32.9074 80.4749 27.3614C78.3409 26.9225 76.7666 25.4195 76.4374 23.483C76.1302 21.6837 76.9586 19.9996 78.5988 19.089C79.8495 18.3704 81.1441 18.6337 81.4788 18.7269C81.9121 18.5843 84.3258 17.5969 84.1558 12.9999L84.1448 12.6652L85.8125 12.9615C93.4979 14.3274 97.0087 14.9473 100.805 12.7585L101.013 12.6378L101.156 12.8353C103.405 15.9292 106.499 24.5363 103.454 30.4224C102.489 32.2821 101.024 33.7083 99.0659 34.6848L99.5431 38.5357C99.971 42.0082 103.345 43.6319 105.358 44.6029C106.417 45.1131 107.004 45.3983 107.031 45.8262V45.8427C107.031 46.3858 106.411 48.7666 104.513 51.2296C102.807 53.4404 99.6035 56.2929 94.0136 57.3462C92.4172 57.6534 90.9361 57.785 89.5921 57.785ZM80.4968 19.1438C80.0306 19.1438 79.4436 19.2316 78.8731 19.5553C77.4358 20.3562 76.7117 21.8209 76.975 23.3898C77.2164 24.7941 78.3355 26.4453 80.7656 26.8622L80.9631 26.8951L80.985 27.0926C81.7256 33.0775 86.9809 35.4309 87.0358 35.4528L87.1948 35.5241L87.2003 35.6996C87.2113 36.2592 87.3814 49.4084 80.7876 52.9686C80.6833 53.018 80.3981 53.1496 80.5572 53.6433C81.0673 55.2232 85.6369 58.383 93.9203 56.8195C103.954 54.9215 106.477 46.9947 106.499 45.8591C106.428 45.711 105.709 45.3654 105.128 45.0857C103.016 44.0653 99.4773 42.3593 99.011 38.6016L98.5557 34.9262C96.3944 35.8807 93.6844 36.3415 90.4424 36.3031L90.4479 35.7655C96.8003 35.8478 101.013 33.9662 102.977 30.1756C105.852 24.6186 103.032 16.5052 100.86 13.3455C96.9813 15.4904 93.3992 14.8595 85.7192 13.4936L84.7044 13.3126C84.7592 18.4197 81.6817 19.2371 81.5446 19.27L81.4733 19.2865L81.402 19.2645C81.402 19.259 81.029 19.1438 80.4968 19.1438Z" fill="#262626"/>
<path d="M175.706 74.9167H51.0275V162.562H175.706V74.9167Z" fill="#F3F3F3"/>
<path d="M175.975 162.83H50.7589V74.6479H175.975V162.83ZM51.2965 162.293H175.438V75.1855H51.2965V162.293Z" fill="#262626"/>
<path d="M82.0274 74.9167H85.6095C85.6095 74.9167 75.1977 87.5832 74.7698 93.8972C74.3419 100.211 74.9892 105.115 81.4075 106.377C76.1357 108.747 70.5019 104.479 69.9918 102.943C69.4816 101.407 72.208 80.386 72.8937 79.7606C73.5794 79.1352 82.0274 74.9167 82.0274 74.9167Z" fill="#1A1A1A"/>
<path d="M67.0678 132.61H61.3517V137.048H67.0678V132.61Z" fill="#F3F3F3"/>
<path d="M67.3369 137.316H61.0833V132.341H67.3369V137.316ZM61.6208 136.773H66.7993V132.873H61.6208V136.773Z" fill="#262626"/>
<path d="M67.0678 141.826H61.3517V146.264H67.0678V141.826Z" fill="#F3F3F3"/>
<path d="M67.3369 146.532H61.0833V141.557H67.3369V146.532ZM61.6208 145.989H66.7993V142.089H61.6208V145.989Z" fill="#262626"/>
<path d="M67.0678 151.042H61.3517V155.479H67.0678V151.042Z" fill="#F3F3F3"/>
<path d="M67.3369 155.748H61.0833V150.773H67.3369V155.748ZM61.6208 155.211H66.7993V151.311H61.6208V155.211Z" fill="#262626"/>
<path d="M94.2169 133.888H74.6659V135.764H94.2169V133.888Z" fill="#F3F3F3"/>
<path d="M94.4856 136.033H74.397V133.619H94.4856V136.033ZM74.9346 135.495H93.9479V134.157H74.9346V135.495Z" fill="#262626"/>
<path d="M94.2169 143.104H74.6659V144.98H94.2169V143.104Z" fill="#F3F3F3"/>
<path d="M94.4856 145.249H74.397V142.835H94.4856V145.249ZM74.9346 144.711H93.9479V143.373H74.9346V144.711Z" fill="#262626"/>
<path d="M94.2169 151.887H74.6659V153.856H94.2169V151.887Z" fill="#F3F3F3"/>
<path d="M94.4856 154.125H74.397V151.618H94.4856V154.125ZM74.9346 153.587H93.9479V152.156H74.9346V153.587Z" fill="#262626"/>
<path d="M136.791 116.476H126.55V127.738H136.791V116.476Z" fill="#F3F3F3"/>
<path d="M137.06 128.013H126.281V116.208H137.06V128.013ZM126.818 127.475H136.522V116.751H126.818V127.475Z" fill="#262626"/>
<path d="M150.873 116.476H142.184V127.738H150.873V116.476Z" fill="#F3F3F3"/>
<path d="M151.142 128.013H141.915V116.208H151.142V128.013ZM142.452 127.475H150.604V116.751H142.452V127.475Z" fill="#262626"/>
<path d="M164.571 116.476H155.865V127.738H164.571V116.476Z" fill="#F3F3F3"/>
<path d="M164.84 128.013H155.596V116.208H164.84V128.013ZM156.134 127.475H164.302V116.751H156.134V127.475Z" fill="#262626"/>
<path d="M164.565 134.826H110.422V158.974H164.565V134.826Z" fill="#F3F3F3"/>
<path d="M164.839 159.248H110.152V134.557H164.839V159.248ZM110.69 158.705H164.296V135.095H110.69V158.705Z" fill="#262626"/>
<path d="M161.241 80.8906H127.46V109.306H161.241V80.8906Z" fill="#F3F3F3"/>
<path d="M161.509 109.581H127.191V80.6274H161.509V109.581ZM127.729 109.043H160.972V81.165H127.729V109.043Z" fill="#262626"/>
<path d="M161.252 109.4C161.202 109.4 161.104 109.318 160.484 108.802C160.445 108.769 160.44 108.714 160.473 108.676C160.506 108.637 160.561 108.632 160.599 108.665C161.043 109.032 161.29 109.235 161.296 109.241C161.318 109.263 161.334 109.29 161.329 109.323C161.323 109.356 161.307 109.378 161.279 109.395C161.268 109.395 161.263 109.4 161.252 109.4ZM158.876 107.442C158.855 107.442 158.838 107.436 158.822 107.42L157.154 106.037C157.116 106.004 157.11 105.949 157.143 105.911C157.176 105.873 157.231 105.867 157.269 105.9L158.937 107.283C158.975 107.315 158.981 107.37 158.948 107.409C158.926 107.431 158.898 107.442 158.876 107.442ZM155.541 104.677C155.519 104.677 155.503 104.671 155.486 104.655L153.824 103.272C153.786 103.24 153.78 103.185 153.813 103.146C153.846 103.108 153.901 103.102 153.939 103.135L155.602 104.518C155.64 104.551 155.645 104.606 155.613 104.644C155.596 104.666 155.569 104.677 155.541 104.677ZM152.217 101.918C152.195 101.918 152.178 101.912 152.162 101.896L150.5 100.513C150.461 100.48 150.456 100.425 150.489 100.387C150.522 100.349 150.577 100.343 150.615 100.376L152.277 101.758C152.316 101.791 152.321 101.846 152.288 101.885C152.266 101.907 152.244 101.918 152.217 101.918ZM148.893 99.1527C148.871 99.1527 148.854 99.1473 148.838 99.1308L147.176 97.7484C147.137 97.7155 147.132 97.6606 147.165 97.6222C147.197 97.5838 147.252 97.5783 147.291 97.6112L148.953 98.9937C148.991 99.0266 148.997 99.0814 148.964 99.1198C148.942 99.1418 148.92 99.1527 148.893 99.1527ZM145.574 96.388C145.552 96.388 145.535 96.3825 145.519 96.366L143.862 94.9836C143.824 94.9507 143.818 94.8958 143.851 94.8574C143.884 94.819 143.939 94.8136 143.977 94.8465L145.634 96.2289C145.672 96.2618 145.678 96.3166 145.645 96.355C145.623 96.377 145.601 96.388 145.574 96.388ZM142.255 93.6177C142.233 93.6177 142.216 93.6122 142.2 93.5957L140.543 92.2079C140.505 92.1749 140.499 92.1201 140.532 92.0817C140.565 92.0433 140.62 92.0378 140.659 92.0707L142.315 93.4586C142.354 93.4915 142.359 93.5464 142.326 93.5848C142.31 93.6067 142.282 93.6177 142.255 93.6177ZM138.941 90.8419C138.92 90.8419 138.903 90.8364 138.881 90.82C138.322 90.3482 137.768 89.8874 137.224 89.4321C137.186 89.3992 137.181 89.3443 137.213 89.3059C137.246 89.2675 137.301 89.262 137.34 89.295C137.883 89.7503 138.431 90.2111 138.996 90.6828C139.035 90.7158 139.04 90.7706 139.007 90.809C138.996 90.8309 138.969 90.8419 138.941 90.8419ZM135.634 88.0662C135.612 88.0662 135.595 88.0607 135.573 88.0442C135.003 87.5615 134.449 87.1007 133.922 86.6509C133.884 86.6179 133.878 86.5631 133.911 86.5247C133.944 86.4863 133.999 86.4808 134.037 86.5137C134.569 86.9635 135.118 87.4298 135.688 87.9071C135.727 87.94 135.732 87.9948 135.699 88.0332C135.683 88.0552 135.661 88.0662 135.634 88.0662ZM132.331 85.2739C132.309 85.2739 132.287 85.2685 132.271 85.252C131.678 84.7473 131.124 84.281 130.625 83.8477C130.587 83.8148 130.581 83.7599 130.614 83.7215C130.647 83.6831 130.702 83.6776 130.74 83.7105C131.245 84.1439 131.794 84.6102 132.386 85.1149C132.424 85.1478 132.43 85.2026 132.397 85.241C132.381 85.263 132.359 85.2739 132.331 85.2739ZM129.045 82.4543C129.023 82.4543 129.001 82.4488 128.985 82.4324C127.367 81.0225 127.367 80.9622 127.367 80.8964C127.367 80.847 127.405 80.8086 127.454 80.8086C127.493 80.8086 127.531 80.836 127.542 80.8744C127.581 80.9348 127.844 81.2036 129.1 82.3007C129.139 82.3336 129.144 82.3885 129.111 82.4269C129.095 82.4433 129.073 82.4543 129.045 82.4543Z" fill="#1A1A1A"/>
<path d="M127.46 109.4C127.433 109.4 127.411 109.389 127.389 109.367C127.356 109.328 127.361 109.274 127.4 109.241L129.056 107.864C129.095 107.831 129.15 107.836 129.183 107.875C129.215 107.913 129.21 107.968 129.172 108.001L127.515 109.378C127.498 109.394 127.482 109.4 127.46 109.4ZM130.773 106.646C130.746 106.646 130.724 106.635 130.702 106.613C130.669 106.575 130.675 106.52 130.713 106.487L132.37 105.11C132.408 105.077 132.463 105.083 132.496 105.121C132.529 105.159 132.523 105.214 132.485 105.247L130.828 106.624C130.817 106.641 130.795 106.646 130.773 106.646ZM134.092 103.892C134.065 103.892 134.043 103.881 134.021 103.859C133.988 103.821 133.993 103.766 134.032 103.733L135.689 102.356C135.727 102.323 135.782 102.329 135.815 102.367C135.848 102.406 135.842 102.46 135.804 102.493L134.147 103.87C134.131 103.887 134.109 103.892 134.092 103.892ZM137.406 101.138C137.378 101.138 137.356 101.127 137.334 101.105C137.301 101.067 137.307 101.012 137.345 100.979L139.002 99.6024C139.04 99.5694 139.095 99.5749 139.128 99.6133C139.161 99.6517 139.155 99.7066 139.117 99.7395L137.46 101.116C137.444 101.133 137.427 101.138 137.406 101.138ZM140.719 98.3845C140.691 98.3845 140.67 98.3736 140.648 98.3516C140.615 98.3132 140.62 98.2584 140.659 98.2255L142.315 96.8486C142.354 96.8156 142.408 96.8211 142.441 96.8595C142.474 96.8979 142.469 96.9528 142.43 96.9857L140.774 98.3626C140.763 98.3791 140.741 98.3845 140.719 98.3845ZM144.038 95.6307C144.01 95.6307 143.988 95.6198 143.966 95.5978C143.934 95.5594 143.939 95.5046 143.977 95.4716L145.634 94.0947C145.672 94.0618 145.727 94.0673 145.76 94.1057C145.793 94.1441 145.788 94.199 145.749 94.2319L144.093 95.6088C144.076 95.6252 144.054 95.6307 144.038 95.6307ZM147.351 92.8769C147.324 92.8769 147.302 92.8659 147.28 92.844C147.247 92.8056 147.252 92.7507 147.291 92.7178L148.947 91.3409C148.986 91.308 149.041 91.3135 149.074 91.3519C149.107 91.3903 149.101 91.4451 149.063 91.4781L147.406 92.855C147.389 92.8714 147.373 92.8769 147.351 92.8769ZM150.664 90.1231C150.637 90.1231 150.615 90.1121 150.593 90.0902C150.56 90.0518 150.566 89.9969 150.604 89.964L152.261 88.5871C152.299 88.5542 152.354 88.5597 152.387 88.5981C152.42 88.6365 152.414 88.6913 152.376 88.7242L150.719 90.1012C150.708 90.1176 150.686 90.1231 150.664 90.1231ZM153.983 87.3693C153.956 87.3693 153.934 87.3583 153.912 87.3364C153.879 87.298 153.885 87.2431 153.923 87.2102L155.58 85.8333C155.618 85.8004 155.673 85.8059 155.706 85.8443C155.739 85.8827 155.733 85.9375 155.695 85.9704L154.038 87.3473C154.022 87.3638 154 87.3693 153.983 87.3693ZM157.297 84.6155C157.269 84.6155 157.247 84.6045 157.225 84.5826C157.192 84.5442 157.198 84.4893 157.236 84.4564L158.893 83.0795C158.931 83.0466 158.986 83.052 159.019 83.0904C159.052 83.1288 159.047 83.1837 159.008 83.2166L157.351 84.5935C157.335 84.61 157.319 84.6155 157.297 84.6155ZM160.61 81.8616C160.583 81.8616 160.561 81.8507 160.539 81.8287C160.506 81.7903 160.511 81.7355 160.55 81.7026L161.159 81.1979C161.197 81.165 161.252 81.1704 161.285 81.2088C161.318 81.2472 161.312 81.3021 161.274 81.335L160.665 81.8397C160.654 81.8562 160.632 81.8616 160.61 81.8616Z" fill="#1A1A1A"/>
<path d="M35.6678 162.216C40.9454 162.216 45.2238 157.937 45.2238 152.66C45.2238 147.382 40.9454 143.104 35.6678 143.104C30.3901 143.104 26.1117 147.382 26.1117 152.66C26.1117 157.937 30.3901 162.216 35.6678 162.216Z" fill="#F3F3F3"/>
<path d="M35.6679 162.49C30.248 162.49 25.843 158.08 25.843 152.665C25.843 147.251 30.2535 142.841 35.6679 142.841C41.0877 142.841 45.4928 147.251 45.4928 152.665C45.4928 158.08 41.0822 162.49 35.6679 162.49ZM35.6679 143.373C30.5442 143.373 26.3806 147.542 26.3806 152.66C26.3806 157.778 30.5497 161.947 35.6679 161.947C40.786 161.947 44.9551 157.778 44.9551 152.66C44.9551 147.542 40.786 143.373 35.6679 143.373Z" fill="#262626"/>
<path d="M22.2882 112.702C27.166 112.702 31.1202 108.748 31.1202 103.87C31.1202 98.9925 27.166 95.0383 22.2882 95.0383C17.4105 95.0383 13.4563 98.9925 13.4563 103.87C13.4563 108.748 17.4105 112.702 22.2882 112.702Z" fill="#1A1A1A"/>
<path d="M76.7121 83.6228C76.2458 84.5279 75.8179 85.4002 75.4339 86.2395C61.1163 89.5967 55.7184 83.3759 53.8478 79.7609C59.6681 67.429 67.5346 57.659 67.5346 57.659C68.9663 55.8378 75.0006 51.6248 81.1446 57.5109C87.294 63.3971 86.526 68.9431 76.7121 83.6228Z" fill="#FFC700"/>
<path d="M67.8361 87.4737C64.8135 87.4737 62.1475 86.9361 59.8599 85.8609C56.4094 84.2371 54.5608 81.7137 53.6117 79.887L53.5514 79.7663L53.6062 79.6456C59.3772 67.4235 67.2491 57.5877 67.3259 57.4889C68.2585 56.304 70.7545 54.4553 73.81 54.2414C76.4761 54.0549 79.0104 55.0862 81.3364 57.3189C84.6607 60.5061 85.8127 63.4958 85.1819 67.3193C84.551 71.1538 82.0879 76.0744 76.9478 83.7654C76.4925 84.6486 76.0701 85.5208 75.6806 86.3601L75.6258 86.4808L75.4996 86.5082C72.7348 87.15 70.1785 87.4737 67.8361 87.4737ZM54.1548 79.7608C56.1516 83.524 61.5111 89.1907 75.2473 86.0145C75.6258 85.2026 76.0372 84.3578 76.4761 83.5075L76.4925 83.4801C86.109 69.0966 87.0689 63.5561 80.9688 57.7084C78.7581 55.5909 76.3609 54.6035 73.8539 54.7845C70.9739 54.9875 68.626 56.7209 67.7538 57.829C67.6715 57.9278 59.8873 67.6539 54.1548 79.7608Z" fill="#262626"/>
<path d="M66.0532 124.266C66.0532 124.266 81.5997 127.355 93.8053 117.881C102.604 110.42 103.449 108.709 103.449 108.709L105.413 107.557C105.413 107.557 106.735 108.583 108.957 108.967C111.173 109.351 112.073 108.199 112.073 108.199C112.073 108.199 105.759 104.787 105.375 104.699C104.991 104.611 85.1489 112.296 84.7649 112.68C84.3809 113.064 71.4073 122.324 71.4073 122.324L66.0532 124.266Z" fill="#1A1A1A"/>
<path d="M127.059 99.1362C125.013 100.99 116.757 97.282 116.757 97.282C116.757 97.282 119.445 107.074 116.115 108.934C112.786 110.788 105.555 106.246 105.555 106.246C105.555 106.246 105.555 106.246 103.509 107.398C94.2933 119.943 61.5054 134.919 50.2597 113.926C44.4997 103.174 48.6305 90.8254 53.8528 79.7717C55.7234 83.3868 61.1159 89.6076 75.439 86.2503C63.6228 111.967 88.8405 108.083 98.1991 101.704C107.865 95.1097 113.691 92.6137 120.663 94.5995C122.972 95.2469 129.111 97.2766 127.059 99.1362Z" fill="#F3F3F3"/>
<path d="M68.752 124.666C68.0773 124.666 67.4081 124.645 66.7553 124.595C63.1621 124.337 59.953 123.388 57.2321 121.765C54.2369 119.982 51.8122 117.387 50.0239 114.041C47.3579 109.06 46.5844 103.453 47.676 96.9034C48.7512 90.4193 51.5818 83.9462 53.6115 79.64L53.8419 79.1462L54.0943 79.629C56.0472 83.4031 61.4067 89.2454 75.3787 85.9704L75.9163 85.8443L75.6859 86.3435C71.7856 94.8298 71.621 100.913 75.2032 103.942C80.442 108.368 92.2363 105.428 98.0511 101.462C107.382 95.0986 113.449 92.2461 120.74 94.3196C122.704 94.8792 127.317 96.3658 127.718 98.0828C127.789 98.39 127.767 98.8508 127.246 99.3226C125.375 101.018 119.028 98.5217 117.158 97.7317C117.679 99.8492 119.297 107.452 116.253 109.153C115.644 109.493 114.925 109.63 114.141 109.63C110.8 109.63 106.406 107.057 105.55 106.542L103.69 107.584C100.536 111.852 94.7158 116.345 88.1056 119.609C81.4624 122.906 74.6766 124.666 68.752 124.666ZM53.8694 80.3586C48.9267 90.9295 44.7686 103.102 50.4957 113.788C53.8639 120.075 59.3441 123.525 66.7936 124.058C79.9209 124.99 96.8881 115.944 103.29 107.227L103.323 107.178L105.561 105.922L105.698 106.01C105.769 106.054 112.835 110.448 115.984 108.692C119.089 106.959 116.521 97.4465 116.494 97.3478L116.34 96.7937L116.862 97.0296C119.111 98.0444 125.304 100.359 126.873 98.9331C127.262 98.5765 127.202 98.3077 127.18 98.2145C126.906 97.0351 123.455 95.6637 120.581 94.8463C113.493 92.833 107.53 95.6472 98.3418 101.912C94.5238 104.518 88.1659 106.673 82.6638 106.673C79.5918 106.673 76.7886 105.999 74.8412 104.358C73.0473 102.844 72.1148 100.639 72.0654 97.8086C72.016 94.7805 72.987 91.0173 74.9563 86.6177C68.8727 87.9672 63.793 87.7094 59.8488 85.8552C56.7 84.3741 54.8787 82.1305 53.8694 80.3586Z" fill="#262626"/>
<path d="M147.609 69.4369C147.609 69.4369 139.995 73.9187 142.809 76.7329C145.623 79.547 148.207 75.3011 150.445 76.2007C152.683 77.0949 147.993 82.8165 150.297 83.9027C152.601 84.9888 160.599 82.6848 162.267 82.1747C163.935 81.6645 167.193 76.7987 164.253 70.2049C160.791 62.4591 147.609 69.4369 147.609 69.4369Z" fill="#F3F3F3"/>
<path d="M152.118 84.4565C151.323 84.4565 150.648 84.3633 150.182 84.1438C148.794 83.4856 149.469 81.6259 150.116 79.8211C150.774 77.9944 151.147 76.7711 150.346 76.4474C149.545 76.1238 148.624 76.5901 147.658 77.0838C146.144 77.8518 144.422 78.724 142.622 76.9192C142.074 76.3706 141.849 75.7288 141.937 75.0102C142.282 72.2838 147.263 69.327 147.477 69.2008L147.488 69.1953C147.817 69.0198 155.646 64.933 160.868 66.7323C162.541 67.3083 163.764 68.4383 164.505 70.0895C166.518 74.5987 165.58 77.9944 164.845 79.6181C164.192 81.0609 163.216 82.1635 162.354 82.4268C161.543 82.6737 155.64 84.4565 152.118 84.4565ZM149.776 75.8056C150.034 75.8056 150.291 75.8495 150.544 75.9482C151.893 76.4858 151.246 78.2742 150.621 80.0021C150.05 81.5765 149.463 83.2058 150.407 83.6556C152.31 84.5553 158.701 82.9864 162.179 81.9112C162.749 81.7356 163.666 80.8744 164.335 79.3932C165.037 77.8518 165.92 74.6207 163.995 70.3089C163.32 68.8004 162.206 67.7691 160.676 67.2424C155.733 65.5364 147.977 69.5409 147.73 69.6671C147.543 69.7768 142.765 72.6458 142.458 75.076C142.387 75.6301 142.562 76.1073 142.99 76.5352C144.515 78.0602 145.919 77.3526 147.401 76.5955C148.19 76.2115 148.991 75.8056 149.776 75.8056Z" fill="#262626"/>
<path d="M19.6006 107.452H0.269043V123.58H19.6006V107.452Z" fill="#F3F3F3"/>
<path d="M19.8691 123.855H0V107.189H19.8691V123.855ZM0.537587 123.312H19.3261V107.721H0.537587V123.312Z" fill="#262626"/>
<path d="M175.706 99.1965H177.303L179.738 106.405V162.562H175.706V99.1965Z" fill="#1A1A1A"/>
<path d="M189.657 127.102H190.836L192.624 131.195V163.072H189.657V127.102Z" fill="#1A1A1A"/>
<path d="M203.865 131.968H205.044L206.832 135.506V163.072H203.865V131.968Z" fill="#1A1A1A"/>
<path d="M136.791 127.832C136.769 127.832 136.742 127.821 136.725 127.804L126.484 116.542C126.451 116.504 126.451 116.449 126.489 116.416C126.528 116.383 126.582 116.383 126.615 116.422L136.857 127.684C136.89 127.722 136.89 127.777 136.852 127.81C136.835 127.826 136.813 127.832 136.791 127.832Z" fill="#1A1A1A"/>
<path d="M126.549 127.832C126.528 127.832 126.506 127.826 126.489 127.81C126.451 127.777 126.451 127.722 126.484 127.684L136.725 116.422C136.758 116.383 136.813 116.383 136.852 116.416C136.89 116.449 136.89 116.504 136.857 116.542L126.615 127.804C126.599 127.821 126.577 127.832 126.549 127.832Z" fill="#1A1A1A"/>
<path d="M142.184 127.832C142.167 127.832 142.145 127.826 142.129 127.815C142.09 127.783 142.085 127.728 142.112 127.689L150.802 116.427C150.834 116.389 150.889 116.383 150.928 116.411C150.966 116.444 150.972 116.498 150.944 116.537L142.255 127.799C142.233 127.821 142.211 127.832 142.184 127.832Z" fill="#1A1A1A"/>
<path d="M150.873 127.832C150.845 127.832 150.818 127.821 150.802 127.799L142.112 116.537C142.079 116.498 142.09 116.444 142.129 116.411C142.167 116.378 142.222 116.389 142.255 116.427L150.944 127.689C150.977 127.728 150.966 127.782 150.928 127.815C150.911 127.826 150.889 127.832 150.873 127.832Z" fill="#1A1A1A"/>
<path d="M155.87 127.832C155.854 127.832 155.832 127.826 155.815 127.815C155.777 127.783 155.771 127.728 155.799 127.689L164.488 116.427C164.521 116.389 164.576 116.383 164.614 116.411C164.653 116.444 164.658 116.498 164.631 116.537L155.942 127.799C155.925 127.821 155.898 127.832 155.87 127.832Z" fill="#1A1A1A"/>
<path d="M164.56 127.832C164.532 127.832 164.505 127.821 164.488 127.799L155.799 116.537C155.766 116.498 155.777 116.444 155.815 116.411C155.854 116.378 155.909 116.389 155.942 116.427L164.631 127.689C164.664 127.728 164.653 127.782 164.615 127.815C164.598 127.826 164.582 127.832 164.56 127.832Z" fill="#1A1A1A"/>
<path d="M136.791 159.067C136.769 159.067 136.747 159.062 136.731 159.045L135.787 158.179C135.749 158.146 135.749 158.091 135.782 158.052C135.815 158.014 135.869 158.014 135.908 158.047L136.703 158.777V158.107C136.703 158.058 136.742 158.02 136.791 158.02C136.84 158.02 136.879 158.058 136.879 158.107V158.98C136.879 159.012 136.857 159.045 136.824 159.062C136.813 159.062 136.802 159.067 136.791 159.067ZM110.421 159.067C110.399 159.067 110.372 159.056 110.355 159.04C110.323 159.002 110.323 158.947 110.361 158.914L110.992 158.338C111.03 158.305 111.085 158.305 111.118 158.343C111.151 158.382 111.151 158.436 111.112 158.469L110.482 159.045C110.465 159.056 110.443 159.067 110.421 159.067ZM112.643 157.032C112.621 157.032 112.594 157.021 112.577 157.005C112.544 156.966 112.544 156.911 112.583 156.879L114.173 155.425C114.212 155.392 114.267 155.392 114.3 155.43C114.333 155.469 114.333 155.524 114.294 155.556L112.703 157.01C112.687 157.027 112.665 157.032 112.643 157.032ZM134.257 156.747C134.235 156.747 134.213 156.741 134.196 156.725L132.605 155.271C132.567 155.238 132.567 155.183 132.6 155.145C132.633 155.107 132.688 155.107 132.726 155.14L134.317 156.593C134.355 156.626 134.355 156.681 134.322 156.719C134.306 156.736 134.279 156.747 134.257 156.747ZM136.791 156.039C136.742 156.039 136.703 156.001 136.703 155.951V153.796C136.703 153.746 136.742 153.708 136.791 153.708C136.84 153.708 136.879 153.746 136.879 153.796V155.951C136.879 155.995 136.84 156.039 136.791 156.039ZM115.819 154.125C115.797 154.125 115.77 154.114 115.753 154.097C115.72 154.059 115.72 154.004 115.759 153.971L117.35 152.517C117.388 152.485 117.443 152.485 117.476 152.523C117.509 152.561 117.509 152.616 117.47 152.649L115.88 154.103C115.863 154.114 115.841 154.125 115.819 154.125ZM131.08 153.834C131.058 153.834 131.036 153.829 131.02 153.812L129.429 152.358C129.391 152.325 129.391 152.271 129.424 152.232C129.457 152.194 129.511 152.194 129.55 152.227L131.141 153.68C131.179 153.713 131.179 153.768 131.146 153.807C131.13 153.823 131.102 153.834 131.08 153.834ZM136.791 151.727C136.742 151.727 136.703 151.689 136.703 151.64V149.484C136.703 149.434 136.742 149.396 136.791 149.396C136.84 149.396 136.879 149.434 136.879 149.484V151.64C136.879 151.689 136.84 151.727 136.791 151.727ZM118.995 151.212C118.973 151.212 118.946 151.201 118.93 151.184C118.897 151.146 118.897 151.091 118.935 151.058L120.526 149.605C120.564 149.572 120.619 149.572 120.652 149.61C120.685 149.648 120.685 149.703 120.647 149.736L119.056 151.19C119.039 151.206 119.017 151.212 118.995 151.212ZM127.899 150.927C127.877 150.927 127.855 150.921 127.838 150.905L126.247 149.451C126.209 149.418 126.209 149.363 126.242 149.325C126.275 149.286 126.33 149.286 126.368 149.319L127.959 150.773C127.997 150.806 127.997 150.861 127.965 150.899C127.948 150.916 127.926 150.927 127.899 150.927ZM122.177 148.299C122.155 148.299 122.128 148.288 122.111 148.271C122.078 148.233 122.078 148.178 122.117 148.145L123.477 146.9L123.077 146.533C123.038 146.5 123.038 146.445 123.071 146.406C123.104 146.368 123.159 146.368 123.197 146.401L123.609 146.779L123.708 146.692C123.746 146.659 123.801 146.659 123.834 146.697C123.867 146.736 123.867 146.79 123.828 146.823L123.741 146.9L124.783 147.855C124.821 147.888 124.821 147.942 124.788 147.981C124.755 148.019 124.701 148.019 124.662 147.986L123.603 147.021L122.232 148.277C122.221 148.293 122.199 148.299 122.177 148.299ZM136.791 147.421C136.742 147.421 136.703 147.383 136.703 147.333V145.178C136.703 145.128 136.742 145.09 136.791 145.09C136.84 145.09 136.879 145.128 136.879 145.178V147.333C136.879 147.377 136.84 147.421 136.791 147.421ZM125.353 145.392C125.331 145.392 125.304 145.381 125.287 145.364C125.255 145.326 125.255 145.271 125.293 145.238L126.884 143.784C126.922 143.751 126.977 143.751 127.01 143.79C127.043 143.828 127.043 143.883 127.005 143.916L125.414 145.37C125.397 145.381 125.375 145.392 125.353 145.392ZM121.546 145.101C121.524 145.101 121.502 145.095 121.486 145.079L119.895 143.625C119.857 143.592 119.857 143.537 119.89 143.499C119.922 143.461 119.977 143.461 120.016 143.493L121.607 144.947C121.645 144.98 121.645 145.035 121.612 145.073C121.596 145.095 121.568 145.101 121.546 145.101ZM136.791 143.109C136.742 143.109 136.703 143.071 136.703 143.022V140.866C136.703 140.816 136.742 140.778 136.791 140.778C136.84 140.778 136.879 140.816 136.879 140.866V143.022C136.879 143.071 136.84 143.109 136.791 143.109ZM128.53 142.479C128.508 142.479 128.48 142.468 128.464 142.451C128.431 142.413 128.431 142.358 128.469 142.325L130.06 140.871C130.098 140.838 130.153 140.838 130.186 140.877C130.219 140.915 130.219 140.97 130.181 141.003L128.59 142.457C128.573 142.473 128.551 142.479 128.53 142.479ZM118.365 142.193C118.343 142.193 118.321 142.188 118.304 142.171L116.713 140.718C116.675 140.685 116.675 140.63 116.708 140.592C116.741 140.553 116.796 140.553 116.834 140.586L118.425 142.04C118.463 142.073 118.463 142.128 118.43 142.166C118.414 142.182 118.392 142.193 118.365 142.193ZM131.711 139.571C131.689 139.571 131.662 139.56 131.645 139.544C131.612 139.505 131.613 139.451 131.651 139.418L133.242 137.964C133.28 137.931 133.335 137.931 133.368 137.969C133.401 138.008 133.401 138.063 133.362 138.096L131.772 139.549C131.755 139.56 131.733 139.571 131.711 139.571ZM115.188 139.28C115.166 139.28 115.144 139.275 115.128 139.259L113.537 137.805C113.499 137.772 113.499 137.717 113.532 137.679C113.565 137.64 113.619 137.64 113.658 137.673L115.249 139.127C115.287 139.16 115.287 139.215 115.254 139.253C115.238 139.269 115.21 139.28 115.188 139.28ZM136.791 138.798C136.742 138.798 136.703 138.759 136.703 138.71V136.554C136.703 136.505 136.742 136.466 136.791 136.466C136.84 136.466 136.879 136.505 136.879 136.554V138.71C136.879 138.759 136.84 138.798 136.791 138.798ZM134.887 136.658C134.865 136.658 134.838 136.647 134.822 136.631C134.789 136.592 134.789 136.538 134.827 136.505L136.418 135.051C136.456 135.018 136.511 135.018 136.544 135.056C136.577 135.095 136.577 135.15 136.539 135.183L134.948 136.636C134.931 136.653 134.909 136.658 134.887 136.658ZM112.012 136.373C111.99 136.373 111.968 136.368 111.952 136.351L110.361 134.897C110.323 134.864 110.323 134.81 110.355 134.771C110.388 134.733 110.443 134.733 110.482 134.766L112.072 136.219C112.111 136.252 112.111 136.307 112.078 136.346C112.056 136.362 112.034 136.373 112.012 136.373Z" fill="#1A1A1A"/>
<path d="M136.923 158.952C136.895 158.952 136.873 158.941 136.857 158.919C136.824 158.881 136.829 158.826 136.868 158.793L138.492 157.377C138.53 157.345 138.585 157.35 138.618 157.388C138.651 157.427 138.645 157.482 138.607 157.515L136.983 158.93C136.967 158.941 136.945 158.952 136.923 158.952ZM140.176 156.121C140.148 156.121 140.126 156.11 140.11 156.088C140.077 156.05 140.082 155.995 140.121 155.962L141.745 154.547C141.783 154.514 141.838 154.519 141.871 154.558C141.904 154.596 141.898 154.651 141.86 154.684L140.236 156.099C140.22 156.116 140.198 156.121 140.176 156.121ZM143.429 153.296C143.401 153.296 143.379 153.285 143.363 153.263C143.33 153.225 143.335 153.17 143.374 153.137L144.998 151.722C145.036 151.689 145.091 151.694 145.124 151.733C145.157 151.771 145.151 151.826 145.113 151.859L143.489 153.274C143.473 153.285 143.451 153.296 143.429 153.296ZM146.682 150.466C146.654 150.466 146.632 150.455 146.616 150.433C146.583 150.394 146.588 150.339 146.627 150.306L148.251 148.891C148.289 148.858 148.344 148.864 148.377 148.902C148.41 148.941 148.404 148.995 148.366 149.028L146.742 150.444C146.72 150.46 146.704 150.466 146.682 150.466ZM149.935 147.64C149.907 147.64 149.885 147.629 149.869 147.607C149.836 147.569 149.841 147.514 149.88 147.481L151.504 146.066C151.542 146.033 151.597 146.039 151.63 146.077C151.663 146.115 151.657 146.17 151.619 146.203L149.995 147.618C149.973 147.635 149.951 147.64 149.935 147.64ZM153.182 144.81C153.155 144.81 153.133 144.799 153.116 144.777C153.083 144.738 153.089 144.684 153.127 144.651L154.751 143.235C154.79 143.202 154.844 143.208 154.877 143.246C154.91 143.285 154.905 143.34 154.866 143.373L153.243 144.788C153.226 144.804 153.204 144.81 153.182 144.81ZM156.435 141.985C156.408 141.985 156.386 141.974 156.369 141.952C156.336 141.913 156.342 141.858 156.38 141.826L158.004 140.41C158.043 140.377 158.097 140.383 158.13 140.421C158.163 140.46 158.158 140.514 158.119 140.547L156.496 141.963C156.479 141.979 156.457 141.985 156.435 141.985ZM159.688 139.16C159.661 139.16 159.639 139.149 159.622 139.127C159.59 139.088 159.595 139.033 159.633 139L161.257 137.585C161.296 137.552 161.35 137.558 161.383 137.596C161.416 137.635 161.411 137.689 161.372 137.722L159.749 139.138C159.732 139.149 159.71 139.16 159.688 139.16ZM162.941 136.329C162.914 136.329 162.892 136.318 162.875 136.296C162.843 136.258 162.848 136.203 162.886 136.17L164.51 134.755C164.549 134.722 164.603 134.727 164.636 134.765C164.669 134.804 164.664 134.859 164.625 134.892L163.002 136.307C162.985 136.323 162.963 136.329 162.941 136.329Z" fill="#1A1A1A"/>
<path d="M164.565 159.067C164.543 159.067 164.521 159.062 164.505 159.045L162.881 157.63C162.843 157.597 162.837 157.542 162.87 157.504C162.903 157.466 162.958 157.46 162.996 157.493L164.62 158.908C164.658 158.941 164.664 158.996 164.631 159.034C164.62 159.056 164.592 159.067 164.565 159.067ZM161.317 156.237C161.296 156.237 161.274 156.231 161.257 156.215L159.633 154.799C159.595 154.767 159.59 154.712 159.622 154.673C159.655 154.635 159.71 154.629 159.749 154.662L161.372 156.078C161.411 156.111 161.416 156.165 161.383 156.204C161.367 156.226 161.339 156.237 161.317 156.237ZM158.064 153.412C158.043 153.412 158.021 153.406 158.004 153.39L156.38 151.974C156.342 151.941 156.336 151.887 156.369 151.848C156.402 151.81 156.457 151.804 156.496 151.837L158.119 153.253C158.158 153.285 158.163 153.34 158.13 153.379C158.114 153.401 158.086 153.412 158.064 153.412ZM154.811 150.581C154.79 150.581 154.768 150.576 154.751 150.559L153.127 149.144C153.089 149.111 153.083 149.056 153.116 149.018C153.149 148.979 153.204 148.974 153.243 149.007L154.866 150.422C154.905 150.455 154.91 150.51 154.877 150.548C154.861 150.576 154.833 150.581 154.811 150.581ZM151.558 147.756C151.537 147.756 151.515 147.75 151.498 147.734L149.874 146.319C149.836 146.286 149.83 146.231 149.863 146.192C149.896 146.154 149.951 146.149 149.99 146.181L151.613 147.597C151.652 147.63 151.657 147.685 151.624 147.723C151.608 147.745 151.586 147.756 151.558 147.756ZM148.305 144.931C148.283 144.931 148.262 144.925 148.245 144.909L146.621 143.494C146.583 143.461 146.577 143.406 146.61 143.367C146.643 143.329 146.698 143.323 146.737 143.356L148.36 144.772C148.399 144.805 148.404 144.859 148.371 144.898C148.355 144.92 148.333 144.931 148.305 144.931ZM145.052 142.1C145.03 142.1 145.009 142.095 144.992 142.078L143.368 140.663C143.33 140.63 143.324 140.575 143.357 140.537C143.39 140.498 143.445 140.493 143.484 140.526L145.107 141.941C145.146 141.974 145.151 142.029 145.118 142.067C145.102 142.089 145.08 142.1 145.052 142.1ZM141.805 139.275C141.783 139.275 141.761 139.27 141.745 139.253L140.121 137.838C140.082 137.805 140.077 137.75 140.11 137.712C140.143 137.673 140.198 137.668 140.236 137.701L141.86 139.116C141.898 139.149 141.904 139.204 141.871 139.242C141.854 139.264 141.827 139.275 141.805 139.275ZM138.552 136.444C138.53 136.444 138.508 136.439 138.492 136.422L136.868 135.007C136.829 134.974 136.824 134.919 136.857 134.881C136.89 134.843 136.945 134.837 136.983 134.87L138.607 136.285C138.645 136.318 138.651 136.373 138.618 136.411C138.601 136.433 138.574 136.444 138.552 136.444Z" fill="#1A1A1A"/>
<path d="M92.0333 36.0068C92.0333 36.0068 97.1899 37.1533 98.8849 36.303C98.7259 34.7177 98.7259 34.7177 98.7259 34.7177C97.2008 35.4418 94.8749 35.9464 92.0333 36.0068Z" fill="#1A1A1A"/>
<path d="M112.407 74.9168L125.65 73.6167L125.891 74.9168H112.407Z" fill="#1A1A1A"/>
<path d="M103.444 68.5644C103.383 68.5644 103.328 68.537 103.295 68.4821C103.246 68.4053 103.257 68.312 103.323 68.2517C103.493 67.8896 103.306 63.8302 100.35 58.8767C100.3 58.7889 100.328 58.6792 100.41 58.6298C100.498 58.5804 100.607 58.6079 100.657 58.6902C103.597 63.6163 104.063 68.1859 103.548 68.5315C103.515 68.5534 103.482 68.5644 103.444 68.5644Z" fill="#1A1A1A"/>
<path d="M207.057 71.4005C200.491 71.4005 195.142 66.0574 195.142 59.4856C195.142 52.9137 200.485 47.5707 207.057 47.5707C213.629 47.5707 218.972 52.9137 218.972 59.4856C218.972 66.0574 213.624 71.4005 207.057 71.4005ZM207.057 47.9327C200.688 47.9327 195.504 53.1167 195.504 59.4856C195.504 65.8545 200.688 71.0385 207.057 71.0385C213.426 71.0385 218.61 65.8545 218.61 59.4856C218.61 53.1167 213.426 47.9327 207.057 47.9327Z" fill="#1A1A1A"/>
<path d="M205.883 61.7457C205.883 61.0107 205.971 60.4182 206.152 59.9848C206.333 59.546 206.657 59.1181 207.134 58.6902C207.611 58.2678 207.929 57.9222 208.083 57.6534C208.242 57.3846 208.319 57.1048 208.319 56.8086C208.319 55.9199 207.908 55.4701 207.085 55.4701C206.695 55.4701 206.383 55.5908 206.147 55.8322C205.911 56.0735 205.79 56.4027 205.779 56.8251H203.492C203.503 55.8212 203.826 55.0313 204.468 54.4607C205.11 53.8902 205.982 53.605 207.085 53.605C208.198 53.605 209.065 53.8738 209.685 54.4169C210.299 54.9545 210.607 55.717 210.607 56.7044C210.607 57.1542 210.508 57.5766 210.305 57.9716C210.107 58.372 209.756 58.8109 209.257 59.2936L208.615 59.9025C208.215 60.2865 207.984 60.7364 207.93 61.252L207.897 61.7348H205.883V61.7457ZM205.653 64.1649C205.653 63.8138 205.774 63.5231 206.01 63.2927C206.251 63.0623 206.558 62.9526 206.931 62.9526C207.304 62.9526 207.611 63.0678 207.853 63.2927C208.094 63.5231 208.209 63.8084 208.209 64.1649C208.209 64.5105 208.094 64.7958 207.858 65.0207C207.622 65.2456 207.315 65.3608 206.931 65.3608C206.547 65.3608 206.24 65.2456 206.004 65.0207C205.774 64.7958 205.653 64.5105 205.653 64.1649Z" fill="#262626"/>
<path d="M206.937 65.6297C206.481 65.6297 206.108 65.4926 205.823 65.2183C205.538 64.9385 205.39 64.5875 205.39 64.1651C205.39 63.7372 205.538 63.3806 205.834 63.1008C206.125 62.8265 206.498 62.6839 206.942 62.6839C207.386 62.6839 207.759 62.8265 208.05 63.1008C208.346 63.3806 208.495 63.7372 208.495 64.1651C208.495 64.5875 208.346 64.9385 208.061 65.2183C207.765 65.4926 207.386 65.6297 206.937 65.6297ZM206.937 63.2215C206.629 63.2215 206.394 63.3093 206.202 63.4903C206.015 63.6659 205.927 63.8853 205.927 64.1651C205.927 64.4393 206.015 64.6533 206.196 64.8288C206.377 65.0044 206.624 65.0921 206.937 65.0921C207.249 65.0921 207.496 65.0044 207.677 64.8288C207.858 64.6533 207.946 64.4393 207.946 64.1651C207.946 63.8908 207.858 63.6659 207.672 63.4903C207.48 63.3093 207.238 63.2215 206.937 63.2215ZM208.16 62.0147H205.615V61.7459C205.615 60.9779 205.713 60.347 205.905 59.8807C206.097 59.409 206.454 58.9372 206.959 58.4874C207.414 58.0814 207.716 57.7578 207.858 57.5164C207.99 57.2915 208.056 57.0611 208.056 56.8087C208.056 56.0627 207.77 55.739 207.096 55.739C206.778 55.739 206.536 55.8323 206.355 56.0188C206.169 56.2108 206.075 56.4741 206.064 56.8307L206.059 57.094H203.234L203.239 56.8197C203.25 55.739 203.607 54.8778 204.303 54.2579C204.989 53.649 205.933 53.3363 207.101 53.3363C208.281 53.3363 209.213 53.6325 209.877 54.214C210.552 54.8065 210.892 55.6458 210.892 56.7045C210.892 57.1927 210.782 57.659 210.563 58.0924C210.349 58.5148 209.981 58.9866 209.46 59.4858L208.818 60.0947C208.462 60.4348 208.264 60.8243 208.215 61.2796L208.16 62.0147ZM206.158 61.4771H207.655L207.672 61.2467C207.737 60.6542 207.995 60.144 208.44 59.7162L209.081 59.1072C209.553 58.6465 209.893 58.2241 210.074 57.8565C210.255 57.4999 210.343 57.1105 210.343 56.71C210.343 55.7994 210.069 55.1137 209.509 54.6254C208.944 54.1317 208.132 53.8849 207.09 53.8849C206.059 53.8849 205.236 54.1482 204.655 54.6693C204.128 55.1411 203.837 55.761 203.782 56.5619H205.543C205.593 56.1889 205.735 55.8871 205.966 55.6513C206.251 55.3605 206.629 55.2124 207.096 55.2124C208.061 55.2124 208.599 55.7829 208.599 56.8197C208.599 57.1653 208.505 57.4945 208.324 57.8017C208.149 58.0924 207.825 58.4544 207.321 58.8988C206.876 59.2938 206.569 59.6942 206.41 60.0892C206.256 60.4348 206.18 60.9011 206.158 61.4771Z" fill="#262626"/>
<path d="M35.6131 66.9352H3.13233C3.03359 66.9352 2.95129 66.8529 2.95129 66.7542V60.1988C2.95129 60.133 2.98972 60.0726 3.04457 60.0397C4.54765 59.2388 5.86968 58.7341 7.20819 58.4544C10.8891 57.5328 14.7839 57.5986 18.7775 58.6518C21.2625 59.557 23.4568 59.7435 25.492 59.2388C26.0954 59.0084 26.6769 58.5586 27.2968 58.0868C28.2293 57.3682 29.1948 56.6276 30.3962 56.5069C32.0364 56.3424 33.737 56.2162 35.6021 56.1339C35.6515 56.1339 35.7009 56.1504 35.7338 56.1833C35.7667 56.2162 35.7886 56.2656 35.7886 56.3149V66.7597C35.7941 66.8529 35.7118 66.9352 35.6131 66.9352ZM3.31337 66.5732H35.4375V56.496C33.6547 56.5783 32.02 56.6989 30.4401 56.858C29.3375 56.9677 28.4159 57.6809 27.5217 58.3666C26.8799 58.8603 26.2764 59.3266 25.6182 59.5734C25.6127 59.5734 25.6072 59.5789 25.5962 59.5789C23.4842 60.1055 21.2187 59.9135 18.6788 58.9919C14.7565 57.9606 10.922 57.8948 7.29598 58.8054C6.01782 59.0742 4.75062 59.5515 3.31886 60.3085V66.5732H3.31337Z" fill="#1A1A1A"/>
<path d="M3.13233 60.3798C3.09942 60.3798 3.06651 60.3688 3.03908 60.3523C2.98423 60.3194 2.95129 60.2591 2.95129 60.1987V45.2393C2.95129 45.1405 3.03359 45.0582 3.13233 45.0582H35.6131C35.7118 45.0582 35.7941 45.1405 35.7941 45.2393V56.3094C35.7941 56.4081 35.7173 56.4849 35.6241 56.4904C33.7699 56.5727 32.0693 56.6934 30.4401 56.8634C29.3375 56.9731 28.4159 57.6863 27.5217 58.372C26.8799 58.8657 26.2764 59.332 25.6182 59.5788C25.6127 59.5788 25.6072 59.5843 25.5962 59.5843C23.4842 60.111 21.2187 59.919 18.6788 58.9974C14.7565 57.9661 10.922 57.9002 7.29598 58.8108C5.99039 59.0851 4.69574 59.5788 3.22558 60.3633C3.19266 60.3688 3.15976 60.3798 3.13233 60.3798ZM3.31337 45.4203V59.9025C4.70673 59.1784 5.95197 58.7176 7.20819 58.4543C10.8891 57.5327 14.7839 57.5985 18.7775 58.6518C21.2625 59.5569 23.4568 59.7434 25.492 59.2387C26.0954 59.0083 26.6769 58.5585 27.2968 58.0867C28.2293 57.3681 29.1948 56.6275 30.3962 56.5069C31.987 56.3423 33.6328 56.2271 35.4321 56.1393V45.4203H3.31337Z" fill="#1A1A1A"/>
<path d="M15.6945 55.3056C17.3427 55.3056 18.6788 53.9695 18.6788 52.3214C18.6788 50.6732 17.3427 49.3372 15.6945 49.3372C14.0464 49.3372 12.7103 50.6732 12.7103 52.3214C12.7103 53.9695 14.0464 55.3056 15.6945 55.3056Z" fill="#1A1A1A"/>
<path d="M195.159 7.849H166.315V28.5959H195.159V7.849Z" fill="#F3F3F3"/>
<path d="M195.428 28.8645H166.046V7.57458H195.428V28.8645ZM166.584 28.3269H194.89V8.11767H166.584V28.3269Z" fill="#262626"/>
<path d="M183.935 16.4234L179.612 13.9274C178.23 13.1265 176.496 14.1249 176.496 15.7267V20.7187C176.496 22.315 178.23 23.3189 179.612 22.518L183.935 20.022C185.323 19.2211 185.323 17.2243 183.935 16.4234Z" fill="#262626"/>
<path d="M178.575 23.0718C178.175 23.0718 177.769 22.9676 177.401 22.7537C176.666 22.3313 176.228 21.5688 176.228 20.724V15.732C176.228 14.8817 176.666 14.1247 177.401 13.7023C178.137 13.2799 179.014 13.2799 179.749 13.7023L184.072 16.1983C184.807 16.6207 185.246 17.3832 185.246 18.228C185.246 19.0783 184.807 19.8353 184.072 20.2577L179.749 22.7537C179.382 22.9621 178.976 23.0718 178.575 23.0718ZM178.575 13.9162C178.263 13.9162 177.955 13.9985 177.67 14.1631C177.105 14.4922 176.765 15.0737 176.765 15.7265V20.7185C176.765 21.3713 177.105 21.9583 177.67 22.2819C178.235 22.611 178.91 22.611 179.481 22.2819L183.803 19.7859C184.368 19.4568 184.708 18.8753 184.708 18.2225C184.708 17.5697 184.368 16.9827 183.803 16.6591L179.481 14.1631C179.195 13.9985 178.883 13.9162 178.575 13.9162Z" fill="#262626"/>
</svg>
