<svg width="705" height="220" viewBox="0 0 705 220" fill="none" xmlns="http://www.w3.org/2000/svg">
<path d="M334.862 124.48C339.902 124.48 343.182 122.52 346.062 119.56L343.982 117.52C341.302 120.08 338.782 121.56 334.942 121.56C328.742 121.56 324.102 116.48 324.102 110V109.92C324.102 103.48 328.742 98.44 334.942 98.44C338.782 98.44 341.342 100.04 343.742 102.28L345.902 99.96C343.142 97.28 340.062 95.52 334.982 95.52C326.782 95.52 320.822 102.08 320.822 110V110.08C320.822 118.12 326.782 124.48 334.862 124.48ZM351.229 124H354.109L366.789 107.92V124H369.829V103.32H366.869L354.309 119.36V103.32H351.229V124ZM386.057 124.48C389.937 124.48 392.417 122.84 394.497 120.48L392.537 118.64C390.897 120.4 388.897 121.72 386.217 121.72C381.897 121.72 378.617 118.16 378.617 113.68V113.6C378.617 109.12 381.817 105.6 386.017 105.6C388.857 105.6 390.657 107 392.297 108.72L394.337 106.56C392.377 104.48 389.977 102.88 386.057 102.88C379.977 102.88 375.457 107.8 375.457 113.68V113.76C375.457 119.56 379.977 124.48 386.057 124.48ZM405.003 124H408.083V106.08H416.403V103.32H396.723V106.08H405.003V124ZM428.707 124.48C432.667 124.48 435.147 122.96 437.227 120.6L435.307 118.88C433.587 120.64 431.667 121.8 428.787 121.8C425.107 121.8 421.947 119.28 421.507 114.8H437.907C437.947 114.44 437.947 114.24 437.947 113.8C437.947 107.76 434.427 102.88 428.307 102.88C422.547 102.88 418.387 107.68 418.387 113.64V113.72C418.387 120.12 423.067 124.48 428.707 124.48ZM421.507 112.52C421.947 108.52 424.587 105.48 428.227 105.48C432.387 105.48 434.507 108.8 434.827 112.52H421.507ZM443.338 124H446.378V108.16L454.298 119.6H454.418L462.338 108.12V124H465.418V103.32H462.218L454.418 114.92L446.578 103.32H443.338V124ZM478.483 124.44C482.163 124.44 484.523 122.76 485.963 120.88V124H488.923V111.36C488.923 108.76 488.203 106.72 486.803 105.32C485.283 103.8 483.043 103.04 480.123 103.04C477.083 103.04 474.883 103.68 472.603 104.76L473.523 107.28C475.443 106.36 477.363 105.76 479.803 105.76C483.683 105.76 485.963 107.68 485.963 111.4V112.12C484.083 111.6 482.283 111.24 479.603 111.24C474.363 111.24 470.763 113.6 470.763 117.92V118C470.763 122.28 474.643 124.44 478.483 124.44ZM479.083 122C476.323 122 473.883 120.48 473.883 117.88V117.8C473.883 115.2 476.043 113.52 479.923 113.52C482.483 113.52 484.443 113.96 486.003 114.4V116.4C486.003 119.68 482.923 122 479.083 122ZM507.479 124H510.519V108.16L518.439 119.6H518.559L526.479 108.12V124H529.559V103.32H526.359L518.559 114.92L510.719 103.32H507.479V124ZM545.503 124.48C549.463 124.48 551.943 122.96 554.023 120.6L552.103 118.88C550.383 120.64 548.463 121.8 545.583 121.8C541.903 121.8 538.743 119.28 538.303 114.8H554.703C554.743 114.44 554.743 114.24 554.743 113.8C554.743 107.76 551.223 102.88 545.103 102.88C539.343 102.88 535.183 107.68 535.183 113.64V113.72C535.183 120.12 539.863 124.48 545.503 124.48ZM538.303 112.52C538.743 108.52 541.383 105.48 545.023 105.48C549.183 105.48 551.303 108.8 551.623 112.52H538.303ZM560.135 124H563.215V114.96H575.575V124H578.615V103.32H575.575V112.16H563.215V103.32H560.135V124ZM591.526 124H594.606V106.08H602.926V103.32H583.246V106.08H591.526V124ZM615.63 124.48C621.87 124.48 626.47 119.56 626.47 113.68V113.6C626.47 107.76 621.95 102.88 615.71 102.88C609.43 102.88 604.91 107.8 604.91 113.68V113.76C604.91 119.6 609.43 124.48 615.63 124.48ZM615.71 121.72C611.35 121.72 608.07 118.12 608.07 113.68V113.6C608.07 109.24 611.15 105.6 615.63 105.6C619.99 105.6 623.31 109.24 623.31 113.68V113.76C623.31 118.08 620.19 121.72 615.71 121.72ZM632.049 130.4H635.129V120.04C636.729 122.4 639.209 124.44 643.049 124.44C648.049 124.44 652.929 120.4 652.929 113.68V113.6C652.929 106.8 648.009 102.88 643.049 102.88C639.209 102.88 636.849 105.04 635.129 107.48V103.32H632.049V130.4ZM642.489 121.68C638.649 121.68 635.009 118.48 635.009 113.68V113.6C635.009 108.92 638.649 105.64 642.489 105.64C646.449 105.64 649.769 108.72 649.769 113.64V113.72C649.769 118.72 646.489 121.68 642.489 121.68ZM668.052 124.48C674.292 124.48 678.892 119.56 678.892 113.68V113.6C678.892 107.76 674.372 102.88 668.132 102.88C661.852 102.88 657.332 107.8 657.332 113.68V113.76C657.332 119.6 661.852 124.48 668.052 124.48ZM668.132 121.72C663.772 121.72 660.492 118.12 660.492 113.68V113.6C660.492 109.24 663.572 105.6 668.052 105.6C672.412 105.6 675.732 109.24 675.732 113.68V113.76C675.732 118.08 672.612 121.72 668.132 121.72ZM684.471 124H694.911C699.711 124.04 702.711 122 702.711 118.44V118.4C702.711 115.56 700.911 114.16 698.191 113.4C700.431 112.64 701.911 111.2 701.911 108.68V108.64C701.911 105.28 699.231 103.32 694.911 103.32H684.471V124ZM687.511 112.36V105.8H694.551C697.311 105.76 698.791 107 698.791 108.88V108.92C698.791 111 697.271 112.36 694.271 112.36H687.511ZM687.511 114.76H694.511C697.871 114.72 699.631 116.12 699.631 118.24V118.28C699.631 120.24 697.911 121.52 694.831 121.52H687.511V114.76Z" fill="#262626"/>
<path d="M19.0902 201.116C19.0134 201.116 18.9421 201.083 18.8872 201.023C18.8378 200.963 18.8104 200.886 18.8214 200.809C19.3919 196.371 21.7068 185.329 30.835 178.735C36.8967 174.357 44.9168 172.635 53.4141 173.88C61.9992 175.142 70.4636 179.404 77.2878 185.905C78.1655 181.609 80.3104 175.718 85.5328 171.071C89.8116 167.264 95.3248 165.048 101.48 164.653C107.251 164.285 113.153 165.597 118.101 168.345C129.1 174.461 135.019 187.38 132.83 200.496C132.808 200.628 132.699 200.721 132.567 200.721L19.0902 201.116ZM48.0052 174.028C41.8229 174.028 35.9587 175.701 31.1532 179.174C22.398 185.499 20.0282 196.02 19.3974 200.573L132.337 200.189C134.383 187.375 128.579 174.791 117.844 168.822C107.514 163.079 94.0795 164.198 85.8949 171.477C80.5847 176.2 78.5221 182.251 77.7267 186.497C77.7102 186.596 77.6389 186.673 77.5457 186.705C77.4524 186.733 77.3482 186.711 77.2769 186.64C68.796 178.4 57.9947 174.028 48.0052 174.028Z" fill="#1A1A1A"/>
<path d="M96.0212 200.469C104.354 176.469 127.147 160.874 151.317 162.069C172.371 163.112 191.286 180.315 199.701 200.469C165.146 201.665 130.587 199.279 96.0212 200.469Z" fill="#FFC700"/>
<path d="M177.786 201.083C167.73 201.083 157.697 200.908 147.861 200.738C130.872 200.442 113.307 200.14 96.0323 200.738L95.6373 200.749L95.7635 200.376C104.069 176.453 126.917 160.588 151.328 161.795C161.383 162.294 171.444 166.474 180.419 173.891C188.762 180.786 195.702 190.189 199.948 200.365L200.096 200.727L199.706 200.738C192.438 200.99 185.103 201.083 177.786 201.083ZM117.948 199.86C128.003 199.86 138.036 200.036 147.872 200.206C164.73 200.496 182.163 200.798 199.311 200.217C191.615 182.103 173.858 163.452 151.312 162.338C127.262 161.153 104.744 176.699 96.4108 200.189C103.559 199.948 110.761 199.86 117.948 199.86Z" fill="#262626"/>
<path d="M67.5287 24.6198C67.5287 18.7556 62.7726 13.9995 56.9084 13.9995C51.0442 13.9995 46.2881 18.7556 46.2881 24.6198C46.2881 27.4888 47.4291 30.0945 49.2778 32.0035H49.2613C49.2613 32.0035 52.2785 35.7887 52.3662 38.5699C52.4156 40.1882 52.4101 40.6819 52.3937 40.8135H56.9029H61.4121C61.3957 40.6819 61.3902 40.1882 61.4396 38.5699C61.5273 35.7887 64.5445 32.0035 64.5445 32.0035H64.539C66.3876 30.089 67.5287 27.4888 67.5287 24.6198Z" fill="#F3F3F3"/>
<path d="M61.7195 41.0823H52.0866L52.125 40.7806C52.136 40.6984 52.1524 40.3253 52.0976 38.5754C52.0153 35.9148 49.0804 32.201 49.053 32.1681L49.0036 32.1023C47.0782 30.0726 46.0249 27.4175 46.0249 24.6198C46.0249 18.613 50.9126 13.7307 56.914 13.7307C62.9208 13.7307 67.8031 18.6185 67.8031 24.6198C67.8031 27.4449 66.7279 30.1165 64.7695 32.1571L64.7585 32.1681C64.7311 32.2065 61.7963 35.9203 61.714 38.5754C61.6591 40.3253 61.6756 40.6984 61.6865 40.7806L61.7195 41.0823ZM52.6736 40.5448H61.1325C61.127 40.2595 61.1325 39.7 61.1709 38.5644C61.2367 36.4031 62.9647 33.7206 63.8424 32.4972L63.634 32.5576L64.3471 31.817C66.2232 29.8751 67.26 27.3188 67.26 24.6253C67.26 18.9147 62.6136 14.2738 56.9085 14.2738C51.1979 14.2738 46.557 18.9202 46.557 24.6253C46.557 27.3242 47.5938 29.8806 49.4699 31.8225L50.1776 32.5521L49.9581 32.4863C50.8304 33.7096 52.5693 36.3921 52.6352 38.5589C52.6681 39.7 52.6736 40.2595 52.6736 40.5448Z" fill="#262626"/>
<path d="M52.3932 40.8135H52.3661C52.3661 40.8135 52.3824 40.9057 52.3932 40.8135Z" fill="#F3F3F3"/>
<path d="M52.3827 41.1262C52.3498 41.1262 52.1414 41.1152 52.0975 40.8574L52.0481 40.5447H52.6954L52.657 40.8464C52.6296 41.1042 52.4266 41.1207 52.3827 41.1262ZM52.3772 40.5831H52.3718C52.2236 40.5886 52.1359 40.7038 52.1194 40.7806L52.3718 40.808L52.6296 40.7696C52.6131 40.6928 52.5199 40.5831 52.3772 40.5831Z" fill="#262626"/>
<path d="M61.4391 40.8135H61.412C61.4228 40.9057 61.4391 40.8135 61.4391 40.8135Z" fill="#F3F3F3"/>
<path d="M61.4232 41.1262C61.3793 41.1262 61.1763 41.1097 61.1489 40.8464L61.1105 40.5447H61.7578L61.7084 40.8574C61.6645 41.1152 61.4616 41.1262 61.4232 41.1262ZM61.4286 40.5831C61.2915 40.5831 61.1928 40.6873 61.1763 40.7696L61.4286 40.8135L61.681 40.7806C61.67 40.7038 61.5822 40.5886 61.4341 40.5831C61.4286 40.5831 61.4286 40.5831 61.4286 40.5831Z" fill="#262626"/>
<path d="M58.8229 37.1161C58.7242 37.1161 58.6419 37.0338 58.6419 36.9351V31.2848C58.6419 31.0489 58.6529 30.8076 58.6639 30.5607C58.1647 30.6485 57.6106 30.6156 57.0566 30.4126C56.6561 30.2645 56.3983 30.0615 56.2337 29.8421C55.8058 30.0615 55.3121 30.2206 54.8403 30.27V36.776C54.8403 36.8747 54.758 36.957 54.6593 36.957C54.5606 36.957 54.4783 36.8747 54.4783 36.776V30.2864C54.2534 30.2809 54.0449 30.248 53.8584 30.1822C53.4305 30.0286 53.1617 29.7104 53.0849 29.2661C52.9752 28.6407 53.0739 28.2019 53.3757 27.955C53.8694 27.56 54.6867 27.8947 54.7251 27.9056C54.791 27.9331 54.8348 27.9989 54.8348 28.0702V29.9079C55.2353 29.8585 55.6687 29.7269 56.0582 29.5294C55.9484 29.2332 55.9704 28.9534 55.9978 28.7888C56.1075 28.1744 56.5628 27.6313 56.9743 27.6259C57.095 27.6259 57.3967 27.6752 57.4899 28.1744C57.5667 28.5749 57.3637 29.0137 56.9084 29.3977C56.7987 29.491 56.678 29.5788 56.5464 29.6611C56.6726 29.8201 56.87 29.9628 57.1718 30.0725C57.6984 30.2645 58.214 30.2864 58.6803 30.1932C58.79 28.9205 59.0808 27.7081 59.6513 27.5052C59.8323 27.4393 60.1231 27.4448 60.4632 27.8398C60.8581 28.3006 60.8526 28.915 60.4577 29.4855C60.156 29.9189 59.6403 30.2919 59.0204 30.4784C59.004 30.7362 58.993 31.005 58.993 31.2903V36.9406C58.9985 37.0393 58.9217 37.1161 58.8229 37.1161ZM59.8433 27.8288C59.8213 27.8288 59.8049 27.8343 59.7884 27.8398C59.4977 27.944 59.1905 28.7779 59.0643 30.0889C59.5416 29.9134 59.9365 29.6172 60.1779 29.2771C60.4796 28.8437 60.4906 28.4048 60.2053 28.0702C60.1011 27.955 59.964 27.8288 59.8433 27.8288ZM54.012 28.1196C53.8639 28.1196 53.7158 28.147 53.6115 28.2348C53.3702 28.4268 53.3921 28.8656 53.447 29.2003C53.5018 29.5184 53.6774 29.7269 53.9846 29.8421C54.1272 29.8969 54.2973 29.9189 54.4838 29.9244V28.1964C54.3576 28.158 54.1821 28.1196 54.012 28.1196ZM56.9852 27.9824C56.7987 27.9824 56.4476 28.3555 56.3599 28.8437C56.3379 28.9753 56.327 29.1564 56.3873 29.3374C56.4915 29.2661 56.5958 29.1948 56.6835 29.118C56.8865 28.9424 57.2156 28.6023 57.1443 28.2348C57.1279 28.147 57.084 27.9824 56.9852 27.9824Z" fill="#1A1A1A"/>
<path d="M63.6616 39.5134H50.1559C49.6128 39.5134 49.1685 39.0691 49.1685 38.526C49.1685 37.9829 49.6128 37.5386 50.1559 37.5386H63.6616C64.2047 37.5386 64.6491 37.9829 64.6491 38.526C64.6491 39.0691 64.2047 39.5134 63.6616 39.5134Z" fill="#F3F3F3"/>
<path d="M63.6614 39.7822H50.1556C49.4644 39.7822 48.8994 39.2172 48.8994 38.526C48.8994 37.8348 49.4644 37.2698 50.1556 37.2698H63.6614C64.3526 37.2698 64.9176 37.8348 64.9176 38.526C64.9176 39.2172 64.3526 39.7822 63.6614 39.7822ZM50.1556 37.8074C49.7607 37.8074 49.437 38.131 49.437 38.526C49.437 38.921 49.7607 39.2446 50.1556 39.2446H63.6614C64.0564 39.2446 64.38 38.921 64.38 38.526C64.38 38.131 64.0564 37.8074 63.6614 37.8074H50.1556Z" fill="#262626"/>
<path d="M63.6616 41.9326H50.1559C49.6128 41.9326 49.1685 41.4883 49.1685 40.9452C49.1685 40.4021 49.6128 39.9578 50.1559 39.9578H63.6616C64.2047 39.9578 64.6491 40.4021 64.6491 40.9452C64.6491 41.4938 64.2047 41.9326 63.6616 41.9326Z" fill="#F3F3F3"/>
<path d="M63.6614 42.207H50.1556C49.4644 42.207 48.8994 41.642 48.8994 40.9508C48.8994 40.2596 49.4644 39.6946 50.1556 39.6946H63.6614C64.3526 39.6946 64.9176 40.2596 64.9176 40.9508C64.9176 41.642 64.3526 42.207 63.6614 42.207ZM50.1556 40.2322C49.7607 40.2322 49.437 40.5558 49.437 40.9508C49.437 41.3458 49.7607 41.6694 50.1556 41.6694H63.6614C64.0564 41.6694 64.38 41.3458 64.38 40.9508C64.38 40.5558 64.0564 40.2322 63.6614 40.2322H50.1556Z" fill="#262626"/>
<path d="M63.6616 44.3572H50.1559C49.6128 44.3572 49.1685 43.9128 49.1685 43.3697C49.1685 42.8267 49.6128 42.3823 50.1559 42.3823H63.6616C64.2047 42.3823 64.6491 42.8267 64.6491 43.3697C64.6491 43.9183 64.2047 44.3572 63.6616 44.3572Z" fill="#F3F3F3"/>
<path d="M63.6614 44.626H50.1556C49.4644 44.626 48.8994 44.0609 48.8994 43.3697C48.8994 42.6785 49.4644 42.1135 50.1556 42.1135H63.6614C64.3526 42.1135 64.9176 42.6785 64.9176 43.3697C64.9176 44.0609 64.3526 44.626 63.6614 44.626ZM50.1556 42.6511C49.7607 42.6511 49.437 42.9748 49.437 43.3697C49.437 43.7647 49.7607 44.0884 50.1556 44.0884H63.6614C64.0564 44.0884 64.38 43.7647 64.38 43.3697C64.38 42.9748 64.0564 42.6511 63.6614 42.6511H50.1556Z" fill="#262626"/>
<path d="M57.7367 47.9448H56.0746C54.0942 47.9448 52.4869 46.3375 52.4869 44.3572H61.3244C61.3244 46.343 59.7171 47.9448 57.7367 47.9448Z" fill="#F3F3F3"/>
<path d="M57.7367 48.2192H56.0746C53.9461 48.2192 52.2181 46.4858 52.2181 44.3628V44.094H61.5932V44.3628C61.5932 46.4858 59.8652 48.2192 57.7367 48.2192ZM52.7667 44.6261C52.9039 46.3322 54.3356 47.6761 56.0746 47.6761H57.7367C59.4757 47.6761 60.9075 46.3322 61.0446 44.6261H52.7667Z" fill="#262626"/>
<path d="M209.411 219.334H6.0562C2.71542 219.334 0 215.121 0 209.937C0 204.759 2.71542 200.546 6.0562 200.546H209.411C212.751 200.546 215.467 204.759 215.467 209.937C215.461 215.121 212.746 219.334 209.411 219.334ZM6.0562 201.083C3.01713 201.083 0.543083 205.055 0.543083 209.937C0.543083 214.82 3.01713 218.791 6.0562 218.791H209.411C212.45 218.791 214.924 214.82 214.924 209.937C214.924 205.055 212.45 201.083 209.411 201.083H6.0562Z" fill="#1A1A1A"/>
<path d="M117.07 203.519C117.075 203.437 117.075 203.387 117.075 203.387L117.037 203.404C111.738 183.754 109.911 160.977 112.028 143.1L91.0786 144.328C93.2674 165.909 100.284 186.991 111.469 205.582L109.587 207.639C109.587 207.639 110.421 210.069 110.525 210.239C110.63 210.409 113.318 209.619 113.553 209.345C113.789 209.065 116.966 206.339 116.966 206.251C116.966 206.18 117.042 204.128 117.064 203.546H117.07C117.07 203.535 117.07 203.524 117.07 203.519Z" fill="#F3F3F3"/>
<path d="M110.608 210.53C110.597 210.53 110.58 210.53 110.569 210.53C110.41 210.519 110.333 210.442 110.295 210.381C110.185 210.206 109.582 208.467 109.33 207.726L109.28 207.573L111.134 205.549C100.015 187.012 92.9932 165.86 90.8154 144.356L90.788 144.076L112.341 142.814L112.303 143.132C110.169 161.169 112.007 183.54 117.229 203.047L117.366 202.992L117.35 203.497L117.405 203.705L117.339 203.733C117.278 205.252 117.245 206.196 117.245 206.256C117.245 206.421 117.245 206.421 115.413 208.039C114.722 208.648 113.866 209.405 113.768 209.52C113.46 209.866 111.145 210.53 110.608 210.53ZM109.889 207.699C110.213 208.642 110.569 209.646 110.706 209.986C111.244 209.932 113.126 209.356 113.356 209.158C113.466 209.032 114.069 208.494 115.046 207.628C115.693 207.057 116.483 206.355 116.697 206.146C116.708 205.79 116.757 204.583 116.796 203.552L116.774 203.475C111.507 183.957 109.626 161.526 111.721 143.39L91.3694 144.586C93.5802 165.98 100.602 187.018 111.694 205.444L111.798 205.614L109.889 207.699ZM116.697 206.24V206.245C116.697 206.245 116.697 206.245 116.697 206.24Z" fill="#262626"/>
<path d="M133.066 140.697C138.887 155.618 149.194 168.756 162.305 177.956L165.531 178.296L167.154 181.499C167.154 181.499 167.248 186.749 167.154 186.875C167.056 187.001 165.394 188.729 165.394 188.729L162.673 187.369C162.881 185.625 162.673 184.889 162.305 183.408C151.943 182.317 141.97 178.159 133.796 172.009C124.174 164.768 116.977 154.877 112.369 144.109L133.066 140.697Z" fill="#F3F3F3"/>
<path d="M165.454 189.059L162.387 187.528L162.409 187.342C162.601 185.718 162.437 185.027 162.097 183.661C152.091 182.569 141.992 178.51 133.642 172.228C124.454 165.311 117.01 155.629 112.127 144.219L111.99 143.9L133.242 140.395L133.319 140.598C139.09 155.387 149.419 168.564 162.404 177.692L165.706 178.043L167.423 181.433V181.494C167.522 186.837 167.434 186.947 167.368 187.034C167.27 187.166 165.98 188.51 165.586 188.916L165.454 189.059ZM162.963 187.215L165.339 188.4C165.915 187.802 166.716 186.963 166.908 186.749C166.957 186.277 166.924 183.386 166.891 181.56L165.361 178.542L162.212 178.208L162.157 178.169C149.117 169.019 138.733 155.821 132.902 140.993L112.758 144.317C117.608 155.497 124.931 164.993 133.966 171.79C142.293 178.054 152.37 182.086 162.338 183.139L162.525 183.161L162.612 183.518C162.947 184.862 163.133 185.624 162.963 187.215Z" fill="#262626"/>
<path d="M166.54 178.894L165.53 178.296C165.942 180.331 167.182 182.46 166.595 184.665C166.364 185.115 166.189 185.74 165.898 186.02C165.07 186.744 163.764 187.496 162.667 187.375C162.996 191.325 163.078 196.311 163.078 196.311C163.078 196.311 167.752 194.128 168.394 190.694C169.036 187.26 167.763 182.69 167.763 182.69L173.693 185.011L173.496 184.402L166.54 178.894Z" fill="#262626"/>
<path d="M162.821 196.728L162.815 196.311C162.815 196.262 162.733 191.286 162.404 187.391L162.376 187.068L162.7 187.101C163.709 187.21 164.96 186.475 165.722 185.811C165.865 185.674 165.997 185.351 166.128 185.043C166.194 184.879 166.266 184.714 166.342 184.561C166.721 183.107 166.255 181.648 165.799 180.232C165.602 179.613 165.393 178.971 165.267 178.345L165.146 177.753L166.704 178.68L173.726 184.243L174.121 185.471L168.153 183.134C168.465 184.434 169.184 187.929 168.657 190.743C167.999 194.276 163.386 196.465 163.194 196.552L162.821 196.728ZM162.969 187.655C163.221 190.836 163.32 194.61 163.347 195.872C164.45 195.274 167.637 193.343 168.136 190.644C168.756 187.314 167.522 182.811 167.511 182.767L167.368 182.246L173.254 184.55L166.397 179.113L165.953 178.85C166.063 179.251 166.189 179.651 166.326 180.073C166.803 181.571 167.302 183.112 166.869 184.731L166.847 184.786C166.776 184.928 166.71 185.087 166.639 185.257C166.49 185.614 166.331 185.987 166.101 186.212C165.273 186.925 164.071 187.633 162.969 187.655Z" fill="#262626"/>
<path d="M100.415 13.089C105.138 10.8563 111.551 13.6211 113.833 18.432C114.645 20.1381 114.985 22.0197 115.484 23.8409C118.337 34.3076 126.796 43.0682 137.158 46.2883C141.47 47.6269 146.676 48.521 148.689 52.564C149.946 55.0819 149.485 58.121 148.558 60.7815C146.484 66.7116 142.112 71.7474 136.632 74.8194C124.898 81.3968 89.4329 49.0312 89.4329 49.0312C87.3429 47.9286 86.6846 45.1309 87.2277 42.8378C87.7708 40.5393 89.2135 38.581 90.4643 36.5787C91.715 34.5764 92.8231 32.3053 92.5708 29.9575C92.3404 27.7906 90.9799 25.9145 90.4368 23.808C89.7511 21.142 90.4807 18.1468 92.3239 16.1006C94.1671 14.0544 97.069 13.0122 99.7954 13.4181L100.415 13.089Z" fill="#262626"/>
<path d="M100.821 13.791C100.843 13.7801 101.123 13.6594 100.997 13.7088C101.096 13.6704 101.194 13.632 101.293 13.5936C101.507 13.5168 101.721 13.4454 101.935 13.3906C102.127 13.3357 102.319 13.2918 102.516 13.2534C102.621 13.2315 102.725 13.215 102.829 13.1986C102.884 13.1876 102.933 13.1821 102.988 13.1766C102.873 13.1931 102.999 13.1766 103.048 13.1712C103.487 13.1273 103.926 13.1108 104.365 13.1218C104.568 13.1273 104.765 13.1437 104.968 13.1602C105.023 13.1657 105.073 13.1712 105.128 13.1766C105.149 13.1766 105.314 13.1986 105.221 13.1876C105.138 13.1766 105.27 13.1931 105.276 13.1931C105.358 13.2041 105.435 13.215 105.517 13.2315C105.945 13.3028 106.367 13.407 106.784 13.5277C106.993 13.5881 107.201 13.6594 107.41 13.7362C107.514 13.7746 107.613 13.813 107.717 13.8514C107.766 13.8733 107.821 13.8898 107.87 13.9117C107.788 13.8788 107.87 13.9117 107.903 13.9282C108.726 14.2957 109.505 14.7401 110.224 15.2777C110.328 15.3545 110.471 15.4697 110.641 15.6178C110.816 15.7714 110.992 15.925 111.162 16.0895C111.474 16.3967 111.776 16.7204 112.05 17.0605C112.083 17.1044 112.122 17.1483 112.155 17.1867C112.133 17.1593 112.083 17.0879 112.177 17.2196C112.242 17.3074 112.303 17.3951 112.369 17.4884C112.495 17.6694 112.61 17.8505 112.725 18.037C112.967 18.4429 113.186 18.8708 113.362 19.3096C114.212 21.4271 114.541 23.7147 115.276 25.8705C116.571 29.6611 118.567 33.1775 121.107 36.2769C123.614 39.3379 126.664 41.9655 130.065 43.9898C131.788 45.0156 133.609 45.8768 135.491 46.568C137.274 47.2263 139.128 47.6761 140.938 48.2412C142.694 48.7897 144.262 49.3438 145.776 50.4135C145.864 50.4738 145.952 50.5397 146.034 50.6055C146.106 50.6604 146.045 50.611 146.029 50.6C146.073 50.6329 146.111 50.6658 146.155 50.6987C146.331 50.8414 146.501 50.995 146.66 51.1486C146.813 51.2967 146.961 51.4503 147.099 51.6094C147.159 51.6807 147.219 51.752 147.28 51.8233C147.384 51.944 147.323 51.8782 147.301 51.8507C147.351 51.9166 147.4 51.9824 147.444 52.0482C148.015 52.8601 148.377 53.7707 148.547 54.7472C148.92 56.8866 148.311 59.1686 147.543 61.1874C146.841 63.0306 145.831 64.8792 144.663 66.5359C143.522 68.1542 142.134 69.6792 140.614 71.0122C139.227 72.2356 137.691 73.3711 136.006 74.2269C135.924 74.2707 135.842 74.3091 135.754 74.3475C135.743 74.353 135.628 74.4024 135.628 74.4024C135.628 74.3969 135.836 74.3201 135.727 74.364C135.699 74.375 135.672 74.3859 135.644 74.3969C135.469 74.4627 135.288 74.5286 135.107 74.5779C134.915 74.6328 134.723 74.6822 134.531 74.7261C134.366 74.759 134.114 74.8522 133.949 74.8248C134.065 74.8413 134.119 74.8029 133.977 74.8193C133.927 74.8248 133.878 74.8303 133.823 74.8358C133.719 74.8467 133.62 74.8522 133.516 74.8632C133.302 74.8797 133.083 74.8851 132.869 74.8851C132.419 74.8851 131.974 74.8632 131.525 74.8193C131.415 74.8083 131.311 74.7974 131.201 74.7809C131.174 74.7754 131.146 74.7754 131.113 74.7699C131.009 74.759 131.3 74.7974 131.196 74.7809C131.13 74.7699 131.064 74.7645 130.998 74.7535C130.762 74.7206 130.526 74.6767 130.29 74.6328C129.791 74.5341 129.292 74.4189 128.798 74.2872C127.734 74.0019 126.692 73.6454 125.66 73.2449C125.381 73.1352 125.101 73.0255 124.827 72.9103C124.766 72.8883 124.706 72.8609 124.646 72.8335C124.849 72.9158 124.635 72.828 124.585 72.8061C124.437 72.7457 124.295 72.6799 124.146 72.6141C123.576 72.3617 123.011 72.1039 122.451 71.8296C121.277 71.2591 120.12 70.6502 118.979 70.0139C116.576 68.6753 114.239 67.2107 111.952 65.6856C109.626 64.1332 107.344 62.5039 105.106 60.8308C104.573 60.4304 104.041 60.0299 103.509 59.6294C103.24 59.4265 102.972 59.218 102.708 59.015C102.653 58.9712 102.599 58.9273 102.538 58.8834C102.505 58.8615 102.472 58.834 102.445 58.8121C102.588 58.9218 102.494 58.8505 102.467 58.8285C102.33 58.7243 102.198 58.6201 102.061 58.5159C101.079 57.7533 100.108 56.9853 99.1426 56.2064C97.486 54.8734 95.8457 53.5184 94.2275 52.1415C93.1523 51.2309 92.088 50.3093 91.0348 49.3767C90.7605 49.1353 90.4862 48.8885 90.2119 48.6416C90.1516 48.5868 90.0913 48.5264 90.0254 48.4716C90.0145 48.4606 90.0035 48.4496 89.9925 48.4386C89.9047 48.3673 89.817 48.307 89.7182 48.2521C89.6359 48.2028 89.5537 48.1534 89.4714 48.0985C89.4275 48.0656 89.3836 48.0382 89.3397 48.0053C89.4439 48.0821 89.2519 47.9285 89.2519 47.9285C89.0983 47.7968 88.9612 47.6487 88.8295 47.5006C88.8186 47.4896 88.7143 47.358 88.7637 47.4238C88.8131 47.4896 88.7144 47.358 88.7089 47.3415C88.6376 47.2428 88.5717 47.1385 88.5114 47.0343C88.27 46.6229 88.1822 46.4144 88.0506 45.9427C87.908 45.438 87.8696 45.1856 87.8476 44.6974C87.8366 44.4835 87.8366 44.2695 87.8476 44.0611C87.8531 43.9459 87.8586 43.8362 87.8696 43.721C87.875 43.6661 87.8805 43.6112 87.886 43.5509C87.875 43.6606 87.8915 43.5125 87.897 43.4741C88.259 41.2579 89.614 39.3543 90.7934 37.5002C92.0826 35.476 93.3223 33.2543 93.3882 30.7912C93.454 28.4049 92.1429 26.4301 91.4023 24.2577C91.0622 23.2539 90.9251 22.3542 90.9799 21.301C91.0293 20.3903 91.2762 19.348 91.6602 18.5142C92.4995 16.7039 94.0026 15.2996 95.8293 14.6194C96.7619 14.2738 97.6286 14.1092 98.5886 14.1092C98.8245 14.1092 99.0604 14.1202 99.3017 14.1421C99.6144 14.1696 99.8558 14.2464 100.185 14.0818C100.415 14.0105 100.618 13.8953 100.821 13.791C101.205 13.5881 101.326 13.0505 101.112 12.6829C100.882 12.2935 100.393 12.1892 100.004 12.3922C99.7954 12.5019 99.5925 12.6116 99.384 12.7158C99.5925 12.6884 99.8009 12.661 100.009 12.6336C97.8096 12.3209 95.555 12.7597 93.657 13.9446C91.7863 15.1131 90.4204 16.9343 89.7786 19.0408C89.1093 21.2351 89.3342 23.4897 90.1955 25.5908C90.6289 26.6495 91.15 27.6698 91.4901 28.767C91.8138 29.8093 91.8906 30.857 91.6602 31.9377C90.6947 36.4634 86.1964 39.6231 86.2403 44.4725C86.2568 46.4364 87.0357 48.4716 88.7418 49.5632C88.7857 49.5906 88.835 49.629 88.8844 49.651C89.0874 49.7497 88.8515 49.64 88.8679 49.6071C88.8734 49.6071 88.8789 49.6181 88.8789 49.6181C88.9009 49.6345 88.9173 49.651 88.9338 49.6674C89.0106 49.7388 89.0874 49.8046 89.1642 49.8759C89.9486 50.5781 90.7386 51.2693 91.534 51.9604C92.9548 53.1892 94.392 54.4016 95.8403 55.5975C97.7767 57.1938 99.7351 58.7572 101.721 60.2877C103.91 61.9773 106.131 63.623 108.392 65.2084C110.717 66.8431 113.087 68.412 115.523 69.8822C117.799 71.2591 120.136 72.5537 122.556 73.6673C124.679 74.6438 126.873 75.5215 129.16 76.0481C131.036 76.4815 133.006 76.6954 134.904 76.3114C135.853 76.1194 136.714 75.7244 137.548 75.2362C139.375 74.161 141.086 72.8609 142.617 71.3908C145.683 68.4504 148.08 64.7805 149.435 60.7485C150.181 58.5159 150.593 56.0363 149.989 53.7214C149.474 51.7301 148.179 50.1063 146.501 48.9543C143.341 46.782 139.369 46.2937 135.836 44.9827C134.054 44.3244 132.293 43.4576 130.609 42.4373C128.902 41.4005 127.394 40.2869 125.924 38.9758C122.951 36.3262 120.542 33.2707 118.694 29.7544C117.761 27.9825 117.053 26.26 116.477 24.329C115.797 22.058 115.452 19.6552 114.305 17.5542C112.495 14.2409 108.935 12.0137 105.221 11.5748C103.443 11.3609 101.644 11.6407 100.02 12.3977C99.6254 12.5842 99.5266 13.1492 99.7296 13.5058C99.9545 13.9062 100.426 13.9721 100.821 13.791Z" fill="#262626"/>
<path d="M67.529 66.843C67.529 66.843 77.5733 87.2333 89.0329 87.6447C95.6761 87.8806 99.9275 77.4194 99.9275 77.4194L94.2333 45.8657C77.5075 54.7087 91.3808 73.1351 85.6811 73.7769C83.3772 74.0347 73.0312 62.9372 73.0312 62.9372C71.3196 60.7155 66.1686 64.1111 67.529 66.843Z" fill="#FFC700"/>
<path d="M89.2576 87.9134C89.1808 87.9134 89.0985 87.9135 89.0217 87.908C84.1833 87.7324 79.0542 84.1503 73.766 77.2493C69.8547 72.1421 67.3148 67.0185 67.2819 66.9581C66.4755 65.3344 67.6878 63.6064 69.158 62.6848C70.502 61.84 72.2794 61.5437 73.2339 62.7616C77.3591 67.183 84.0626 73.6836 85.648 73.508C86.0594 73.4642 86.3556 73.3105 86.5476 73.0472C87.1895 72.175 86.8 70.1124 86.3008 67.5012C85.072 61.083 83.2233 51.3788 94.1014 45.6298L94.4251 45.4597L100.202 77.4522L100.174 77.5236C100.004 77.9514 95.8788 87.9134 89.2576 87.9134ZM71.4565 62.4873C70.8037 62.4873 70.0741 62.7506 69.4487 63.1456C68.1761 63.941 67.1118 65.4002 67.7701 66.7222C67.8689 66.9252 77.8748 86.9754 89.0436 87.3704C89.1149 87.3704 89.1863 87.3759 89.2576 87.3759C95.2425 87.3759 99.2689 78.2861 99.6529 77.3864L94.0356 46.2771C83.8706 51.867 85.648 61.1982 86.8329 67.397C87.354 70.1398 87.771 72.3012 86.9865 73.3654C86.7012 73.7494 86.2734 73.9798 85.7138 74.0401C85.6809 74.0456 85.648 74.0456 85.6151 74.0456C83.0971 74.0456 73.8867 64.2482 72.8334 63.1181L72.817 63.1017C72.4823 62.6683 71.9941 62.4873 71.4565 62.4873Z" fill="#262626"/>
<path d="M68.0225 67.0405C68.0225 67.0405 68.6807 69.2019 71.8789 67.5836C75.0771 65.9653 72.998 63.0689 72.998 63.0689C72.998 63.0689 71.3029 61.8072 69.0428 63.7107C66.7882 65.6142 68.0225 67.0405 68.0225 67.0405Z" fill="#1A1A1A"/>
<path d="M89.4768 93.9753C89.4768 93.9753 82.2467 116.313 88.7802 145.886C110.937 142.875 124.234 151.328 137.422 139.808C128.085 115.095 147.543 106.263 125.655 93.0318C113.778 90.6565 89.4768 93.9753 89.4768 93.9753Z" fill="#F3F3F3"/>
<path d="M119.116 146.358C116.395 146.358 113.543 146.161 110.509 145.947C104.239 145.508 97.1404 145.014 88.8131 146.15L88.5663 146.183L88.5114 145.941C85.1267 130.631 85.4998 117.295 86.4049 108.809C87.3868 99.6037 89.1971 93.9425 89.2136 93.8876L89.2684 93.7285L89.4385 93.7066C89.6799 93.6737 113.921 90.4097 125.699 92.763L125.743 92.774L125.781 92.796C138.464 100.465 137.438 106.675 136.006 115.271C134.975 121.481 133.692 129.21 137.663 139.704L137.729 139.88L137.586 140C131.7 145.162 125.803 146.358 119.116 146.358ZM99.4663 144.921C103.454 144.921 107.124 145.179 110.553 145.415C120.866 146.133 129.023 146.698 137.104 139.726C133.165 129.183 134.454 121.426 135.485 115.189C136.873 106.812 137.883 100.756 125.551 93.2842C114.365 91.0734 91.8686 93.9315 89.6799 94.2222C89.3836 95.2042 87.8257 100.597 86.9425 108.891C86.0483 117.29 85.6808 130.461 88.9887 145.59C92.7134 145.091 96.1969 144.921 99.4663 144.921Z" fill="#262626"/>
<path d="M88.8024 96.4329C88.8024 96.4329 92.6478 97.8428 103.175 97.6398C114.267 97.4259 126.752 94.2387 126.665 93.7724C126.538 93.0976 125.129 93.0647 123.658 93.0373C115.671 92.9111 89.6746 93.4981 89.5649 93.4981C89.4332 93.5036 88.8024 96.4329 88.8024 96.4329Z" fill="#1A1A1A"/>
<path d="M91.4079 56.7713C88.7199 59.2179 87.919 81.4459 87.0413 95.599C87.0413 95.599 113.049 98.6545 126.533 93.1085C124.399 86.1965 124.399 50.3201 121.837 48.5263C119.275 46.7325 112.544 44.2639 112.544 44.2639L99.2524 44.3627C99.2524 44.3627 96.0049 44.9167 93.5692 46.2278" fill="#FFC700"/>
<path d="M102.889 96.6908C94.233 96.6908 87.1455 95.8789 87.0138 95.8624L86.7615 95.835L86.7779 95.5826C86.9096 93.4761 87.0358 91.216 87.1674 88.8188C87.9628 74.7151 88.8625 58.7298 91.2268 56.5739L91.5889 56.9744C89.3836 58.9821 88.4511 75.5434 87.705 88.8517C87.5734 91.1502 87.4527 93.328 87.3265 95.3632C90.0309 95.654 113.592 98.0018 126.209 92.955C125.271 89.5813 124.766 80.8152 124.234 71.5553C123.922 66.1465 123.598 60.5565 123.186 56.3051C122.627 50.5397 122.062 49.0147 121.683 48.7513C119.292 47.0782 113.093 44.7578 112.495 44.5383L99.2743 44.6371C98.9946 44.6864 95.961 45.246 93.6954 46.4693L93.4376 45.9975C95.8842 44.681 99.0659 44.1269 99.203 44.105L99.2469 44.0995L112.588 44.0007L112.632 44.0172C112.906 44.1159 119.429 46.5187 121.991 48.3125C123.389 49.2889 123.971 57.7314 124.766 71.5224C125.287 80.5628 125.825 89.9104 126.791 93.0318L126.862 93.2677L126.637 93.3609C120.208 95.9996 110.882 96.6908 102.889 96.6908Z" fill="#262626"/>
<path d="M112.906 44.434C109.598 47.6541 103.202 48.6306 97.6506 45.2788C99.7681 43.7538 101.759 40.051 101.529 37.3794C101.304 34.7134 101.024 34.1758 101.024 34.1758C99.6419 34.6476 98.2102 34.9383 97.7329 34.8944C96.8003 34.8121 92.4776 30.654 94.2605 24.2138C93.882 23.2264 94.2056 21.8769 94.1288 20.5768C94.5622 20.3683 97.1898 20.3958 98.1827 18.4319C99.0988 21.2735 100.958 23.8024 103.405 25.5249C104.645 26.3971 106.033 27.0554 107.486 27.4778C109.313 28.4872 109.138 28.2732 109.834 28.6188C109.747 29.2716 109.083 34.2691 109.099 35.1468C109.182 41.2523 109.182 41.2523 109.182 41.2523C109.182 41.2523 109.346 42.7829 112.906 44.434Z" fill="#F3F3F3"/>
<path d="M104.979 47.6377C102.39 47.6377 99.8338 46.9136 97.5078 45.5148L97.1568 45.3063L97.4859 45.0704C99.4498 43.6551 101.479 40.0784 101.255 37.4124C101.106 35.6789 100.942 34.867 100.849 34.5269C99.5705 34.9438 98.2265 35.2236 97.7053 35.1742C97.1513 35.1249 96.1419 34.2307 95.3575 33.1006C94.3426 31.6305 92.8176 28.5366 93.9751 24.2413C93.7501 23.583 93.7886 22.8205 93.8324 22.0141C93.8599 21.5533 93.8818 21.0705 93.8544 20.6097L93.8434 20.4287L94.008 20.3519C94.1341 20.2916 94.3316 20.2587 94.6224 20.2038C95.5275 20.0447 97.2171 19.7485 97.9357 18.3277L98.232 17.7407L98.4349 18.3661C99.3401 21.1638 101.156 23.6324 103.553 25.3219C104.76 26.1722 106.109 26.814 107.558 27.2364L107.612 27.2584C108.814 27.9222 109.132 28.0483 109.412 28.158C109.56 28.2184 109.703 28.2732 109.949 28.3939L110.119 28.4817L110.092 28.6737C109.884 30.2207 109.346 34.4062 109.357 35.1578L109.439 41.2414C109.461 41.3511 109.807 42.7116 113.016 44.1982L113.372 44.3628L113.093 44.637C111.37 46.3157 108.902 47.3689 106.142 47.5993C105.758 47.6213 105.369 47.6377 104.979 47.6377ZM98.1277 45.2514C103.52 48.3125 109.384 47.1989 112.429 44.5054C109.121 42.8707 108.913 41.3511 108.907 41.2853V41.2579L108.825 35.1523C108.814 34.2965 109.406 29.7928 109.538 28.7779C109.412 28.7176 109.319 28.6847 109.214 28.6408C108.918 28.5256 108.583 28.3939 107.377 27.7247C105.884 27.2858 104.491 26.6166 103.246 25.7389C100.909 24.0931 99.1042 21.7343 98.1113 19.0463C97.1842 20.2806 95.6098 20.5549 94.7211 20.7085C94.6114 20.7249 94.5017 20.7469 94.4084 20.7688C94.4194 21.1912 94.3975 21.6136 94.3755 22.0196C94.3316 22.804 94.2932 23.5391 94.5127 24.1096L94.5456 24.1919L94.5236 24.2797C93.3826 28.4049 94.8418 31.3727 95.8073 32.777C96.6685 34.0168 97.5188 34.5982 97.7602 34.6202C98.1881 34.6586 99.565 34.3843 100.942 33.9125L101.161 33.8357L101.266 34.0442C101.298 34.1045 101.573 34.7025 101.798 37.3521C102.028 40.0565 100.108 43.6112 98.1277 45.2514Z" fill="#262626"/>
<path d="M132.94 103.257C132.94 103.257 133.971 109.785 133.873 112.281C133.774 114.777 131.98 118.485 130.378 118.233C128.776 117.981 128.332 113.817 128.776 111.261C127.816 112.478 126.599 111.963 126.538 111.261C126.472 110.558 128.03 104.349 128.162 102.747C130.976 102.555 132.94 103.257 132.94 103.257Z" fill="#F3F3F3"/>
<path d="M130.537 118.518C130.472 118.518 130.4 118.513 130.335 118.502C129.951 118.441 129.616 118.205 129.331 117.805C128.464 116.593 128.201 114.009 128.409 111.968C127.992 112.243 127.526 112.33 127.092 112.204C126.632 112.067 126.308 111.705 126.27 111.283C126.237 110.909 126.527 109.522 127.01 107.289C127.394 105.517 127.828 103.504 127.888 102.725L127.904 102.494L128.135 102.478C130.976 102.286 132.94 102.977 133.023 103.005L133.171 103.059L133.198 103.219C133.242 103.487 134.235 109.801 134.136 112.297C134.054 114.349 132.896 117.037 131.662 118.052C131.289 118.359 130.911 118.518 130.537 118.518ZM129.226 110.257L129.045 111.304C128.694 113.312 128.903 116.274 129.769 117.492C129.967 117.772 130.186 117.931 130.422 117.97C130.697 118.013 130.998 117.898 131.327 117.629C132.441 116.713 133.527 114.162 133.604 112.27C133.692 110.048 132.858 104.486 132.699 103.46C132.211 103.312 130.581 102.884 128.404 102.999C128.288 103.915 127.91 105.687 127.537 107.404C127.18 109.055 126.774 110.926 126.807 111.233C126.824 111.431 127.005 111.612 127.246 111.688C127.679 111.815 128.173 111.595 128.568 111.096L129.226 110.257Z" fill="#262626"/>
<path d="M120.839 47.9448C120.839 47.9448 129.544 51.8177 133.214 67.9895C137.279 85.9003 133.582 103.976 133.582 103.976L127.312 103.515C127.312 103.515 128.08 90.5192 124.541 81.3197C121.974 74.7643 119.248 70.4361 119.248 70.4361" fill="#FFC700"/>
<path d="M133.796 104.261L127.021 103.762L127.038 103.499C127.043 103.367 127.762 90.4536 124.284 81.4186C121.76 74.9675 119.039 70.6228 119.012 70.5789L119.467 70.2937C119.495 70.3376 122.238 74.7206 124.783 81.2212C128.025 89.6417 127.668 101.359 127.586 103.263L133.357 103.685C133.763 101.518 136.703 84.6003 132.946 68.0445C131.07 59.7666 127.844 54.8076 125.469 52.1031C122.901 49.1793 120.745 48.1918 120.724 48.1863L120.943 47.6926C121.036 47.731 123.203 48.7185 125.847 51.7191C128.272 54.4675 131.563 59.5143 133.472 67.9238C137.499 85.681 133.878 103.839 133.84 104.02L133.796 104.261Z" fill="#262626"/>
<path d="M90.5027 68.0556C91.2707 70.9959 99.9326 71.3196 100.75 66.8433L90.5027 68.0556Z" fill="#FFC700"/>
<path d="M95.1875 70.5075C92.9877 70.5075 90.6563 69.7176 90.2394 68.1212L90.7605 67.9841C91.0787 69.2019 93.1194 70.0522 95.5056 69.9644C97.6451 69.8821 100.075 69.0099 100.481 66.7937L101.013 66.8924C100.552 69.4213 97.8809 70.4143 95.5276 70.5075C95.4124 70.5075 95.3027 70.5075 95.1875 70.5075Z" fill="#262626"/>
<path d="M104.651 66.2122C104.651 66.2122 106.055 72.5975 114.311 69.904L104.651 66.2122Z" fill="#FFC700"/>
<path d="M110.586 70.8366C109.313 70.8366 108.189 70.5623 107.223 70.0083C104.947 68.7082 104.415 66.3713 104.393 66.2671L104.919 66.1519L104.656 66.2122L104.919 66.1519C104.925 66.1738 105.435 68.3681 107.497 69.542C109.204 70.513 111.464 70.5459 114.228 69.6462L114.393 70.1564C113.005 70.6117 111.732 70.8366 110.586 70.8366Z" fill="#262626"/>
<path d="M72.9049 64.0237C72.9049 64.0237 68.0391 55.4495 67.2107 56.4699C66.3769 57.4957 66.7006 58.8397 66.7006 58.8397C66.7006 58.8397 60.4908 53.6557 57.0348 55.1917C53.5788 56.7277 56.4588 63.1295 59.273 64.0237C62.0871 64.9178 68.9387 65.8778 69.7671 67.1615C71.912 66.5581 73.3986 64.5284 72.9049 64.0237Z" fill="#F3F3F3"/>
<path d="M69.6517 67.4741L69.542 67.3096C69.0483 66.547 65.6965 65.812 63.0085 65.2195C61.5329 64.8959 60.145 64.5886 59.1905 64.2869C57.2705 63.678 55.3286 60.7103 55.1914 58.1759C55.1037 56.6289 55.7235 55.4824 56.9249 54.9503C59.9475 53.6063 64.7914 57.0239 66.3658 58.2362C66.3603 57.7096 66.47 56.9526 67.0021 56.3053C67.1118 56.1736 67.2654 56.1078 67.4355 56.1242C68.6917 56.2285 72.0928 62.0433 73.1296 63.87C73.2393 63.9962 73.3326 64.2156 73.2338 64.5777C72.976 65.5486 71.5223 66.953 69.8437 67.4247L69.6517 67.4741ZM58.4938 55.1752C58.0111 55.1752 57.5503 55.2575 57.1388 55.4385C55.8771 55.9981 55.6742 57.2214 55.7235 58.143C55.8497 60.4415 57.649 63.2282 59.3496 63.7658C60.2767 64.062 61.659 64.3637 63.1182 64.6874C66.6565 65.4664 69.0922 66.0533 69.8547 66.8488C71.3523 66.366 72.5152 65.1372 72.7017 64.4296C72.7346 64.2979 72.7237 64.2266 72.7072 64.2101L72.6798 64.1827L72.6633 64.1498C70.6336 60.5676 68.0608 56.7112 67.3971 56.6509C66.673 57.5615 66.9473 58.7574 66.9527 58.7738L67.1392 59.5638L66.5194 59.0426C66.47 59.0042 61.8401 55.1752 58.4938 55.1752Z" fill="#262626"/>
<path d="M113.62 208.33C112.347 209.438 110.795 208.851 109.582 207.639C108.655 209.91 100.997 216.515 100.997 216.515C100.997 216.515 110.498 217.305 116.335 210.431C117.641 214.145 117.641 214.145 117.641 214.145L119.149 214.035C119.149 214.035 118.376 207.557 117.224 203.294C116.077 204.901 115.216 206.926 113.62 208.33Z" fill="#262626"/>
<path d="M101.831 216.805C101.304 216.805 100.992 216.783 100.975 216.783L100.333 216.729L100.821 216.312C100.898 216.246 108.447 209.729 109.335 207.54L109.489 207.162L109.774 207.452C110.394 208.078 111.99 209.394 113.439 208.132C114.481 207.216 115.21 206.009 115.918 204.836C116.264 204.265 116.62 203.678 116.999 203.14L117.328 202.68L117.476 203.228C118.623 207.458 119.402 213.942 119.407 214.008L119.44 214.287L117.443 214.436L116.22 210.958C111.403 216.312 104.266 216.805 101.831 216.805ZM101.688 216.262C103.932 216.284 111.338 215.889 116.127 210.25L116.428 209.893L117.822 213.86L118.842 213.783C118.688 212.559 118.03 207.589 117.108 203.93C116.862 204.303 116.626 204.698 116.379 205.104C115.649 206.306 114.898 207.551 113.795 208.522C112.627 209.542 111.102 209.367 109.659 208.072C108.436 210.25 103.35 214.809 101.688 216.262Z" fill="#262626"/>
<path d="M102.917 33.4846L100.986 33.9948L101.249 34.7354L102.917 33.4846Z" fill="#1A1A1A"/>
<path d="M184.621 103.877L180.27 104.903L175.075 94.2772L180.687 93.6409L184.621 103.877Z" fill="#F3F3F3"/>
<path d="M180.122 105.21L174.664 94.0521L180.863 93.3445L184.983 104.064L180.122 105.21ZM175.487 94.502L180.419 104.585L184.259 103.68L180.512 93.926L175.487 94.502Z" fill="#262626"/>
<path d="M195.707 91.9292L180.687 93.6408L175.075 94.2826L168.367 95.0451L165.805 89.3509L186.53 72.0601C183.842 75.0278 187.649 82.801 187.649 82.801C187.649 82.801 191.895 91.7646 195.707 91.9292Z" fill="#F3F3F3"/>
<path d="M168.202 95.3302L165.476 89.2685L186.36 71.8459L186.733 72.2354C184.198 75.0331 187.857 82.6034 187.896 82.6802C187.939 82.7734 192.114 91.5067 195.724 91.6603L195.74 92.1979L168.202 95.3302ZM166.134 89.4221L168.531 94.7542L194.319 91.8193C190.847 90.1078 187.561 83.2452 187.407 82.9161C187.27 82.6363 184.412 76.7282 185.581 73.2064L166.134 89.4221Z" fill="#262626"/>
<path d="M188.142 71.1054C187.769 71.2097 187.446 71.3523 187.166 71.5278L186.535 72.0544C184.939 73.8154 185.63 77.2713 186.458 79.7893C187.023 81.5118 187.654 82.7954 187.654 82.7954C187.654 82.7954 191.895 91.7645 195.713 91.9291L196.464 91.8413C202.372 90.3931 193.623 69.6133 188.142 71.1054ZM194.956 82.8832C192.493 83.8761 190.413 79.2023 192.685 78.341C195.06 77.4359 196.958 82.0768 194.956 82.8832Z" fill="#F3F3F3"/>
<path d="M195.718 92.2035H195.696C191.763 92.0335 187.583 83.2893 187.407 82.9163C187.385 82.8669 186.766 81.5997 186.201 79.8772C185.334 77.2496 184.659 73.7278 186.332 71.8791L186.36 71.8516L187.018 71.3031C187.325 71.1111 187.676 70.9575 188.071 70.8478C189.256 70.5241 190.655 71.1275 192.109 72.5977C195.861 76.3828 199.695 85.6865 198.478 90.0202C198.154 91.1667 197.496 91.8744 196.525 92.1103L196.492 92.1158L195.718 92.2035ZM186.716 72.2521C185.23 73.9143 185.893 77.2221 186.711 79.7071C187.265 81.3912 187.885 82.6639 187.89 82.6804C187.934 82.7736 192.092 91.4739 195.696 91.6605L196.409 91.5782C197.166 91.3862 197.688 90.8102 197.951 89.8666C199.015 86.0815 195.641 76.9204 191.719 72.9707C190.809 72.0491 189.454 71.0233 188.203 71.3634C187.868 71.4567 187.566 71.5828 187.314 71.7419L186.716 72.2521ZM194.27 83.2893C193.776 83.2893 193.283 83.1083 192.827 82.7517C191.884 82.0002 191.297 80.6123 191.467 79.5206C191.571 78.8349 191.971 78.3248 192.586 78.0889C193.974 77.5622 195.252 78.6868 195.795 80.0747C196.344 81.479 196.042 82.7407 195.054 83.1357C194.797 83.2399 194.533 83.2893 194.27 83.2893ZM193.288 78.4948C193.123 78.4948 192.953 78.5222 192.783 78.5881C192.345 78.7526 192.081 79.0927 192.004 79.5974C191.867 80.4971 192.377 81.6985 193.167 82.3238C193.546 82.6255 194.144 82.9163 194.862 82.631C195.674 82.3074 195.658 81.1773 195.301 80.2667C194.923 79.3122 194.155 78.4948 193.288 78.4948Z" fill="#262626"/>
<path d="M186.53 72.3233C186.458 72.3233 186.387 72.2958 186.338 72.241C186.239 72.1367 186.239 71.9777 186.332 71.8734C186.53 71.6485 186.765 71.4565 187.023 71.2974C187.144 71.2206 187.303 71.2536 187.385 71.3688C187.468 71.484 187.446 71.643 187.341 71.7308L186.711 72.2574C186.656 72.3068 186.59 72.3233 186.53 72.3233Z" fill="#1A1A1A"/>
<path d="M195.828 92.2034C195.784 92.2034 195.74 92.2034 195.696 92.1979C195.554 92.1925 195.444 92.0773 195.438 91.9401C195.433 91.7975 195.537 91.6823 195.674 91.6658L196.426 91.5781C196.563 91.5616 196.695 91.6549 196.722 91.792C196.749 91.9291 196.667 92.0663 196.535 92.1047C196.305 92.1705 196.069 92.2034 195.828 92.2034Z" fill="#1A1A1A"/>
<path d="M194.778 82.692L190.362 86.8523L190.73 87.2436L195.146 83.0834L194.778 82.692Z" fill="#262626"/>
<path d="M192.629 78.074L186.4 79.5266L186.522 80.0502L192.751 78.5976L192.629 78.074Z" fill="#262626"/>
<path d="M194.956 82.8833C192.493 83.8762 190.414 79.2024 192.685 78.3411C195.06 77.436 196.958 82.0769 194.956 82.8833Z" fill="#F3F3F3"/>
<path d="M194.27 83.289C193.776 83.289 193.283 83.108 192.827 82.7514C191.884 81.9998 191.297 80.612 191.467 79.5203C191.571 78.8346 191.971 78.3244 192.586 78.0886C193.974 77.5619 195.252 78.6865 195.795 80.0744C196.344 81.4787 196.042 82.7404 195.054 83.1354C194.797 83.2396 194.533 83.289 194.27 83.289ZM193.288 78.4945C193.123 78.4945 192.953 78.5219 192.783 78.5878C192.344 78.7523 192.081 79.0924 192.004 79.5971C191.867 80.4968 192.377 81.6981 193.167 82.3235C193.546 82.6252 194.144 82.916 194.862 82.6307C195.674 82.307 195.658 81.177 195.301 80.2664C194.923 79.3119 194.155 78.4945 193.288 78.4945Z" fill="#262626"/>
<path d="M194.956 69.5421C194.884 69.5421 194.813 69.5147 194.764 69.4598C194.682 69.372 194.66 69.2404 194.72 69.1361C194.972 68.6918 199.992 64.2374 200.996 63.3487C201.05 63.2994 201.127 63.2719 201.204 63.2829C201.281 63.2884 201.347 63.3323 201.39 63.3926L202.586 65.0164C202.63 65.0767 202.647 65.159 202.63 65.2358C202.614 65.3126 202.564 65.3784 202.499 65.4114L195.087 69.5092C195.049 69.5311 195.005 69.5421 194.956 69.5421ZM201.133 63.9522C199.706 65.2194 197.814 66.9144 196.552 68.0829L201.972 65.0877L201.133 63.9522Z" fill="#1A1A1A"/>
<path d="M207.748 77.2222C207.743 77.2222 207.732 77.2222 207.726 77.2222L200.985 76.6242C200.858 76.6133 200.754 76.5145 200.743 76.3883C200.727 76.2622 200.804 76.1415 200.919 76.1031L206.975 73.9692C207.046 73.9417 207.123 73.9527 207.194 73.9856C207.26 74.024 207.31 74.0844 207.326 74.1557L208.006 76.8875C208.028 76.9698 208.006 77.0631 207.951 77.1289C207.902 77.1893 207.825 77.2222 207.748 77.2222ZM202.268 76.1963L207.397 76.6517L206.876 74.5726L202.268 76.1963Z" fill="#1A1A1A"/>
<path d="M207.748 91.2161C207.683 91.2161 207.617 91.1887 207.567 91.1448L203.299 87.239C203.212 87.1567 203.184 87.0251 203.239 86.9208C203.294 86.8111 203.415 86.7563 203.53 86.7782L209.164 87.8644C209.246 87.8808 209.317 87.9357 209.356 88.007C209.394 88.0838 209.394 88.1716 209.356 88.2429L207.99 91.057C207.951 91.1338 207.88 91.1887 207.798 91.2052C207.781 91.2161 207.765 91.2161 207.748 91.2161ZM204.369 87.4913L207.666 90.5085L208.719 88.3307L204.369 87.4913Z" fill="#1A1A1A"/>
<path d="M190.54 65.7845C190.534 65.7845 190.529 65.7845 190.518 65.7845C190.386 65.7735 190.282 65.6693 190.271 65.5376L189.728 59.3059C189.722 59.2291 189.744 59.1578 189.799 59.1029C189.848 59.0481 189.92 59.0151 189.997 59.0151H191.999C192.081 59.0151 192.158 59.0535 192.207 59.1194C192.257 59.1852 192.279 59.2675 192.257 59.3498L190.797 65.5815C190.776 65.7022 190.666 65.7845 190.54 65.7845ZM190.293 59.5582L190.666 63.8151L191.664 59.5582H190.293Z" fill="#1A1A1A"/>
<path d="M30.9685 126.329L6.21143 132.59L11.3429 152.88L36.1 146.619L30.9685 126.329Z" fill="#F3F3F3"/>
<path d="M11.1526 153.199L5.88635 132.386L31.1644 125.99L36.4307 146.802L11.1526 153.199ZM6.54464 132.781L11.5476 152.546L35.7833 146.413L30.7804 126.648L6.54464 132.781Z" fill="#262626"/>
<path d="M36.107 146.61L41.9273 141.262L36.7982 120.976L30.9724 126.319L36.107 146.61Z" fill="#F3F3F3"/>
<path d="M35.9589 147.115L30.6761 126.231L36.9463 120.471L42.229 141.355L35.9589 147.115ZM31.2741 126.412L36.2551 146.106L41.6256 141.174L36.6446 121.481L31.2741 126.412Z" fill="#262626"/>
<path d="M6.21558 132.584L15.8649 126.27L36.7983 120.976L30.9725 126.319L6.21558 132.584Z" fill="#F3F3F3"/>
<path d="M4.72314 133.236L15.7549 126.017L37.7634 120.449L31.1038 126.56L31.038 126.577L4.72314 133.236ZM15.9743 126.522L7.71284 131.931L30.846 126.078L35.8325 121.497L15.9743 126.522Z" fill="#262626"/>
<path d="M17.0144 131.968L8.8241 134.039L9.65536 137.326L17.8457 135.255L17.0144 131.968Z" fill="#F3F3F3"/>
<path d="M9.46853 137.652L8.50305 133.84L17.2143 131.635L18.1798 135.447L9.46853 137.652ZM9.15585 134.229L9.85802 136.994L17.527 135.052L16.8248 132.287L9.15585 134.229Z" fill="#262626"/>
<path d="M193.731 130.217L185.754 139.814L197.464 149.548L205.442 139.951L193.731 130.217Z" fill="#F3F3F3"/>
<path d="M197.507 149.929L185.383 139.852L193.705 129.841L205.828 139.918L197.507 149.929ZM186.14 139.781L197.435 149.172L205.066 139.989L193.771 130.598L186.14 139.781Z" fill="#262626"/>
<path d="M197.474 149.551L202.092 150.478L210.069 140.884L205.45 139.951L197.474 149.551Z" fill="#F3F3F3"/>
<path d="M202.197 150.774L196.974 149.726L205.346 139.66L210.568 140.708L202.197 150.774ZM197.967 149.375L201.988 150.182L209.575 141.054L205.554 140.247L197.967 149.375Z" fill="#262626"/>
<path d="M193.738 130.219L200.167 132.655L210.069 140.884L205.45 139.951L193.738 130.219Z" fill="#F3F3F3"/>
<path d="M211.062 141.355L205.329 140.203L192.328 129.396L200.304 132.414L211.062 141.355ZM205.571 139.704L209.082 140.412L200.036 132.891L195.153 131.042L205.571 139.704Z" fill="#262626"/>
<path d="M193.948 131.982L192.654 133.539L196.527 136.757L197.821 135.201L193.948 131.982Z" fill="#F3F3F3"/>
<path d="M196.574 137.142L192.284 133.577L193.919 131.607L198.209 135.173L196.574 137.142ZM193.041 133.511L196.503 136.385L197.452 135.244L193.99 132.37L193.041 133.511Z" fill="#262626"/>
<path d="M30.4675 103.658L24.3564 93.0208C24.1754 92.7081 24.2851 92.3077 24.5978 92.1321L44.9278 80.4531C45.2404 80.2721 45.6409 80.3818 45.8164 80.6945L50.2379 88.3964C50.4189 88.7091 50.3092 89.1095 49.9965 89.2851L32.0693 99.5817C31.8718 99.6969 31.7457 99.9054 31.7402 100.136L31.6798 103.35C31.6743 104.009 30.8021 104.228 30.4675 103.658Z" fill="#F3F3F3"/>
<path d="M31.0326 104.255C30.709 104.255 30.4073 104.085 30.2372 103.789L24.1261 93.1524C24.0055 92.9384 23.9725 92.6916 24.0329 92.4502C24.0987 92.2143 24.2523 92.0114 24.4663 91.8907L44.7962 80.2116C45.2351 79.9593 45.8001 80.1129 46.0524 80.5518L50.4739 88.2537C50.7262 88.6925 50.5726 89.2575 50.1338 89.5099L32.2066 99.8065C32.0914 99.8723 32.0146 99.9985 32.0146 100.13L31.9542 103.345C31.9487 103.762 31.669 104.118 31.263 104.222C31.1862 104.244 31.1094 104.255 31.0326 104.255ZM45.2515 80.634C45.1857 80.634 45.1199 80.6505 45.0595 80.6834L24.7296 92.3624C24.6418 92.4118 24.576 92.4941 24.5485 92.5928C24.5211 92.6916 24.5376 92.7958 24.5869 92.8836L30.698 103.52C30.8077 103.707 30.9887 103.734 31.1259 103.701C31.263 103.668 31.4111 103.553 31.4111 103.339L31.4715 100.125C31.477 99.801 31.6525 99.5048 31.9323 99.3402L49.8595 89.0436C49.9473 88.9942 50.0131 88.9119 50.0405 88.8132C50.068 88.7145 50.0515 88.6102 50.0021 88.5225L45.5862 80.826C45.5148 80.6999 45.3832 80.634 45.2515 80.634Z" fill="#262626"/>
<path d="M29.085 92.1761L44.0609 83.6897L44.5765 84.5016L29.5128 93.1196L29.085 92.1761Z" fill="#F3F3F3"/>
<path d="M29.3922 93.4981L28.7449 92.0609L44.1597 83.3276L44.9606 84.5948L29.3922 93.4981ZM29.4306 92.2858L29.6336 92.7356L44.1926 84.4028L43.9677 84.0463L29.4306 92.2858Z" fill="#262626"/>
<path d="M30.6541 94.9245L45.63 86.4436L46.1456 87.25L31.0819 95.8735L30.6541 94.9245Z" fill="#F3F3F3"/>
<path d="M30.9557 96.252L30.3083 94.8148L45.7231 86.0815L46.524 87.3487L30.9557 96.252ZM30.9995 95.0397L31.2025 95.4895L45.7615 87.1567L45.5366 86.8002L30.9995 95.0397Z" fill="#262626"/>
<path d="M160.786 129.605L156.293 117.01C156.161 116.642 156.238 116.351 156.468 116.362L171.411 117.202C171.642 117.213 171.932 117.525 172.064 117.893L175.317 127.01C175.449 127.378 175.372 127.668 175.142 127.657L161.965 126.922C161.817 126.917 161.729 127.032 161.724 127.23L161.68 130C161.669 130.565 161.027 130.285 160.786 129.605Z" fill="#F3F3F3"/>
<path d="M161.46 130.57C161.109 130.57 160.714 130.203 160.533 129.698L156.04 117.103C155.925 116.774 155.936 116.472 156.079 116.286C156.172 116.159 156.32 116.088 156.485 116.099L171.428 116.938C171.817 116.96 172.174 117.394 172.322 117.811L175.575 126.928C175.69 127.257 175.679 127.559 175.537 127.745C175.443 127.871 175.29 127.943 175.131 127.932L162.003 127.197C162.003 127.208 162.003 127.218 161.998 127.235L161.954 130.005C161.948 130.373 161.74 130.537 161.543 130.57C161.515 130.57 161.488 130.57 161.46 130.57ZM161.038 129.517C161.142 129.802 161.312 129.967 161.411 130.016C161.411 130.011 161.411 130 161.411 129.994L161.455 127.224C161.46 126.988 161.554 126.851 161.63 126.78C161.724 126.692 161.85 126.648 161.981 126.659L175.109 127.394C175.114 127.345 175.114 127.251 175.065 127.109L171.812 117.992C171.697 117.668 171.466 117.481 171.395 117.476L156.501 116.642C156.496 116.691 156.496 116.785 156.545 116.927L161.038 129.517Z" fill="#262626"/>
<path d="M43.2437 15.7331C43.1944 15.7331 43.145 15.7221 43.1011 15.6947L36.628 11.6956C36.5018 11.6188 36.4634 11.4542 36.5402 11.3226C36.617 11.1964 36.7816 11.158 36.9132 11.2348L43.3863 15.2339C43.5125 15.3107 43.5509 15.4752 43.4741 15.6069C43.4248 15.6892 43.337 15.7331 43.2437 15.7331Z" fill="#1A1A1A"/>
<path d="M35.5911 30.1823C35.4869 30.1823 35.3882 30.122 35.3443 30.0232C35.2839 29.8861 35.3443 29.727 35.4759 29.6667L42.4098 26.5288C42.547 26.4685 42.7061 26.5288 42.7664 26.6605C42.8267 26.7976 42.7664 26.9567 42.6347 27.0171L35.7008 30.1549C35.6624 30.1713 35.624 30.1823 35.5911 30.1823Z" fill="#1A1A1A"/>
<path d="M70.0796 15.7331C69.9918 15.7331 69.8985 15.6892 69.8492 15.6069C69.7724 15.4807 69.8108 15.3161 69.9369 15.2339L76.4101 11.2348C76.5362 11.158 76.7008 11.1964 76.7831 11.3226C76.8599 11.4487 76.8215 11.6133 76.6953 11.6956L70.2167 15.6947C70.1728 15.7221 70.1235 15.7331 70.0796 15.7331Z" fill="#1A1A1A"/>
<path d="M77.7321 30.1823C77.6937 30.1823 77.6553 30.1768 77.6224 30.1603L70.6885 27.0225C70.5514 26.9622 70.491 26.8031 70.5569 26.6659C70.6172 26.5288 70.7763 26.4685 70.9134 26.5343L77.8473 29.6721C77.9845 29.7324 78.0448 29.8915 77.979 30.0287C77.9351 30.1219 77.8364 30.1823 77.7321 30.1823Z" fill="#1A1A1A"/>
<path d="M56.9086 7.36179C56.7605 7.36179 56.6398 7.24111 56.6398 7.09299V0.2688C56.6398 0.120686 56.7605 0 56.9086 0C57.0567 0 57.1774 0.120686 57.1774 0.2688V7.09848C57.1774 7.24111 57.0567 7.36179 56.9086 7.36179Z" fill="#1A1A1A"/>
<path d="M17.143 174.763C21.7269 174.763 25.4428 171.047 25.4428 166.463C25.4428 161.879 21.7269 158.163 17.143 158.163C12.5591 158.163 8.84314 161.879 8.84314 166.463C8.84314 171.047 12.5591 174.763 17.143 174.763Z" fill="#F3F3F3"/>
<path d="M17.1427 175.032C12.4196 175.032 8.5741 171.186 8.5741 166.463C8.5741 161.74 12.4196 157.895 17.1427 157.895C21.8659 157.895 25.7114 161.74 25.7114 166.463C25.7114 171.186 21.8659 175.032 17.1427 175.032ZM17.1427 158.438C12.7158 158.438 9.11718 162.036 9.11718 166.463C9.11718 170.89 12.7158 174.489 17.1427 174.489C21.5697 174.489 25.1683 170.89 25.1683 166.463C25.1683 162.036 21.5697 158.438 17.1427 158.438Z" fill="#262626"/>
</svg>
